<?xml version="1.0" encoding="utf-8"?>
<!-- Generator: Adobe Illustrator 17.0.1, SVG Export Plug-In . SVG Version: 6.00 Build 0)  -->
<!DOCTYPE svg PUBLIC "-//W3C//DTD SVG 1.1//EN" "http://www.w3.org/Graphics/SVG/1.1/DTD/svg11.dtd">
<svg version="1.1" id="图层_1" xmlns="http://www.w3.org/2000/svg" xmlns:xlink="http://www.w3.org/1999/xlink" x="0px" y="0px"
	 width="120px" height="120px" viewBox="-12.5 -12.5 120 120" enable-background="new -12.5 -12.5 120 120" xml:space="preserve">
<path fill="#040000" d="M94.314,52.014L94.314,52.014c-0.062-0.146-0.146-0.277-0.215-0.419L77.966,14.787
	c-1.311-3.384-4.499-5.571-8.122-5.571H25.128c-3.623,0-6.811,2.187-8.097,5.509L0.641,52.123c-0.002,0.005-0.003,0.01-0.005,0.015
	c-0.005,0.011-0.011,0.021-0.016,0.032l0.005,0.002c0,0,0,0.001,0,0.001L0.62,52.171C0.208,53.201,0,54.289,0,55.406v21.663
	c0,4.805,3.909,8.715,8.715,8.715h77.57c4.806,0,8.715-3.91,8.715-8.715V55.406C95,54.231,94.769,53.09,94.314,52.014z
	 M19.878,15.899c0.848-2.189,2.909-3.603,5.25-3.603h44.715c2.342,0,4.402,1.415,5.275,3.665l13.624,31.088
	c-0.786-0.23-1.61-0.358-2.457-0.358H8.715c-0.861,0-1.696,0.131-2.49,0.365L19.878,15.899z M91.92,77.069
	c0,3.107-2.528,5.635-5.635,5.635H72.371V63.985l9.312,9.312c0.301,0.301,0.695,0.451,1.089,0.451c0.394,0,0.789-0.151,1.088-0.451
	c0.602-0.602,0.602-1.576,0-2.178L71.919,59.178c-0.602-0.602-1.576-0.602-2.178,0L57.801,71.119c-0.602,0.602-0.602,1.576,0,2.178
	c0.301,0.301,0.695,0.451,1.089,0.451c0.394,0,0.789-0.151,1.088-0.451l9.312-9.312v18.719H8.715c-3.107,0-5.635-2.528-5.635-5.635
	V55.406c0-0.718,0.134-1.417,0.396-2.077l0.03-0.069c0.875-2.121,2.911-3.49,5.209-3.489h77.569c2.104,0,3.996,1.17,4.968,3.005
	l0.257,0.586c0.007,0.016,0.02,0.028,0.028,0.044c0.243,0.639,0.383,1.308,0.383,2V77.069z"/>
</svg>
