<?xml version="1.0" encoding="utf-8"?>
<!-- Generator: Adobe Illustrator 17.0.1, SVG Export Plug-In . SVG Version: 6.00 Build 0)  -->
<!DOCTYPE svg PUBLIC "-//W3C//DTD SVG 1.1//EN" "http://www.w3.org/Graphics/SVG/1.1/DTD/svg11.dtd">
<svg version="1.1" id="图层_1" xmlns="http://www.w3.org/2000/svg" xmlns:xlink="http://www.w3.org/1999/xlink" x="0px" y="0px"
	 width="120px" height="120px" viewBox="-12.5 -12.5 120 120" enable-background="new -12.5 -12.5 120 120" xml:space="preserve">
<g id="图层_1_1_">
</g>
<path fill="#040000" d="M93.574,84.176l-9.243-10.242l4.638-4.139c0.94-0.839,1.396-1.952,1.254-3.055
	c-0.143-1.103-0.869-2.063-1.991-2.635l-14.526-7.392c0.01-0.02,0.023-0.037,0.032-0.058c0.723-1.709,1.273-3.468,1.665-5.264
	c0.085,0.008,0.167,0.028,0.254,0.028h12.715c1.428,0,2.59-1.074,2.589-2.394v-8.539c0-1.32-1.162-2.394-2.59-2.394H75.657
	c-0.12,0-0.235,0.018-0.35,0.033c-0.591-2.531-1.5-4.941-2.687-7.183c0.173-0.104,0.34-0.223,0.492-0.367l9.226-8.748
	c0.462-0.436,0.758-1.011,0.836-1.616c0.091-0.71-0.129-1.403-0.602-1.902l-5.875-6.198c-0.885-0.932-2.517-0.912-3.526,0.045
	l-9.185,8.707c-3.094-2.309-6.647-4.036-10.494-5.02c0.028-0.157,0.055-0.315,0.056-0.478l0.071-12.713
	c0.005-0.722-0.27-1.418-0.755-1.908c-0.44-0.446-1.018-0.693-1.624-0.696L42.687,0c-1.314,0-2.389,1.156-2.396,2.576L40.219,15.29
	c0,0.065,0.013,0.125,0.017,0.189c-3.187,0.628-6.193,1.763-8.934,3.314c-0.052-0.065-0.097-0.134-0.156-0.196l-8.799-9.178
	c-0.953-0.994-2.598-1.097-3.52-0.212l-6.164,5.91c-0.355,0.341-0.586,0.782-0.668,1.277c-0.131,0.793,0.142,1.633,0.732,2.249
	l8.72,9.096c-2.172,3.094-3.773,6.612-4.656,10.406c-0.287-0.102-0.595-0.164-0.921-0.164H3.155c-1.428,0-2.589,1.074-2.589,2.394
	v8.539c0,0.491,0.159,0.964,0.46,1.366c0.482,0.644,1.279,1.028,2.13,1.028h12.715c0.275,0,0.535-0.05,0.784-0.124
	c0.858,4.055,2.538,7.806,4.854,11.08l-8.786,8.331c-1.036,0.981-1.14,2.559-0.232,3.519l5.876,6.198
	c0.337,0.354,0.775,0.586,1.27,0.673c0.135,0.023,0.272,0.035,0.412,0.035c0.676,0,1.33-0.268,1.842-0.754l9.227-8.747
	c0.108-0.103,0.201-0.218,0.291-0.334c2.853,1.599,5.992,2.744,9.319,3.341c0,0.009-0.002,0.016-0.003,0.025l-0.071,12.714
	c-0.004,0.723,0.272,1.419,0.757,1.909c0.441,0.445,1.018,0.691,1.623,0.694l8.551,0.048c0.491,0,0.962-0.157,1.353-0.45
	c0.648-0.476,1.039-1.272,1.043-2.125l0.071-12.715c0.001-0.236-0.037-0.461-0.091-0.679c1.022-0.279,2.03-0.611,3.023-0.999
	l5.332,14.286c0.44,1.18,1.313,2.01,2.392,2.276c0.244,0.06,0.492,0.089,0.741,0.089c0.851,0,1.709-0.346,2.434-0.997l5.582-5.014
	l9.32,10.328c0.458,0.508,1.048,0.867,1.662,1.011C84.653,94.976,84.86,95,85.061,95c0.58,0,1.122-0.199,1.542-0.58l7.085-6.394
	C94.725,87.088,94.676,85.397,93.574,84.176z M15.427,48.276H3.599v-7.262h11.828V48.276z M76.1,41.124h11.829v7.262H76.1V41.124z
	 M66.35,22.801l8.584-8.138l4.996,5.27l-8.584,8.138l-2.282-2.408c-0.773-0.921-1.602-1.792-2.478-2.614L66.35,22.801z
	 M43.322,3.037l7.261,0.041l-0.066,11.828l-7.262-0.041L43.322,3.037z M15.222,16.864l5.242-5.026l8.186,8.538l-0.433,0.416
	c-1.792,1.326-3.427,2.849-4.884,4.532L15.222,16.864z M28.709,69.622l-8.584,8.138l-4.995-5.269l8.26-7.832
	c1.46,1.677,3.099,3.193,4.892,4.513L28.709,69.622z M50.95,86.88l-7.261-0.04l0.066-11.828l7.261,0.039L50.95,86.88z
	 M46.051,71.975c-5.881,0-11.325-1.895-15.765-5.097l-4.812-5.076c-0.268-0.282-0.607-0.465-0.974-0.573
	c-3.428-4.529-5.466-10.166-5.466-16.271c0-6.374,2.224-12.234,5.929-16.86c0.027-0.024,0.058-0.041,0.084-0.066l5.12-4.909
	c4.462-3.255,9.951-5.182,15.884-5.182c7.084,0,13.536,2.745,18.36,7.221l2.435,2.569c3.883,4.68,6.222,10.685,6.222,17.227
	c0,3.597-0.698,7.088-2.068,10.378l-8.178-4.162c0.695-1.911,1.063-3.913,1.063-5.968c0-9.633-7.837-17.47-17.47-17.47
	s-17.47,7.837-17.47,17.47s7.837,17.47,17.47,17.47c2.175,0,4.284-0.415,6.291-1.191l3.218,8.623
	C52.779,71.343,49.461,71.975,46.051,71.975z M47.945,48.732l3.701,9.916c-1.666,0.65-3.419,0.997-5.231,0.997
	c-7.961,0-14.438-6.477-14.438-14.438s6.477-14.438,14.438-14.438c7.96,0,14.437,6.477,14.437,14.438
	c0,1.573-0.265,3.108-0.758,4.579l-8.489-4.32c-1.721-0.875-2.748-0.319-3.207,0.091C47.939,45.967,47.269,46.925,47.945,48.732z
	 M84.97,91.81L73.775,79.406l-1.397,1.261l-0.089-0.1l-6.433,5.778c-0.209,0.187-0.38,0.238-0.425,0.219
	c-0.055-0.013-0.178-0.131-0.275-0.391l-14.01-37.54l35.71,18.174c0.249,0.127,0.351,0.262,0.359,0.322
	c0.007,0.06-0.057,0.216-0.266,0.403l-5.6,4.998l0.02,0.022l-1.306,1.179l11.195,12.404L84.97,91.81z"/>
</svg>
