<?xml version="1.0" encoding="utf-8"?>
<!-- Generator: Adobe Illustrator 17.0.1, SVG Export Plug-In . SVG Version: 6.00 Build 0)  -->
<!DOCTYPE svg PUBLIC "-//W3C//DTD SVG 1.1//EN" "http://www.w3.org/Graphics/SVG/1.1/DTD/svg11.dtd">
<svg version="1.1" id="图层_1" xmlns="http://www.w3.org/2000/svg" xmlns:xlink="http://www.w3.org/1999/xlink" x="0px" y="0px"
	 width="120px" height="120px" viewBox="-12.5 -12.5 120 120" enable-background="new -12.5 -12.5 120 120" xml:space="preserve">
<g id="图层_1_1_">
</g>
<g>
	<path d="M32.926,74.449h-6.497v-4.326h5.606c0.554,0,1.002-0.449,1.002-1.003c0-0.555-0.45-1.003-1.003-1.003h-2.93l4.373-7.191
		c0.289-0.473,0.138-1.091-0.336-1.378c-0.474-0.289-1.091-0.139-1.378,0.336l-4.994,8.212c-0.004,0.007-0.004,0.015-0.008,0.022
		h-3.396l-4.283-8.339c-0.253-0.493-0.857-0.688-1.35-0.433c-0.493,0.254-0.688,0.857-0.434,1.35l3.812,7.422h-2.603
		c-0.555,0-1.003,0.449-1.003,1.003c0,0.555,0.45,1.003,1.003,1.003h5.916v4.326h-6.497c-0.555,0-1.003,0.449-1.003,1.003
		c0,0.555,0.45,1.003,1.003,1.003h6.497v9.759c0,0.555,0.45,1.003,1.003,1.003c0.553,0,1.003-0.449,1.003-1.003v-9.759h6.497
		c0.553,0,1.002-0.448,1.003-1.003C33.929,74.897,33.479,74.449,32.926,74.449z"/>
	<path d="M79.168,58.559H60.624c-1.604,0-2.909,1.362-2.909,3.036v24.079c0,1.674,1.305,3.036,2.909,3.036h18.545
		c1.603,0,2.908-1.362,2.908-3.036V61.595C82.076,59.921,80.771,58.559,79.168,58.559z M80.071,85.675
		c0,0.569-0.405,1.03-0.903,1.03H60.624c-0.497,0-0.903-0.462-0.903-1.03V61.596c0-0.569,0.405-1.03,0.903-1.03v-0.001h18.545
		c0.498,0,0.903,0.462,0.903,1.03V85.675z"/>
	<path d="M64.704,67.536h7.654c0.554,0,1.002-0.449,1.003-1.003c0-0.555-0.449-1.003-1.003-1.003h-7.654
		c-0.555,0-1.003,0.449-1.003,1.003C63.701,67.087,64.15,67.536,64.704,67.536z"/>
	<path d="M72.861,69.896h-8.485c-0.555,0-1.003,0.449-1.003,1.003c0,0.555,0.449,1.003,1.003,1.003h8.485
		c0.555,0,1.003-0.449,1.003-1.003C73.864,70.345,73.416,69.896,72.861,69.896z"/>
	<path d="M79.165,50.374h-18.54c-5.75,0-10.72,3.343-13.109,8.179c-2.375-4.875-7.365-8.251-13.143-8.251H15.835
		c-8.065,0-14.626,6.561-14.626,14.626v28.496c0,0.831,0.674,1.504,1.504,1.504c0.055,0,0.107-0.01,0.16-0.016
		c0.053,0.006,0.105,0.016,0.16,0.016h44.037C47.209,94.971,47.352,95,47.504,95h44.783c0.623,0,1.158-0.379,1.386-0.919
		c0.076-0.18,0.118-0.378,0.118-0.586V65C93.791,56.935,87.23,50.374,79.165,50.374z M45.991,91.92H4.217V64.928
		c0-6.406,5.211-11.617,11.617-11.617h18.539c6.406,0,11.617,5.212,11.617,11.617V91.92z M90.782,91.991H49V65.087
		c0.002-0.029,0.009-0.057,0.009-0.086c0-6.406,5.211-11.617,11.617-11.617h18.54c6.406,0,11.617,5.211,11.617,11.617V91.991z"/>
	<path d="M69.83,44.236c12.176,0,22.082-9.904,22.082-22.081c0-12.177-9.905-22.082-22.082-22.082
		c-12.176,0-22.081,9.904-22.081,22.081S57.654,44.236,69.83,44.236z M69.83,3.081c10.516,0,19.074,8.556,19.074,19.073
		c0,10.516-8.556,19.073-19.074,19.073c-10.516,0-19.073-8.556-19.073-19.073C50.757,11.637,59.313,3.081,69.83,3.081z"/>
	<path d="M25.359,44.164c12.177,0,22.082-9.904,22.082-22.081C47.441,9.905,37.535,0,25.359,0S3.276,9.904,3.276,22.081
		C3.276,34.258,13.183,44.164,25.359,44.164z M25.359,3.009c10.518,0,19.073,8.556,19.073,19.073s-8.556,19.073-19.073,19.073
		c-10.517,0-19.073-8.556-19.073-19.073S14.842,3.009,25.359,3.009z"/>
</g>
</svg>
