<?xml version="1.0" encoding="UTF-8"?>
<svg width="15px" height="18px" viewBox="0 0 15 18" version="1.1" xmlns="http://www.w3.org/2000/svg" xmlns:xlink="http://www.w3.org/1999/xlink">
    <!-- Generator: Sketch 44.1 (41455) - http://www.bohemiancoding.com/sketch -->
    <title>Group 8</title>
    <desc>Created with Sketch.</desc>
    <defs></defs>
    <g id="Welcome" stroke="none" stroke-width="1" fill="none" fill-rule="evenodd">
        <g id="正常-copy-3" transform="translate(-822.000000, -361.000000)">
            <g id="8" transform="translate(793.000000, 343.000000)">
                <g id="Group-8" transform="translate(30.000000, 19.000000)">
                    <path d="M6.5,16 C2.91014913,16 0,13.0898509 0,9.5 C0,7.10676608 2.16666667,3.94009942 6.5,0 C10.8333333,3.94009942 13,7.10676608 13,9.5 C13,13.0898509 10.0898509,16 6.5,16 Z" id="Combined-Shape" stroke="#6C777A"></path>
                    <path d="M7.53800607,10.215709 L6.9752263,10.7599338 L6.9752263,6.36691763 C6.9752263,6.10293174 6.75190562,5.8869927 6.47899688,5.8869927 C6.2060106,5.8869927 5.9827093,6.10293174 5.9827093,6.36691763 L5.9827093,10.7589778 L5.41998769,10.2147529 C5.22605539,10.0286206 4.91309625,10.0286206 4.71924149,10.2147529 C4.52666617,10.4022913 4.52666617,10.7048759 4.71924149,10.8924329 L6.12263367,12.2496114 L6.12664646,12.2562851 C6.16807322,12.2944339 6.21616859,12.3253278 6.26856753,12.3475235 C6.27552692,12.3503729 6.27946217,12.3561656 6.28644094,12.359015 C6.3470981,12.3836852 6.41221391,12.3964327 6.47800822,12.3964327 L6.47998554,12.3964327 C6.5457023,12.3960203 6.61075996,12.383254 6.6715722,12.359015 C6.67845405,12.3561656 6.68246684,12.3503729 6.68944561,12.3475235 C6.74184455,12.3253278 6.78984299,12.2944339 6.8313473,12.2562851 L6.83528255,12.2496114 L8.23875227,10.8924329 C8.41035251,10.7021576 8.4002139,10.4157699 8.21543154,10.2373798 C8.03066857,10.0589334 7.73459418,10.0494852 7.53800607,10.215709" id="Fill-4" fill="#6C777A"></path>
                </g>
            </g>
        </g>
    </g>
</svg>