<?xml version="1.0" encoding="iso-8859-1"?>
<!-- Generator: Adobe Illustrator 16.0.4, SVG Export Plug-In . SVG Version: 6.00 Build 0)  -->
<!DOCTYPE svg PUBLIC "-//W3C//DTD SVG 1.1//EN" "http://www.w3.org/Graphics/SVG/1.1/DTD/svg11.dtd">
<svg version="1.1" id="&#x56FE;&#x5C42;_1" xmlns="http://www.w3.org/2000/svg" xmlns:xlink="http://www.w3.org/1999/xlink" x="0px"
	 y="0px" width="32px" height="32px" viewBox="0 0 32 32" style="enable-background:new 0 0 32 32;" xml:space="preserve">
<g>
	<circle style="fill:#FFFFFF;" cx="15.922" cy="8.25" r="8.375"/>
	<path style="fill:#FFFFFF;" d="M15.922,1.875c3.517,0,6.376,2.86,6.376,6.375s-2.859,6.375-6.376,6.375
		c-3.516,0-6.375-2.86-6.375-6.375S12.406,1.875,15.922,1.875 M15.922-0.125c-4.628,0-8.375,3.75-8.375,8.375
		s3.747,8.375,8.375,8.375c4.627,0,8.376-3.75,8.376-8.375S20.549-0.125,15.922-0.125L15.922-0.125z"/>
</g>
<g>
	<circle style="fill:#FFFFFF;" cx="16.509" cy="6.575" r="6.701"/>
	<path style="fill:#454444;" d="M16.51,1.875c2.592,0,4.7,2.108,4.7,4.7c0,2.592-2.108,4.7-4.7,4.7s-4.701-2.108-4.701-4.7
		C11.809,3.983,13.918,1.875,16.51,1.875 M16.51-0.125c-3.703,0-6.701,2.999-6.701,6.7c0,3.701,2.998,6.7,6.701,6.7
		c3.7,0,6.7-2.999,6.7-6.7C23.21,2.874,20.21-0.125,16.51-0.125L16.51-0.125z"/>
</g>
<path style="fill:#454444;" d="M16.007,31.905h-0.185h-2.167H3.652c-1.739,0-3.103-1.068-3.103-2.432V17.145
	c0-1.363,1.363-2.431,3.103-2.431h18.231v2H3.652c-0.702,0-1.084,0.332-1.103,0.433v12.327c0.019,0.1,0.399,0.432,1.103,0.432
	h12.354V31.905z"/>
<g>
	<circle style="fill:#FFFFFF;" cx="25.135" cy="18.913" r="6.401"/>
	<path style="fill:#FFFFFF;" d="M25.135,14.511c2.427,0,4.401,1.975,4.401,4.402s-1.975,4.4-4.401,4.4s-4.4-1.974-4.4-4.4
		S22.708,14.511,25.135,14.511 M25.135,12.511c-3.537,0-6.4,2.865-6.4,6.402c0,3.535,2.863,6.4,6.4,6.4
		c3.536,0,6.401-2.865,6.401-6.4C31.536,15.376,28.671,12.511,25.135,12.511L25.135,12.511z"/>
</g>
<g>
	<g>
		<circle style="fill:#FFFFFF;" cx="25.136" cy="18.913" r="5.092"/>
		<path style="fill:#454444;" d="M25.136,15.823c1.705,0,3.092,1.386,3.092,3.09s-1.387,3.09-3.092,3.09s-3.092-1.386-3.092-3.09
			S23.431,15.823,25.136,15.823 M25.136,13.823c-2.814,0-5.092,2.277-5.092,5.09c0,2.812,2.277,5.09,5.092,5.09
			c2.812,0,5.092-2.277,5.092-5.09C30.228,16.1,27.948,13.823,25.136,13.823L25.136,13.823z"/>
	</g>
	<g>
		<path style="fill:#454444;" d="M24.644,20.544l-0.007-0.006l-0.005,0.006l-1.636-1.582l0.331-0.32l1.311,1.268l2.271-2.193
			l0.331,0.32L24.644,20.544z"/>
		<path style="fill:#454444;" d="M26.908,17.716l0.331,0.32l-2.596,2.508l-0.007-0.006l-0.005,0.006l-1.636-1.582l0.331-0.32
			l1.311,1.268L26.908,17.716 M26.908,17.368l-0.174,0.168l-2.097,2.025l-1.137-1.1l-0.174-0.168l-0.174,0.168l-0.331,0.32
			l-0.186,0.18l0.186,0.18l1.636,1.582l0.193,0.188l0.128-0.153l0.038-0.034l2.596-2.508l0.186-0.18l-0.186-0.18l-0.331-0.32
			L26.908,17.368L26.908,17.368z"/>
	</g>
</g>
<g>
	<path style="fill:#FFFFFF;" d="M13.719,32.001c0.81-2.606,3.238-4.498,6.113-4.498c2.871,0,5.3,1.889,6.111,4.493"/>
	<path style="fill:#FFFFFF;" d="M15.865,32c0.711-1.476,2.222-2.497,3.967-2.497 M19.832,29.503c1.743,0,3.253,1.019,3.966,2.492
		 M25.946,32.004c-0.809-2.609-3.24-4.501-6.114-4.501l0,0c-2.875,0-5.303,1.891-6.113,4.497"/>
</g>
</svg>
