<?xml version="1.0" encoding="iso-8859-1"?>
<!-- Generator: Adobe Illustrator 16.0.4, SVG Export Plug-In . SVG Version: 6.00 Build 0)  -->
<!DOCTYPE svg PUBLIC "-//W3C//DTD SVG 1.1//EN" "http://www.w3.org/Graphics/SVG/1.1/DTD/svg11.dtd">
<svg version="1.1" id="&#x56FE;&#x5C42;_1" xmlns="http://www.w3.org/2000/svg" xmlns:xlink="http://www.w3.org/1999/xlink" x="0px"
	 y="0px" width="32px" height="32px" viewBox="0 0 32 32" style="enable-background:new 0 0 32 32;" xml:space="preserve">
<path style="fill:#444444;" d="M21.036,0H3.2v32h26.001V8.268L21.036,0z M21.201,3.042l4.979,4.979h-4.979V3.042z M5.2,30V2h14.001
	v8.021h8V30H5.2z"/>
<path style="fill:#444444;" d="M12.168,12.394c-1.972,0-3.577-1.604-3.577-3.575c0-1.974,1.604-3.578,3.577-3.578
	s3.58,1.604,3.58,3.578C15.748,10.79,14.14,12.394,12.168,12.394L12.168,12.394z M12.168,6.671c-1.183,0-2.146,0.963-2.146,2.148
	c0,1.183,0.963,2.145,2.146,2.145c1.184,0,2.146-0.962,2.146-2.145C14.314,7.634,13.352,6.671,12.168,6.671L12.168,6.671z
	 M12.168,6.671"/>
<path style="fill:#444444;" d="M15.757,18.229l-0.634-3.861l-1.749-0.578l0.45-1.359l2.571,0.851l0.775,4.715L15.757,18.229z
	 M15.757,18.229"/>
<path style="fill:#444444;" d="M8.582,18.229L7.17,17.996l0.774-4.715l2.569-0.851l0.449,1.359l-1.747,0.578L8.582,18.229z
	 M8.582,18.229"/>
<rect x="19.443" y="16.896" style="fill:#444444;" width="5.723" height="1.429"/>
<rect x="7.099" y="19.763" style="fill:#444444;" width="18.067" height="1.43"/>
<rect x="7.099" y="22.624" style="fill:#444444;" width="18.067" height="1.431"/>
<rect x="7.099" y="25.457" style="fill:#444444;" width="18.067" height="1.431"/>
</svg>
