<?xml version="1.0" encoding="utf-8"?>
<!-- Generator: Adobe Illustrator 17.0.1, SVG Export Plug-In . SVG Version: 6.00 Build 0)  -->
<!DOCTYPE svg PUBLIC "-//W3C//DTD SVG 1.1//EN" "http://www.w3.org/Graphics/SVG/1.1/DTD/svg11.dtd">
<svg version="1.1" id="图层_1" xmlns="http://www.w3.org/2000/svg" xmlns:xlink="http://www.w3.org/1999/xlink" x="0px" y="0px"
	 width="120px" height="120px" viewBox="0 -12.5 120 120" enable-background="new 0 -12.5 120 120" xml:space="preserve">
<g>
	<path fill="none" d="M99.372,5.498H20.629c-2.848,0-5.165,2.317-5.165,5.165v45.425h89.073V10.663
		C104.537,7.815,102.22,5.498,99.372,5.498z M58.364,13.666c0-0.818,0.663-1.482,1.482-1.482s1.482,0.664,1.482,1.482v17.927
		c0,0.818-0.663,1.482-1.482,1.482s-1.482-0.664-1.482-1.482V13.666z M41.671,49.637c0,0.819-0.663,1.483-1.482,1.483
		c-0.819,0-1.482-0.664-1.482-1.482V31.712c0-0.818,0.663-1.482,1.482-1.482c0.819,0,1.482,0.664,1.482,1.482V49.637z
		 M45.532,26.162h-5.334c-0.003,0-0.006,0.001-0.01,0.001c-0.003,0-0.006-0.001-0.01-0.001h-5.333c-0.819,0-1.482-0.664-1.482-1.482
		c0-0.818,0.663-1.482,1.482-1.482h3.86v-9.533c0-0.818,0.663-1.482,1.482-1.482c0.819,0,1.482,0.664,1.482,1.482v9.533h3.861
		c0.819,0,1.482,0.664,1.482,1.482C47.014,25.498,46.35,26.162,45.532,26.162z M65.188,40.106h-3.86v9.531
		c0,0.819-0.663,1.483-1.482,1.483s-1.482-0.664-1.482-1.482v-9.532h-3.86c-0.819,0-1.482-0.664-1.482-1.482
		c0-0.818,0.663-1.482,1.482-1.482h10.685c0.819,0,1.482,0.664,1.482,1.482C66.671,39.442,66.007,40.106,65.188,40.106z
		 M80.984,49.637c0,0.819-0.664,1.483-1.482,1.483c-0.819,0-1.482-0.664-1.482-1.482V31.712c0-0.818,0.663-1.482,1.482-1.482
		c0.819,0,1.482,0.664,1.482,1.482V49.637z M84.845,26.162H74.159c-0.819,0-1.482-0.664-1.482-1.482
		c0-0.818,0.663-1.482,1.482-1.482h3.861v-9.533c0-0.818,0.663-1.482,1.482-1.482c0.819,0,1.482,0.664,1.482,1.482v9.533h3.86
		c0.819,0,1.482,0.664,1.482,1.482C86.327,25.498,85.664,26.162,84.845,26.162z"/>
	<path fill="none" d="M15.464,64.658c0,2.848,2.317,5.165,5.165,5.165h78.742c2.848,0,5.165-2.317,5.165-5.165v-6.595H15.464V64.658
		z"/>
	<path fill="none" d="M55.501,72.887v0.001l-9.358,12.184c-0.33,0.395-0.677,0.974-0.677,1.753c0,1.476,1.201,2.677,2.677,2.677
		h23.979c1.476,0,2.676-1.201,2.676-2.677c0-0.779-0.347-1.358-0.638-1.706l-9.396-12.232H55.501z"/>
	<path fill="#040000" d="M99.372,2.534H20.629c-4.483,0-8.129,3.647-8.129,8.129v53.994c0,4.483,3.647,8.129,8.129,8.129h31.214
		l-8.011,10.431c-0.856,1.023-1.329,2.306-1.329,3.608c0,3.11,2.531,5.64,5.64,5.64h23.978c3.111,0,5.64-2.53,5.64-5.639
		c0-1.303-0.472-2.585-1.29-3.56l-8.05-10.48h30.947c4.483,0,8.129-3.646,8.13-8.128V10.663
		C107.501,6.18,103.853,2.534,99.372,2.534z M74.161,85.119c0.291,0.348,0.638,0.927,0.638,1.706c0,1.476-1.2,2.677-2.676,2.677
		H48.144c-1.476,0-2.677-1.201-2.677-2.677c0-0.779,0.347-1.358,0.677-1.753l9.358-12.184v-0.001h9.264L74.161,85.119z
		 M104.537,64.658c0,2.848-2.317,5.165-5.165,5.165H20.629c-2.848,0-5.165-2.317-5.165-5.165v-6.595h89.073V64.658z M104.537,56.088
		H15.464V10.663c0-2.848,2.317-5.165,5.165-5.165h78.742c2.848,0,5.165,2.317,5.165,5.165V56.088z"/>
	<path fill="#040000" d="M59.846,33.075c0.819,0,1.482-0.664,1.482-1.482V13.666c0-0.818-0.663-1.482-1.482-1.482
		s-1.482,0.664-1.482,1.482v17.927C58.364,32.411,59.027,33.075,59.846,33.075z"/>
	<path fill="#040000" d="M40.189,30.23c-0.819,0-1.482,0.664-1.482,1.482v17.926c0,0.818,0.663,1.482,1.482,1.482
		c0.819,0,1.482-0.664,1.482-1.483V31.712C41.671,30.894,41.008,30.23,40.189,30.23z"/>
	<path fill="#040000" d="M79.503,30.23c-0.819,0-1.482,0.664-1.482,1.482v17.926c0,0.818,0.663,1.482,1.482,1.482
		c0.818,0,1.482-0.664,1.482-1.483V31.712C80.984,30.894,80.322,30.23,79.503,30.23z"/>
	<path fill="#040000" d="M45.532,23.199h-3.861v-9.533c0-0.818-0.663-1.482-1.482-1.482c-0.819,0-1.482,0.664-1.482,1.482v9.533
		h-3.86c-0.819,0-1.482,0.664-1.482,1.482c0,0.818,0.663,1.482,1.482,1.482h5.333c0.003,0,0.006,0.001,0.01,0.001
		c0.003,0,0.006-0.001,0.01-0.001h5.334c0.818,0,1.482-0.664,1.482-1.482C47.014,23.862,46.351,23.199,45.532,23.199z"/>
	<path fill="#040000" d="M84.845,23.199h-3.86v-9.533c0-0.818-0.663-1.482-1.482-1.482c-0.819,0-1.482,0.664-1.482,1.482v9.533
		h-3.861c-0.819,0-1.482,0.664-1.482,1.482c0,0.818,0.663,1.482,1.482,1.482h10.685c0.819,0,1.482-0.664,1.482-1.482
		C86.327,23.862,85.664,23.199,84.845,23.199z"/>
	<path fill="#040000" d="M65.189,37.143H54.504c-0.819,0-1.482,0.664-1.482,1.482c0,0.818,0.663,1.482,1.482,1.482h3.86v9.532
		c0,0.818,0.663,1.482,1.482,1.482s1.482-0.664,1.482-1.483v-9.531h3.86c0.819,0,1.483-0.664,1.483-1.482
		C66.671,37.806,66.008,37.143,65.189,37.143z"/>
</g>
</svg>
