<?xml version="1.0" encoding="utf-8"?>
<!-- Generator: Adobe Illustrator 17.0.1, SVG Export Plug-In . SVG Version: 6.00 Build 0)  -->
<!DOCTYPE svg PUBLIC "-//W3C//DTD SVG 1.1//EN" "http://www.w3.org/Graphics/SVG/1.1/DTD/svg11.dtd">
<svg version="1.1" id="图层_1" xmlns="http://www.w3.org/2000/svg" xmlns:xlink="http://www.w3.org/1999/xlink" x="0px" y="0px"
	 width="120px" height="120px" viewBox="0 0 120 120" enable-background="new 0 0 120 120" xml:space="preserve">
<g>
	<path fill="#040000" d="M18.121,20.319c-4.479,0-8.121,3.644-8.121,8.121s3.642,8.12,8.121,8.12c4.477,0,8.121-3.641,8.121-8.12
		S22.599,20.319,18.121,20.319z M18.121,34.712c-3.458,0-6.272-2.814-6.272-6.272s2.814-6.272,6.272-6.272s6.272,2.814,6.272,6.272
		S21.579,34.712,18.121,34.712z"/>
	<path fill="#040000" d="M18.121,45.531c-4.479,0-8.121,3.642-8.121,8.12c0,4.477,3.642,8.12,8.121,8.12
		c4.477,0,8.121-3.642,8.121-8.12C26.241,49.173,22.599,45.531,18.121,45.531z M18.121,59.921c-3.458,0-6.272-2.814-6.272-6.271
		c0-3.458,2.814-6.272,6.272-6.272s6.271,2.814,6.272,6.272C24.393,57.108,21.579,59.921,18.121,59.921z"/>
	<path fill="#040000" d="M44.239,36.559c4.477,0,8.121-3.642,8.121-8.121s-3.642-8.121-8.121-8.121s-8.121,3.642-8.121,8.121
		S39.761,36.559,44.239,36.559z M44.239,22.168c3.458,0,6.272,2.814,6.272,6.272s-2.814,6.272-6.272,6.272
		c-3.458,0-6.272-2.814-6.272-6.272S40.781,22.168,44.239,22.168z"/>
	<path fill="#040000" d="M70.358,36.559c4.478,0,8.121-3.642,8.121-8.121s-3.642-8.121-8.121-8.121
		c-4.479,0-8.121,3.642-8.121,8.121S65.88,36.559,70.358,36.559z M70.358,22.168c3.457,0,6.272,2.814,6.272,6.272
		s-2.815,6.272-6.272,6.272c-3.458,0-6.272-2.814-6.272-6.272S66.9,22.168,70.358,22.168z"/>
	<path fill="#040000" d="M18.121,71.648c-4.479,0-8.121,3.643-8.121,8.121s3.642,8.121,8.121,8.121c4.477,0,8.121-3.642,8.121-8.121
		S22.599,71.648,18.121,71.648z M18.121,86.042c-3.458,0-6.272-2.815-6.272-6.272c0-3.458,2.814-6.272,6.272-6.272
		s6.271,2.814,6.272,6.272C24.393,83.228,21.579,86.042,18.121,86.042z"/>
	<path fill="#040000" d="M109.602,81.732l-5.876-5.973c-2.899-2.947-2.773-4.221-2.624-5.696c0.219-2.192,0.131-4.128-3.085-7.396
		L78.771,43.104c-0.034-0.038-0.068-0.076-0.102-0.107c-0.013-0.013-0.026-0.025-0.042-0.039l-0.109-0.111
		c-0.32-0.326-0.705-0.575-1.144-0.738c-1.674-0.769-3.749-0.412-5.062,0.881c-1.113,1.094-1.581,2.712-1.233,4.238
		c0,0.001,0,0.002,0,0.003l-0.721-0.733c-0.064-0.086-0.133-0.169-0.206-0.244c-0.859-0.874-2.008-1.354-3.236-1.354
		c-1.208,0-2.348,0.466-3.211,1.316c-1.466,1.442-1.755,3.636-0.853,5.366l-0.616-0.625c-0.026-0.032-0.055-0.063-0.079-0.088
		c-0.852-0.866-1.989-1.342-3.204-1.342c-1.186,0-2.306,0.458-3.152,1.291c-0.857,0.842-1.334,1.966-1.343,3.167
		c-0.003,0.474,0.066,0.938,0.202,1.377c-0.951-0.965-1.713-1.739-2.333-2.363c-0.334-4.174-3.829-7.468-8.087-7.468
		c-4.478,0-8.121,3.642-8.121,8.121c0,4.477,3.642,8.12,8.121,8.12c0.926,0,1.9-0.081,2.503-0.556l11.32,11.506
		c-0.154-0.018-0.309-0.027-0.467-0.027c-2.535,0-4.969,2.435-6.013,3.631c-1.299-2.759-4.098-4.677-7.344-4.677
		c-4.478,0-8.121,3.642-8.121,8.121c0,4.479,3.642,8.121,8.121,8.121c4.422,0,8.023-3.555,8.113-7.956l10.185,10.352
		c3.925,3.617,7.708,5.376,11.566,5.376c2.337,0,4.392-0.624,6.206-1.174c1.805-0.548,3.511-1.036,4.959-0.805
		c1.342,0.213,4.461,3.46,5.793,4.847c0.268,0.278,0.509,0.528,0.716,0.739c0.272,0.276,0.631,0.414,0.988,0.414
		c0.351,0,0.703-0.133,0.973-0.398l15.848-15.592c0.262-0.258,0.411-0.609,0.414-0.977C110.002,82.346,109.86,81.994,109.602,81.732
		z M44.239,86.042c-3.458,0-6.272-2.815-6.272-6.272c0-3.458,2.814-6.272,6.272-6.272c3.458,0,6.271,2.814,6.272,6.272
		C50.511,83.228,47.697,86.042,44.239,86.042z M92.791,96.325c-2.588-2.682-5.069-5.063-7.088-5.382
		c-0.406-0.064-0.831-0.098-1.259-0.098c-1.684,0-3.265,0.48-4.94,0.985c-1.709,0.518-3.476,1.055-5.401,1.055
		c-3.172,0-6.249-1.475-9.637-4.594L54.063,77.718c0.992-1.037,2.452-2.251,3.532-2.251c0.213,0,0.499,0.043,0.833,0.381
		l6.713,6.822c0.037,0.038,0.075,0.071,0.114,0.104c0.016,0.019,0.032,0.035,0.044,0.047c0.881,0.896,2.426,0.905,3.319,0.027
		c0.923-0.907,0.935-2.396,0.019-3.327c-0.009-0.011-0.021-0.021-0.031-0.031c-0.034-0.041-0.073-0.086-0.118-0.131L45.274,55.765
		c-0.025-0.031-0.052-0.06-0.08-0.088c-0.812-0.826-0.8-2.157,0.025-2.969c0.783-0.772,2.123-0.785,2.928-0.015
		c0.023,0.028,0.047,0.056,0.067,0.077c0.012,0.012,0.022,0.023,0.034,0.035c0.281,0.281,8.845,8.975,11.136,11.304
		c0.052,0.065,0.104,0.128,0.159,0.182c0.945,0.961,2.606,0.974,3.569,0.029c0.48-0.473,0.749-1.104,0.755-1.779
		c0.006-0.675-0.251-1.311-0.733-1.8c-0.02-0.021-0.046-0.045-0.074-0.068l-5.084-5.167c-0.059-0.093-0.131-0.179-0.213-0.256
		c-0.025-0.024-0.051-0.046-0.078-0.068c-0.295-0.322-0.454-0.738-0.451-1.177c0.004-0.459,0.186-0.891,0.514-1.213
		c0.647-0.635,1.763-0.628,2.393-0.021c0.025,0.029,0.052,0.059,0.074,0.082l5.185,5.271c0.047,0.049,0.075,0.076,0.123,0.113
		c1.006,0.965,2.72,0.959,3.719-0.023c1.056-1.039,1.08-2.675,0.061-3.742c-0.029-0.036-0.061-0.071-0.085-0.096l-3.603-3.662
		c-0.685-0.697-0.668-1.828,0.036-2.52c0.682-0.674,1.888-0.639,2.491-0.026c0.036,0.047,0.073,0.095,0.113,0.142
		c0.023,0.026,0.046,0.052,0.071,0.077l4.153,4.221c0.108,0.111,0.228,0.207,0.358,0.289c0.917,0.667,2.28,0.574,3.092-0.226
		c0.276-0.272,0.602-0.766,0.586-1.577c0-0.011-0.036-0.868-0.356-1.494l0.006-0.003c-0.066-0.135-0.161-0.269-0.266-0.377
		l-1.683-1.711c-0.237-0.24-0.366-0.474-0.398-0.717c-0.006-0.052-0.017-0.103-0.028-0.154c-0.151-0.612,0.023-1.237,0.466-1.673
		c0.515-0.506,1.337-0.638,1.984-0.325c0.051,0.024,0.101,0.045,0.154,0.063c0.081,0.028,0.119,0.059,0.147,0.088l0.161,0.162
		c0.015,0.017,0.028,0.033,0.043,0.046l19.295,19.611c2.558,2.601,2.445,3.738,2.302,5.175c-0.227,2.291-0.122,4.328,3.407,7.916
		l4.903,4.984L92.791,96.325z"/>
</g>
</svg>
