<?xml version="1.0" encoding="utf-8"?>
<!-- Generator: Adobe Illustrator 17.0.1, SVG Export Plug-In . SVG Version: 6.00 Build 0)  -->
<!DOCTYPE svg PUBLIC "-//W3C//DTD SVG 1.1//EN" "http://www.w3.org/Graphics/SVG/1.1/DTD/svg11.dtd">
<svg version="1.1" id="图层_1" xmlns="http://www.w3.org/2000/svg" xmlns:xlink="http://www.w3.org/1999/xlink" x="0px" y="0px"
	 width="120px" height="120px" viewBox="-12.5 -12.5 120 120" enable-background="new -12.5 -12.5 120 120" xml:space="preserve">
<g id="图层_1_1_">
</g>
<g>
	<path fill="#221F20" d="M9.484,40.893c0.946,0,1.714-0.768,1.714-1.715v-8.581H21.23c0.947,0,1.715-0.769,1.715-1.715
		c0-0.947-0.769-1.715-1.715-1.715H9.484c-0.947,0-1.715,0.769-1.715,1.715v10.295C7.77,40.125,8.539,40.893,9.484,40.893z"/>
	<path fill="#221F20" d="M85.516,88.776c-0.947,0-1.715,0.769-1.715,1.715v8.579H73.769c-0.947,0-1.715,0.769-1.715,1.715
		c0,0.947,0.769,1.715,1.715,1.715h11.747c0.946,0,1.714-0.768,1.715-1.715V90.491C87.23,89.544,86.461,88.776,85.516,88.776z"/>
	<path fill="#221F20" d="M19.779,99.072h-8.579V89.04c0-0.947-0.768-1.715-1.715-1.715c-0.947,0-1.715,0.769-1.715,1.715v11.745
		c0,0.947,0.769,1.715,1.715,1.715h10.294c0.946,0,1.714-0.768,1.715-1.714C21.493,99.839,20.724,99.072,19.779,99.072z"/>
	<path fill="#221F20" d="M85.516,27.168H75.22c-0.947,0-1.715,0.769-1.715,1.715c0,0.947,0.769,1.715,1.715,1.715h8.581V40.63
		c0,0.947,0.769,1.715,1.715,1.715c0.946,0,1.714-0.768,1.715-1.715V28.883C87.23,27.936,86.461,27.168,85.516,27.168z"/>
	<path fill="#221F20" d="M78.227,64.644h-0.001c0-13.258-8.424-25.037-20.964-29.312l-1.107,3.246
		c11.152,3.802,18.644,14.278,18.644,26.067c0,0.474-0.012,0.946-0.036,1.415c-0.739,14.527-12.79,26.118-27.498,26.118
		c-14.707,0-26.759-11.59-27.498-26.118c-0.024-0.469-0.036-0.94-0.036-1.415c0-3.466,0.645-6.822,1.843-9.929
		c2.636-6.836,7.952-12.47,14.975-15.439l-1.334-3.159c0,0-0.001,0-0.001,0l0,0c-10.051,4.25-16.99,13.355-18.568,23.921
		c-0.225,1.509-0.341,3.049-0.341,4.608c0,1.067,0.054,2.122,0.16,3.161c1.588,15.593,14.795,27.8,30.801,27.8c0,0,0,0,0.001,0
		s0,0,0.001,0c11.026,0,20.717-5.798,26.203-14.5C76.478,76.334,78.227,70.691,78.227,64.644z"/>
	<path fill="#221F20" d="M46.414,57.01c0.002,0,0.006,0,0.009,0c0.657-0.003,1.255-0.382,1.538-0.975
		c0.829-1.731,20.202-42.589,10.638-57.771c-2.489-3.95-6.614-5.873-12.224-5.759c-5.611,0.133-9.709,2.259-12.175,6.32
		C24.701,14.46,44.046,54.36,44.875,56.051C45.163,56.638,45.76,57.01,46.414,57.01z M37.131,0.603
		c1.845-3.039,4.896-4.566,9.324-4.67l0.452-0.006c4.15,0,7.025,1.362,8.791,4.163c7.101,11.272-4.888,41.021-9.3,51.085
		C41.97,41.271,30.068,12.228,37.131,0.603z"/>
	<path fill="#221F20" d="M55.461,15.384c0-5.169-4.204-9.373-9.372-9.373c-5.169,0-9.373,4.204-9.373,9.373
		c0,5.167,4.204,9.372,9.373,9.372C51.257,24.755,55.461,20.551,55.461,15.384z M46.089,21.328c-3.278,0-5.944-2.666-5.944-5.943
		c0-3.278,2.666-5.944,5.944-5.944c3.277,0,5.943,2.666,5.943,5.944C52.033,18.662,49.366,21.328,46.089,21.328z"/>
</g>
</svg>
