<?xml version="1.0" encoding="utf-8"?>
<!-- Generator: Adobe Illustrator 17.0.1, SVG Export Plug-In . SVG Version: 6.00 Build 0)  -->
<!DOCTYPE svg PUBLIC "-//W3C//DTD SVG 1.1//EN" "http://www.w3.org/Graphics/SVG/1.1/DTD/svg11.dtd">
<svg version="1.1" id="图层_1" xmlns="http://www.w3.org/2000/svg" xmlns:xlink="http://www.w3.org/1999/xlink" x="0px" y="0px"
	 width="120px" height="120px" viewBox="-12.5 -12.5 120 120" enable-background="new -12.5 -12.5 120 120" xml:space="preserve">
<g id="图层_1_1_">
</g>
<path fill="#040000" d="M94.807,12.915c-0.277-0.505-2.822-4.926-6.439-4.926H28.181c-3.657,0-6.632,2.546-6.632,5.676v3.069
	C10.351,20.815-1.983,29.933,0.268,50.284c0.008,0.068,0.02,0.138,0.037,0.205c3.176,12.726,11.778,18.246,15.494,20.088
	L7.315,84.659c-0.365,0.605-0.274,1.381,0.22,1.887c0.301,0.307,0.703,0.466,1.111,0.466c0.264,0,0.53-0.067,0.77-0.205
	l20.095-11.505c4.083,0.227,30.757,1.007,40.012-15.828h18.845c3.657,0,6.632-2.546,6.632-5.677V13.263L94.807,12.915z
	 M28.181,11.092h60.187c1.219,0,2.644,1.656,3.403,2.809L58.274,37.44L24.653,13.813v-0.149
	C24.653,12.269,26.269,11.092,28.181,11.092z M29.259,72.175c-0.31-0.023-0.618,0.048-0.886,0.201l-15.318,8.769l6.314-10.48
	c0.241-0.4,0.287-0.888,0.13-1.326c-0.158-0.439-0.507-0.785-0.946-0.941c-0.472-0.167-11.592-4.245-15.211-18.561
	c-1.563-14.434,4.573-24.431,18.207-29.77v33.727c0,3.131,2.975,5.677,6.632,5.677h37.704
	C56.124,73.958,29.543,72.197,29.259,72.175z M88.368,56.369H28.181c-1.912,0-3.528-1.179-3.528-2.573V17.607l33.621,23.626
	l33.622-23.626v36.188C91.896,55.191,90.28,56.369,88.368,56.369z"/>
</svg>
