<?xml version="1.0" encoding="utf-8"?>
<!-- Generator: Adobe Illustrator 17.0.1, SVG Export Plug-In . SVG Version: 6.00 Build 0)  -->
<!DOCTYPE svg PUBLIC "-//W3C//DTD SVG 1.1//EN" "http://www.w3.org/Graphics/SVG/1.1/DTD/svg11.dtd">
<svg version="1.1" id="图层_1" xmlns="http://www.w3.org/2000/svg" xmlns:xlink="http://www.w3.org/1999/xlink" x="0px" y="0px"
	 width="120px" height="120px" viewBox="-12.5 -12.5 120 120" enable-background="new -12.5 -12.5 120 120" xml:space="preserve">
<g id="图层_1_1_">
</g>
<g>
	<path fill="#040000" d="M94.976,86.051c0.556-10.417-8.695-14.769-14.647-15.849V28.667c0-11.701-8.914-21.221-19.872-21.221
		h-25.96c-10.957,0-19.872,9.52-19.872,21.221v41.543c-5.952,1.094-15.155,5.45-14.6,15.84c0,0.001,0,0.003,0,0.004
		c0,0.002,0.001,0.005,0.001,0.007c0.001,0.027,0.001,0.053,0.002,0.081c0.002,0.036,0.012,0.07,0.016,0.105
		c0.007,0.05,0.012,0.1,0.023,0.149c0.011,0.047,0.027,0.092,0.042,0.137c0.016,0.046,0.03,0.092,0.049,0.136
		c0.02,0.045,0.046,0.087,0.07,0.129c0.023,0.04,0.044,0.08,0.07,0.117c0.029,0.041,0.063,0.078,0.096,0.116
		c0.029,0.033,0.055,0.068,0.087,0.098c0.037,0.035,0.078,0.066,0.118,0.097c0.034,0.027,0.066,0.056,0.102,0.08
		c0.044,0.029,0.092,0.051,0.139,0.075c0.037,0.019,0.072,0.042,0.111,0.058c0.057,0.024,0.118,0.039,0.178,0.055
		c0.032,0.009,0.063,0.022,0.096,0.029c0.096,0.019,0.194,0.03,0.295,0.03c0,0,0,0,0.001,0c0,0,0,0,0,0h91.957c0,0,0,0,0,0
		c0,0,0,0,0.001,0c0.101,0,0.199-0.011,0.295-0.03c0.033-0.007,0.064-0.02,0.096-0.029c0.06-0.017,0.121-0.032,0.179-0.055
		c0.039-0.016,0.075-0.039,0.112-0.058c0.047-0.024,0.094-0.046,0.138-0.075c0.037-0.024,0.069-0.053,0.103-0.08
		c0.04-0.031,0.08-0.061,0.117-0.097c0.032-0.031,0.059-0.065,0.087-0.099c0.033-0.038,0.066-0.074,0.095-0.115
		c0.026-0.037,0.047-0.077,0.07-0.117c0.024-0.042,0.05-0.084,0.07-0.129c0.02-0.044,0.034-0.089,0.049-0.135
		c0.015-0.045,0.032-0.09,0.043-0.137c0.011-0.048,0.017-0.099,0.023-0.149c0.005-0.035,0.014-0.069,0.017-0.105
		c0.002-0.027,0.001-0.053,0.002-0.081c0-0.002,0.001-0.005,0.001-0.007C94.976,86.054,94.976,86.052,94.976,86.051z M34.497,10.443
		h25.96c9.306,0,16.876,8.175,16.876,18.224V70H17.621V28.667C17.621,18.619,25.192,10.443,34.497,10.443z M16.21,72.997h62.579
		c1.18,0.151,12.719,1.884,13.193,11.56H3.017C3.491,74.878,15.033,73.147,16.21,72.997z"/>
	<path fill="#040000" d="M47.503,54.55c-3.229,0-5.857,2.628-5.857,5.857c0,3.229,2.628,5.857,5.857,5.857
		c3.229,0,5.856-2.628,5.856-5.857C53.359,57.178,50.732,54.55,47.503,54.55z M47.503,64.265c-2.128,0-3.859-1.731-3.859-3.859
		c0-2.129,1.731-3.859,3.859-3.859c2.127,0,3.858,1.731,3.858,3.859C51.361,62.534,49.63,64.265,47.503,64.265z"/>
	<path fill="#040000" d="M47.231,49.745c0.425,0,0.804-0.27,0.943-0.671c0.35-1.004,8.478-24.655,3.409-31.783
		c-1.03-1.448-2.494-2.182-4.352-2.182s-3.322,0.735-4.352,2.182c-5.069,7.127,3.059,30.779,3.409,31.783
		C46.427,49.476,46.806,49.745,47.231,49.745z M44.507,18.449c0.652-0.916,1.518-1.342,2.725-1.342s2.074,0.426,2.725,1.342
		c3.259,4.584-0.271,19.145-2.725,27.08C44.776,37.595,41.245,23.034,44.507,18.449z"/>
</g>
</svg>
