<?xml version="1.0" encoding="utf-8"?>
<!-- Generator: Adobe Illustrator 17.0.1, SVG Export Plug-In . SVG Version: 6.00 Build 0)  -->
<!DOCTYPE svg PUBLIC "-//W3C//DTD SVG 1.1//EN" "http://www.w3.org/Graphics/SVG/1.1/DTD/svg11.dtd">
<svg version="1.1" id="图层_1" xmlns="http://www.w3.org/2000/svg" xmlns:xlink="http://www.w3.org/1999/xlink" x="0px" y="0px"
	 width="120px" height="120px" viewBox="0 -12.5 120 120" enable-background="new 0 -12.5 120 120" xml:space="preserve">
<path fill="#221F20" d="M114.75,69.727c0.032-0.054,0.064-0.107,0.09-0.165c0.019-0.042,0.032-0.087,0.048-0.131
	c0.021-0.06,0.042-0.119,0.056-0.181c0.011-0.046,0.016-0.093,0.022-0.141c0.007-0.047,0.019-0.092,0.022-0.141
	c0.002-0.027-0.002-0.051,0-0.078c0-0.008,0.002-0.015,0.002-0.022c0-0.008-0.002-0.015-0.002-0.023
	c0.291-6.167-4.781-8.957-8.474-9.831V35.657c0-7.233-5.536-13.118-12.338-13.118H81.593c-2.818-3.431-6.946-5.611-11.552-5.611
	H50.746c-4.606,0-8.733,2.181-11.551,5.611H25.797c-6.803,0-12.338,5.885-12.338,13.118V59.02c-3.689,0.88-8.732,3.668-8.448,9.813
	c0,0.012-0.003,0.022-0.003,0.034c0,0.011,0.003,0.021,0.003,0.032c0.001,0.024-0.002,0.044,0,0.068
	c0.003,0.043,0.014,0.083,0.02,0.124c0.007,0.055,0.013,0.109,0.025,0.162c0.013,0.056,0.032,0.109,0.051,0.163
	c0.017,0.05,0.032,0.1,0.054,0.148c0.024,0.053,0.053,0.101,0.082,0.151c0.025,0.044,0.049,0.088,0.078,0.13
	c0.033,0.047,0.072,0.089,0.109,0.132c0.033,0.038,0.063,0.077,0.099,0.112c0.041,0.04,0.087,0.073,0.132,0.109
	c0.039,0.031,0.076,0.065,0.119,0.093c0.049,0.032,0.103,0.057,0.155,0.084c0.043,0.022,0.084,0.048,0.129,0.067
	c0.063,0.026,0.131,0.043,0.198,0.061c0.039,0.011,0.075,0.026,0.115,0.034c0.109,0.022,0.221,0.034,0.335,0.034
	c0,0,0.001,0,0.001,0c0,0,0,0,0,0h18.419c-0.739,1.528-1.144,3.336-1.018,5.476c0.032,0.537,0.313,0.997,0.72,1.286
	c0.308,0.445,0.82,0.738,1.402,0.738h68.35c0,0,0,0,0,0c0,0,0.001,0,0.001,0c0.115,0,0.226-0.012,0.335-0.034
	c0.04-0.008,0.078-0.024,0.117-0.035c0.066-0.018,0.133-0.035,0.196-0.061c0.045-0.019,0.086-0.044,0.129-0.067
	c0.053-0.027,0.107-0.052,0.157-0.085c0.041-0.027,0.077-0.06,0.116-0.09c0.046-0.036,0.093-0.071,0.135-0.111
	c0.035-0.034,0.064-0.072,0.096-0.109c0.039-0.044,0.078-0.088,0.112-0.136c0.028-0.04,0.05-0.083,0.075-0.125
	c0.03-0.051,0.06-0.102,0.085-0.156c0.021-0.046,0.035-0.094,0.052-0.142c0.019-0.055,0.039-0.11,0.052-0.168
	c0.012-0.052,0.018-0.105,0.025-0.159c0.006-0.042,0.017-0.083,0.02-0.126c0.001-0.024-0.001-0.045,0-0.069
	c0-0.011,0.003-0.022,0.003-0.033c0-0.012-0.003-0.023-0.003-0.034c0.109-2.255-0.373-4.16-1.219-5.761h18.219c0,0,0,0,0,0
	c0,0,0.001,0,0.001,0c0.115,0,0.227-0.012,0.335-0.034c0.038-0.007,0.072-0.022,0.109-0.032c0.069-0.019,0.139-0.036,0.204-0.064
	c0.042-0.017,0.08-0.042,0.12-0.062c0.056-0.029,0.113-0.055,0.166-0.09c0.038-0.025,0.072-0.056,0.108-0.084
	c0.049-0.038,0.098-0.075,0.142-0.118c0.033-0.032,0.06-0.068,0.09-0.102c0.041-0.047,0.083-0.093,0.118-0.144
	C114.707,69.806,114.727,69.766,114.75,69.727z M111.459,67.163H92.29c-2.131-1.812-4.733-2.9-6.885-3.43v-1.586h19.324
	C105.412,62.236,110.588,63.052,111.459,67.163z M36.861,66.821c0.014-0.002,0.026-0.007,0.04-0.009
	c0.063,0.007,0.124,0.019,0.189,0.019c0,0,0,0,0.001,0c0,0,0,0,0.001,0h46.505c0.977,0.163,8.454,1.625,9.23,7.831H27.537
	C28.05,67.942,36.481,66.866,36.861,66.821z M94.177,25.948c4.923,0,8.928,4.356,8.928,9.709v23.081H85.404V33.293
	c0-2.643-0.605-5.132-1.653-7.344H94.177z M50.746,20.337h19.296c6.591,0,11.953,5.811,11.953,12.956v30.13H38.793v-2.959
	c0-0.007,0.002-0.014,0.002-0.021c0-0.007-0.002-0.014-0.002-0.021V33.293C38.793,26.148,44.156,20.337,50.746,20.337z
	 M25.796,25.948h11.241c-1.048,2.212-1.653,4.702-1.653,7.344v25.445H16.868V35.657C16.868,30.304,20.873,25.948,25.796,25.948z
	 M15.28,62.147h20.104v1.458c-2.341,0.44-5.302,1.536-7.611,3.557H8.544C9.426,63.075,14.617,62.237,15.28,62.147z"/>
</svg>
