<?xml version="1.0" encoding="utf-8"?>
<!-- Generated by IcoMoon.io -->
<!DOCTYPE svg PUBLIC "-//W3C//DTD SVG 1.1//EN" "http://www.w3.org/Graphics/SVG/1.1/DTD/svg11.dtd">
<svg version="1.1" xmlns="http://www.w3.org/2000/svg" xmlns:xlink="http://www.w3.org/1999/xlink" width="32" height="32" viewBox="0 0 32 32">
<path fill="#444444" d="M16 4.398c-8.837 0-16 7.855-16 11.602 0 4.498 7.163 11.602 16 11.602s16-6.152 16-11.602c0-4.255-7.163-11.602-16-11.602zM16 26.744c-5.949 0-10.772-4.81-10.772-10.744s4.823-10.744 10.772-10.744 10.772 4.81 10.772 10.744-4.823 10.744-10.772 10.744z"></path>
<path fill="#444444" d="M22.32 16c0 3.481-2.83 6.303-6.32 6.303s-6.32-2.822-6.32-6.303c0-3.481 2.83-6.303 6.32-6.303s6.32 2.822 6.32 6.303z"></path>
</svg>
