<?xml version="1.0" encoding="iso-8859-1"?>
<!-- Generator: Adobe Illustrator 16.0.4, SVG Export Plug-In . SVG Version: 6.00 Build 0)  -->
<!DOCTYPE svg PUBLIC "-//W3C//DTD SVG 1.1//EN" "http://www.w3.org/Graphics/SVG/1.1/DTD/svg11.dtd">
<svg version="1.1" id="&#x56FE;&#x5C42;_1" xmlns="http://www.w3.org/2000/svg" xmlns:xlink="http://www.w3.org/1999/xlink" x="0px"
	 y="0px" width="100px" height="100px" viewBox="0 0 100 100" style="enable-background:new 0 0 100 100;" xml:space="preserve">
<title>6-3</title>
<desc>Created with Sketch.</desc>
<g>
	<path style="fill:#FFFFFF;" d="M50.305,60.463c0.205,0,0.409,0,0.512,0c1.737-0.199,3.271-1.391,3.885-3.075
		c0-0.097,0-0.296-0.1-0.296c-0.105-0.102-0.31,0-0.31,0.098c0,0-0.715,1.092-3.476,1.488c-0.409,0.1-0.818,0.1-1.227,0.1
		c-1.944,0-2.762-0.695-2.762-0.695c-0.103-0.1-0.204-0.1-0.307,0s-0.103,0.199-0.103,0.299
		C47.136,59.668,48.668,60.463,50.305,60.463 M50.305,60.463L50.305,60.463z"/>
	<path style="fill:#FFFFFF;" d="M65.131,43.901L65.131,43.901C63.394,37.058,57.258,32,49.793,32
		c-7.669,0-14.009,5.355-15.339,12.396C33.126,44.596,32,45.785,32,47.174v5.652c0,1.588,1.33,2.876,2.966,2.876
		c0.92,0,1.739-0.397,2.25-1.089c1.329,3.271,3.886,5.948,7.261,7.336c0,0,0.103-0.098,0.103-0.199
		c0.101-0.096,0.101-0.096,0.203-0.096s0.103,0,0.103,0c-0.817-0.596-3.579-3.373-4.191-7.438c-0.308-1.787,1.124-3.472,2.658-3.771
		c2.557-0.496,5.011-0.99,7.567-1.389c1.635-0.296,2.658-1.189,3.373-2.578c0.204-0.297,0.409-0.991,0.514-1.982
		c0-0.1,0.1-0.299,0.305-0.299c0.103,0,0.205,0.1,0.205,0.1h0.102c1.021,1.389,2.967,4.562,3.273,7.836
		c0.305,3.768,0.1,6.347-2.863,8.926l0,0c0,0-0.103,0.099-0.103,0.198c0,0.097,0,0.198,0.103,0.198c0,0,0,0,0.103,0c0,0,0,0,0.102,0
		c0,0,0,0,0.103,0c0,0,0.1,0,0.1-0.102c2.966-1.584,5.318-4.262,6.342-7.438c0.409,0.596,1.126,1.094,1.842,1.191
		c-1.228,5.554-6.341,9.025-12.682,9.52c-0.408-0.891-1.328-1.586-2.351-1.586c-1.432,0-2.557,1.092-2.557,2.479
		S47.953,68,49.385,68c1.125,0,2.146-0.695,2.455-1.688c7.26-0.594,13.087-4.76,14.315-11.303c1.123-0.396,1.84-1.488,1.84-2.678
		v-5.654C68.098,45.189,66.769,43.901,65.131,43.901 M62.475,45.487c-1.944-4.959-6.853-8.528-12.579-8.528
		c-5.726,0-10.634,3.569-12.577,8.528c-0.103-0.1-0.205-0.198-0.308-0.298c1.126-6.049,6.442-10.611,12.885-10.611
		c6.443,0,11.761,4.562,12.884,10.514C62.678,45.189,62.575,45.388,62.475,45.487 M62.475,45.487L62.475,45.487z"/>
	<path style="fill:#FFFFFF;" d="M44.477,62.051L44.477,62.051L44.477,62.051 M44.477,62.051L44.477,62.051z"/>
</g>
<path style="fill:#FFFFFF;" d="M50,100c-5.119,0-9.93-1.994-13.547-5.611L5.613,63.547C1.994,59.928,0,55.117,0,50
	s1.994-9.928,5.613-13.547l30.84-30.842C40.072,1.992,44.883,0,50,0c5.115,0,9.928,1.992,13.549,5.611l30.84,30.842
	C98.006,40.07,100,44.881,100,50s-1.994,9.93-5.611,13.547l-30.84,30.842C59.93,98.006,55.117,100,50,100z M50,1.973
	c-4.59,0-8.906,1.788-12.151,5.033L7.008,37.848C3.762,41.094,1.973,45.41,1.973,50s1.789,8.906,5.035,12.152l30.841,30.84
	c3.245,3.246,7.56,5.035,12.151,5.035c4.59,0,8.906-1.789,12.153-5.035l30.84-30.84c3.245-3.246,5.032-7.561,5.032-12.152
	s-1.787-8.906-5.032-12.152L62.153,7.006C58.905,3.761,54.59,1.973,50,1.973z"/>
<path style="fill:#FFFFFF;" d="M50,94.309c-4.148,0-8.045-1.615-10.977-4.547L10.238,60.977c-6.053-6.053-6.053-15.902,0-21.955
	l28.785-28.783C41.955,7.307,45.852,5.691,50,5.691c4.145,0,8.043,1.615,10.977,4.547l28.785,28.783
	c6.053,6.053,6.053,15.902,0,21.955L60.977,89.762C58.043,92.693,54.145,94.309,50,94.309z M50,7.664
	c-3.621,0-7.023,1.41-9.582,3.969L11.633,40.417c-5.283,5.284-5.283,13.882,0,19.165l28.785,28.783
	c2.559,2.561,5.961,3.971,9.582,3.971c3.619,0,7.021-1.41,9.582-3.971l28.785-28.783c5.283-5.283,5.283-13.881,0-19.165
	L59.582,11.633C57.021,9.074,53.619,7.664,50,7.664z"/>
</svg>
