<?xml version="1.0" encoding="iso-8859-1"?>
<!-- Generator: Adobe Illustrator 16.0.4, SVG Export Plug-In . SVG Version: 6.00 Build 0)  -->
<!DOCTYPE svg PUBLIC "-//W3C//DTD SVG 1.1//EN" "http://www.w3.org/Graphics/SVG/1.1/DTD/svg11.dtd">
<svg version="1.1" id="&#x56FE;&#x5C42;_1" xmlns="http://www.w3.org/2000/svg" xmlns:xlink="http://www.w3.org/1999/xlink" x="0px"
	 y="0px" width="100px" height="100px" viewBox="-30.833 -24.848 100 100" style="enable-background:new -30.833 -24.848 100 100;"
	 xml:space="preserve">
<title>6-3</title>
<desc>Created with Sketch.</desc>
<path style="fill:#FFFFFF;" d="M19.167,75.151c-5.119,0-9.93-1.994-13.547-5.611l-30.84-30.842
	c-3.619-3.619-5.613-8.43-5.613-13.547c0-5.117,1.994-9.928,5.613-13.547L5.62-19.237c3.619-3.618,8.43-5.611,13.547-5.611
	c5.115,0,9.928,1.993,13.549,5.611l30.84,30.842c3.617,3.617,5.611,8.428,5.611,13.547c0,5.119-1.994,9.93-5.611,13.547
	L32.716,69.54C29.097,73.157,24.284,75.151,19.167,75.151z M19.167-22.875c-4.59,0-8.906,1.788-12.151,5.033L-23.825,13
	c-3.246,3.247-5.035,7.562-5.035,12.152s1.789,8.906,5.035,12.152L7.016,68.145c3.245,3.246,7.56,5.034,12.151,5.034
	c4.59,0,8.906-1.789,12.153-5.034l30.84-30.841c3.245-3.246,5.032-7.561,5.032-12.152c0-4.591-1.787-8.906-5.032-12.152
	L31.32-17.842C28.072-21.087,23.757-22.875,19.167-22.875z"/>
<path style="fill:#FFFFFF;" d="M19.166,69.461c-4.147,0-8.044-1.615-10.977-4.548l-28.784-28.784
	c-6.054-6.053-6.054-15.902,0-21.955L8.189-14.61c2.933-2.932,6.829-4.547,10.977-4.547c4.146,0,8.044,1.615,10.978,4.547
	l28.785,28.784c6.053,6.053,6.053,15.902,0,21.955L30.144,64.913C27.21,67.846,23.312,69.461,19.166,69.461z M19.166-17.184
	c-3.62,0-7.022,1.41-9.581,3.969L-19.2,15.569c-5.283,5.284-5.283,13.881,0,19.165L9.585,63.518c2.559,2.56,5.961,3.97,9.581,3.97
	c3.619,0,7.022-1.41,9.583-3.97l28.784-28.784c5.283-5.283,5.283-13.881,0-19.165L28.749-13.215
	C26.188-15.774,22.785-17.184,19.166-17.184z"/>
<g>
	<path style="fill:#FFFFFF;" d="M31.44,33.979l-1.455,1.067l-2.141-2.916c2.724-2.428,4.274-5.731,4.763-9.13
		c0.583-3.887-0.389-8.064-2.918-11.463l0,0l0,0l0,0c-2.522-3.401-6.214-5.44-10.1-6.024C15.703,4.93,11.623,5.902,8.125,8.428l0,0
		l0,0c-3.399,2.526-5.438,6.216-6.022,10.103c-0.583,3.886,0.389,8.062,2.915,11.463l0,0c2.526,3.401,6.218,5.44,10.103,6.023
		c3.399,0.484,6.897-0.099,10.007-1.943l2.135,2.914L26,37.958l5.149,6.996l1.264-0.973l2.623-1.942l1.358-1.069L31.44,33.979
		L31.44,33.979z M15.314,33.589l-1.553-8.55h-0.097c-1.069,0.775-3.595,1.459-4.47,1.653c-0.971,0.191-2.137,0.872-2.137,1.939
		v0.101c-2.04-2.723-3.107-6.219-2.623-9.813C5.6,11.828,12.206,6.873,19.297,7.941c7.092,1.069,12.047,7.675,10.976,14.767
		c-0.389,2.331-1.26,4.371-2.622,6.119v-0.195c0-1.164-1.164-1.748-2.134-1.939c-0.876-0.194-3.401-0.878-4.469-1.653h-0.1
		l-1.553,8.55c-0.195,0-0.389,0-0.584,0.096l-0.874-6.509l0.776-1.556h-1.358h-1.36l0.777,1.556l-0.874,6.509
		c-0.097,0-0.292,0-0.389,0C15.508,33.589,15.411,33.589,15.314,33.589L15.314,33.589z"/>
	<path style="fill:#FFFFFF;" d="M21.048,19.988h0.192c0.292,0.098,0.681-0.194,0.681-0.486l0.291-1.845
		c0.098-0.292-0.195-0.584-0.485-0.679h-0.194c0.097-0.292,0.097-0.584,0.097-0.876v-0.679c0-1.263-0.776-2.234-1.845-2.72
		c-0.194-0.097-0.487-0.292-0.778-0.389c-1.263-0.485-2.526-0.485-2.72,0c0,0.097,0,0.097,0,0.194h-0.388
		c-1.651,0-2.915,1.36-2.915,2.915v0.679c0,0.292,0,0.583,0.097,0.876h-0.194c-0.291,0.095-0.582,0.387-0.485,0.679l0.29,1.845
		c0.097,0.292,0.389,0.584,0.681,0.486h0.292c0.582,2.04,2.136,3.498,3.691,3.592C18.908,23.485,20.464,22.027,21.048,19.988
		L21.048,19.988z"/>
</g>
</svg>
