<?xml version="1.0" encoding="iso-8859-1"?>
<!-- Generator: Adobe Illustrator 16.0.4, SVG Export Plug-In . SVG Version: 6.00 Build 0)  -->
<!DOCTYPE svg PUBLIC "-//W3C//DTD SVG 1.1//EN" "http://www.w3.org/Graphics/SVG/1.1/DTD/svg11.dtd">
<svg version="1.1" id="&#x56FE;&#x5C42;_1" xmlns="http://www.w3.org/2000/svg" xmlns:xlink="http://www.w3.org/1999/xlink" x="0px"
	 y="0px" width="40px" height="40px" viewBox="0 0 40 40" style="enable-background:new 0 0 40 40;" xml:space="preserve">
<g>
	<path style="fill:#4C4B4A;" d="M20,39.527C9.232,39.527,0.473,30.768,0.473,20C0.473,9.233,9.232,0.473,20,0.473
		S39.527,9.233,39.527,20C39.527,30.768,30.768,39.527,20,39.527z M11.597,26.983c-0.185,0.185-0.185,0.484,0,0.669l0.754,0.754
		c0.092,0.092,0.213,0.139,0.334,0.139s0.242-0.047,0.334-0.139l7.303-7.303l7.303,7.303c0.089,0.089,0.209,0.139,0.334,0.139
		s0.245-0.05,0.334-0.139l0.754-0.754c0.185-0.185,0.185-0.484,0-0.669l-7.302-7.302l7.302-7.303c0.185-0.185,0.185-0.483,0-0.668
		l-0.754-0.754c-0.088-0.088-0.209-0.138-0.334-0.138l0,0c-0.125,0-0.245,0.05-0.334,0.138l-7.303,7.303l-7.303-7.303
		c-0.092-0.092-0.213-0.138-0.334-0.138c-0.121,0-0.242,0.046-0.334,0.138l-0.754,0.754c-0.185,0.185-0.185,0.483,0,0.668
		l7.302,7.303L11.597,26.983z"/>
	<path style="fill:#FFFFFF;" d="M20,0.945c10.507,0,19.055,8.548,19.055,19.055c0,10.506-8.548,19.055-19.055,19.055
		C9.493,39.056,0.945,30.507,0.945,20C0.945,9.493,9.493,0.945,20,0.945 M20.322,17.591l-6.969-6.969
		c-0.184-0.184-0.426-0.276-0.668-0.276c-0.242,0-0.483,0.092-0.668,0.276l-0.754,0.754c-0.369,0.369-0.369,0.967,0,1.336
		l6.968,6.969l-6.968,6.969c-0.369,0.368-0.369,0.967,0,1.336l0.754,0.754c0.185,0.185,0.426,0.276,0.668,0.276
		c0.242,0,0.483-0.092,0.668-0.276l6.969-6.969l6.969,6.969c0.177,0.177,0.418,0.276,0.668,0.276l0,0c0.251,0,0.491-0.1,0.669-0.276
		l0.753-0.754c0.369-0.369,0.369-0.968,0-1.336l-6.968-6.969l6.968-6.969c0.369-0.369,0.369-0.967,0-1.336l-0.753-0.754
		c-0.178-0.177-0.418-0.277-0.669-0.277s-0.491,0.1-0.668,0.277L20.322,17.591 M20,0C8.954,0,0,8.955,0,20c0,11.045,8.954,20,20,20
		s20-8.954,20-20C40,8.955,31.046,0,20,0L20,0z M20.322,18.927l7.637-7.637l0.754,0.754l-7.636,7.637l7.636,7.636l-0.754,0.755
		l-7.637-7.637l-7.637,7.637l-0.754-0.755l7.637-7.636l-7.637-7.637l0.754-0.754L20.322,18.927L20.322,18.927z"/>
</g>
</svg>
