<?xml version="1.0" encoding="iso-8859-1"?>
<!-- Generator: Adobe Illustrator 16.0.4, SVG Export Plug-In . SVG Version: 6.00 Build 0)  -->
<!DOCTYPE svg PUBLIC "-//W3C//DTD SVG 1.1//EN" "http://www.w3.org/Graphics/SVG/1.1/DTD/svg11.dtd">
<svg version="1.1" id="&#x56FE;&#x5C42;_1" xmlns="http://www.w3.org/2000/svg" xmlns:xlink="http://www.w3.org/1999/xlink" x="0px"
	 y="0px" width="100px" height="100px" viewBox="0 0 100 100" style="enable-background:new 0 0 100 100;" xml:space="preserve">
<title>7-2</title>
<desc>Created with Sketch.</desc>
<g>
	<path style="fill:#FFFFFF;" d="M45.302,63.32c1.02,0,2.045-0.045,3.182-0.141c-1.131-1.244-2.01-2.768-2.565-4.445
		c-0.199,0.01-0.406,0.021-0.619,0.021c-2.773,0-5.482-0.309-7.832-0.895c-1.984-0.492-3.599-1.15-4.718-1.922l0.032,4.33
		c0.179,0.521,1.208,1.303,3.589,1.979C38.79,62.941,41.962,63.32,45.302,63.32L45.302,63.32z"/>
	<path style="fill:#FFFFFF;" d="M45.343,53.926c0.144-1.648,0.605-3.211,1.381-4.651c-0.059,0.006-0.121,0.011-0.181,0.016
		c-0.19,0.016-0.377,0.027-0.56,0.04c-0.086,0.005-0.172,0.012-0.26,0.018c-0.812,0.046-1.688,0.09-2.604,0.09
		c-0.521,0-1.092-0.015-1.744-0.041c-0.068-0.003-0.135-0.006-0.203-0.009c-0.064-0.005-0.129-0.008-0.195-0.011
		c-0.664-0.034-1.233-0.074-1.742-0.121c-0.57-0.056-1.131-0.122-1.713-0.203c-0.055-0.009-0.104-0.017-0.154-0.022
		c-0.055-0.008-0.109-0.015-0.164-0.023c-0.579-0.084-1.128-0.18-1.637-0.285c-0.562-0.118-1.049-0.235-1.531-0.367l-0.035-0.009
		c-0.07-0.02-0.141-0.039-0.213-0.061c-0.525-0.147-0.969-0.292-1.357-0.439c-0.043-0.017-0.078-0.031-0.109-0.046l-0.012-0.006
		c-0.377-0.146-0.729-0.306-1.078-0.484c-0.017-0.009-0.035-0.019-0.055-0.027c-0.041-0.019-0.087-0.041-0.131-0.066
		c-0.158-0.085-0.31-0.175-0.453-0.267c-0.005,0.913,0.006,2.787,0.016,4.049c0.002,0.254,0.42,0.602,1.24,1.039l0.049,0.023
		c0.828,0.438,1.766,0.729,2.574,0.953C38.204,54.046,42.21,54.055,45.343,53.926L45.343,53.926z"/>
	<path style="fill:#FFFFFF;" d="M57.867,66.242c-6.363,0-11.541-5.064-11.541-11.293c0-6.226,5.177-11.29,11.541-11.29
		s11.541,5.064,11.541,11.29c0,3.02-1.203,5.855-3.386,7.988C63.841,65.068,60.945,66.242,57.867,66.242z M57.867,44.933
		c-5.661,0-10.266,4.493-10.266,10.017c0,5.525,4.604,10.021,10.266,10.021c2.743,0,5.321-1.047,7.264-2.945
		c1.938-1.891,3.005-4.402,3.005-7.074C68.136,49.426,63.529,44.933,57.867,44.933z M59.726,61.199h-3.188v-2.031h-2.626v-5.311
		h1.527l-2.729-4.578h3.677l0.271,0.481c0.624,1.112,1.124,2.017,1.508,2.729l1.78-3.207l3.802-0.021l-2.913,4.596h1.421v5.313
		h-2.528V61.199z M57.812,59.926h0.64v-2.029h2.53v-0.357h-2.53v-2.062h2.53v-0.342h-2.461l2.9-4.583l-0.727,0.005l-1.469,2.645
		c-0.211,0.389-0.373,0.695-0.496,0.941l-0.565,1.121l-0.567-1.119c-0.379-0.74-1.02-1.917-1.957-3.589h-0.688l2.729,4.578h-2.496
		v0.341h2.627v2.062h-2.627v0.357h2.627V59.926z"/>
	<path style="fill:#FFFFFF;" d="M38.28,39.287c2.443,0.75,5.708,1.164,9.19,1.164c1.414,0,2.85-0.083,4.39-0.249l0.136-0.015
		c0.38-0.042,0.737-0.084,1.083-0.135c0.227-0.034,0.439-0.071,0.648-0.108c0.072-0.012,0.141-0.023,0.211-0.035
		c0.091-0.018,0.184-0.034,0.275-0.05c0.297-0.052,0.575-0.102,0.833-0.159c0.142-0.031,0.271-0.066,0.405-0.102
		c0.061-0.015,0.113-0.031,0.174-0.046c0.812-0.203,1.518-0.422,2.1-0.656c0.035-0.014,0.07-0.027,0.106-0.04
		c0.024-0.009,0.054-0.017,0.076-0.027c0.276-0.117,0.512-0.243,0.739-0.363l0.063-0.035c0.081-0.042,0.158-0.082,0.222-0.122
		c0.166-0.1,0.315-0.204,0.479-0.331c0.078-0.067,0.169-0.147,0.242-0.226l0.008-0.007c0.082-0.082,0.164-0.168,0.214-0.239
		c0.107-0.174,0.16-0.304,0.16-0.404c0-0.555-0.889-1.418-3.376-2.182c-2.447-0.749-5.711-1.162-9.192-1.162
		s-6.745,0.413-9.189,1.163c-2.488,0.765-3.375,1.628-3.375,2.183C34.906,37.659,35.793,38.523,38.28,39.287L38.28,39.287z"/>
	<path style="fill:#FFFFFF;" d="M42.815,55.68c-1.998,0-3.838-0.127-5.62-0.393c-1.021-0.156-1.933-0.348-2.78-0.578
		c-0.154-0.041-0.312-0.074-0.479-0.109c-0.078-0.018-0.155-0.033-0.235-0.051c0.621,0.443,1.579,0.925,2.938,1.355
		c1.686,0.533,4.556,1.172,8.66,1.172c0.047,0,0.094,0,0.139-0.002c-0.073-0.438-0.119-0.912-0.146-1.479
		C44.479,55.639,43.644,55.68,42.815,55.68L42.815,55.68z"/>
	<path style="fill:#FFFFFF;" d="M54.081,41.59c-0.021,0.004-0.045,0.008-0.066,0.01c-0.018,0.002-0.035,0.005-0.05,0.007
		c-0.265,0.045-0.532,0.084-0.831,0.127l-0.068,0.01c-0.152,0.024-0.312,0.047-0.473,0.068c-0.039,0.006-0.082,0.01-0.127,0.015
		c-0.035,0.004-0.068,0.006-0.104,0.011l-0.006,0.001c-0.307,0.038-0.625,0.074-0.924,0.104c-1.333,0.122-2.664,0.183-3.96,0.183
		c-2.636,0-5.329-0.255-7.581-0.718c-2.125-0.438-3.824-1.047-4.965-1.779l0.01,1.687l0.021,2.333
		c0.179,0.52,1.207,1.301,3.584,1.978c2.422,0.689,5.593,1.07,8.929,1.07c0.295,0,0.594-0.016,0.885-0.031
		c0.082-0.004,0.162-0.009,0.242-0.014c1.162-1.237,2.527-2.217,4.06-2.913c1.645-0.744,3.396-1.122,5.21-1.122
		c0.721,0,1.438,0.062,2.139,0.183l0.021-3.172c-1.641,1.052-4.081,1.642-5.932,1.958L54.081,41.59L54.081,41.59z"/>
</g>
<path style="fill:#FFFFFF;" d="M49.597,99.999c-5.167-0.041-10.007-2.092-13.628-5.773L5.556,63.319
	c-3.623-3.685-5.597-8.556-5.555-13.721c0.041-5.166,2.092-10.006,5.775-13.631L36.684,5.556c3.68-3.623,8.553-5.596,13.718-5.555
	s10.007,2.093,13.63,5.776l30.414,30.906c3.621,3.682,5.594,8.554,5.553,13.721c-0.041,5.165-2.092,10.007-5.773,13.629
	L63.319,94.444C59.636,98.069,54.763,100.042,49.597,99.999z M50.381,2.549c-4.486-0.036-8.716,1.677-11.912,4.823L7.563,37.784
	c-3.198,3.147-4.979,7.35-5.016,11.835c-0.035,4.482,1.678,8.715,4.824,11.913l30.413,30.906c3.145,3.197,7.346,4.977,11.833,5.014
	c4.485,0.035,8.717-1.676,11.915-4.822l30.906-30.412c3.197-3.147,4.977-7.349,5.014-11.835c0.035-4.485-1.678-8.717-4.822-11.914
	L62.218,7.563C59.069,4.366,54.868,2.585,50.381,2.549z"/>
<path style="fill:#FFFFFF;" d="M50,94.343c-4.2,0-8.149-1.635-11.119-4.605L10.266,61.122c-2.972-2.972-4.608-6.921-4.608-11.121
	c0-4.201,1.637-8.15,4.606-11.121L38.88,10.263C41.851,7.292,45.799,5.657,50,5.657c4.202,0,8.149,1.635,11.122,4.606L89.736,38.88
	c2.971,2.97,4.605,6.919,4.605,11.121s-1.637,8.149-4.605,11.121L61.121,89.735C58.148,92.708,54.201,94.343,50,94.343z M50,8.205
	c-3.521,0-6.829,1.37-9.317,3.859L12.067,40.682c-2.49,2.489-3.861,5.798-3.861,9.319c0,3.519,1.371,6.829,3.861,9.317
	l28.616,28.616c2.487,2.488,5.797,3.859,9.316,3.859c3.52,0,6.831-1.371,9.319-3.859l28.617-28.616
	c2.488-2.488,3.857-5.799,3.857-9.317c0-3.521-1.369-6.83-3.857-9.319L59.318,12.064C56.83,9.575,53.52,8.205,50,8.205z"/>
</svg>
