<?xml version="1.0" encoding="iso-8859-1"?>
<!-- Generator: Adobe Illustrator 16.0.4, SVG Export Plug-In . SVG Version: 6.00 Build 0)  -->
<!DOCTYPE svg PUBLIC "-//W3C//DTD SVG 1.1//EN" "http://www.w3.org/Graphics/SVG/1.1/DTD/svg11.dtd">
<svg version="1.1" id="&#x56FE;&#x5C42;_1" xmlns="http://www.w3.org/2000/svg" xmlns:xlink="http://www.w3.org/1999/xlink" x="0px"
	 y="0px" width="100px" height="100px" viewBox="0 0 100 100" style="enable-background:new 0 0 100 100;" xml:space="preserve">
<title>7-3</title>
<desc>Created with Sketch.</desc>
<g>
	<polygon id="Fill-5_1_" style="fill:#FFFFFF;" points="67.034,64.552 64.484,64.552 64.484,62.429 36.292,62.429 36.292,64.552 
		33.825,64.552 33.825,66.593 31.935,66.593 31.935,68.718 68.845,68.718 68.845,66.593 67.034,66.593 	"/>
	<path id="Fill-7_1_" style="fill:#FFFFFF;" d="M42.375,60.712V50.089h1.232v-1.396c0-0.854-0.695-1.545-1.555-1.545h-5.44
		c-0.86,0-1.555,0.692-1.555,1.545v1.396h1.315v10.623H42.375z"/>
	<path id="Fill-9_1_" style="fill:#FFFFFF;" d="M64.484,60.712V50.089h1.314v-1.395c0-0.852-0.694-1.544-1.554-1.544h-5.438
		c-0.857,0-1.553,0.692-1.553,1.544v1.396h1.315v10.622H64.484z"/>
	<path id="Fill-11_1_" style="fill:#FFFFFF;" d="M53.388,60.712V50.089h1.316v-1.396c0-0.854-0.695-1.545-1.555-1.545h-5.438
		c-0.86,0-1.554,0.692-1.554,1.545v1.396h1.23v10.623H53.388z"/>
	<path id="Stroke-13_1_" style="fill:none;stroke:#FFFFFF;" d="M44.064,41.186c-0.163,0-0.303-0.108-0.343-0.265
		c-0.041-0.154,0.028-0.318,0.171-0.397l4.941-2.72c0.886-0.488,1.962-0.488,2.849,0l4.938,2.72
		c0.144,0.079,0.215,0.241,0.176,0.397c-0.041,0.157-0.182,0.265-0.346,0.265H44.064z M51.687,32.719
		c-0.888-0.487-1.96-0.487-2.843,0l-16.351,8.992c-1.054,0.579-1.708,1.682-1.708,2.879v1.007h38.961V44.59
		c0-1.197-0.654-2.301-1.706-2.882L51.687,32.719z"/>
	<path style="fill:#FFFFFF;" d="M49.598,99.999c-5.167-0.041-10.008-2.092-13.629-5.774L5.556,63.318
		c-3.623-3.684-5.597-8.555-5.555-13.721c0.041-5.166,2.092-10.006,5.775-13.63L36.684,5.555C40.363,1.932,45.236-0.041,50.402,0
		S60.41,2.093,64.033,5.776l30.413,30.906c3.622,3.682,5.595,8.554,5.553,13.72c-0.041,5.166-2.092,10.008-5.773,13.63
		L63.319,94.444C59.637,98.068,54.764,100.041,49.598,99.999z M50.382,2.548c-4.486-0.036-8.717,1.677-11.912,4.823L7.563,37.783
		c-3.198,3.147-4.979,7.35-5.016,11.835c-0.035,4.483,1.678,8.716,4.824,11.913l30.413,30.906c3.145,3.198,7.346,4.978,11.833,5.014
		c4.485,0.036,8.717-1.676,11.915-4.822l30.905-30.412c3.197-3.146,4.977-7.349,5.014-11.835c0.035-4.485-1.677-8.717-4.822-11.914
		L62.219,7.563C59.07,4.366,54.868,2.584,50.382,2.548z"/>
	<path style="fill:#FFFFFF;" d="M49.999,94.343c-4.2,0-8.149-1.636-11.119-4.605L10.265,61.121C7.293,58.15,5.656,54.201,5.656,50
		s1.637-8.15,4.606-11.121l28.616-28.617c2.971-2.971,6.919-4.606,11.119-4.606c4.202,0,8.15,1.635,11.122,4.606l28.615,28.617
		c2.972,2.97,4.605,6.919,4.605,11.121s-1.636,8.15-4.605,11.121L61.12,89.735C58.148,92.707,54.2,94.343,49.999,94.343z
		 M49.999,8.204c-3.521,0-6.829,1.37-9.317,3.859L12.065,40.681C9.575,43.17,8.204,46.48,8.204,50c0,3.52,1.371,6.83,3.861,9.318
		l28.616,28.616c2.487,2.488,5.797,3.858,9.316,3.858c3.521,0,6.832-1.37,9.32-3.858l28.616-28.616
		c2.488-2.488,3.858-5.799,3.858-9.318c0-3.52-1.37-6.83-3.858-9.319L59.318,12.063C56.83,9.574,53.52,8.204,49.999,8.204z"/>
</g>
</svg>
