<?xml version="1.0" encoding="iso-8859-1"?>
<!-- Generator: Adobe Illustrator 16.0.4, SVG Export Plug-In . SVG Version: 6.00 Build 0)  -->
<!DOCTYPE svg PUBLIC "-//W3C//DTD SVG 1.1//EN" "http://www.w3.org/Graphics/SVG/1.1/DTD/svg11.dtd">
<svg version="1.1" id="&#x56FE;&#x5C42;_1" xmlns="http://www.w3.org/2000/svg" xmlns:xlink="http://www.w3.org/1999/xlink" x="0px"
	 y="0px" width="40px" height="40px" viewBox="0 0 40 40" style="enable-background:new 0 0 40 40;" xml:space="preserve">
<g>
	<path style="fill:#FFFFFF;" d="M20.032,4.636L20.032,4.636z"/>
	<path style="fill:#FFFFFF;" d="M5.113,15.744L5.113,15.744z"/>
	<path style="fill:#FFFFFF;" d="M19.332,0h1.329c2.307,0.107,4.604,0.554,6.748,1.423c4.47,1.769,8.243,5.218,10.414,9.506
		c1.381,2.688,2.111,5.694,2.177,8.712v0.717c-0.064,2.979-0.775,5.946-2.122,8.607c-1.312,2.62-3.215,4.941-5.518,6.755
		c-2.355,1.857-5.135,3.176-8.067,3.814c-1.19,0.269-2.407,0.394-3.624,0.466h-1.33c-1.595-0.084-3.187-0.299-4.724-0.737
		c-3.724-1.032-7.123-3.183-9.663-6.094c-1.785-2.032-3.148-4.435-3.982-7.009c-0.61-1.872-0.921-3.835-0.97-5.803v-0.715
		c0.071-3.651,1.145-7.279,3.113-10.358c2.088-3.29,5.154-5.951,8.714-7.538C14.183,0.675,16.752,0.116,19.332,0L19.332,0
		 M15.515,4.267c-1.268,1.592-2.095,3.479-2.767,5.388c0.942,0.236,1.911,0.34,2.87,0.484c1.189,0.122,2.383,0.231,3.58,0.24
		c-0.001-2.9,0.001-5.802-0.001-8.703C17.675,1.997,16.451,3.074,15.515,4.267L15.515,4.267 M20.8,10.378
		c1.619-0.028,3.237-0.163,4.836-0.422c0.544-0.07,1.083-0.172,1.615-0.304c-0.786-2.232-1.799-4.456-3.46-6.182
		c-0.812-0.851-1.823-1.548-2.988-1.795C20.798,4.577,20.802,7.478,20.8,10.378L20.8,10.378 M13.934,2.628
		c-2.828,0.985-5.408,2.677-7.438,4.879c1.485,0.785,3.077,1.364,4.702,1.781c0.849-2.558,2.039-5.088,3.957-7.023
		C14.737,2.347,14.336,2.492,13.934,2.628L13.934,2.628 M24.837,2.253c0.399,0.368,0.721,0.808,1.068,1.222
		c1.308,1.746,2.222,3.754,2.9,5.817c1.624-0.423,3.211-1.006,4.702-1.78C31.187,4.995,28.148,3.135,24.837,2.253L24.837,2.253
		 M5.429,8.758c-2.298,2.983-3.662,6.678-3.809,10.444C4.286,19.197,6.952,19.2,9.617,19.2c0.052-2.822,0.413-5.641,1.123-8.374
		C8.899,10.343,7.102,9.67,5.429,8.758L5.429,8.758 M29.258,10.826c0.71,2.733,1.072,5.552,1.123,8.373c2.667-0.001,5.334,0,8.001,0
		c-0.156-3.766-1.511-7.462-3.815-10.443C32.898,9.675,31.097,10.338,29.258,10.826L29.258,10.826 M11.216,19.193
		c2.661,0.014,5.322,0.002,7.982,0.006v-7.221c-2.316-0.043-4.634-0.284-6.898-0.78C11.611,13.806,11.275,16.499,11.216,19.193
		L11.216,19.193 M20.8,11.978c0,2.408,0,4.814,0.001,7.222c2.661-0.005,5.322,0.009,7.983-0.007
		c-0.061-2.694-0.396-5.388-1.085-7.995C25.436,11.696,23.116,11.935,20.8,11.978L20.8,11.978 M1.619,20.8
		c0.149,3.767,1.511,7.461,3.811,10.444c1.671-0.915,3.471-1.583,5.312-2.07c-0.711-2.732-1.07-5.553-1.125-8.374
		C6.95,20.802,4.284,20.802,1.619,20.8L1.619,20.8 M11.217,20.807c0.06,2.694,0.392,5.392,1.086,7.998
		c2.263-0.505,4.581-0.737,6.895-0.782c0.001-2.406,0.001-4.814,0.001-7.222C16.538,20.805,13.877,20.794,11.217,20.807
		L11.217,20.807 M20.8,20.801v7.222c2.318,0.042,4.637,0.285,6.902,0.778c0.678-2.611,1.036-5.306,1.071-8.004
		C26.116,20.807,23.458,20.799,20.8,20.801L20.8,20.801 M30.38,20.801c-0.047,2.821-0.413,5.64-1.121,8.373
		c1.839,0.485,3.639,1.153,5.309,2.069c2.305-2.98,3.658-6.677,3.814-10.441C35.715,20.8,33.047,20.802,30.38,20.801L30.38,20.801
		 M12.749,30.343c0.779,2.238,1.8,4.463,3.462,6.189c0.811,0.85,1.823,1.546,2.986,1.791c0.003-2.899,0-5.8,0.001-8.701
		C17.034,29.665,14.867,29.886,12.749,30.343L12.749,30.343 M20.8,29.621c0.001,2.9-0.001,5.803,0.002,8.703
		c1.52-0.32,2.743-1.395,3.679-2.585c1.27-1.595,2.102-3.484,2.77-5.397c-0.971-0.233-1.964-0.347-2.95-0.49
		C23.136,29.738,21.971,29.629,20.8,29.621L20.8,29.621 M6.492,32.489c2.321,2.515,5.357,4.378,8.668,5.256
		c-1.918-1.94-3.115-4.47-3.963-7.033C9.569,31.123,7.985,31.72,6.492,32.489L6.492,32.489 M28.804,30.71
		c-0.852,2.565-2.047,5.098-3.97,7.04c3.31-0.885,6.348-2.741,8.67-5.257C32.02,31.707,30.428,31.132,28.804,30.71L28.804,30.71
		 M28.804,30.71L28.804,30.71z"/>
</g>
</svg>
