<?xml version="1.0" encoding="iso-8859-1"?>
<!-- Generator: Adobe Illustrator 16.0.4, SVG Export Plug-In . SVG Version: 6.00 Build 0)  -->
<!DOCTYPE svg PUBLIC "-//W3C//DTD SVG 1.1//EN" "http://www.w3.org/Graphics/SVG/1.1/DTD/svg11.dtd">
<svg version="1.1" id="&#x56FE;&#x5C42;_1" xmlns="http://www.w3.org/2000/svg" xmlns:xlink="http://www.w3.org/1999/xlink" x="0px"
	 y="0px" width="100px" height="100px" viewBox="0 0 100 100" style="enable-background:new 0 0 100 100;" xml:space="preserve">
<title>7-2</title>
<desc>Created with Sketch.</desc>
<path style="fill:#FFFFFF;" d="M50,100c-5.167,0-10.024-2.012-13.675-5.666l-30.66-30.66C2.012,60.023,0,55.168,0,50
	c0-5.167,2.012-10.024,5.666-13.677l30.66-30.661C39.978,2.011,44.833,0,50,0c5.165,0,10.021,2.011,13.677,5.662l30.658,30.661
	C97.988,39.976,100,44.833,100,50c0,5.168-2.012,10.023-5.665,13.674l-30.658,30.66C60.023,97.988,55.166,100,50,100z M50,2.548
	c-4.486,0-8.703,1.746-11.873,4.917l-30.66,30.66C4.295,41.297,2.548,45.514,2.548,50c0,4.486,1.747,8.703,4.919,11.873l30.66,30.66
	c3.17,3.172,7.386,4.918,11.873,4.918c4.486,0,8.703-1.746,11.876-4.918l30.657-30.66c3.173-3.17,4.919-7.387,4.919-11.873
	c0-4.486-1.746-8.703-4.919-11.875L61.876,7.464C58.703,4.294,54.484,2.548,50,2.548z"/>
<path style="fill:#FFFFFF;" d="M49.999,94.342c-4.2,0-8.149-1.637-11.119-4.607L10.263,61.121c-2.971-2.971-4.606-6.92-4.606-11.12
	c0-4.201,1.635-8.151,4.606-11.122l28.616-28.615c2.97-2.971,6.919-4.607,11.119-4.607c4.201,0,8.15,1.636,11.122,4.607
	L89.734,38.88c2.972,2.971,4.606,6.92,4.606,11.122c0,4.2-1.636,8.148-4.606,11.12L61.12,89.734
	C58.148,92.707,54.199,94.342,49.999,94.342z M49.999,8.205c-3.52,0-6.829,1.371-9.317,3.861L12.064,40.681
	c-2.489,2.49-3.859,5.799-3.859,9.32c0,3.521,1.37,6.829,3.859,9.317l28.617,28.615c2.488,2.489,5.798,3.86,9.317,3.86
	c3.521,0,6.832-1.371,9.32-3.86l28.615-28.615c2.489-2.488,3.859-5.797,3.859-9.317c0-3.521-1.37-6.831-3.859-9.32L59.318,12.066
	C56.83,9.576,53.52,8.205,49.999,8.205z"/>
<path style="fill:#FFFFFF;" d="M65.395,68.291H32.223V61.74h2.659V37.981h26.71l1.137,8.472l2.656,15.818L65.395,68.291z
	 M33.497,67.018H64.12v-4.641l-2.651-15.733l-0.99-7.388H36.155v23.758h-2.659L33.497,67.018L33.497,67.018z"/>
<path style="fill:#FFFFFF;" d="M44.128,60.768h-3.96v-6.328h3.96V60.768z M41.442,59.492h1.412v-3.779h-1.412V59.492z"/>
<path style="fill:#FFFFFF;" d="M44.128,50.714h-3.96v-6.327h3.96V50.714z M41.442,49.44h1.412v-3.78h-1.412V49.44z"/>
<path style="fill:#FFFFFF;" d="M65.367,61.65V41.679h-3.545v-9.987H47.646V61.65h-1.773v6.658h21.268V61.65H65.367L65.367,61.65z
	 M52.961,58.34h-1.789v-6.693h1.789V58.34L52.961,58.34L52.961,58.34z M52.961,45.025h-1.789v-6.694h1.789V45.025L52.961,45.025
	L52.961,45.025z M58.279,58.34h-1.793v-6.693h1.793V58.34L58.279,58.34z M58.279,45.025h-1.793v-6.694h1.793V45.025L58.279,45.025z"
	/>
</svg>
