<?xml version="1.0" encoding="UTF-8"?>
<svg width="100px" height="100px" viewBox="0 0 100 100" version="1.1" xmlns="http://www.w3.org/2000/svg" xmlns:xlink="http://www.w3.org/1999/xlink">
    <!-- Generator: Sketch 42 (36781) - http://www.bohemiancoding.com/sketch -->
    <title>7-3</title>
    <desc>Created with Sketch.</desc>
    <defs></defs>
    <g id="Page-1" stroke="none" stroke-width="1" fill="none" fill-rule="evenodd">
        <g id="7-3">
            <g>
                <path d="M49.6753247,99.3506494 C44.7571429,99.3506494 40.1298701,97.4350649 36.6532468,93.9558442 L5.39480519,62.6987013 C1.91688312,59.2207792 0,54.5948052 0,49.6753247 C0,44.7558442 1.91688312,40.1298701 5.39480519,36.6519481 L36.6532468,5.39350649 C40.1298701,1.91688312 44.7571429,0 49.6753247,0 C54.5961039,0 59.2207792,1.91688312 62.7,5.39350649 L93.9571429,36.6519481 C97.4350649,40.1298701 99.3506494,44.7558442 99.3506494,49.6753247 C99.3506494,54.5948052 97.4350649,59.2207792 93.9571429,62.6987013 L62.7,93.9558442 C59.2207792,97.4350649 54.5961039,99.3506494 49.6753247,99.3506494 Z" id="Stroke-1" stroke="#FFFFFF" stroke-width="2"></path>
                <path d="M10.0827273,60.0941558 C4.32818182,54.3396104 4.32818182,45.011039 10.0827273,39.2564935 L39.2567532,10.0837662 C45.01,4.32922078 54.3385714,4.32922078 60.0944156,10.0837662 L89.2671429,39.2564935 C95.0216883,45.011039 95.0216883,54.3396104 89.2671429,60.0941558 L60.0944156,89.2668831 C54.3385714,95.0227273 45.01,95.0227273 39.2567532,89.2668831 L10.0827273,60.0941558 Z" id="Stroke-3" stroke="#FFFFFF" stroke-width="2"></path>
                <polygon id="Fill-5" fill="#FFFFFF" points="66.442987 63.6909091 63.8936364 63.6909091 63.8936364 61.5688312 35.7014286 61.5688312 35.7014286 63.6909091 33.2338961 63.6909091 33.2338961 65.7324675 31.3442857 65.7324675 31.3442857 67.8571429 68.2533766 67.8571429 68.2533766 65.7324675 66.442987 65.7324675"></polygon>
                <path d="M41.7841558,59.8518182 L41.7841558,49.2284416 L43.0166234,49.2284416 L43.0166234,47.8323377 C43.0166234,46.9790909 42.3218182,46.2868831 41.4620779,46.2868831 L36.0218182,46.2868831 C35.1620779,46.2868831 34.4672727,46.9790909 34.4672727,47.8323377 L34.4672727,49.2284416 L35.7828571,49.2284416 L35.7828571,59.8518182 L41.7841558,59.8518182 Z" id="Fill-7" fill="#FFFFFF"></path>
                <path d="M63.8937662,59.8518182 L63.8937662,49.2284416 L65.2080519,49.2284416 L65.2080519,47.8336364 C65.2080519,46.9816883 64.5132468,46.2894805 63.6548052,46.2894805 L58.2171429,46.2894805 C57.3587013,46.2894805 56.6638961,46.9816883 56.6638961,47.8336364 L56.6638961,49.2297403 L57.9794805,49.2297403 L57.9794805,59.8518182 L63.8937662,59.8518182 Z" id="Fill-9" fill="#FFFFFF"></path>
                <path d="M52.7964935,59.8518182 L52.7964935,49.2284416 L54.1133766,49.2284416 L54.1133766,47.8323377 C54.1133766,46.9790909 53.4172727,46.2868831 52.5588312,46.2868831 L47.1198701,46.2868831 C46.2601299,46.2868831 45.5666234,46.9790909 45.5666234,47.8323377 L45.5666234,49.2284416 L46.7964935,49.2284416 L46.7964935,59.8518182 L52.7964935,59.8518182 Z" id="Fill-11" fill="#FFFFFF"></path>
                <path d="M43.4735065,40.3257143 C43.3111688,40.3257143 43.1709091,40.2179221 43.1306494,40.0607792 C43.0903896,39.9062338 43.1592208,39.7425974 43.3020779,39.6633766 L48.2436364,36.9438961 C49.1293506,36.4555844 50.205974,36.4555844 51.092987,36.9438961 L56.0319481,39.6633766 C56.1748052,39.7425974 56.2462338,39.9049351 56.2072727,40.0607792 C56.1657143,40.2179221 56.0254545,40.3257143 55.8618182,40.3257143 L43.4735065,40.3257143 Z M51.0955844,31.8581818 C50.2085714,31.3711688 49.1358442,31.3711688 48.2527273,31.8581818 L31.9020779,40.8503896 C30.8475325,41.4296104 30.1942857,42.5322078 30.1942857,43.7296104 L30.1942857,44.7361039 L69.1553247,44.7361039 L69.1553247,43.7296104 C69.1553247,42.5322078 68.5007792,41.4283117 67.4488312,40.8477922 L51.0955844,31.8581818 Z" id="Stroke-13" stroke="#FFFFFF"></path>
            </g>
        </g>
    </g>
</svg>