<?xml version="1.0" encoding="iso-8859-1"?>
<!-- Generator: Adobe Illustrator 16.0.4, SVG Export Plug-In . SVG Version: 6.00 Build 0)  -->
<!DOCTYPE svg PUBLIC "-//W3C//DTD SVG 1.1//EN" "http://www.w3.org/Graphics/SVG/1.1/DTD/svg11.dtd">
<svg version="1.1" id="&#x56FE;&#x5C42;_1" xmlns="http://www.w3.org/2000/svg" xmlns:xlink="http://www.w3.org/1999/xlink" x="0px"
	 y="0px" width="100px" height="100px" viewBox="0 0 100 100" style="enable-background:new 0 0 100 100;" xml:space="preserve">
<title>7-2</title>
<desc>Created with Sketch.</desc>
<path style="fill:#FFFFFF;" d="M65.395,68.291H32.223V61.74h2.659V37.981h26.71l1.137,8.472l2.656,15.818L65.395,68.291z
	 M33.497,67.018H64.12v-4.641l-2.651-15.733l-0.99-7.388H36.155v23.758h-2.659L33.497,67.018L33.497,67.018z"/>
<path style="fill:#FFFFFF;" d="M44.128,60.768h-3.96v-6.328h3.96V60.768z M41.442,59.492h1.412v-3.779h-1.412V59.492z"/>
<path style="fill:#FFFFFF;" d="M44.128,50.714h-3.96v-6.327h3.96V50.714z M41.442,49.44h1.412v-3.78h-1.412V49.44z"/>
<path style="fill:#FFFFFF;" d="M65.367,61.65V41.679h-3.545v-9.987H47.646V61.65h-1.773v6.658h21.268V61.65H65.367L65.367,61.65z
	 M52.961,58.34h-1.789v-6.693h1.789V58.34L52.961,58.34L52.961,58.34z M52.961,45.025h-1.789v-6.694h1.789V45.025L52.961,45.025
	L52.961,45.025z M58.279,58.34h-1.793v-6.693h1.793V58.34L58.279,58.34z M58.279,45.025h-1.793v-6.694h1.793V45.025L58.279,45.025z"
	/>
<path style="fill:#FFFFFF;" d="M50,100c-5.167,0-10.024-2.012-13.675-5.665L5.666,63.676C2.012,60.021,0,55.166,0,50
	s2.012-10.022,5.666-13.676l30.66-30.659C39.976,2.012,44.833,0,50,0c5.166,0,10.023,2.012,13.677,5.666l30.659,30.659
	C97.988,39.977,100,44.833,100,50c0,5.166-2.012,10.023-5.664,13.676L63.677,94.335C60.023,97.988,55.166,100,50,100z M50,2.548
	c-4.487,0-8.703,1.747-11.873,4.919L7.467,38.126C4.295,41.298,2.548,45.515,2.548,50c0,4.484,1.747,8.702,4.919,11.874
	l30.66,30.659c3.17,3.173,7.386,4.919,11.873,4.919c4.486,0,8.703-1.746,11.876-4.919l30.658-30.659
	c3.172-3.171,4.918-7.388,4.918-11.874c0-4.486-1.746-8.703-4.918-11.874L61.876,7.467C58.703,4.295,54.486,2.548,50,2.548z"/>
<path style="fill:#FFFFFF;" d="M49.999,94.342c-4.2,0-8.149-1.636-11.119-4.605L10.265,61.121C7.294,58.15,5.657,54.201,5.657,50
	s1.637-8.15,4.607-11.121l28.615-28.616c2.97-2.971,6.919-4.606,11.119-4.606c4.202,0,8.15,1.635,11.122,4.606l28.614,28.616
	c2.972,2.97,4.606,6.919,4.606,11.121s-1.636,8.15-4.606,11.121L61.12,89.734C58.148,92.706,54.2,94.342,49.999,94.342z
	 M49.999,8.205c-3.52,0-6.829,1.37-9.317,3.859L12.066,40.681C9.576,43.17,8.205,46.48,8.205,50c0,3.52,1.371,6.83,3.861,9.318
	l28.615,28.615c2.488,2.489,5.798,3.859,9.317,3.859c3.521,0,6.832-1.37,9.32-3.859l28.615-28.615
	c2.489-2.488,3.859-5.799,3.859-9.318c0-3.52-1.37-6.83-3.859-9.319L59.318,12.064C56.83,9.575,53.52,8.205,49.999,8.205z"/>
</svg>
