<?xml version="1.0" encoding="UTF-8"?>
<svg width="100px" height="100px" viewBox="0 0 100 100" version="1.1" xmlns="http://www.w3.org/2000/svg" xmlns:xlink="http://www.w3.org/1999/xlink">
    <!-- Generator: Sketch 42 (36781) - http://www.bohemiancoding.com/sketch -->
    <title>7-2</title>
    <desc>Created with Sketch.</desc>
    <defs></defs>
    <g id="Page-1" stroke="none" stroke-width="1" fill="none" fill-rule="evenodd">
        <g id="7-2">
            <g>
                <path d="M49.6753247,99.3506494 C44.7571429,99.3506494 40.1298701,97.4350649 36.6532468,93.9558442 L5.39480519,62.6987013 C1.91688312,59.2207792 0,54.5948052 0,49.6753247 C0,44.7558442 1.91688312,40.1298701 5.39480519,36.6519481 L36.6532468,5.39480519 C40.1298701,1.91558442 44.7571429,0 49.6753247,0 C54.5961039,0 59.2207792,1.91558442 62.7,5.39480519 L93.9571429,36.6519481 C97.4350649,40.1298701 99.3506494,44.7558442 99.3506494,49.6753247 C99.3506494,54.5948052 97.4350649,59.2207792 93.9571429,62.6987013 L62.7,93.9558442 C59.2207792,97.4350649 54.5961039,99.3506494 49.6753247,99.3506494 Z" id="Stroke-1" stroke="#FFFFFF" stroke-width="2"></path>
                <path d="M10.0838961,60.0941558 C4.32805195,54.3396104 4.32805195,45.011039 10.0838961,39.2564935 L39.2566234,10.0824675 C45.0098701,4.32922078 54.3384416,4.32922078 60.0942857,10.0824675 L89.267013,39.2564935 C95.0215584,45.011039 95.0215584,54.3396104 89.267013,60.0941558 L60.0942857,89.2668831 C54.3384416,95.0227273 45.0098701,95.0227273 39.2566234,89.2668831 L10.0838961,60.0941558 Z" id="Stroke-3" stroke="#FFFFFF" stroke-width="2"></path>
                <path d="M45.2288312,63.5793506 C46.2677922,63.5793506 47.3119481,63.5338961 48.472987,63.4364935 C47.3184416,62.1676623 46.4236364,60.6157143 45.8574026,58.9027273 C45.6535065,58.9144156 45.4431169,58.9261039 45.2262338,58.9261039 C42.398961,58.9261039 39.6379221,58.6118182 37.2418182,58.0157143 C35.2184416,57.5131169 33.572987,56.8416883 32.4314286,56.0572727 L32.4651948,60.4715584 C32.647013,61.0027273 33.6963636,61.7988312 36.1236364,62.4897403 C38.5911688,63.1923377 41.8249351,63.5793506 45.2288312,63.5793506" id="Fill-5" fill="#FFFFFF"></path>
                <path d="M45.2706494,54.0025974 C45.4161039,52.3207792 45.8888312,50.7285714 46.6784416,49.261039 C46.6187013,49.2675325 46.5550649,49.2714286 46.494026,49.2766234 C46.3005195,49.2922078 46.1096104,49.3051948 45.9238961,49.3181818 C45.8368831,49.3220779 45.7485714,49.3285714 45.658961,49.3350649 C44.8303896,49.3818182 43.9381818,49.4272727 43.0057143,49.4272727 C42.4732468,49.4272727 41.8914286,49.4116883 41.2277922,49.3844156 C41.1576623,49.3818182 41.0888312,49.3779221 41.0212987,49.3753247 C40.9550649,49.3714286 40.8888312,49.3688312 40.8212987,49.3662338 C40.1446753,49.3298701 39.5628571,49.2896104 39.0446753,49.2415584 C38.4641558,49.1857143 37.8927273,49.1168831 37.2979221,49.0350649 C37.2420779,49.025974 37.1914286,49.0181818 37.1407792,49.0116883 C37.0849351,49.0038961 37.0290909,48.9974026 36.9732468,48.9883117 C36.3836364,48.9012987 35.8238961,48.8051948 35.3057143,48.6974026 C34.7316883,48.5766234 34.2355844,48.4571429 33.7446753,48.3233766 L33.7096104,48.3142857 C33.6381818,48.2948052 33.5654545,48.2753247 33.4927273,48.2532468 C32.9576623,48.1025974 32.5044156,47.9558442 32.107013,47.8051948 C32.0641558,47.7883117 32.0277922,47.7727273 31.9953247,47.7571429 L31.9849351,47.7532468 C31.5992208,47.6025974 31.2394805,47.4402597 30.8849351,47.2584416 C30.8680519,47.2493506 30.8498701,47.2402597 30.8290909,47.2298701 C30.7875325,47.2116883 30.7407792,47.1883117 30.6953247,47.161039 C30.5342857,47.074026 30.3797403,46.9844156 30.2342857,46.8896104 C30.2290909,47.8207792 30.2394805,49.7311688 30.2498701,51.0181818 C30.2524675,51.2753247 30.6784416,51.6311688 31.5148052,52.0779221 L31.5641558,52.1025974 C32.4083117,52.5493506 33.3641558,52.8428571 34.1875325,53.074026 C37.9927273,54.1246753 42.0771429,54.1337662 45.2706494,54.0025974" id="Fill-7" fill="#FFFFFF"></path>
                <path d="M61.8633766,54.5835065 L61.8633766,56.2315584 L59.2841558,56.2315584 L59.2841558,57.0367532 L61.8633766,57.0367532 L61.8633766,58.6990909 L59.2841558,58.6990909 L59.2841558,60.7679221 L57.3335065,60.7679221 L57.3335065,58.6977922 L54.6555844,58.6977922 L54.6555844,57.0354545 L57.3335065,57.0354545 L57.3335065,56.228961 L54.6555844,56.228961 L54.6555844,54.5822078 L56.7062338,54.5822078 L53.9244156,49.9146753 L56.1503896,49.9146753 L56.24,50.0744156 C57.2672727,51.9042857 57.9490909,53.1575325 58.3412987,53.9276623 C58.4698701,53.6744156 58.6387013,53.3536364 58.8594805,52.9432468 L60.54,49.9172727 L62.8490909,49.9042857 L59.8854545,54.5835065 L61.8633766,54.5835065 Z M58.04,44.1848052 C51.9101299,44.1848052 46.9231169,49.0575325 46.9231169,55.0445455 C46.9231169,61.0367532 51.9101299,65.9094805 58.04,65.9094805 C61.0062338,65.9094805 63.7971429,64.7783117 65.8984416,62.7237662 C68.001039,60.6705195 69.1555844,57.9445455 69.1555844,55.0445455 C69.1555844,49.0575325 64.1685714,44.1848052 58.04,44.1848052 Z" id="Stroke-9" stroke="#FFFFFF"></path>
                <path d="M38.0707792,39.078961 C40.562987,39.8438961 43.888961,40.2646753 47.4396104,40.2646753 C48.8798701,40.2646753 50.3435065,40.1815584 51.9149351,40.0114286 L52.0538961,39.9958442 C52.4409091,39.952987 52.8071429,39.9101299 53.1577922,39.8581818 C53.3876623,39.8231169 53.6071429,39.7854545 53.8201299,39.7477922 C53.8928571,39.7348052 53.9616883,39.7231169 54.0344156,39.7114286 C54.1266234,39.6945455 54.2214286,39.6776623 54.3175325,39.6607792 C54.6175325,39.6075325 54.9032468,39.5568831 55.1655844,39.4984416 C55.3084416,39.4672727 55.4396104,39.4309091 55.5785714,39.3945455 C55.6383117,39.378961 55.6954545,39.3633766 55.7564935,39.3477922 C56.5824675,39.1412987 57.3019481,38.9179221 57.8967532,38.678961 C57.9318182,38.665974 57.9681818,38.6516883 58.0058442,38.6387013 C58.0318182,38.6296104 58.0590909,38.6205195 58.0824675,38.6114286 C58.3668831,38.4919481 58.6058442,38.3633766 58.837013,38.24 L58.9032468,38.2049351 C58.9850649,38.1620779 59.0642857,38.1218182 59.1292208,38.0802597 C59.2980519,37.978961 59.4512987,37.8724675 59.6175325,37.7438961 C59.6967532,37.6750649 59.7902597,37.5932468 59.8642857,37.514026 L59.8720779,37.5062338 C59.9564935,37.4231169 60.0396104,37.3348052 60.0902597,37.2633766 C60.2006494,37.0854545 60.2538961,36.952987 60.2538961,36.8503896 C60.2538961,36.2854545 59.3487013,35.4049351 56.8123377,34.6257143 C54.3175325,33.8620779 50.988961,33.4412987 47.4396104,33.4412987 C43.8902597,33.4412987 40.5642857,33.8620779 38.0720779,34.627013 C35.5357143,35.4075325 34.6318182,36.2880519 34.6318182,36.852987 C34.6318182,37.4192208 35.5357143,38.2997403 38.0707792,39.078961" id="Fill-11" fill="#FFFFFF"></path>
                <path d="M42.6935065,55.7909091 C40.6571429,55.7909091 38.7818182,55.6597403 36.9649351,55.3896104 C35.9233766,55.2298701 34.9948052,55.0376623 34.1298701,54.8 C33.9714286,54.7584416 33.8116883,54.7246753 33.6415584,54.6883117 C33.5636364,54.6727273 33.4831169,54.6545455 33.4025974,54.6363636 C34.0350649,55.0896104 35.0116883,55.5805195 36.3974026,56.0207792 C38.1168831,56.5649351 41.0428571,57.2142857 45.225974,57.2142857 C45.274026,57.2142857 45.3207792,57.2142857 45.3688312,57.2116883 C45.2935065,56.7675325 45.2467532,56.2831169 45.2194805,55.7064935 C44.3922078,55.7493506 43.5376623,55.7909091 42.6935065,55.7909091" id="Fill-13" fill="#FFFFFF"></path>
                <path d="M54.178961,41.4264935 C54.1555844,41.4303896 54.1335065,41.4342857 54.1114286,41.4368831 C54.0945455,41.4394805 54.0763636,41.4420779 54.0607792,41.4446753 C53.7906494,41.4901299 53.5179221,41.5303896 53.214026,41.5732468 L53.1438961,41.5836364 C52.9867532,41.6083117 52.8231169,41.6316883 52.6607792,41.6537662 C52.6218182,41.6602597 52.5776623,41.6641558 52.5322078,41.6693506 C52.4971429,41.6719481 52.4620779,41.6745455 52.427013,41.6797403 L52.4218182,41.681039 C52.1088312,41.72 51.7841558,41.7563636 51.4802597,41.7862338 C50.1218182,41.9109091 48.7646753,41.9732468 47.4425974,41.9732468 C44.7542857,41.9732468 42.0101299,41.7135065 39.7127273,41.2407792 C37.5464935,40.7953247 35.814026,40.1732468 34.6516883,39.4277922 L34.6633766,41.1472727 L34.6828571,43.5264935 C34.8646753,44.0563636 35.914026,44.8537662 38.3374026,45.5433766 C40.8062338,46.245974 44.0374026,46.6342857 47.44,46.6342857 C47.7412987,46.6342857 48.0451948,46.6174026 48.3425974,46.6018182 C48.4244156,46.5979221 48.5062338,46.594026 48.5880519,46.5888312 C49.7711688,45.3277922 51.1646753,44.3277922 52.7283117,43.6187013 C54.4036364,42.8602597 56.1906494,42.4758442 58.04,42.4758442 C58.7737662,42.4758442 59.5062338,42.5368831 60.2192208,42.6602597 L60.2412987,39.4277922 C58.5685714,40.5005195 56.078961,41.1018182 54.1945455,41.4238961 L54.178961,41.4264935 Z" id="Fill-15" fill="#FFFFFF"></path>
            </g>
        </g>
    </g>
</svg>