<?xml version="1.0" encoding="UTF-8"?>
<svg width="100px" height="100px" viewBox="0 0 100 100" version="1.1" xmlns="http://www.w3.org/2000/svg" xmlns:xlink="http://www.w3.org/1999/xlink">
    <!-- Generator: Sketch 42 (36781) - http://www.bohemiancoding.com/sketch -->
    <title>6-3</title>
    <desc>Created with Sketch.</desc>
    <defs></defs>
    <g id="Page-1" stroke="none" stroke-width="1" fill="none" fill-rule="evenodd">
        <g id="6-3">
            <g>
                <path d="M49.6753247,99.3512987 C44.7571429,99.3512987 40.1298701,97.4357143 36.6532468,93.9564935 L5.39480519,62.6993506 C1.91688312,59.2214286 0,54.5954545 0,49.675974 C0,44.7564935 1.91688312,40.1305195 5.39480519,36.6525974 L36.6532468,5.39415584 C40.1298701,1.91753247 44.7571429,0.000649350649 49.6753247,0.000649350649 C54.5961039,0.000649350649 59.2207792,1.91753247 62.7,5.39415584 L93.9571429,36.6525974 C97.4350649,40.1305195 99.3506494,44.7564935 99.3506494,49.675974 C99.3506494,54.5954545 97.4350649,59.2214286 93.9571429,62.6993506 L62.7,93.9564935 C59.2207792,97.4357143 54.5961039,99.3512987 49.6753247,99.3512987 Z" id="Stroke-1" stroke="#FFFFFF" stroke-width="2"></path>
                <path d="M10.0827273,60.0948052 C4.32818182,54.3402597 4.32818182,45.0116883 10.0827273,39.2571429 L39.2567532,10.0844156 C45.01,4.32987013 54.3385714,4.32987013 60.0944156,10.0844156 L89.2671429,39.2571429 C95.0216883,45.0116883 95.0216883,54.3402597 89.2671429,60.0948052 L60.0944156,89.2675325 C54.3385714,95.0233766 45.01,95.0233766 39.2567532,89.2675325 L10.0827273,60.0948052 Z" id="Stroke-3" stroke="#FFFFFF" stroke-width="2"></path>
                <path d="M37.4581818,39.4955844 C39.6997403,39.4955844 41.5335065,37.6618182 41.5335065,35.4228571 C41.5335065,33.1838961 39.6997403,31.3514286 37.4581818,31.3514286 C35.2179221,31.3514286 33.3867532,33.1838961 33.3867532,35.4228571 C33.3867532,37.6618182 35.2179221,39.4955844 37.4581818,39.4955844 L37.4581818,39.4955844 Z M48.9971429,68.0007792 L61.2153247,68.0007792 L61.2153247,65.9657143 L48.9971429,65.9657143 L48.9971429,68.0007792 Z M44.2464935,32.7072727 L44.2464935,34.7436364 L66.6464935,34.7436364 L66.6464935,55.7851948 L45.6023377,55.7851948 L45.6023377,57.818961 L53.7477922,57.818961 L53.7477922,64.605974 L55.7841558,64.605974 L55.7841558,57.818961 L68.6802597,57.818961 L68.6802597,32.6397403 L44.2464935,32.7072727 Z M47.1646753,50.6254545 L50.3542857,49.3358442 L54.765974,51.9163636 L56.6685714,44.8566234 L59.8568831,47.4345455 L63.6581818,40.9877922 L62.3698701,40.3774026 L59.178961,45.5358442 L55.9880519,42.3462338 L54.0880519,50.0825974 L50.2854545,48.1825974 L46.4854545,49.4735065 L47.1646753,50.6254545 Z M49.6763636,44.2462338 L52.3919481,40.8514286 L38.1361039,40.8514286 L38.8153247,41.5306494 L38.1361039,42.8877922 L38.8153247,48.9981818 L37.4581818,51.0332468 L36.1023377,48.9981818 L36.778961,42.8877922 L36.1023377,41.5306494 L36.778961,40.8514286 L32.7075325,40.8514286 L30.6698701,51.0332468 L33.3867532,53.7488312 L32.0283117,68.0007792 L35.4218182,68.0007792 L36.778961,55.7851948 L38.1361039,55.7851948 L39.4932468,68.0007792 L42.8893506,68.0007792 L41.5335065,44.2462338 L49.6763636,44.2462338 Z" id="Fill-5" fill="#FFFFFF"></path>
            </g>
        </g>
    </g>
</svg>