<?xml version="1.0" encoding="UTF-8"?>
<svg width="100px" height="100px" viewBox="0 0 100 100" version="1.1" xmlns="http://www.w3.org/2000/svg" xmlns:xlink="http://www.w3.org/1999/xlink">
    <!-- Generator: Sketch 42 (36781) - http://www.bohemiancoding.com/sketch -->
    <title>7-1</title>
    <desc>Created with Sketch.</desc>
    <defs>
        <polygon id="path-1" points="0 99.3670886 99.3670886 99.3670886 99.3670886 0 0 0"></polygon>
    </defs>
    <g id="Page-1" stroke="none" stroke-width="1" fill="none" fill-rule="evenodd">
        <g id="7-1">
            <g>
                <path d="M49.6835443,98.1012658 C44.8898734,98.1012658 40.3797468,96.2341772 36.9911392,92.843038 L6.52405063,62.3759494 C3.13291139,58.9873418 1.26582278,54.4772152 1.26582278,49.6835443 C1.26582278,44.8873418 3.13291139,40.3797468 6.52405063,36.9886076 L36.9911392,6.52151899 C40.3797468,3.13291139 44.8898734,1.26582278 49.6835443,1.26582278 C54.4797468,1.26582278 58.9873418,3.13291139 62.378481,6.52151899 L92.843038,36.9886076 C96.2341772,40.3797468 98.1012658,44.8873418 98.1012658,49.6835443 C98.1012658,54.4772152 96.2341772,58.9873418 92.843038,62.3759494 L62.378481,92.843038 C58.9873418,96.2341772 54.4797468,98.1012658 49.6835443,98.1012658 Z" id="Stroke-1" stroke="#FFFFFF" stroke-width="2"></path>
                <path d="M11.0932911,59.8386076 C5.48443038,54.2310127 5.48443038,45.1386076 11.0932911,39.528481 L39.5287342,11.0943038 C45.1363291,5.48544304 54.2287342,5.48544304 59.8388608,11.0943038 L88.273038,39.528481 C93.8818987,45.1386076 93.8818987,54.2310127 88.273038,59.8386076 L59.8388608,88.2727848 C54.2287342,93.8829114 45.1363291,93.8829114 39.5287342,88.2727848 L11.0932911,59.8386076 Z" id="Stroke-3" stroke="#FFFFFF" stroke-width="2"></path>
                <polygon id="Stroke-5" stroke="#FFFFFF" points="61.7039241 46.2432911 60.6482278 38.3736709 35.2937975 38.3736709 35.2937975 61.9825316 32.6520253 61.9825316 32.6520253 67.2268354 64.346962 67.2268354 64.346962 61.9825316"></polygon>
                <mask id="mask-2" fill="white">
                    <use xlink:href="#path-1"></use>
                </mask>
                <g id="Clip-8"></g>
                <polygon id="Stroke-7" stroke="#FFFFFF" mask="url(#mask-2)" points="40.5481013 59.7493671 43.2164557 59.7493671 43.2164557 54.7278481 40.5481013 54.7278481"></polygon>
                <polygon id="Stroke-9" stroke="#FFFFFF" mask="url(#mask-2)" points="40.5481013 49.7607595 43.2164557 49.7607595 43.2164557 44.7392405 40.5481013 44.7392405"></polygon>
                <path d="M56.1303797,44.7405063 L57.9101266,44.7405063 L57.9101266,38.0886076 L56.1303797,38.0886076 L56.1303797,44.7405063 Z M56.1303797,57.9708861 L57.9101266,57.9708861 L57.9101266,51.3202532 L56.1303797,51.3202532 L56.1303797,57.9708861 Z M50.8481013,44.7405063 L52.6253165,44.7405063 L52.6253165,38.0886076 L50.8481013,38.0886076 L50.8481013,44.7405063 Z M50.8481013,57.9708861 L52.6253165,57.9708861 L52.6253165,51.3202532 L50.8481013,51.3202532 L50.8481013,57.9708861 Z M64.9531646,61.2607595 L64.9531646,41.4151899 L61.4303797,41.4151899 L61.4303797,31.4911392 L47.3443038,31.4911392 L47.3443038,61.2607595 L45.5835443,61.2607595 L45.5835443,67.8759494 L66.7151899,67.8759494 L66.7151899,61.2607595 L64.9531646,61.2607595 Z" id="Fill-10" fill="#FFFFFF" mask="url(#mask-2)"></path>
            </g>
        </g>
    </g>
</svg>