<?xml version="1.0" encoding="iso-8859-1"?>
<!-- Generator: Adobe Illustrator 16.0.4, SVG Export Plug-In . SVG Version: 6.00 Build 0)  -->
<!DOCTYPE svg PUBLIC "-//W3C//DTD SVG 1.1//EN" "http://www.w3.org/Graphics/SVG/1.1/DTD/svg11.dtd">
<svg version="1.1" id="&#x56FE;&#x5C42;_1" xmlns="http://www.w3.org/2000/svg" xmlns:xlink="http://www.w3.org/1999/xlink" x="0px"
	 y="0px" width="40px" height="40px" viewBox="0 0 40 40" style="enable-background:new 0 0 40 40;" xml:space="preserve">
<g>
	<path style="fill:#FFFFFF;" d="M21.667,15H30v6.667h-8.333V15L21.667,15z M40,1.667v36.666C40,39.25,39.25,40,38.333,40H1.667
		C0.75,40,0,39.25,0,38.333V1.667C0,0.75,0.75,0,1.667,0h36.666C39.25,0,40,0.75,40,1.667L40,1.667z M33.333,11.667H21.667v-5
		h-3.333v5H6.667V25h11.667v8.334h3.333V25h11.666V11.667L33.333,11.667z M10,21.667h8.333V15H10V21.667L10,21.667z"/>
</g>
</svg>
