<?xml version="1.0" encoding="iso-8859-1"?>
<!-- Generator: Adobe Illustrator 16.0.4, SVG Export Plug-In . SVG Version: 6.00 Build 0)  -->
<!DOCTYPE svg PUBLIC "-//W3C//DTD SVG 1.1//EN" "http://www.w3.org/Graphics/SVG/1.1/DTD/svg11.dtd">
<svg version="1.1" id="&#x56FE;&#x5C42;_1" xmlns="http://www.w3.org/2000/svg" xmlns:xlink="http://www.w3.org/1999/xlink" x="0px"
	 y="0px" width="40px" height="40px" viewBox="0 0 40 40" style="enable-background:new 0 0 40 40;" xml:space="preserve">
<g>
	<path style="fill:#FFFFFF;" d="M39.26,0H0.741C0.332,0,0,0.332,0,0.741V39.26C0,39.669,0.332,40,0.741,40H39.26
		c0.409,0,0.74-0.331,0.74-0.74V0.741C40,0.332,39.669,0,39.26,0L39.26,0z M18.519,12.223c0,0.204-0.166,0.37-0.37,0.37h-7.778
		v5.926h7.778c0.205,0,0.37,0.166,0.37,0.37v2.222c0,0.205-0.166,0.37-0.37,0.37h-7.778v5.927h7.778c0.205,0,0.37,0.165,0.37,0.37
		V30c0,0.205-0.166,0.371-0.37,0.371H7.778c-0.205,0-0.371-0.166-0.371-0.371V10c0-0.205,0.166-0.371,0.371-0.371h10.37
		c0.205,0,0.371,0.166,0.371,0.371V12.223L18.519,12.223z M32.593,29.63c0,0.409-0.332,0.741-0.741,0.741H30.37
		c-0.409,0-0.74-0.332-0.74-0.741v-8.148h-5.186v8.148c0,0.409-0.331,0.741-0.74,0.741h-1.481c-0.409,0-0.741-0.332-0.741-0.741
		V18.889c0-0.205,0.166-0.37,0.371-0.37h10.37c0.204,0,0.37,0.166,0.37,0.37V29.63L32.593,29.63z"/>
</g>
</svg>
