<?xml version="1.0" encoding="utf-8"?>
<!-- Generator: Adobe Illustrator 16.0.4, SVG Export Plug-In . SVG Version: 6.00 Build 0)  -->
<!DOCTYPE svg PUBLIC "-//W3C//DTD SVG 1.1//EN" "http://www.w3.org/Graphics/SVG/1.1/DTD/svg11.dtd">
<svg version="1.1" id="图层_1" xmlns="http://www.w3.org/2000/svg" xmlns:xlink="http://www.w3.org/1999/xlink" x="0px" y="0px"
	 width="40px" height="40px" viewBox="0 0 40 40" enable-background="new 0 0 40 40" xml:space="preserve">
<g>
	<path fill-rule="evenodd" clip-rule="evenodd" fill="#040000" d="M0,19.955C0,8.953,8.994,0,20.044,0C31.047,0,40,8.953,40,19.955
		C40,31.012,31.047,40,20.044,40C8.994,40,0,31.012,0,19.955L0,19.955z M3.058,19.955c0,9.368,7.619,16.989,16.986,16.989
		c9.317,0,16.898-7.621,16.898-16.989c0-9.317-7.581-16.897-16.898-16.897C10.677,3.057,3.058,10.639,3.058,19.955L3.058,19.955z"/>
	<polygon fill-rule="evenodd" clip-rule="evenodd" fill="#040000" points="13.891,29.013 22.866,19.961 13.896,10.994 16.061,8.832 
		27.179,19.949 16.066,31.162 13.891,29.013 	"/>
</g>
</svg>
