<?xml version="1.0" encoding="utf-8"?>
<!-- Generated by IcoMoon.io -->
<!DOCTYPE svg PUBLIC "-//W3C//DTD SVG 1.1//EN" "http://www.w3.org/Graphics/SVG/1.1/DTD/svg11.dtd">
<svg version="1.1" xmlns="http://www.w3.org/2000/svg" xmlns:xlink="http://www.w3.org/1999/xlink" width="32" height="32" viewBox="0 0 32 32">
<path fill="#444444" d="M5.591 0.937l-4.775 4.773c-0.251 0.251-0.386 0.574-0.418 0.903 0 0.002-0.005 0-0.005 0.005-0.843 4.939 1.995 11.847 7.682 17.534 5.682 5.682 12.587 8.523 17.527 7.682 0.002 0 0.002-0.005 0.005-0.007 0.331-0.030 0.654-0.165 0.907-0.418l4.773-4.773c0.576-0.576 0.576-1.511 0-2.087l-5.168-5.168c-0.576-0.576-1.511-0.576-2.087 0l-0.489 0.487h-0.011l-3.019 3.019c-0.901 0.901-2.235 1.088-3.328 0.578-0.023-0.011-0.039-0.016-0.069-0.032-0.011-0.007-0.025-0.016-0.039-0.025-0.146-0.075-0.288-0.162-0.423-0.265-1.314-0.809-2.761-1.947-4.174-3.36-1.403-1.403-2.539-2.843-3.351-4.151-0.928-1.159-0.869-2.846 0.206-3.92l3.191-3.193v-0.021l0.313-0.313c0.576-0.576 0.576-1.511 0-2.087l-0.334-0.331-4.83-4.83c-0.576-0.576-1.509-0.576-2.085 0z"></path>
</svg>
