<?xml version="1.0" encoding="iso-8859-1"?>
<!-- Generator: Adobe Illustrator 16.0.4, SVG Export Plug-In . SVG Version: 6.00 Build 0)  -->
<!DOCTYPE svg PUBLIC "-//W3C//DTD SVG 1.1//EN" "http://www.w3.org/Graphics/SVG/1.1/DTD/svg11.dtd">
<svg version="1.1" id="&#x56FE;&#x5C42;_1" xmlns="http://www.w3.org/2000/svg" xmlns:xlink="http://www.w3.org/1999/xlink" x="0px"
	 y="0px" width="40px" height="40px" viewBox="0 0 40 40" style="enable-background:new 0 0 40 40;" xml:space="preserve">
<g>
	<path style="fill:#FFFFFF;" d="M4.541,40c-1.31,0-2.438-0.551-3.264-1.592C0.453,37.369,0,35.884,0,34.226V5.776
		c0-1.658,0.453-3.144,1.277-4.183C2.103,0.551,3.231,0,4.541,0c0.988,0,2,0.325,3.007,0.964l20.299,14.268l0.005,0.004
		c1.783,1.143,2.81,2.879,2.815,4.765c0,1.921-1.017,3.627-2.864,4.806l-0.005,0.004L7.632,38.979C6.551,39.666,5.54,40,4.541,40
		L4.541,40z M4.541,2.146c-1.592,0-2.621,1.425-2.621,3.63v28.451c0,2.204,1.029,3.629,2.621,3.629c0.65,0,1.357-0.24,2.102-0.713
		l0.006-0.004l20.164-14.168c1.266-0.814,1.935-1.84,1.935-2.966c-0.003-1.508-1.17-2.476-1.863-2.918l-0.043-0.028L6.562,2.805
		L6.556,2.801C5.88,2.372,5.183,2.146,4.541,2.146L4.541,2.146z"/>
</g>
</svg>
