<?xml version="1.0" encoding="utf-8"?>
<!-- Generated by IcoMoon.io -->
<!DOCTYPE svg PUBLIC "-//W3C//DTD SVG 1.1//EN" "http://www.w3.org/Graphics/SVG/1.1/DTD/svg11.dtd">
<svg version="1.1" xmlns="http://www.w3.org/2000/svg" xmlns:xlink="http://www.w3.org/1999/xlink" width="32" height="32" viewBox="0 0 32 32">
<path fill="#444444" d="M26.94 20.275c0-0.004 0.001-0.007 0.001-0.011l-0.006-0.044c-0.005-0.063-0.012-0.126-0.026-0.186l-2.196-15.449c-0.093-0.619-0.634-1.085-1.26-1.085h-14.906c-0.626 0-1.167 0.466-1.26 1.088l-2.195 15.446c-0.014 0.058-0.020 0.119-0.026 0.18l-0.006 0.049c-0.001 0.004 0.001 0.008 0.001 0.012-0.001 0.017-0.005 0.033-0.005 0.050v6.9c0 0.702 0.571 1.274 1.274 1.274h19.341c0.702 0 1.274-0.572 1.274-1.274v-6.9c0-0.017-0.005-0.033-0.005-0.050zM8.171 4.717c0.028-0.184 0.189-0.323 0.376-0.323h14.906c0.186 0 0.348 0.139 0.375 0.32l2.040 14.358c-0.065-0.010-0.13-0.020-0.197-0.020h-19.342c-0.068 0-0.132 0.010-0.197 0.020l2.039-14.355zM25.671 27.605h-19.342c-0.209 0-0.38-0.17-0.38-0.38v-6.868l0.015-0.108c0.036-0.172 0.182-0.304 0.365-0.304h19.341c0.184 0 0.33 0.134 0.365 0.307l0.015 0.104v6.869c0 0.21-0.17 0.38-0.379 0.38z"></path>
<path fill="#444444" d="M22.221 22.162c-0.89 0-1.614 0.724-1.614 1.613 0 0.89 0.724 1.614 1.614 1.614s1.614-0.724 1.614-1.614c-0.001-0.889-0.725-1.613-1.614-1.613zM22.221 24.495c-0.397 0-0.719-0.322-0.719-0.719s0.322-0.719 0.719-0.719 0.719 0.322 0.719 0.719-0.323 0.719-0.719 0.719z"></path>
<path fill="#444444" d="M13.278 14.503h5.443c0.995 0 1.614-0.618 1.614-1.613 0-0.499-0.4-1.334-1.196-1.557-0.211-1.368-1.514-2.39-3.139-2.39-1.448 0-2.687 1.174-3.077 2.373-0.838 0.196-1.258 1.062-1.258 1.573 0 1.026 0.588 1.614 1.613 1.614zM13.278 12.17h0.368l0.070-0.362c0.181-0.93 1.195-1.971 2.283-1.971 1.103 0 2.275 0.661 2.275 1.886v0.447h0.447c0.495 0 0.719 0.552 0.719 0.719 0 0.511-0.208 0.719-0.719 0.719h-5.443c-0.531 0-0.719-0.188-0.719-0.719 0-0.167 0.224-0.719 0.719-0.719z"></path>
</svg>
