<?xml version="1.0" encoding="utf-8"?>
<!-- Generated by IcoMoon.io -->
<!DOCTYPE svg PUBLIC "-//W3C//DTD SVG 1.1//EN" "http://www.w3.org/Graphics/SVG/1.1/DTD/svg11.dtd">
<svg version="1.1" xmlns="http://www.w3.org/2000/svg" xmlns:xlink="http://www.w3.org/1999/xlink" width="32" height="32" viewBox="0 0 32 32">
<path fill="#444444" d="M17.767 14.637h-3.534c-1.12 0-2.030 0.912-2.030 2.033v9.361c0 1.121 0.911 2.033 2.030 2.033h3.534c1.121 0 2.033-0.912 2.033-2.033v-9.361c0-1.121-0.912-2.033-2.033-2.033zM18.915 26.031c0 0.633-0.515 1.148-1.148 1.148h-3.534c-0.632 0-1.146-0.515-1.146-1.148v-9.361c0-0.633 0.514-1.148 1.146-1.148h3.534c0.633 0 1.148 0.515 1.148 1.148v9.361z"></path>
<path fill="#444444" d="M26.468 7.75h-3.533c-1.12 0-2.032 0.912-2.032 2.032v16.249c0 1.121 0.912 2.033 2.032 2.033h3.533c1.121 0 2.032-0.912 2.032-2.033v-16.25c0-1.12-0.912-2.031-2.032-2.031zM27.615 26.031c0 0.633-0.514 1.148-1.147 1.148h-3.533c-0.632 0-1.146-0.515-1.146-1.148v-16.25c0-0.632 0.514-1.146 1.146-1.146h3.533c0.632 0 1.147 0.514 1.147 1.146v16.25z"></path>
<path fill="#444444" d="M9.064 18.876h-3.531c-1.121 0-2.033 0.912-2.033 2.033v5.122c0 1.121 0.912 2.033 2.033 2.033h3.531c1.121 0 2.033-0.912 2.033-2.033v-5.122c0-1.121-0.912-2.033-2.033-2.033zM10.212 26.031c0 0.633-0.515 1.148-1.148 1.148h-3.531c-0.633 0-1.148-0.515-1.148-1.148v-5.122c0-0.633 0.515-1.147 1.148-1.147h3.531c0.633 0 1.148 0.514 1.148 1.147v5.122z"></path>
<path fill="#444444" d="M19.499 3.936l-5.609 0.263c-0.383 0.018-0.726 0.244-0.893 0.59-0.167 0.345-0.132 0.754 0.091 1.065l0.28 0.392c0.047 0.065 0.038 0.156-0.020 0.212l-6.915 6.595c-0.317 0.302-0.415 0.738-0.255 1.139s0.551 0.673 0.969 0.673c0 0 0 0 0 0 0.169 0 0.334-0.042 0.492-0.124l8.476-4.413c0.070-0.038 0.161-0.015 0.206 0.049l0.281 0.392c0.199 0.278 0.509 0.438 0.85 0.438 0.434 0 0.817-0.26 0.976-0.662l2.045-5.177c0.127-0.323 0.087-0.687-0.108-0.974s-0.519-0.458-0.866-0.458zM19.649 5.043l-2.045 5.176c-0.038 0.095-0.126 0.103-0.153 0.103-0.037 0-0.090-0.012-0.13-0.068l-0.281-0.393c-0.294-0.411-0.889-0.552-1.336-0.319l-8.474 4.413c-0.030 0.016-0.058 0.024-0.083 0.024-0.066 0-0.125-0.059-0.148-0.117-0.033-0.082 0.006-0.133 0.044-0.169l6.915-6.595c0.375-0.358 0.431-0.945 0.13-1.367l-0.28-0.392c-0.049-0.068-0.030-0.132-0.014-0.165s0.055-0.088 0.139-0.092l5.567-0.262c0.074 0 0.115 0.045 0.133 0.071 0.018 0.028 0.044 0.083 0.016 0.152z"></path>
</svg>
