<?xml version="1.0" encoding="utf-8"?>
<!-- Generated by IcoMoon.io -->
<!DOCTYPE svg PUBLIC "-//W3C//DTD SVG 1.1//EN" "http://www.w3.org/Graphics/SVG/1.1/DTD/svg11.dtd">
<svg version="1.1" xmlns="http://www.w3.org/2000/svg" xmlns:xlink="http://www.w3.org/1999/xlink" width="32" height="32" viewBox="0 0 32 32">
<path fill="#444444" d="M19.499 19.946c0.114 0 0.229-0.044 0.316-0.131 0.175-0.175 0.175-0.458 0-0.633l-3.368-3.368v-7.59c0-0.247-0.2-0.447-0.447-0.447s-0.447 0.2-0.447 0.447v7.961l3.63 3.63c0.087 0.088 0.202 0.131 0.316 0.131z"></path>
<path fill="#444444" d="M5.113 15.553c-0.247 0-0.447 0.2-0.447 0.447s0.2 0.447 0.447 0.447h1.555c0.247 0 0.447-0.2 0.447-0.447s-0.2-0.447-0.447-0.447h-1.555z"></path>
<path fill="#444444" d="M26.887 16.447c0.247 0 0.447-0.2 0.447-0.447s-0.2-0.447-0.447-0.447h-1.555c-0.247 0-0.447 0.2-0.447 0.447s0.2 0.447 0.447 0.447h1.555z"></path>
<path fill="#444444" d="M16 27.334c0.247 0 0.447-0.2 0.447-0.447v-1.555c0-0.247-0.2-0.447-0.447-0.447s-0.447 0.2-0.447 0.447v1.555c0 0.246 0.2 0.447 0.447 0.447z"></path>
<path fill="#444444" d="M16 7.116c0.247 0 0.447-0.2 0.447-0.447v-1.556c0-0.247-0.2-0.447-0.447-0.447s-0.447 0.2-0.447 0.447v1.555c0 0.248 0.2 0.448 0.447 0.448z"></path>
<path fill="#444444" d="M16 3.5c-0.247 0-0.447 0.2-0.447 0.447s0.2 0.447 0.447 0.447c6.4 0 11.606 5.206 11.606 11.606s-5.206 11.606-11.606 11.606-11.606-5.207-11.606-11.606c0-2.422 0.738-4.741 2.134-6.709l1.637-1.637v3.291c0 0.247 0.2 0.447 0.447 0.447s0.447-0.2 0.447-0.447v-4.276l-0.446-0.447h-4.277c-0.247 0-0.447 0.2-0.447 0.447s0.2 0.447 0.447 0.447h3.103l-1.569 1.569-0.048 0.057c-1.519 2.126-2.322 4.636-2.322 7.258 0 6.893 5.607 12.5 12.5 12.5s12.5-5.608 12.5-12.5-5.607-12.5-12.5-12.5z"></path>
</svg>
