<?xml version="1.0" encoding="utf-8"?>
<!-- Generated by IcoMoon.io -->
<!DOCTYPE svg PUBLIC "-//W3C//DTD SVG 1.1//EN" "http://www.w3.org/Graphics/SVG/1.1/DTD/svg11.dtd">
<svg version="1.1" xmlns="http://www.w3.org/2000/svg" xmlns:xlink="http://www.w3.org/1999/xlink" width="32" height="32" viewBox="0 0 32 32">
<path fill="#444444" d="M27.091 5.819h-14.593c-0.777 0-1.409 0.632-1.409 1.409v3.211c0 0.777 0.632 1.409 1.409 1.409h14.593c0.777 0 1.409-0.632 1.409-1.409v-3.211c0-0.777-0.632-1.409-1.409-1.409zM27.53 10.438c0 0.242-0.197 0.439-0.439 0.439h-14.593c-0.242 0-0.44-0.197-0.44-0.439v-3.21c0-0.242 0.197-0.439 0.44-0.439h14.593c0.242 0 0.439 0.197 0.439 0.439v3.21z"></path>
<path fill="#444444" d="M27.091 12.985h-14.593c-0.777 0-1.409 0.632-1.409 1.409v3.21c0 0.777 0.632 1.409 1.409 1.409h14.593c0.777 0 1.409-0.632 1.409-1.409v-3.21c0-0.776-0.632-1.409-1.409-1.409zM27.53 17.605c0 0.242-0.197 0.439-0.439 0.439h-14.593c-0.242 0-0.44-0.197-0.44-0.439v-3.21c0-0.242 0.197-0.439 0.44-0.439h14.593c0.242 0 0.439 0.197 0.439 0.439v3.21z"></path>
<path fill="#444444" d="M27.091 20.152h-14.593c-0.777 0-1.409 0.632-1.409 1.409v3.21c0 0.777 0.632 1.409 1.409 1.409h14.593c0.777 0 1.409-0.632 1.409-1.409v-3.21c0-0.776-0.632-1.409-1.409-1.409zM27.53 24.772c0 0.242-0.197 0.439-0.439 0.439h-14.593c-0.242 0-0.44-0.197-0.44-0.439v-3.21c0-0.242 0.197-0.439 0.44-0.439h14.593c0.242 0 0.439 0.197 0.439 0.439v3.21z"></path>
<path fill="#444444" d="M8.963 5.819h-4.054c-0.777 0-1.409 0.632-1.409 1.409v3.211c0 0.777 0.632 1.409 1.409 1.409h4.054c0.777 0 1.409-0.632 1.409-1.409v-3.211c0-0.777-0.632-1.409-1.409-1.409zM9.402 10.438c0 0.242-0.197 0.439-0.439 0.439h-4.054c-0.242 0-0.44-0.197-0.44-0.439v-3.21c0-0.242 0.197-0.439 0.44-0.439h4.054c0.242 0 0.439 0.197 0.439 0.439v3.21z"></path>
<path fill="#444444" d="M8.963 12.985h-4.054c-0.777 0-1.409 0.632-1.409 1.409v3.21c0 0.777 0.632 1.409 1.409 1.409h4.054c0.777 0 1.409-0.632 1.409-1.409v-3.21c0-0.776-0.632-1.409-1.409-1.409zM9.402 17.605c0 0.242-0.197 0.439-0.439 0.439h-4.054c-0.242 0-0.44-0.197-0.44-0.439v-3.21c0-0.242 0.197-0.439 0.44-0.439h4.054c0.242 0 0.439 0.197 0.439 0.439v3.21z"></path>
<path fill="#444444" d="M8.963 20.152h-4.054c-0.777 0-1.409 0.632-1.409 1.409v3.21c0 0.777 0.632 1.409 1.409 1.409h4.054c0.777 0 1.409-0.632 1.409-1.409v-3.21c0-0.776-0.632-1.409-1.409-1.409zM9.402 24.772c0 0.242-0.197 0.439-0.439 0.439h-4.054c-0.242 0-0.44-0.197-0.44-0.439v-3.21c0-0.242 0.197-0.439 0.44-0.439h4.054c0.242 0 0.439 0.197 0.439 0.439v3.21z"></path>
</svg>
