<?xml version="1.0" encoding="utf-8"?>
<!-- Generated by IcoMoon.io -->
<!DOCTYPE svg PUBLIC "-//W3C//DTD SVG 1.1//EN" "http://www.w3.org/Graphics/SVG/1.1/DTD/svg11.dtd">
<svg version="1.1" xmlns="http://www.w3.org/2000/svg" xmlns:xlink="http://www.w3.org/1999/xlink" width="32" height="32" viewBox="0 0 32 32">
<path fill="#444444" d="M17.057 16.817c-0.163-0.131-0.395-0.131-0.559 0l-1.944 1.555c-0.193 0.155-0.224 0.436-0.070 0.629 0.154 0.192 0.435 0.224 0.628 0.070l1.218-0.974v6.457c0 0.247 0.2 0.447 0.447 0.447s0.447-0.2 0.447-0.447v-6.457l1.218 0.974c0.082 0.066 0.181 0.098 0.279 0.098 0.131 0 0.261-0.058 0.35-0.168 0.154-0.193 0.123-0.474-0.070-0.629l-1.944-1.555z"></path>
<path fill="#444444" d="M25.378 14.8c-0.23-4.339-3.988-7.801-8.575-7.801-4.055 0-7.66 2.649-8.549 6.221h-0.289c-2.462 0-4.465 1.945-4.465 4.335 0 2.431 1.904 4.335 4.335 4.335h4.666c0.247 0 0.447-0.2 0.447-0.447s-0.2-0.447-0.447-0.447h-4.666c-1.929 0-3.441-1.511-3.441-3.441 0-1.897 1.602-3.441 3.57-3.441h1.017l0.070-0.362c0.649-3.34 3.981-5.859 7.752-5.859 4.242 0 7.692 3.288 7.692 7.329v0.447h0.447c1.494 0 2.663 1.17 2.663 2.663s-1.17 2.663-2.663 2.663h-3.888c-0.247 0-0.447 0.2-0.447 0.447s0.2 0.447 0.447 0.447h3.888c1.995 0 3.558-1.563 3.558-3.558 0-1.845-1.34-3.322-3.122-3.531z"></path>
</svg>
