<?xml version="1.0" encoding="iso-8859-1"?>
<!-- Generator: Adobe Illustrator 16.0.4, SVG Export Plug-In . SVG Version: 6.00 Build 0)  -->
<!DOCTYPE svg PUBLIC "-//W3C//DTD SVG 1.1//EN" "http://www.w3.org/Graphics/SVG/1.1/DTD/svg11.dtd">
<svg version="1.1" id="&#x56FE;&#x5C42;_1" xmlns="http://www.w3.org/2000/svg" xmlns:xlink="http://www.w3.org/1999/xlink" x="0px"
	 y="0px" width="40px" height="40px" viewBox="0 0 40 40" style="enable-background:new 0 0 40 40;" xml:space="preserve">
<path style="fill:#C5C9C8;" d="M39.786,7.747c-1.121,1.64-2.477,3.038-4.066,4.193c0.016,0.234,0.023,0.586,0.023,1.055
	c0,2.176-0.316,4.348-0.955,6.516c-0.635,2.167-1.602,4.247-2.898,6.239c-1.299,1.992-2.842,3.754-4.635,5.285
	c-1.791,1.532-3.949,2.754-6.477,3.666c-2.526,0.913-5.23,1.369-8.11,1.369c-4.536,0-8.688-1.214-12.454-3.641
	c0.586,0.067,1.239,0.1,1.958,0.1c3.767,0,7.123-1.154,10.069-3.465c-1.758-0.033-3.332-0.572-4.721-1.619
	c-1.389-1.047-2.344-2.381-2.862-4.005c0.552,0.083,1.063,0.125,1.532,0.125c0.72,0,1.431-0.092,2.134-0.276
	c-1.875-0.385-3.428-1.318-4.658-2.799c-1.23-1.481-1.845-3.201-1.845-5.16v-0.101c1.138,0.636,2.36,0.979,3.666,1.03
	c-1.105-0.736-1.984-1.699-2.637-2.888s-0.979-2.478-0.979-3.867c0-1.473,0.368-2.837,1.105-4.093
	c2.025,2.494,4.49,4.491,7.395,5.989s6.014,2.331,9.328,2.499c-0.134-0.636-0.201-1.256-0.201-1.858
	c0-2.243,0.791-4.156,2.372-5.737c1.582-1.582,3.494-2.373,5.738-2.373c2.342,0,4.318,0.854,5.926,2.561
	c1.824-0.351,3.539-1.004,5.146-1.958c-0.619,1.925-1.809,3.415-3.566,4.47C36.673,8.834,38.229,8.417,39.786,7.747z"/>
</svg>
