<?xml version="1.0" encoding="iso-8859-1"?>
<!-- Generator: Adobe Illustrator 16.0.4, SVG Export Plug-In . SVG Version: 6.00 Build 0)  -->
<!DOCTYPE svg PUBLIC "-//W3C//DTD SVG 1.1//EN" "http://www.w3.org/Graphics/SVG/1.1/DTD/svg11.dtd">
<svg version="1.1" id="&#x56FE;&#x5C42;_1" xmlns="http://www.w3.org/2000/svg" xmlns:xlink="http://www.w3.org/1999/xlink" x="0px"
	 y="0px" width="40px" height="40px" viewBox="0 0 40 40" style="enable-background:new 0 0 40 40;" xml:space="preserve">
<g>
	<path style="fill:#FFFFFF;" d="M29.592,19.585c-1.551-0.3-0.796-1.118-0.796-1.118s1.517-2.467-0.302-4.264
		c-2.251-2.222-7.726,0.279-7.726,0.279c-2.088,0.639-1.536-0.292-1.24-1.876c0-1.869-0.646-5.029-6.216-3.166
		C7.75,11.323,2.974,17.901,2.974,17.901c-3.32,4.372-2.882,7.75-2.882,7.75c0.828,7.465,8.863,9.514,15.113,9.999
		c6.572,0.506,15.451-2.235,18.138-7.876C36.036,22.126,31.146,19.89,29.592,19.585L29.592,19.585 M15.69,33.548
		c-6.526,0.3-11.807-2.928-11.807-7.224c0-4.305,5.28-7.751,11.807-8.05c6.533-0.299,11.819,2.362,11.819,6.653
		S22.223,33.255,15.69,33.548L15.69,33.548 M14.391,21.102c-6.567,0.759-5.806,6.825-5.806,6.825s-0.067,1.923,1.758,2.9
		c3.839,2.056,7.799,0.812,9.792-1.735C22.136,26.55,20.964,20.35,14.391,21.102L14.391,21.102 M12.733,29.622
		c-1.226,0.141-2.216-0.557-2.216-1.568c0-1.006,0.875-2.063,2.101-2.188c1.408-0.134,2.324,0.665,2.324,1.683
		C14.949,28.552,13.953,29.483,12.733,29.622L12.733,29.622 M16.606,26.37c-0.417,0.306-0.929,0.266-1.145-0.106
		c-0.229-0.358-0.141-0.932,0.276-1.23c0.485-0.36,0.99-0.253,1.212,0.106C17.166,25.499,17.01,26.051,16.606,26.37L16.606,26.37
		 M32.791,16.957c0.531,0,0.978-0.385,1.057-0.891c0.007-0.04,0.014-0.073,0.014-0.113c0.802-7.112-5.907-5.888-5.907-5.888
		c-0.593,0-1.07,0.472-1.07,1.071c0,0.585,0.478,1.058,1.07,1.058c4.816-1.051,3.759,3.706,3.759,3.706
		C31.706,16.484,32.19,16.957,32.791,16.957L32.791,16.957 M32.009,4.544c-2.316-0.539-4.707-0.073-5.375,0.053
		c-0.053,0.007-0.101,0.054-0.147,0.06c-0.021,0.007-0.04,0.027-0.04,0.027c-0.661,0.187-1.139,0.785-1.139,1.497
		c0,0.845,0.693,1.543,1.562,1.543c0,0,0.843-0.113,1.414-0.333c0.565-0.227,5.375-0.166,7.76,3.786
		c1.3,2.887,0.571,4.816,0.478,5.128c0,0-0.31,0.752-0.31,1.49c0,0.852,0.693,1.391,1.562,1.391c0.721,0,1.327-0.101,1.502-1.304
		h0.007C41.856,9.453,36.158,5.495,32.009,4.544L32.009,4.544 M32.009,4.544L32.009,4.544z"/>
</g>
</svg>
