<?xml version="1.0" encoding="utf-8"?>
<!-- Generated by IcoMoon.io -->
<!DOCTYPE svg PUBLIC "-//W3C//DTD SVG 1.1//EN" "http://www.w3.org/Graphics/SVG/1.1/DTD/svg11.dtd">
<svg version="1.1" xmlns="http://www.w3.org/2000/svg" xmlns:xlink="http://www.w3.org/1999/xlink" width="32" height="32" viewBox="0 0 32 32">
<path fill="#444444" d="M29.316 13.784l0.12-0.226c-0.111-5.232-4.456-9.455-9.785-9.455-5.398 0-9.788 4.333-9.788 9.659 0 0.016 0.024 1.88 1.057 3.164 0.536 0.666 1.755 2.611 1.892 2.831l0.136 0.027-0.044 8.069h9.945l-0.074-2.963h3.873c1.543 0 2.983-0.805 2.983-2.326v-4.144l2.425 0.11-2.739-4.745z"></path>
<path fill="#444444" d="M8.062 13.762c0-3.998 2.092-7.518 5.249-9.563-0.427-0.056-0.859-0.095-1.301-0.095-5.362 0-9.731 4.275-9.789 9.553l0.028 0.109-0.14 0.43-2.036 4.335 2.891-0.11v4.144c0 1.521 0.512 2.326 2.055 2.326h3.873l-0.074 2.963h2.285l0.041-7.567c-0.431-0.684-1.278-1.889-1.633-2.33-1.431-1.778-1.448-4.092-1.448-4.193z"></path>
</svg>
