<?xml version="1.0" encoding="utf-8"?>
<!-- Generated by IcoMoon.io -->
<!DOCTYPE svg PUBLIC "-//W3C//DTD SVG 1.1//EN" "http://www.w3.org/Graphics/SVG/1.1/DTD/svg11.dtd">
<svg version="1.1" xmlns="http://www.w3.org/2000/svg" xmlns:xlink="http://www.w3.org/1999/xlink" width="32" height="32" viewBox="0 0 32 32">
<path fill="#444444" d="M19.335 21.608c-0.485 0.884-1.311 0.904-1.838 0.044l-4.863-7.95c-0.526-0.86-1.217-0.78-1.534 0.176l-0.86 2.672c-0.318 0.956-1.402 1.821-2.41 1.821h-1.295c-1.008 0-1.26 0.512-0.562 1.238l8.758 9.057c0.699 0.726 1.843 0.706 2.542-0.021l8.756-9.026c0.699-0.726 0.446-1.248-0.562-1.248h-2.433c-1.008 0-2.229 0.641-2.714 1.525l-0.984 1.713z"></path>
<path fill="#444444" d="M32 10.119c0-4.453-3.628-8.063-8.104-8.063-3.865 0-6.908 4.756-6.908 4.756-0.543 0.849-1.432 0.849-1.976 0 0 0-3.044-4.756-6.908-4.756-4.475 0-8.104 3.61-8.104 8.063 0 2.393 1.625 4.535 1.625 4.535 0.609 0.803 1.097 1.46 1.084 1.46s0.034 0.167 0.104 0.239c0.069 0.073 0.952 0.239 1.96 0.239h1.728c1.008 0 2.092-0.89 2.41-1.847l1.691-5.144c0.318-0.956 1.008-1.063 1.534-0.203l5.274 8.607c0.526 0.86 1.349 0.949 1.828 0.075s1.696-1.489 2.704-1.489h5.283c1.008 0 1.89-0.167 1.96-0.239s0.117-0.186 0.105-0.186c-0.012 0 0.476-0.684 1.085-1.487 0.001 0 1.625-2.169 1.625-4.562z"></path>
</svg>
