<?xml version="1.0" encoding="utf-8"?>
<!-- Generated by IcoMoon.io -->
<!DOCTYPE svg PUBLIC "-//W3C//DTD SVG 1.1//EN" "http://www.w3.org/Graphics/SVG/1.1/DTD/svg11.dtd">
<svg version="1.1" xmlns="http://www.w3.org/2000/svg" xmlns:xlink="http://www.w3.org/1999/xlink" width="32" height="32" viewBox="0 0 32 32">
<path fill="#444444" d="M17.852 0.025c-0.456 2.372-1.568 7.574-7.979 15.381-0.473 0.577-0.732-2.937-1.020-2.577-0.099 0.123-2.988 4.404-2.988 9.215 0 5.497 4.439 9.954 9.914 9.954s9.746-4.482 10.271-9.954c1.062-11.066-8.074-22.661-8.197-22.020zM20.982 25.511c-0.26 2.713-2.377 4.935-5.092 4.935s-4.915-2.209-4.915-4.935c0-2.385 1.432-4.507 1.481-4.568 0.143-0.178 0.271 1.563 0.506 1.277 3.179-3.87 3.729-6.449 3.956-7.625 0.062-0.318 4.591 5.43 4.064 10.916z"></path>
</svg>
