<?xml version="1.0" encoding="iso-8859-1"?>
<!-- Generator: Adobe Illustrator 16.0.4, SVG Export Plug-In . SVG Version: 6.00 Build 0)  -->
<!DOCTYPE svg PUBLIC "-//W3C//DTD SVG 1.1//EN" "http://www.w3.org/Graphics/SVG/1.1/DTD/svg11.dtd">
<svg version="1.1" id="&#x56FE;&#x5C42;_1" xmlns="http://www.w3.org/2000/svg" xmlns:xlink="http://www.w3.org/1999/xlink" x="0px"
	 y="0px" width="100px" height="100px" viewBox="0 0 100 100" style="enable-background:new 0 0 100 100;" xml:space="preserve">
<title>6-3</title>
<desc>Created with Sketch.</desc>
<path style="fill:#FFFFFF;" d="M50,100c-5.119,0-9.929-1.994-13.546-5.611L5.613,63.547C1.994,59.928,0,55.117,0,50
	s1.994-9.928,5.613-13.547L36.454,5.611C40.072,1.993,44.883,0,50,0c5.115,0,9.928,1.993,13.549,5.611l30.84,30.842
	C98.006,40.07,100,44.881,100,50s-1.994,9.93-5.611,13.547l-30.84,30.842C59.93,98.006,55.117,100,50,100z M50,1.973
	c-4.59,0-8.906,1.788-12.151,5.033L7.008,37.848C3.762,41.094,1.973,45.41,1.973,50c0,4.59,1.789,8.906,5.035,12.152l30.841,30.841
	c3.245,3.246,7.56,5.034,12.151,5.034c4.59,0,8.906-1.789,12.153-5.034l30.84-30.841c3.245-3.246,5.032-7.561,5.032-12.152
	c0-4.591-1.787-8.907-5.032-12.152L62.153,7.006C58.905,3.761,54.59,1.973,50,1.973z"/>
<path style="fill:#FFFFFF;" d="M49.999,94.31c-4.147,0-8.044-1.615-10.977-4.548L10.238,60.978c-6.053-6.053-6.053-15.902,0-21.955
	l28.785-28.784c2.932-2.932,6.83-4.547,10.977-4.547c4.146,0,8.044,1.615,10.978,4.547l28.785,28.784
	c6.053,6.053,6.053,15.902,0,21.955L60.977,89.762C58.043,92.694,54.145,94.31,49.999,94.31z M49.999,7.665
	c-3.62,0-7.022,1.41-9.582,3.969L11.633,40.417c-5.283,5.284-5.283,13.881,0,19.165l28.785,28.784c2.559,2.56,5.961,3.97,9.582,3.97
	c3.619,0,7.022-1.41,9.583-3.97l28.784-28.784c5.283-5.283,5.283-13.88,0-19.165L59.582,11.634
	C57.021,9.075,53.618,7.665,49.999,7.665z"/>
<path id="Fill-5" style="fill:#FFFFFF;" d="M37.945,39.955c2.212,0,4.021-1.81,4.021-4.018c0-2.209-1.81-4.017-4.021-4.017
	c-2.21,0-4.017,1.808-4.017,4.017C33.928,38.146,35.735,39.955,37.945,39.955L37.945,39.955z M49.331,68.081h12.054v-2.009H49.331
	V68.081z M44.644,33.257v2.009h22.101v20.761H45.981v2.007h8.037v6.696h2.01v-6.696H68.75V33.191L44.644,33.257z M47.523,50.937
	l3.147-1.272l4.352,2.546l1.877-6.966l3.147,2.543l3.75-6.361l-1.271-0.602l-3.149,5.089l-3.147-3.147l-1.875,7.633l-3.752-1.874
	l-3.75,1.274L47.523,50.937z M50.001,44.643l2.68-3.349H38.615l0.67,0.669l-0.67,1.339l0.67,6.029l-1.339,2.008l-1.337-2.008
	l0.667-6.029l-0.667-1.339l0.667-0.669h-4.017L31.248,51.34l2.681,2.68l-1.34,14.062h3.348l1.339-12.054h1.339l1.338,12.054h3.351
	l-1.337-23.438H50.001z"/>
</svg>
