<?xml version="1.0" encoding="iso-8859-1"?>
<!-- Generator: Adobe Illustrator 16.0.4, SVG Export Plug-In . SVG Version: 6.00 Build 0)  -->
<!DOCTYPE svg PUBLIC "-//W3C//DTD SVG 1.1//EN" "http://www.w3.org/Graphics/SVG/1.1/DTD/svg11.dtd">
<svg version="1.1" id="&#x56FE;&#x5C42;_1" xmlns="http://www.w3.org/2000/svg" xmlns:xlink="http://www.w3.org/1999/xlink" x="0px"
	 y="0px" width="100px" height="100px" viewBox="0 0 100 100" style="enable-background:new 0 0 100 100;" xml:space="preserve">
<title>6-3</title>
<desc>Created with Sketch.</desc>
<path style="fill:#FFFFFF;" d="M50,100c-5.119,0-9.93-1.994-13.547-5.611L5.613,63.547C1.994,59.928,0,55.117,0,50
	s1.994-9.928,5.613-13.547l30.84-30.842C40.072,1.992,44.883,0,50,0c5.115,0,9.928,1.992,13.549,5.611l30.84,30.842
	C98.006,40.07,100,44.881,100,50s-1.994,9.93-5.611,13.547l-30.84,30.842C59.93,98.006,55.117,100,50,100z M50,1.973
	c-4.59,0-8.906,1.788-12.151,5.033L7.008,37.848C3.762,41.094,1.973,45.41,1.973,50s1.789,8.906,5.035,12.152l30.841,30.84
	c3.245,3.246,7.56,5.035,12.151,5.035c4.59,0,8.906-1.789,12.153-5.035l30.84-30.84c3.245-3.246,5.032-7.561,5.032-12.152
	s-1.787-8.906-5.032-12.152L62.153,7.006C58.905,3.761,54.59,1.973,50,1.973z"/>
<path style="fill:#FFFFFF;" d="M50,94.309c-4.148,0-8.045-1.615-10.977-4.547L10.238,60.977c-6.053-6.053-6.053-15.902,0-21.955
	l28.785-28.783C41.955,7.307,45.852,5.691,50,5.691c4.145,0,8.043,1.615,10.977,4.547l28.785,28.783
	c6.053,6.053,6.053,15.902,0,21.955L60.977,89.762C58.043,92.693,54.145,94.309,50,94.309z M50,7.664
	c-3.621,0-7.023,1.41-9.582,3.969L11.633,40.417c-5.283,5.284-5.283,13.882,0,19.165l28.785,28.783
	c2.559,2.561,5.961,3.971,9.582,3.971c3.619,0,7.021-1.41,9.582-3.971l28.785-28.783c5.283-5.283,5.283-13.881,0-19.165
	L59.582,11.633C57.021,9.074,53.619,7.664,50,7.664z"/>
<g>
	<path style="fill:#FFFFFF;" d="M41.046,53.09V68h5.391V53.188l-2.65-2.845L41.046,53.09L41.046,53.09z M32,67.901h5.391V56.718
		L32,62.212V67.901L32,67.901z M59.136,49.656v18.245h5.389V43.968L59.136,49.656L59.136,49.656z M50.091,56.914v10.987h5.391V53.58
		l-4.295,4.513L50.091,56.914L50.091,56.914z"/>
	<polygon style="fill:#FFFFFF;" points="68,32 57.672,32 62.057,37.297 51.187,48.774 43.696,41.024 32,52.992 32,58.093 
		43.696,46.224 51.187,53.973 64.341,40.044 68,44.457 	"/>
</g>
</svg>
