<?xml version="1.0" encoding="iso-8859-1"?>
<!-- Generator: Adobe Illustrator 16.0.4, SVG Export Plug-In . SVG Version: 6.00 Build 0)  -->
<!DOCTYPE svg PUBLIC "-//W3C//DTD SVG 1.1//EN" "http://www.w3.org/Graphics/SVG/1.1/DTD/svg11.dtd">
<svg version="1.1" id="&#x56FE;&#x5C42;_1" xmlns="http://www.w3.org/2000/svg" xmlns:xlink="http://www.w3.org/1999/xlink" x="0px"
	 y="0px" width="100px" height="100px" viewBox="0 0 100 100" style="enable-background:new 0 0 100 100;" xml:space="preserve">
<title>7-2</title>
<desc>Created with Sketch.</desc>
<path style="fill:#FFFFFF;" d="M65.395,68.291H32.223V61.74h2.659V37.98h26.71l1.137,8.473l2.656,15.818L65.395,68.291z
	 M33.497,67.018H64.12v-4.641l-2.651-15.733l-0.99-7.388H36.154v23.758h-2.659L33.497,67.018L33.497,67.018z"/>
<path style="fill:#FFFFFF;" d="M44.128,60.768h-3.96v-6.328h3.96V60.768z M41.442,59.492h1.412v-3.779h-1.412V59.492z"/>
<path style="fill:#FFFFFF;" d="M44.128,50.714h-3.96v-6.327h3.96V50.714z M41.442,49.44h1.412v-3.78h-1.412V49.44z"/>
<path style="fill:#FFFFFF;" d="M65.367,61.65V41.679h-3.545v-9.988H47.646V61.65h-1.773v6.658h21.268V61.65H65.367L65.367,61.65z
	 M52.961,58.34h-1.789v-6.693h1.789V58.34L52.961,58.34L52.961,58.34z M52.961,45.025h-1.789v-6.694h1.789V45.025L52.961,45.025
	L52.961,45.025z M58.279,58.34h-1.793v-6.693h1.793V58.34L58.279,58.34z M58.279,45.025h-1.793v-6.694h1.793V45.025L58.279,45.025z"
	/>
<path style="fill:#FFFFFF;" d="M49.598,99.999c-5.167-0.041-10.008-2.092-13.629-5.774L5.556,63.318
	C1.932,59.635-0.041,54.764,0,49.598s2.093-10.006,5.776-13.63L36.683,5.555C40.363,1.932,45.236-0.041,50.402,0
	c5.166,0.042,10.008,2.093,13.631,5.776l30.413,30.906c3.622,3.682,5.595,8.554,5.553,13.72c-0.041,5.166-2.092,10.008-5.773,13.63
	L63.319,94.444C59.637,98.068,54.764,100.041,49.598,99.999z M50.382,2.548c-4.486-0.036-8.717,1.677-11.912,4.823L7.563,37.783
	c-3.198,3.147-4.979,7.35-5.015,11.835c-0.036,4.484,1.677,8.716,4.823,11.913l30.413,30.906c3.145,3.198,7.347,4.978,11.834,5.014
	c4.485,0.036,8.717-1.676,11.915-4.822l30.905-30.412c3.197-3.146,4.977-7.349,5.014-11.835c0.035-4.485-1.677-8.717-4.822-11.913
	L62.219,7.563C59.07,4.366,54.868,2.584,50.382,2.548z"/>
<path style="fill:#FFFFFF;" d="M49.999,94.343c-4.2,0-8.149-1.636-11.119-4.605L10.264,61.121C7.293,58.15,5.656,54.201,5.656,50
	s1.637-8.15,4.607-11.121l28.616-28.617c2.97-2.971,6.919-4.606,11.119-4.606c4.202,0,8.15,1.635,11.122,4.606l28.615,28.617
	c2.972,2.97,4.605,6.919,4.605,11.121s-1.636,8.15-4.605,11.121L61.12,89.735C58.148,92.707,54.2,94.343,49.999,94.343z
	 M49.999,8.204c-3.52,0-6.829,1.37-9.317,3.859L12.065,40.681C9.575,43.17,8.204,46.48,8.204,50c0,3.52,1.371,6.83,3.861,9.318
	l28.616,28.616c2.488,2.488,5.798,3.858,9.317,3.858c3.521,0,6.832-1.37,9.32-3.858l28.616-28.616
	c2.488-2.488,3.858-5.799,3.858-9.318c0-3.52-1.37-6.83-3.858-9.319L59.318,12.063C56.83,9.574,53.52,8.204,49.999,8.204z"/>
</svg>
