<?xml version="1.0" encoding="utf-8"?>
<!-- Generated by IcoMoon.io -->
<!DOCTYPE svg PUBLIC "-//W3C//DTD SVG 1.1//EN" "http://www.w3.org/Graphics/SVG/1.1/DTD/svg11.dtd">
<svg version="1.1" xmlns="http://www.w3.org/2000/svg" xmlns:xlink="http://www.w3.org/1999/xlink" width="32" height="32" viewBox="0 0 32 32">
<path fill="#444444" d="M14.302 18.905c0.875 0.875 2.297 0.875 3.173 0l14.021-14.021c-0.391-0.455-0.971-0.747-1.616-0.747h-27.689c-0.722 0-1.358 0.361-1.744 0.912l13.856 13.856z"></path>
<path fill="#444444" d="M22.629 17.035v0l9.303 9.303c0.048-0.178 0.075-0.363 0.075-0.558v-18.126l-9.378 9.381z"></path>
<path fill="#444444" d="M0.057 7.947v17.833c0 0.107 0.011 0.213 0.025 0.315l9.063-9.063-9.088-9.086z"></path>
<path fill="#444444" d="M20.985 18.677l-1.87 1.87c-0.889 0.891-2.059 1.335-3.227 1.335s-2.341-0.443-3.23-1.335l-1.87-1.87-9.159 9.159c0.178 0.048 0.366 0.078 0.558 0.078h27.687c0.107 0 0.213-0.011 0.318-0.025l-9.207-9.211z"></path>
</svg>
