<?xml version="1.0" encoding="iso-8859-1"?>
<!-- Generator: Adobe Illustrator 16.0.4, SVG Export Plug-In . SVG Version: 6.00 Build 0)  -->
<!DOCTYPE svg PUBLIC "-//W3C//DTD SVG 1.1//EN" "http://www.w3.org/Graphics/SVG/1.1/DTD/svg11.dtd">
<svg version="1.1" id="&#x56FE;&#x5C42;_1" xmlns="http://www.w3.org/2000/svg" xmlns:xlink="http://www.w3.org/1999/xlink" x="0px"
	 y="0px" width="40px" height="40px" viewBox="0 0 40 40" style="enable-background:new 0 0 40 40;" xml:space="preserve">
<g>
	<path style="fill:#FFFFFF;" d="M39.998,0.735c-0.005-0.025-0.016-0.045-0.021-0.07c-0.007-0.029-0.015-0.057-0.024-0.085
		c-0.013-0.026-0.025-0.051-0.04-0.075L39.878,0.44c-0.061-0.091-0.139-0.169-0.229-0.23l-0.061-0.035L39.504,0.13l-0.08-0.025
		l-0.075-0.02c-0.05-0.01-0.105-0.05-0.155-0.05S39.188,0,39.188,0H25.864c-0.455,0-0.824,0.369-0.824,0.825
		c0,0.456,0.369,0.825,0.824,0.825h11.307L22.783,16.102c-0.325,0.334-0.325,0.866,0,1.2c0.155,0.16,0.367,0.252,0.589,0.255
		c0.214,0.001,0.418-0.086,0.564-0.24L38.305,2.91v11.321c0,0.456,0.369,0.825,0.824,0.825s0.824-0.37,0.824-0.825V0.895h0.029
		C39.982,0.845,40.008,0.79,39.998,0.735L39.998,0.735z M16.091,22.812L1.648,37.239V25.897c0-0.455-0.369-0.824-0.824-0.824
		S0,25.442,0,25.897v13.337C0,39.694,0.435,40,0.894,40h13.319c0.455,0,0.824-0.37,0.824-0.825c0-0.456-0.369-0.825-0.824-0.825
		H2.917l14.388-14.387c0.325-0.325,0.305-0.84-0.02-1.165S16.416,22.487,16.091,22.812L16.091,22.812z"/>
</g>
</svg>
