<?xml version="1.0" encoding="UTF-8"?>
<svg width="100px" height="100px" viewBox="0 0 100 100" version="1.1" xmlns="http://www.w3.org/2000/svg" xmlns:xlink="http://www.w3.org/1999/xlink">
    <!-- Generator: Sketch 42 (36781) - http://www.bohemiancoding.com/sketch -->
    <title>6-1</title>
    <desc>Created with Sketch.</desc>
    <defs></defs>
    <g id="Page-1" stroke="none" stroke-width="1" fill="none" fill-rule="evenodd">
        <g id="6-1">
            <g>
                <path d="M49.6753247,99.3506494 C44.7571429,99.3506494 40.1298701,97.4350649 36.6532468,93.9558442 L5.39480519,62.6987013 C1.91688312,59.2207792 0,54.5948052 0,49.6753247 C0,44.7558442 1.91688312,40.1298701 5.39480519,36.6519481 L36.6532468,5.39480519 C40.1298701,1.91558442 44.7571429,0 49.6753247,0 C54.5961039,0 59.2207792,1.91558442 62.7,5.39480519 L93.9571429,36.6519481 C97.4350649,40.1298701 99.3506494,44.7558442 99.3506494,49.6753247 C99.3506494,54.5948052 97.4350649,59.2207792 93.9571429,62.6987013 L62.7,93.9558442 C59.2207792,97.4350649 54.5961039,99.3506494 49.6753247,99.3506494 Z" id="Stroke-1" stroke="#FFFFFF" stroke-width="2"></path>
                <path d="M10.0827273,60.0941558 C4.32818182,54.3396104 4.32818182,45.011039 10.0827273,39.2564935 L39.2567532,10.0824675 C45.01,4.32922078 54.3385714,4.32922078 60.0944156,10.0824675 L89.2671429,39.2564935 C95.0216883,45.011039 95.0216883,54.3396104 89.2671429,60.0941558 L60.0944156,89.2668831 C54.3385714,95.0227273 45.01,95.0227273 39.2567532,89.2668831 L10.0827273,60.0941558 Z" id="Stroke-3" stroke="#FFFFFF" stroke-width="2"></path>
                <path d="M32.5625974,50.2448052 L42.1119481,58.8448052 C43.2496104,59.8707792 45.4106494,60.4616883 46.9132468,60.1616883 L58.7625974,57.7798701 C60.2664935,57.4772727 61.9119481,56.0487013 62.4223377,54.6006494 L64.4067532,48.975974 C64.6197403,48.4435065 64.7638961,48.0136364 64.8522078,47.662987 C65.2846753,47.6019481 65.6119481,47.2266234 65.6002597,46.7785714 C65.5898701,46.2980519 65.1898701,45.9175325 64.7093506,45.9305195 L30.3496104,46.7474026 C29.8690909,46.7590909 29.4885714,47.1577922 29.5015584,47.6396104 C29.5119481,48.1201299 29.9106494,48.4993506 30.3924675,48.4876623 L31.0262338,48.4733766 C31.4106494,49.0577922 31.9574026,49.7019481 32.5625974,50.2448052" id="Fill-5" fill="#FFFFFF"></path>
                <path d="M39.9946753,66.1081818 L39.9946753,66.1081818 L40.4102597,66.0198701 C40.4115584,66.0445455 40.4154545,66.0705195 40.4154545,66.0938961 C40.4154545,67.9445455 38.9154545,69.4432468 37.0661039,69.4432468 C35.2154545,69.4432468 33.7167532,67.9445455 33.7167532,66.0938961 C33.7167532,64.2445455 35.2154545,62.7445455 37.0661039,62.7445455 C38.4037662,62.7445455 39.5531169,63.5315584 40.0907792,64.664026 L39.7868831,64.7276623 L43.3193506,63.9848052 C42.4375325,61.3744156 39.9738961,59.4912987 37.0661039,59.4912987 C33.4193506,59.4912987 30.4622078,62.4497403 30.4622078,66.0938961 C30.4622078,69.7406494 33.4193506,72.6977922 37.0661039,72.6977922 C40.7128571,72.6977922 43.67,69.7406494 43.67,66.0938961 C43.67,65.8406494 43.6505195,65.5925974 43.6232468,65.3445455 L44.9609091,65.0627273 L39.9946753,66.1081818 Z" id="Fill-7" fill="#FFFFFF"></path>
                <path d="M55.6298701,70.3531169 L54.0532468,70.3531169 L50.4896104,63.8998701 L59.3753247,62.0323377 L55.6298701,70.3531169 Z M38.7142857,64.9544156 L45.4714286,63.5323377 L38.7142857,64.9544156 Z M80.225974,48.3855844 C80.1545455,48.0076623 79.7883117,47.7609091 79.4103896,47.8349351 L68.8077922,49.8790909 C68.6298701,49.9154545 68.4714286,50.0180519 68.3688312,50.1687013 L61.4571429,60.17 L43.5350649,63.9401299 L43.3194805,63.9855844 L39.787013,64.7271429 L37.638961,65.1803896 C37.4142857,64.9894805 37.1272727,64.8712987 36.8090909,64.8712987 C36.0896104,64.8712987 35.5064935,65.4557143 35.5064935,66.1738961 C35.5064935,66.8933766 36.0896104,67.4751948 36.8090909,67.4751948 C37.4103896,67.4751948 37.9090909,67.0674026 38.061039,66.5141558 L39.9948052,66.1076623 L44.961039,65.0635065 L49.0636364,64.1998701 L53.2311688,71.7453247 L56.5298701,71.7453247 L61.0623377,61.6751948 L62.0155844,61.4751948 C62.1909091,61.4388312 62.3441558,61.3362338 62.4454545,61.1894805 L69.3519481,51.1933766 L79.6753247,49.2024675 C80.0532468,49.1284416 80.3,48.7635065 80.225974,48.3855844 L80.225974,48.3855844 Z" id="Fill-9" fill="#FFFFFF"></path>
                <path d="M54.5949351,42.4449351 L40.5118182,42.441039 C38.4377922,42.4163636 36.7481818,40.7085714 36.7481818,38.6293506 C36.7481818,36.7877922 38.0598701,35.2111688 39.8676623,34.8774026 L40.3897403,34.78 L40.4676623,34.254026 C40.7105195,32.5696104 41.5546753,31.0215584 42.8442857,29.892987 C44.1481818,28.7566234 45.8157143,28.1306494 47.5481818,28.1306494 C49.8962338,28.1306494 52.0520779,29.2644156 53.3832468,31.141039 C51.8105195,31.4462338 50.3832468,32.3280519 49.4144156,33.6319481 C49.168961,33.9592208 49.2364935,34.4228571 49.5676623,34.6683117 C49.8962338,34.9111688 50.3585714,34.8423377 50.604026,34.5163636 C51.5533766,33.2384416 53.0079221,32.5046753 54.5949351,32.5046753 C57.3338961,32.5046753 59.5637662,34.7332468 59.5637662,37.4735065 C59.5637662,40.2150649 57.3338961,42.4449351 54.5949351,42.4449351 M55.0728571,31.0436364 C53.5403896,28.3280519 50.6845455,26.6514286 47.5481818,26.6514286 C45.4598701,26.6514286 43.4442857,27.4072727 41.8715584,28.7812987 C40.4442857,30.0254545 39.4702597,31.7007792 39.091039,33.541039 C36.8442857,34.1890909 35.2663636,36.2501299 35.2663636,38.6280519 C35.2663636,41.2618182 37.2235065,43.4735065 39.7611688,43.8618182 L39.7611688,43.9254545 L54.5923377,43.9254545 C58.1507792,43.9254545 61.042987,41.0319481 61.042987,37.4735065 C61.0455844,34.08 58.4053247,31.2890909 55.0728571,31.0436364" id="Fill-11" fill="#FFFFFF"></path>
            </g>
        </g>
    </g>
</svg>