<?xml version="1.0" encoding="utf-8"?>
<!-- Generator: Adobe Illustrator 21.0.0, SVG Export Plug-In . SVG Version: 6.00 Build 0)  -->
<svg version="1.1" id="图层_1" xmlns="http://www.w3.org/2000/svg" xmlns:xlink="http://www.w3.org/1999/xlink" x="0px" y="0px"
	 viewBox="0 0 100 100" style="enable-background:new 0 0 100 100;" xml:space="preserve">
<style type="text/css">
	.st0{fill:none;stroke:#FFFFFF;stroke-width:2;}
	.st1{fill-rule:evenodd;clip-rule:evenodd;fill:#FFFFFF;}
</style>
<title>6-3</title>
<desc>Created with Sketch.</desc>
<path id="Stroke-1" class="st0" d="M49.7,99.4c-4.9,0-9.5-1.9-13-5.4L5.4,62.7C1.9,59.2,0,54.6,0,49.7s1.9-9.5,5.4-13L36.7,5.4
	c3.5-3.5,8.1-5.4,13-5.4s9.5,1.9,13,5.4L94,36.7c3.5,3.5,5.4,8.1,5.4,13s-1.9,9.5-5.4,13L62.7,94C59.2,97.4,54.6,99.4,49.7,99.4z"/>
<path id="Stroke-3" class="st0" d="M10.1,60.1c-5.8-5.8-5.8-15.1,0-20.8l29.2-29.2c5.8-5.8,15.1-5.8,20.8,0l29.2,29.2
	c5.8,5.8,5.8,15.1,0,20.8L60.1,89.3C54.3,95,45,95,39.3,89.3L10.1,60.1z"/>
<g>
	<path class="st1" d="M49.9,62.3c0.2,0,0.4,0,0.5,0c1.7-0.2,3.2-1.4,3.8-3.1c0-0.1,0-0.3-0.1-0.3c-0.1-0.1-0.3,0-0.3,0.1
		c0,0-0.7,1.1-3.4,1.5c-0.4,0.1-0.8,0.1-1.2,0.1c-1.9,0-2.7-0.7-2.7-0.7c-0.1-0.1-0.2-0.1-0.3,0c-0.1,0.1-0.1,0.2-0.1,0.3
		C46.8,61.5,48.3,62.3,49.9,62.3 M49.9,62.3L49.9,62.3z"/>
	<path class="st1" d="M64.4,45.6C64.4,45.6,64.4,45.6,64.4,45.6c-1.7-6.9-7.7-12-15-12c-7.5,0-13.7,5.4-15,12.5
		c-1.3,0.2-2.4,1.4-2.4,2.8v5.7c0,1.6,1.3,2.9,2.9,2.9c0.9,0,1.7-0.4,2.2-1.1c1.3,3.3,3.8,6,7.1,7.4c0,0,0.1-0.1,0.1-0.2
		c0.1-0.1,0.1-0.1,0.2-0.1c0.1,0,0.1,0,0.1,0c-0.8-0.6-3.5-3.4-4.1-7.5c-0.3-1.8,1.1-3.5,2.6-3.8c2.5-0.5,4.9-1,7.4-1.4
		c1.6-0.3,2.6-1.2,3.3-2.6c0.2-0.3,0.4-1,0.5-2c0-0.1,0.1-0.3,0.3-0.3c0.1,0,0.2,0.1,0.2,0.1l0.1,0c1,1.4,2.9,4.6,3.2,7.9
		c0.3,3.8,0.1,6.4-2.8,9c0,0,0,0,0,0c0,0-0.1,0.1-0.1,0.2c0,0.1,0,0.2,0.1,0.2c0,0,0,0,0.1,0c0,0,0,0,0.1,0c0,0,0,0,0.1,0
		c0,0,0.1,0,0.1-0.1c2.9-1.6,5.2-4.3,6.2-7.5c0.4,0.6,1.1,1.1,1.8,1.2c-1.2,5.6-6.2,9.1-12.4,9.6c-0.4-0.9-1.3-1.6-2.3-1.6
		c-1.4,0-2.5,1.1-2.5,2.5c0,1.4,1.1,2.5,2.5,2.5c1.1,0,2.1-0.7,2.4-1.7c7.1-0.6,12.8-4.8,14-11.4c1.1-0.4,1.8-1.5,1.8-2.7v-5.7
		C67.3,46.9,66,45.6,64.4,45.6 M61.8,47.2c-1.9-5-6.7-8.6-12.3-8.6c-5.6,0-10.4,3.6-12.3,8.6c-0.1-0.1-0.2-0.2-0.3-0.3
		c1.1-6.1,6.3-10.7,12.6-10.7c6.3,0,11.5,4.6,12.6,10.6C62,46.9,61.9,47.1,61.8,47.2 M61.8,47.2L61.8,47.2z"/>
	<path class="st1" d="M44.2,63.9L44.2,63.9C44.2,63.9,44.2,63.9,44.2,63.9 M44.2,63.9L44.2,63.9z"/>
</g>
</svg>
