<?xml version="1.0" encoding="UTF-8"?>
<svg width="100px" height="100px" viewBox="0 0 100 100" version="1.1" xmlns="http://www.w3.org/2000/svg" xmlns:xlink="http://www.w3.org/1999/xlink">
    <!-- Generator: Sketch 42 (36781) - http://www.bohemiancoding.com/sketch -->
    <title>6-2</title>
    <desc>Created with Sketch.</desc>
    <defs></defs>
    <g id="Page-1" stroke="none" stroke-width="1" fill="none" fill-rule="evenodd">
        <g id="6-2">
            <g>
                <path d="M49.6753247,99.3506494 C44.7571429,99.3506494 40.1298701,97.4350649 36.6532468,93.9558442 L5.39480519,62.6987013 C1.91558442,59.2207792 0,54.5948052 0,49.6753247 C0,44.7558442 1.91558442,40.1298701 5.39480519,36.6519481 L36.6532468,5.39350649 C40.1298701,1.91688312 44.7571429,0 49.6753247,0 C54.5961039,0 59.2207792,1.91688312 62.7,5.39350649 L93.9558442,36.6519481 C97.4350649,40.1298701 99.3506494,44.7558442 99.3506494,49.6753247 C99.3506494,54.5948052 97.4350649,59.2207792 93.9558442,62.6987013 L62.7,93.9558442 C59.2207792,97.4350649 54.5961039,99.3506494 49.6753247,99.3506494 Z" id="Stroke-1" stroke="#FFFFFF" stroke-width="2"></path>
                <path d="M10.0827273,60.0941558 C4.32818182,54.3396104 4.32818182,45.011039 10.0827273,39.2564935 L39.2567532,10.0837662 C45.01,4.32922078 54.3385714,4.32922078 60.0944156,10.0837662 L89.2671429,39.2564935 C95.0216883,45.011039 95.0216883,54.3396104 89.2671429,60.0941558 L60.0944156,89.2668831 C54.3385714,95.0227273 45.01,95.0227273 39.2567532,89.2668831 L10.0827273,60.0941558 Z" id="Stroke-3" stroke="#FFFFFF" stroke-width="2"></path>
                <path d="M42.7975325,36.6109091 L62.6676623,36.6109091 L63.4325974,36.6109091 L63.4325974,35.0823377 L62.6676623,35.0823377 L42.7975325,35.0823377 L42.0325974,35.0823377 L42.0325974,36.6109091 L42.7975325,36.6109091 Z M45.091039,44.2537662 L55.7897403,44.2537662 C56.2118182,44.2537662 56.5546753,43.9109091 56.5546753,43.4888312 C56.5546753,43.0680519 56.2118182,42.7251948 55.7897403,42.7251948 L45.091039,42.7251948 C44.6676623,42.7251948 44.3261039,43.0680519 44.3261039,43.4888312 C44.3261039,43.9109091 44.6676623,44.2537662 45.091039,44.2537662 L45.091039,44.2537662 Z M45.091039,41.1966234 L58.8468831,41.1966234 C59.2702597,41.1966234 59.6118182,40.8550649 59.6118182,40.4316883 C59.6118182,40.0096104 59.2702597,39.6680519 58.8468831,39.6680519 L45.091039,39.6680519 C44.6676623,39.6680519 44.3261039,40.0096104 44.3261039,40.4316883 C44.3261039,40.8550649 44.6676623,41.1966234 45.091039,41.1966234 L45.091039,41.1966234 Z" id="Fill-5" fill="#FFFFFF"></path>
                <path d="M34.8709091,55.8276623 C34.4475325,56.0964935 34.392987,56.6912987 34.7579221,57.0328571 C34.7579221,57.0328571 42.341039,64.0977922 42.3527273,64.1081818 C42.8280519,64.551039 43.6176623,64.177013 44.1007792,63.9445455 C44.6683117,63.6718182 45.3488312,63.3887013 45.8332468,62.9874026 C46.0657143,62.7938961 46.7644156,62.8432468 47.0436364,62.8354545 C48.8046753,62.7874026 50.5903896,62.8367532 52.3514286,62.8835065 C54.1449351,62.9250649 55.4501299,63.0094805 55.9384416,63.1315584 C56.4085714,63.2458442 56.9358442,63.2497403 57.5124675,63.1679221 C58.0228571,63.0951948 58.5579221,62.9562338 59.0994805,62.7705195 C60.1436364,62.4094805 60.9787013,61.7731169 61.854026,61.1237662 C64.2981818,59.3146753 66.7683117,57.5237662 69.1345455,55.6133766 C69.4228571,55.3796104 69.7228571,55.151039 69.9916883,54.8938961 C71.141039,53.8211688 71.3825974,53.0172727 70.518961,52.3172727 C70.441039,52.2523377 70.18,52.0666234 70.1423377,52.0380519 C68.8812987,51.0718182 66.7163636,52.0951948 65.6150649,52.8562338 C64.6696104,53.5094805 63.7293506,54.1692208 62.8007792,54.8458442 C62.2098701,55.2757143 61.5722078,55.6964935 61.054026,56.2185714 C60.7098701,56.5653247 60.0618182,56.6705195 59.6033766,56.7653247 C57.7968831,57.1328571 55.8306494,57.0848052 53.9968831,57.0419481 C53.1774026,57.0224675 52.3553247,56.9783117 51.5436364,56.8601299 C51.2618182,56.8198701 50.9787013,56.7744156 50.705974,56.6964935 C50.4397403,56.6198701 50.1903896,56.4718182 49.9384416,56.3575325 C49.9825974,56.3783117 50.205974,56.1912987 50.1825974,56.2237662 C50.6553247,56.2432468 51.1332468,56.2172727 51.6072727,56.2042857 C52.7046753,56.177013 53.8033766,56.1250649 54.8319481,56.0471429 C57.4761039,55.8445455 59.1371429,55.528961 59.8007792,54.8822078 C60.3332468,54.3653247 60.5202597,53.7536364 60.2761039,53.1705195 C60.1072727,52.7614286 59.7748052,52.4679221 59.3371429,52.2302597 C58.8501299,51.9692208 58.3345455,51.877013 57.7877922,51.8497403 C57.3267532,51.8276623 56.8085714,51.8016883 56.2501299,51.7757143 C54.0163636,51.6653247 51.7812987,51.5588312 49.5488312,51.4549351 C47.9683117,51.3796104 46.3877922,51.3055844 44.8072727,51.2471429 C44.4267532,51.2341558 44.0436364,51.2120779 43.6644156,51.2120779 C41.9631169,51.2120779 40.5968831,52.2042857 39.2228571,53.0679221 C38.0462338,53.8055844 36.8774026,54.5562338 35.7046753,55.3003896 C35.4280519,55.4757143 35.1488312,55.651039 34.8709091,55.8276623 L34.8709091,55.8276623 Z M33.9579221,57.1380519 L40.9358442,63.8250649 C41.6319481,64.4938961 41.5423377,65.6107792 40.7137662,66.3406494 L38.5033766,68.2848052 C37.6838961,69.0042857 36.4527273,69.0471429 35.7579221,68.3783117 L28.7787013,61.6925974 C28.0812987,61.0237662 28.1735065,59.9055844 29.0007792,59.177013 L31.2124675,57.2341558 C32.0306494,56.5120779 33.2618182,56.4718182 33.9579221,57.1380519 L33.9579221,57.1380519 Z M40.5046753,34.3250649 L40.5046753,45.0107792 C40.5046753,47.1224675 42.2163636,48.8380519 44.3241558,48.8380519 L61.141039,48.8380519 C63.2527273,48.8380519 64.9605195,47.1250649 64.9605195,45.0107792 L64.9605195,34.3250649 C64.9605195,32.2146753 63.2501299,30.4964935 61.141039,30.4964935 L44.3241558,30.4964935 C42.2124675,30.4964935 40.5046753,32.2107792 40.5046753,34.3250649 L40.5046753,34.3250649 Z M42.0332468,34.3250649 C42.0332468,33.0536364 43.0579221,32.0250649 44.3241558,32.0250649 L61.141039,32.0250649 C62.4046753,32.0250649 63.4319481,33.0575325 63.4319481,34.3250649 L63.4319481,45.0107792 C63.4319481,46.2822078 62.4072727,47.3107792 61.141039,47.3107792 L44.3241558,47.3107792 C43.0618182,47.3107792 42.0332468,46.277013 42.0332468,45.0107792 L42.0332468,34.3250649 Z" id="Fill-7" fill="#FFFFFF"></path>
            </g>
        </g>
    </g>
</svg>