<?xml version="1.0" encoding="utf-8"?>
<!-- Generator: Adobe Illustrator 21.0.0, SVG Export Plug-In . SVG Version: 6.00 Build 0)  -->
<svg version="1.1" id="图层_1" xmlns="http://www.w3.org/2000/svg" xmlns:xlink="http://www.w3.org/1999/xlink" x="0px" y="0px"
	 viewBox="0 0 100 100" style="enable-background:new 0 0 100 100;" xml:space="preserve">
<style type="text/css">
	.st0{fill:none;stroke:#FFFFFF;stroke-width:2;}
	.st1{fill:#FFFFFF;}
</style>
<title>6-3</title>
<desc>Created with Sketch.</desc>
<path id="Stroke-1" class="st0" d="M49.7,99.4c-4.9,0-9.5-1.9-13-5.4L5.4,62.7C1.9,59.2,0,54.6,0,49.7s1.9-9.5,5.4-13L36.7,5.4
	c3.5-3.5,8.1-5.4,13-5.4s9.5,1.9,13,5.4L94,36.7c3.5,3.5,5.4,8.1,5.4,13s-1.9,9.5-5.4,13L62.7,94C59.2,97.4,54.6,99.4,49.7,99.4z"/>
<path id="Stroke-3" class="st0" d="M10.1,60.1c-5.8-5.8-5.8-15.1,0-20.8l29.2-29.2c5.8-5.8,15.1-5.8,20.8,0l29.2,29.2
	c5.8,5.8,5.8,15.1,0,20.8L60.1,89.3C54.3,95,45,95,39.3,89.3L10.1,60.1z"/>
<g>
	<path class="st1" d="M40.2,52.2v15.2h5.9V52.3l-2.9-2.9L40.2,52.2L40.2,52.2z M30.3,67.3h5.9V55.9l-5.9,5.6L30.3,67.3L30.3,67.3z
		 M60,48.7v18.6h5.9V42.9L60,48.7L60,48.7z M50.1,56.1v11.2H56V52.7l-4.7,4.6L50.1,56.1L50.1,56.1z"/>
	<polygon class="st1" points="69.7,30.7 58.4,30.7 63.2,36.1 51.3,47.8 43.1,39.9 30.3,52.1 30.3,57.3 43.1,45.2 51.3,53.1 
		65.7,38.9 69.7,43.4 69.7,30.7 	"/>
</g>
</svg>
