<?xml version="1.0" encoding="utf-8"?>
<!-- Generator: Adobe Illustrator 21.0.0, SVG Export Plug-In . SVG Version: 6.00 Build 0)  -->
<svg version="1.1" id="图层_1" xmlns="http://www.w3.org/2000/svg" xmlns:xlink="http://www.w3.org/1999/xlink" x="0px" y="0px"
	 viewBox="0 0 100 100" style="enable-background:new 0 0 100 100;" xml:space="preserve">
<style type="text/css">
	.st0{fill:none;stroke:#FFFFFF;stroke-width:2;}
	.st1{fill-rule:evenodd;clip-rule:evenodd;fill:#FFFFFF;}
</style>
<title>6-3</title>
<desc>Created with Sketch.</desc>
<path id="Stroke-1" class="st0" d="M50,99.4c-4.9,0-9.5-1.9-13-5.4L5.7,62.7c-3.5-3.5-5.4-8.1-5.4-13s1.9-9.5,5.4-13L37,5.4
	C40.5,1.9,45.1,0,50,0c4.9,0,9.5,1.9,13,5.4l31.3,31.3c3.5,3.5,5.4,8.1,5.4,13s-1.9,9.5-5.4,13L63,94C59.5,97.4,54.9,99.4,50,99.4z"
	/>
<path id="Stroke-3" class="st0" d="M10.4,60.1c-5.8-5.8-5.8-15.1,0-20.8l29.2-29.2c5.8-5.8,15.1-5.8,20.8,0l29.2,29.2
	c5.8,5.8,5.8,15.1,0,20.8L60.4,89.3c-5.8,5.8-15.1,5.8-20.8,0L10.4,60.1z"/>
<g>
	<path class="st1" d="M62.5,61.8L61,62.9l-2.2-3c2.8-2.5,4.4-5.9,4.9-9.4c0.6-4-0.4-8.3-3-11.8h0v0h0c-2.6-3.5-6.4-5.6-10.4-6.2
		c-4-0.6-8.2,0.4-11.8,3h0l0,0c-3.5,2.6-5.6,6.4-6.2,10.4c-0.6,4,0.4,8.3,3,11.8h0c2.6,3.5,6.4,5.6,10.4,6.2c3.5,0.5,7.1-0.1,10.3-2
		l2.2,3l-1.3,1l5.3,7.2l1.3-1l2.7-2l1.4-1.1L62.5,61.8L62.5,61.8z M45.9,61.4l-1.6-8.8l-0.1,0c-1.1,0.8-3.7,1.5-4.6,1.7
		c-1,0.2-2.2,0.9-2.2,2v0.1c-2.1-2.8-3.2-6.4-2.7-10.1C35.9,39,42.7,33.9,50,35c7.3,1.1,12.4,7.9,11.3,15.2
		c-0.4,2.4-1.3,4.5-2.7,6.3v-0.2c0-1.2-1.2-1.8-2.2-2c-0.9-0.2-3.5-0.9-4.6-1.7l-0.1,0l-1.6,8.8c-0.2,0-0.4,0-0.6,0.1l-0.9-6.7
		l0.8-1.6l-1.4,0l-1.4,0l0.8,1.6l-0.9,6.7c-0.1,0-0.3,0-0.4,0C46.1,61.4,46,61.4,45.9,61.4L45.9,61.4z"/>
	<path class="st1" d="M51.8,47.4l0.2,0c0.3,0.1,0.7-0.2,0.7-0.5l0.3-1.9c0.1-0.3-0.2-0.6-0.5-0.7l-0.2,0c0.1-0.3,0.1-0.6,0.1-0.9
		v-0.7c0-1.3-0.8-2.3-1.9-2.8c-0.2-0.1-0.5-0.3-0.8-0.4c-1.3-0.5-2.6-0.5-2.8,0c0,0.1,0,0.1,0,0.2h-0.4c-1.7,0-3,1.4-3,3v0.7
		c0,0.3,0,0.6,0.1,0.9l-0.2,0c-0.3,0.1-0.6,0.4-0.5,0.7l0.3,1.9c0.1,0.3,0.4,0.6,0.7,0.5l0.3,0c0.6,2.1,2.2,3.6,3.8,3.7
		C49.6,51,51.2,49.5,51.8,47.4L51.8,47.4z"/>
</g>
</svg>
