<?xml version="1.0" encoding="iso-8859-1"?>
<!-- Generator: Adobe Illustrator 16.0.4, SVG Export Plug-In . SVG Version: 6.00 Build 0)  -->
<!DOCTYPE svg PUBLIC "-//W3C//DTD SVG 1.1//EN" "http://www.w3.org/Graphics/SVG/1.1/DTD/svg11.dtd">
<svg version="1.1" id="&#x56FE;&#x5C42;_1" xmlns="http://www.w3.org/2000/svg" xmlns:xlink="http://www.w3.org/1999/xlink" x="0px"
	 y="0px" width="40px" height="40px" viewBox="0 0 40 40" style="enable-background:new 0 0 40 40;" xml:space="preserve">
<path style="fill:#FFFFFF;" d="M21.782,35.896c-0.423,2.604-2.854,4.371-5.433,3.944c-2.579-0.426-4.328-2.883-3.906-5.487
	l4.929-30.445c0.421-2.605,2.854-4.371,5.433-3.945c2.579,0.426,4.327,2.883,3.906,5.487L21.782,35.896z"/>
<path style="fill:#FFFFFF;" d="M4.631,24.357c-2.613,0-4.731-2.14-4.731-4.78c0-2.643,2.118-4.782,4.731-4.782h30.538
	c2.613,0,4.731,2.14,4.731,4.782c0,2.641-2.118,4.78-4.731,4.78H4.631z"/>
</svg>
