<?xml version="1.0" encoding="utf-8"?>
<!-- Generated by IcoMoon.io -->
<!DOCTYPE svg PUBLIC "-//W3C//DTD SVG 1.1//EN" "http://www.w3.org/Graphics/SVG/1.1/DTD/svg11.dtd">
<svg version="1.1" xmlns="http://www.w3.org/2000/svg" xmlns:xlink="http://www.w3.org/1999/xlink" width="32" height="32" viewBox="0 0 32 32">
<path fill="#444444" d="M17.148 25.707h-10.712c-0.31 0-0.325-0.479-0.325-0.575v-20.241c0-0.282 0.229-0.511 0.511-0.511h16.131c0.459 0 0.459 0.232 0.459 0.344v14.155c0 0.243 0.197 0.44 0.44 0.44s0.44-0.197 0.44-0.44v-14.156c0-0.743-0.526-1.223-1.339-1.223h-16.132c-0.767 0-1.391 0.624-1.391 1.391v20.241c0 0.857 0.496 1.456 1.205 1.456h10.712c0.243 0 0.44-0.197 0.44-0.44s-0.196-0.441-0.439-0.441z"></path>
<path fill="#444444" d="M20.208 12.317h-11.094c-0.243 0-0.44 0.197-0.44 0.44s0.197 0.44 0.44 0.44h11.095c0.243 0 0.44-0.197 0.44-0.44s-0.198-0.44-0.441-0.44z"></path>
<path fill="#444444" d="M20.648 17.348c0-0.243-0.197-0.44-0.44-0.44h-11.094c-0.243 0-0.44 0.197-0.44 0.44s0.197 0.44 0.44 0.44h11.095c0.242 0 0.439-0.197 0.439-0.44z"></path>
<path fill="#444444" d="M9.114 21.116c-0.243 0-0.44 0.197-0.44 0.44s0.197 0.44 0.44 0.44h5.739c0.243 0 0.44-0.197 0.44-0.44s-0.197-0.44-0.44-0.44h-5.739z"></path>
<path fill="#444444" d="M20.208 8.109h-11.094c-0.243 0-0.44 0.197-0.44 0.44s0.197 0.44 0.44 0.44h11.095c0.243 0 0.44-0.197 0.44-0.44s-0.198-0.44-0.441-0.44z"></path>
<path fill="#444444" d="M26.641 27.749l-2.496-2.503c-0.027-0.027-0.059-0.042-0.090-0.060 0.452-0.58 0.7-1.288 0.7-2.034 0-0.889-0.346-1.725-0.976-2.353s-1.467-0.974-2.36-0.974c-0.889 0-1.723 0.347-2.348 0.975-0.624 0.628-0.967 1.462-0.967 2.351 0 1.833 1.488 3.325 3.317 3.326 0 0 0 0 0 0 0.75 0 1.46-0.248 2.042-0.7 0.018 0.031 0.033 0.063 0.059 0.090l2.496 2.503c0.086 0.086 0.199 0.13 0.312 0.13 0.112 0 0.225-0.043 0.31-0.129 0.172-0.171 0.172-0.45 0.001-0.622zM21.421 25.597c-1.344 0-2.438-1.098-2.438-2.446 0-0.654 0.252-1.269 0.711-1.73s1.071-0.716 1.728-0.716 1.273 0.254 1.736 0.717c0.463 0.462 0.718 1.076 0.717 1.729 0 0.653-0.255 1.267-0.718 1.729-0.464 0.463-1.081 0.717-1.736 0.717z"></path>
</svg>
