<?xml version="1.0" encoding="utf-8"?>
<!-- Generated by IcoMoon.io -->
<!DOCTYPE svg PUBLIC "-//W3C//DTD SVG 1.1//EN" "http://www.w3.org/Graphics/SVG/1.1/DTD/svg11.dtd">
<svg version="1.1" xmlns="http://www.w3.org/2000/svg" xmlns:xlink="http://www.w3.org/1999/xlink" width="32" height="32" viewBox="0 0 32 32">
<path fill="#444444" d="M28.278 16.63l-1.505-1.004-2.563-3.076c-0.095-0.113-0.235-0.179-0.382-0.179h-3.678v-3.155c0-0.275-0.223-0.497-0.498-0.497h-7.075c-0.639-1.82-2.37-3.131-4.405-3.131-2.577 0-4.673 2.096-4.673 4.672 0 1.621 0.831 3.050 2.088 3.889v10.723c0 0.275 0.223 0.498 0.497 0.498h3.436c0.356 0.62 1.018 1.043 1.783 1.043s1.426-0.423 1.782-1.043h8.438c0.356 0.62 1.018 1.043 1.783 1.043s1.426-0.423 1.782-1.043h2.914c0.275 0 0.498-0.223 0.498-0.498v-7.827c0-0.168-0.083-0.323-0.222-0.415zM23.595 13.366l2.46 2.952c0.031 0.037 0.066 0.069 0.106 0.095l1.344 0.897v4.977h-7.355v-8.92h3.445zM4.495 10.259c0-2.027 1.65-3.677 3.678-3.677s3.677 1.649 3.677 3.677c0 2.028-1.65 3.677-3.677 3.677-2.028 0.001-3.678-1.649-3.678-3.677zM8.173 14.931c2.576 0 4.672-2.096 4.672-4.672 0-0.185-0.014-0.367-0.035-0.546h6.346v12.574h-7.85c-0.001 0-0.001 0-0.002 0s-0.001 0-0.002 0h-4.72v-7.64c0.498 0.181 1.032 0.284 1.591 0.284zM6.582 24.374v-1.092h2.965c-0.191 0.312-0.307 0.676-0.307 1.068 0 0.008 0.002 0.016 0.003 0.025h-2.661zM11.304 25.417c-0.589 0-1.068-0.479-1.068-1.068 0-0.588 0.478-1.067 1.066-1.068h0.004c0.588 0.001 1.066 0.48 1.066 1.068s-0.48 1.068-1.068 1.068zM13.364 24.374c0-0.008 0.003-0.016 0.003-0.025 0-0.392-0.116-0.755-0.307-1.068h6.594c0 0 0.001 0 0.001 0h1.895c-0.191 0.313-0.307 0.676-0.307 1.068 0 0.008 0.002 0.016 0.003 0.025h-7.882zM23.306 25.417c-0.589 0-1.068-0.479-1.068-1.068s0.479-1.068 1.068-1.068c0.589 0 1.068 0.479 1.068 1.068s-0.479 1.068-1.068 1.068zM25.366 24.374c0-0.008 0.003-0.016 0.003-0.025 0-0.392-0.116-0.755-0.307-1.068h2.443v1.093h-2.139z"></path>
<path fill="#444444" d="M8.67 10.259v-2.087c0-0.275-0.223-0.497-0.497-0.497-0.275 0-0.497 0.223-0.497 0.497v1.59h-1.59c-0.275 0-0.497 0.223-0.497 0.497s0.223 0.497 0.497 0.497h2.087c0.274 0.001 0.497-0.222 0.497-0.497z"></path>
</svg>
