<?xml version="1.0" encoding="utf-8"?>
<!-- Generated by IcoMoon.io -->
<!DOCTYPE svg PUBLIC "-//W3C//DTD SVG 1.1//EN" "http://www.w3.org/Graphics/SVG/1.1/DTD/svg11.dtd">
<svg version="1.1" xmlns="http://www.w3.org/2000/svg" xmlns:xlink="http://www.w3.org/1999/xlink" width="32" height="32" viewBox="0 0 32 32">
<path fill="#444444" d="M27.083 6.006h-16.227c-0.781 0-1.417 0.636-1.417 1.417v1.223h0.846v-1.223c0-0.315 0.256-0.571 0.571-0.571h16.227c0.315 0 0.571 0.256 0.571 0.571v7.491h-13.735v0.846h13.735v1.819c0 0.315-0.256 0.571-0.571 0.571h-13.174v0.846h13.174c0.781 0 1.417-0.636 1.417-1.417v-10.156c0-0.781-0.636-1.417-1.417-1.417z"></path>
<path fill="#444444" d="M20.067 17.055c0-0.512-0.417-0.929-0.929-0.929s-0.929 0.417-0.929 0.929 0.417 0.928 0.929 0.928 0.929-0.416 0.929-0.928zM19.055 17.055c0-0.046 0.037-0.083 0.083-0.083s0.083 0.037 0.083 0.083c0 0.092-0.166 0.092-0.166 0z"></path>
<path fill="#444444" d="M21.781 19.502l-0.829 0.166 0.288 1.438c0.014 0.069 0.004 0.14-0.029 0.208l-0.017 0.034c-0.054 0.109-0.163 0.176-0.283 0.176h-3.135c-0.12 0-0.228-0.067-0.283-0.176-0.036-0.072-0.043-0.154-0.020-0.232 0.044-0.145 0.331-1.334 0.256-1.633l-0.566 0.141-0.264 0.002c0.001 0.14-0.136 0.916-0.236 1.245-0.087 0.286-0.061 0.59 0.073 0.856 0.198 0.396 0.596 0.642 1.039 0.642h3.135c0.442 0 0.84-0.246 1.042-0.647l0.017-0.034c0.116-0.23 0.151-0.496 0.101-0.749l-0.289-1.437z"></path>
<path fill="#444444" d="M13.020 10.912c0-0.759-0.618-1.376-1.377-1.376h-6.766c-0.759 0-1.377 0.617-1.377 1.376v13.706c0 0.759 0.618 1.376 1.377 1.376h6.766c0.759 0 1.377-0.617 1.377-1.376v-13.706zM4.877 10.381h6.766c0.293 0 0.531 0.238 0.531 0.531v0.926h-7.828v-0.926c0-0.293 0.238-0.531 0.531-0.531zM12.174 22.645c-0.054-0.025-0.114-0.042-0.178-0.042h-7.65v-9.919h7.828v9.961zM11.643 25.149h-6.766c-0.293 0-0.531-0.238-0.531-0.531v-1.17h7.651c0.064 0 0.123-0.017 0.178-0.042v1.212c-0.001 0.293-0.239 0.531-0.532 0.531z"></path>
<path fill="#444444" d="M7.383 11.53h2.691c0.234 0 0.423-0.189 0.423-0.423s-0.189-0.423-0.423-0.423h-2.691c-0.234 0-0.423 0.189-0.423 0.423s0.19 0.423 0.423 0.423z"></path>
<path fill="#444444" d="M8.26 23.703c-0.393 0-0.712 0.319-0.712 0.712s0.319 0.712 0.712 0.712 0.712-0.319 0.712-0.712c0-0.393-0.319-0.712-0.712-0.712zM8.26 24.549c-0.074 0-0.134-0.060-0.134-0.134s0.060-0.134 0.134-0.134c0.074 0 0.134 0.060 0.134 0.134s-0.060 0.134-0.134 0.134z"></path>
</svg>
