<?xml version="1.0" encoding="utf-8"?>
<!-- Generated by IcoMoon.io -->
<!DOCTYPE svg PUBLIC "-//W3C//DTD SVG 1.1//EN" "http://www.w3.org/Graphics/SVG/1.1/DTD/svg11.dtd">
<svg version="1.1" xmlns="http://www.w3.org/2000/svg" xmlns:xlink="http://www.w3.org/1999/xlink" width="32" height="32" viewBox="0 0 32 32">
<path fill="#444444" d="M15.97 22.192c-3.911 0-7.566-2.096-9.534-5.472-1.486-2.544-1.89-5.513-1.141-8.363 0.75-2.848 2.562-5.234 5.106-6.72 1.687-0.985 3.605-1.504 5.547-1.504 3.911 0 7.566 2.096 9.534 5.472 3.065 5.253 1.287 12.018-3.966 15.083-1.687 0.983-3.605 1.504-5.547 1.504zM15.95 0.814c-1.822 0-3.623 0.489-5.205 1.413-2.386 1.392-4.089 3.632-4.791 6.304-0.704 2.674-0.322 5.461 1.070 7.847 1.849 3.166 5.275 5.134 8.946 5.134 1.822 0 3.623-0.487 5.205-1.413 4.928-2.875 6.597-9.225 3.721-14.153-1.847-3.163-5.275-5.131-8.946-5.131z"></path>
<path fill="#444444" d="M22.522 19.707l6.364 10.905-2.351 1.372-6.364-10.905 2.351-1.372z"></path>
</svg>
