<?xml version="1.0" encoding="iso-8859-1"?>
<!-- Generator: Adobe Illustrator 16.0.4, SVG Export Plug-In . SVG Version: 6.00 Build 0)  -->
<!DOCTYPE svg PUBLIC "-//W3C//DTD SVG 1.1//EN" "http://www.w3.org/Graphics/SVG/1.1/DTD/svg11.dtd">
<svg version="1.1" id="&#x56FE;&#x5C42;_1" xmlns="http://www.w3.org/2000/svg" xmlns:xlink="http://www.w3.org/1999/xlink" x="0px"
	 y="0px" width="40px" height="40px" viewBox="0 0 40 40" style="enable-background:new 0 0 40 40;" xml:space="preserve">
<g>
	<path style="fill:#FFFFFF;" d="M27.069,13.576c0.459,0,0.911,0.033,1.361,0.084c-1.223-5.697-7.313-9.929-14.266-9.929
		c-7.771,0-14.138,5.297-14.138,12.023c0,3.883,2.117,7.071,5.658,9.545l-1.414,4.252l4.941-2.478
		c1.77,0.35,3.188,0.709,4.952,0.709c0.444,0,0.884-0.021,1.321-0.056c-0.277-0.945-0.438-1.935-0.438-2.963
		C15.049,18.588,20.353,13.576,27.069,13.576L27.069,13.576z M19.467,9.743c1.063,0,1.769,0.7,1.769,1.764
		c0,1.06-0.705,1.77-1.769,1.77c-1.059,0-2.122-0.71-2.122-1.77C17.345,10.443,18.408,9.743,19.467,9.743L19.467,9.743z
		 M9.573,13.277c-1.061,0-2.131-0.711-2.131-1.771c0-1.063,1.071-1.764,2.131-1.764c1.059,0,1.764,0.7,1.764,1.764
		C11.337,12.566,10.632,13.277,9.573,13.277L9.573,13.277z"/>
	<path style="fill:#FFFFFF;" d="M39.973,24.595c0-5.652-5.656-10.26-12.01-10.26c-6.728,0-12.024,4.607-12.024,10.26
		c0,5.663,5.297,10.261,12.024,10.261c1.408,0,2.829-0.357,4.244-0.71l3.877,2.123l-1.063-3.533
		C37.859,30.607,39.973,27.783,39.973,24.595L39.973,24.595z M24.064,22.826c-0.704,0-1.414-0.701-1.414-1.415
		c0-0.704,0.71-1.414,1.414-1.414c1.069,0,1.771,0.71,1.771,1.414C25.835,22.125,25.134,22.826,24.064,22.826L24.064,22.826z
		 M31.842,22.826c-0.7,0-1.405-0.701-1.405-1.415c0-0.704,0.705-1.414,1.405-1.414c1.059,0,1.769,0.71,1.769,1.414
		C33.61,22.125,32.9,22.826,31.842,22.826L31.842,22.826z"/>
</g>
</svg>
