<?xml version="1.0" encoding="utf-8"?>
<!-- Generator: Adobe Illustrator 17.0.1, SVG Export Plug-In . SVG Version: 6.00 Build 0)  -->
<!DOCTYPE svg PUBLIC "-//W3C//DTD SVG 1.1//EN" "http://www.w3.org/Graphics/SVG/1.1/DTD/svg11.dtd">
<svg version="1.1" id="图层_1" xmlns="http://www.w3.org/2000/svg" xmlns:xlink="http://www.w3.org/1999/xlink" x="0px" y="0px"
	 width="120px" height="120px" viewBox="-12.5 -12.5 120 120" enable-background="new -12.5 -12.5 120 120" xml:space="preserve">
<g>
	<path fill="#040000" d="M23.321,22.176c4.075,0,7.389-3.314,7.389-7.389s-3.315-7.389-7.389-7.389s-7.389,3.315-7.389,7.389
		S19.246,22.176,23.321,22.176z M23.321,9.481c2.926,0,5.306,2.38,5.306,5.306c0,2.925-2.38,5.305-5.306,5.305
		c-2.925,0-5.305-2.38-5.305-5.305C18.016,11.861,20.396,9.481,23.321,9.481z"/>
	<path fill="#040000" d="M23.321,53.912c4.075,0,7.389-3.315,7.389-7.389c0-4.075-3.315-7.389-7.389-7.389s-7.389,3.314-7.389,7.389
		C15.932,50.597,19.246,53.912,23.321,53.912z M23.321,41.218c2.926,0,5.306,2.38,5.306,5.305c0,2.925-2.38,5.305-5.306,5.305
		c-2.925,0-5.305-2.38-5.305-5.305C18.016,43.598,20.396,41.218,23.321,41.218z"/>
	<path fill="#040000" d="M23.321,87.113c4.075,0,7.389-3.315,7.389-7.389s-3.315-7.389-7.389-7.389s-7.389,3.315-7.389,7.389
		S19.246,87.113,23.321,87.113z M23.321,74.419c2.926,0,5.306,2.38,5.306,5.305s-2.38,5.305-5.306,5.305
		c-2.925,0-5.305-2.38-5.305-5.305S20.396,74.419,23.321,74.419z"/>
	<path fill="#040000" d="M90.319,0H4.681C3.005,0,1.642,1.363,1.642,3.04v22.892c0,1.676,1.363,3.039,3.039,3.039h85.638
		c1.676,0,3.039-1.363,3.039-3.039V3.04C93.358,1.363,91.995,0,90.319,0z M90.232,25.845H4.768V3.126h85.465V25.845z"/>
	<path fill="#040000" d="M90.319,33.23H4.681c-1.676,0-3.039,1.363-3.039,3.04v22.891c0,1.677,1.363,3.04,3.039,3.04h85.638
		c1.676,0,3.039-1.363,3.039-3.04V36.27C93.358,34.593,91.995,33.23,90.319,33.23z M90.232,59.076H4.768v-22.72h85.465V59.076z"/>
	<path fill="#040000" d="M90.319,66.029H4.681c-1.676,0-3.039,1.363-3.039,3.039V91.96c0,1.677,1.363,3.04,3.039,3.04h85.638
		c1.676,0,3.039-1.363,3.039-3.04V69.068C93.358,67.393,91.995,66.029,90.319,66.029z M90.232,91.874H4.768V69.155h85.465V91.874z"
		/>
</g>
</svg>
