<?xml version="1.0" encoding="utf-8"?>
<!-- Generator: Adobe Illustrator 17.0.1, SVG Export Plug-In . SVG Version: 6.00 Build 0)  -->
<!DOCTYPE svg PUBLIC "-//W3C//DTD SVG 1.1//EN" "http://www.w3.org/Graphics/SVG/1.1/DTD/svg11.dtd">
<svg version="1.1" id="图层_1" xmlns="http://www.w3.org/2000/svg" xmlns:xlink="http://www.w3.org/1999/xlink" x="0px" y="0px"
	 width="120px" height="120px" viewBox="-12.5 -12.5 120 120" enable-background="new -12.5 -12.5 120 120" xml:space="preserve">
<g>
	<path fill="#040000" d="M51.16,20.53h-7.607c-5.276,0-9.567,4.292-9.567,9.567v55.336c0,5.276,4.293,9.567,9.567,9.567h7.607
		c5.277,0,9.568-4.291,9.568-9.567V30.097C60.728,24.821,56.435,20.53,51.16,20.53z M57.666,85.433c0,3.586-2.918,6.504-6.505,6.504
		h-7.607c-3.586,0-6.504-2.918-6.504-6.504V30.097c0-3.586,2.918-6.504,6.504-6.504h7.607c3.587,0,6.505,2.918,6.505,6.504V85.433z"
		/>
	<path fill="#040000" d="M82.975,0h-7.607C70.091,0,65.8,4.291,65.8,9.567v75.866c0,5.276,4.293,9.567,9.568,9.567h7.607
		c5.275,0,9.567-4.291,9.567-9.567V9.567C92.542,4.291,88.249,0,82.975,0z M89.48,85.432c0,3.586-2.918,6.504-6.504,6.504h-7.607
		c-3.587,0-6.505-2.918-6.505-6.504V9.566c0-3.586,2.918-6.504,6.505-6.504l7.607,0.001c3.586,0,6.504,2.918,6.504,6.504V85.432z"/>
	<path fill="#040000" d="M19.632,44.47h-7.607c-5.276,0-9.567,4.292-9.567,9.567v31.396c0,5.276,4.293,9.567,9.567,9.567h7.607
		c5.275,0,9.566-4.291,9.567-9.567V54.037C29.199,48.761,24.906,44.47,19.632,44.47z M26.136,85.432
		c0,3.586-2.918,6.504-6.504,6.504h-7.607c-3.586,0-6.504-2.918-6.504-6.504V54.036c0-3.586,2.918-6.504,6.504-6.504l7.607,0.001
		c3.586,0,6.504,2.918,6.504,6.504V85.432z"/>
</g>
</svg>
