<?xml version="1.0" encoding="utf-8"?>
<!-- Generated by IcoMoon.io -->
<!DOCTYPE svg PUBLIC "-//W3C//DTD SVG 1.1//EN" "http://www.w3.org/Graphics/SVG/1.1/DTD/svg11.dtd">
<svg version="1.1" xmlns="http://www.w3.org/2000/svg" xmlns:xlink="http://www.w3.org/1999/xlink" width="32" height="32" viewBox="0 0 32 32">
<path fill="rgb(34,30,31)" d="M17.481 23.206c0 1.563-1.267 2.831-2.831 2.831s-2.831-1.267-2.831-2.831c0-1.563 1.267-2.831 2.831-2.831s2.831 1.267 2.831 2.831z"></path>
<path fill="rgb(34,30,31)" opacity="0.1" d="M19.81 18.95c-0.231 0-0.463-0.088-0.64-0.265-1.207-1.207-2.813-1.872-4.52-1.872s-3.313 0.665-4.52 1.872c-0.353 0.353-0.926 0.353-1.279 0s-0.353-0.926 0-1.279c1.549-1.549 3.609-2.402 5.8-2.402s4.251 0.853 5.799 2.402c0.353 0.353 0.353 0.926 0 1.279-0.177 0.177-0.408 0.265-0.64 0.265z"></path>
<path fill="rgb(34,30,31)" opacity="0.1" d="M24.080 14.68c-0.231 0-0.463-0.088-0.64-0.265-2.348-2.348-5.47-3.641-8.791-3.641s-6.442 1.293-8.791 3.641c-0.353 0.353-0.926 0.353-1.279 0s-0.353-0.926 0-1.279c2.69-2.69 6.266-4.171 10.070-4.171s7.38 1.481 10.070 4.171c0.353 0.353 0.353 0.926 0 1.279-0.177 0.177-0.408 0.265-0.64 0.265z"></path>
<path fill="rgb(34,30,31)" opacity="0.1" d="M28.395 10.365c-0.231 0-0.463-0.088-0.64-0.265-3.5-3.5-8.155-5.428-13.105-5.428s-9.605 1.928-13.106 5.428c-0.353 0.353-0.926 0.353-1.279 0s-0.353-0.926 0-1.279c3.842-3.842 8.951-5.958 14.385-5.958s10.542 2.116 14.385 5.958c0.353 0.353 0.353 0.926 0 1.279-0.177 0.177-0.409 0.265-0.64 0.265z"></path>
<path fill="rgb(34,30,31)" d="M24.777 29.138c-3.983 0-7.223-3.24-7.223-7.223s3.24-7.223 7.223-7.223c3.983 0 7.223 3.24 7.223 7.223s-3.24 7.223-7.223 7.223zM24.777 15.596c-3.484 0-6.318 2.835-6.318 6.318s2.835 6.318 6.318 6.318c3.484 0 6.318-2.835 6.318-6.318s-2.835-6.318-6.318-6.318z"></path>
<path fill="rgb(34,30,31)" d="M24.071 24.508c-0.116 0-0.231-0.044-0.32-0.132l-2.54-2.54c-0.177-0.177-0.177-0.463 0-0.64s0.463-0.177 0.64 0l2.22 2.22 3.962-3.962c0.177-0.177 0.463-0.177 0.64 0s0.177 0.463 0 0.64l-4.282 4.282c-0.089 0.088-0.204 0.132-0.32 0.132z"></path>
</svg>
