<?xml version="1.0" encoding="utf-8"?>
<!-- Generator: Adobe Illustrator 17.0.1, SVG Export Plug-In . SVG Version: 6.00 Build 0)  -->
<!DOCTYPE svg PUBLIC "-//W3C//DTD SVG 1.1//EN" "http://www.w3.org/Graphics/SVG/1.1/DTD/svg11.dtd">
<svg version="1.1" id="图层_1" xmlns="http://www.w3.org/2000/svg" xmlns:xlink="http://www.w3.org/1999/xlink" x="0px" y="0px"
	 width="120px" height="120px" viewBox="-12.5 -12.5 120 120" enable-background="new -12.5 -12.5 120 120" xml:space="preserve">
<g>
	<path d="M82.271,0H25.993c-4.017,0-7.284,3.265-7.284,7.278v4.7H12.73c-4.017,0-7.284,3.265-7.284,7.278v68.465
		c0,4.013,3.268,7.278,7.284,7.278h56.278c4.017,0,7.284-3.265,7.284-7.278v-4.7h5.979c4.017,0,7.284-3.265,7.284-7.277V7.278
		C89.555,3.265,86.287,0,82.271,0z M69.008,92.003H12.729c-2.362,0-4.284-1.92-4.284-4.281V19.256c0-2.36,1.922-4.281,4.284-4.281
		h5.979v60.768c0,4.012,3.268,7.277,7.284,7.277h47.299v4.702h0.001C73.292,90.082,71.37,92.003,69.008,92.003z M86.555,75.744
		c0,2.359-1.922,4.28-4.284,4.28H25.993c-2.362,0-4.284-1.92-4.284-4.28V7.278c0-2.36,1.922-4.28,4.284-4.28h56.278
		c2.362,0,4.284,1.92,4.284,4.28V75.744z"/>
	<path d="M37.684,19.563c-2.992,0-5.425,2.432-5.425,5.421s2.434,5.421,5.425,5.421c2.991,0,5.425-2.432,5.425-5.421
		S40.676,19.563,37.684,19.563z M37.684,27.408c-1.337,0-2.425-1.087-2.425-2.423s1.088-2.423,2.425-2.423
		c1.337,0,2.425,1.087,2.425,2.423S39.021,27.408,37.684,27.408z"/>
	<path d="M37.684,34.598c-2.992,0-5.425,2.432-5.425,5.42c0,2.989,2.434,5.421,5.425,5.421c2.991,0,5.425-2.432,5.425-5.421
		C43.109,37.03,40.676,34.598,37.684,34.598z M37.684,42.442c-1.337,0-2.425-1.087-2.425-2.423s1.088-2.423,2.425-2.423
		c1.337,0,2.425,1.087,2.425,2.423S39.021,42.442,37.684,42.442z"/>
	<path d="M37.684,50.068c-2.992,0-5.425,2.432-5.425,5.42c0,2.989,2.434,5.42,5.425,5.42c2.991,0,5.425-2.432,5.425-5.42
		C43.109,52.5,40.676,50.068,37.684,50.068z M37.684,57.912c-1.337,0-2.425-1.087-2.425-2.423s1.088-2.423,2.425-2.423
		c1.337,0,2.425,1.087,2.425,2.423S39.021,57.912,37.684,57.912z"/>
	<path d="M73.229,23.485H48.151c-0.829,0-1.5,0.671-1.5,1.499s0.671,1.499,1.5,1.499h25.077c0.828,0,1.5-0.671,1.5-1.499
		S74.057,23.485,73.229,23.485z"/>
	<path d="M73.229,38.52H48.151c-0.829,0-1.5,0.671-1.5,1.499s0.671,1.499,1.5,1.499h25.077c0.828,0,1.5-0.671,1.5-1.499
		S74.057,38.52,73.229,38.52z"/>
	<path d="M73.229,53.99H48.151c-0.829,0-1.5,0.671-1.5,1.499s0.671,1.499,1.5,1.499h25.077c0.828,0,1.5-0.671,1.5-1.499
		S74.057,53.99,73.229,53.99z"/>
</g>
</svg>
