<?xml version="1.0" encoding="utf-8"?>
<!-- Generator: Adobe Illustrator 17.0.1, SVG Export Plug-In . SVG Version: 6.00 Build 0)  -->
<!DOCTYPE svg PUBLIC "-//W3C//DTD SVG 1.1//EN" "http://www.w3.org/Graphics/SVG/1.1/DTD/svg11.dtd">
<svg version="1.1" id="图层_1" xmlns="http://www.w3.org/2000/svg" xmlns:xlink="http://www.w3.org/1999/xlink" x="0px" y="0px"
	 width="120px" height="120px" viewBox="0 0 120 120" enable-background="new 0 0 120 120" xml:space="preserve">
<g>
	<path fill="#221F20" d="M8.367,66.942c-0.195-0.891-1.1-1.46-2.011-1.269c-0.915,0.189-1.5,1.065-1.306,1.957
		c1.101,5.034,3.246,9.701,6.378,13.872c0.332,0.442,0.848,0.676,1.371,0.676c0.347,0,0.697-0.103,0.997-0.317
		c0.756-0.538,0.921-1.57,0.37-2.306C11.319,75.762,9.367,71.518,8.367,66.942z"/>
	<path fill="#221F20" d="M23.845,31.464c0.288,0,0.58-0.072,0.846-0.222c4.17-2.343,8.714-3.774,13.509-4.253
		c0.932-0.092,1.608-0.903,1.514-1.809c-0.095-0.906-0.929-1.56-1.859-1.473c-5.273,0.526-10.272,2.1-14.859,4.678
		c-0.811,0.455-1.089,1.464-0.619,2.254C22.69,31.168,23.259,31.464,23.845,31.464z"/>
	<path fill="#221F20" d="M38.262,93.014c-4.795-0.47-9.343-1.892-13.519-4.229c-0.81-0.45-1.848-0.18-2.314,0.608
		c-0.466,0.791-0.187,1.8,0.625,2.254c4.592,2.57,9.595,4.135,14.87,4.651c0.057,0.007,0.115,0.009,0.172,0.009
		c0.86,0,1.597-0.635,1.684-1.485C39.873,93.914,39.194,93.106,38.262,93.014z"/>
	<path fill="#221F20" d="M6.345,54.39c0.118,0.024,0.235,0.036,0.352,0.036c0.784,0,1.488-0.533,1.658-1.31
		c0.992-4.578,2.936-8.825,5.777-12.624c0.55-0.737,0.384-1.769-0.373-2.306c-0.758-0.537-1.817-0.373-2.369,0.363
		c-3.124,4.178-5.261,8.848-6.354,13.885C4.844,53.326,5.429,54.202,6.345,54.39z"/>
	<path fill="#221F20" d="M77.511,23.516c-6.477,0-12.574,1.607-17.895,4.432c-1.971-1.044-4.035-1.927-6.161-2.608
		c-0.888-0.283-1.847,0.186-2.141,1.052c-0.293,0.866,0.191,1.798,1.08,2.083c1.311,0.42,2.595,0.929,3.848,1.504
		C46.452,36.568,40.023,47.565,40.023,60c0,12.434,6.431,23.431,16.219,30.02c-1.253,0.574-2.534,1.083-3.846,1.505
		c-0.89,0.286-1.373,1.219-1.079,2.084c0.235,0.694,0.899,1.133,1.609,1.133c0.175,0,0.355-0.026,0.532-0.082
		c2.124-0.682,4.188-1.564,6.158-2.608c5.321,2.825,11.418,4.432,17.894,4.432C98.182,96.484,115,80.117,115,60
		C115,39.882,98.182,23.516,77.511,23.516z M77.511,93.184C58.71,93.184,43.413,78.297,43.413,60S58.71,26.816,77.511,26.816
		S111.609,41.703,111.609,60S96.312,93.184,77.511,93.184z"/>
	<path fill="#221F20" d="M94,47.82L72.862,68.391l-12.05-11.729c-0.662-0.645-1.735-0.645-2.397,0c-0.662,0.643-0.662,1.688,0,2.333
		l13.249,12.896c0.319,0.309,0.75,0.483,1.199,0.483c0.449,0,0.88-0.174,1.198-0.483l22.335-21.738c0.662-0.643,0.662-1.688,0-2.333
		C95.735,47.175,94.662,47.175,94,47.82z"/>
</g>
</svg>
