<?xml version="1.0" encoding="utf-8"?>
<!-- Generator: Adobe Illustrator 17.0.1, SVG Export Plug-In . SVG Version: 6.00 Build 0)  -->
<!DOCTYPE svg PUBLIC "-//W3C//DTD SVG 1.1//EN" "http://www.w3.org/Graphics/SVG/1.1/DTD/svg11.dtd">
<svg version="1.1" id="图层_1" xmlns="http://www.w3.org/2000/svg" xmlns:xlink="http://www.w3.org/1999/xlink" x="0px" y="0px"
	 width="120px" height="120px" viewBox="-12.5 -12.5 120 120" enable-background="new -12.5 -12.5 120 120" xml:space="preserve">
<g>
	<path fill="#221E1F" d="M47.499,7.12c-10.101,0-19.965,3.512-27.775,9.891C9.451,25.4,3.559,37.811,3.559,51.06
		C3.559,75.288,23.27,95,47.499,95c24.23,0,43.941-19.712,43.941-43.94S71.729,7.12,47.499,7.12z M47.5,91.899
		c-22.519,0-40.839-18.321-40.839-40.839c0-12.314,5.476-23.849,15.025-31.648c7.257-5.927,16.425-9.191,25.813-9.191
		c22.52,0,40.841,18.32,40.841,40.839S70.019,91.899,47.5,91.899z"/>
	<path fill="#221E1F" d="M47.499,27.317c-0.856,0-1.551,0.694-1.551,1.551v22.191c0,0.856,0.695,1.551,1.551,1.551
		c0.857,0,1.551-0.694,1.551-1.55V28.868C49.05,28.011,48.355,27.317,47.499,27.317z"/>
	<path fill="#221E1F" d="M42.244,3.102h10.512c0.856,0,1.551-0.694,1.551-1.551C54.307,0.694,53.612,0,52.756,0H42.244
		c-0.856,0-1.551,0.694-1.551,1.551C40.693,2.408,41.388,3.102,42.244,3.102z"/>
	<path fill="#221E1F" d="M81.838,17.512c0.29,0.244,0.645,0.363,0.996,0.363c0.443,0,0.882-0.188,1.189-0.554
		c0.55-0.656,0.464-1.635-0.192-2.185l-8.053-6.757c-0.655-0.552-1.635-0.464-2.185,0.191c-0.55,0.656-0.464,1.635,0.192,2.185
		L81.838,17.512z"/>
</g>
</svg>
