<?xml version="1.0" encoding="utf-8"?>
<!-- Generator: Adobe Illustrator 21.0.0, SVG Export Plug-In . SVG Version: 6.00 Build 0)  -->
<svg version="1.1" id="图层_1" xmlns="http://www.w3.org/2000/svg" xmlns:xlink="http://www.w3.org/1999/xlink" x="0px" y="0px"
	 viewBox="0 0 16 16" style="enable-background:new 0 0 16 16;" xml:space="preserve">
<style type="text/css">
	.st0{fill:#ABB3BA;}
</style>
<title>eye</title>
<desc>Created with Sketch.</desc>
<g id="Page-1">
	<g id="登录" transform="translate(-1057.000000, -439.000000)">
		<g id="Group-2" transform="translate(659.000000, 238.000000)">
			<g id="Group-4" transform="translate(172.000000, 137.000000)">
				<g id="密码" transform="translate(0.000000, 51.000000)">
					<path id="eye" class="st0" d="M234,25.8c-4.4,0-6.3-2.3-8-4.8c1.7-2.8,3.6-4.8,8-4.8s6.3,2.3,8,4.8
						C240.6,23.7,238.4,25.8,234,25.8z M234,24.5c1.8,0,3.2-1.5,3.2-3.3s-1.4-3.3-3.2-3.3s-3.2,1.5-3.2,3.3S232.2,24.5,234,24.5z
						 M234,22.8c-0.9,0-1.6-0.7-1.6-1.7s0.7-1.7,1.6-1.7s1.6,0.7,1.6,1.7S234.9,22.8,234,22.8z"/>
				</g>
			</g>
		</g>
	</g>
</g>
</svg>
