<?xml version="1.0" encoding="utf-8"?>
<!-- Generator: Adobe Illustrator 17.0.1, SVG Export Plug-In . SVG Version: 6.00 Build 0)  -->
<!DOCTYPE svg PUBLIC "-//W3C//DTD SVG 1.1//EN" "http://www.w3.org/Graphics/SVG/1.1/DTD/svg11.dtd">
<svg version="1.1" id="图层_1" xmlns="http://www.w3.org/2000/svg" xmlns:xlink="http://www.w3.org/1999/xlink" x="0px" y="0px"
	 width="120px" height="120px" viewBox="-12.5 -12.5 120 120" enable-background="new -12.5 -12.5 120 120" xml:space="preserve">
<path fill="#040000" d="M95,18.314c0-0.397-0.158-0.778-0.438-1.058L78.685,1.379c-0.584-0.584-1.531-0.584-2.115,0L45.292,32.656
	L27.272,14.635c-0.142-0.329-0.399-0.601-0.73-0.759L2.141,2.236C1.568,1.964,0.888,2.081,0.439,2.528
	c-0.448,0.448-0.565,1.13-0.293,1.703l11.64,24.4c0.159,0.332,0.432,0.589,0.762,0.731l18.019,18.02L2.32,75.628
	c-0.28,0.281-0.438,0.661-0.438,1.058c0,0.397,0.158,0.778,0.438,1.058l15.876,15.877c0.292,0.292,0.675,0.438,1.058,0.438
	s0.766-0.147,1.058-0.438L48.56,65.375l21.042,21.042c1.967,1.967,4.582,3.05,7.363,3.05s5.396-1.083,7.362-3.049
	c4.058-4.059,4.059-10.663,0.003-14.722c-0.001-0.001-0.001-0.003-0.003-0.004L63.285,50.65l31.278-31.277
	C94.843,19.091,95,18.711,95,18.314z M23.342,15.664l-9.767,9.767L4.666,6.755L23.342,15.664z M15.328,27.91l6.61-6.609l3.884-3.883
	l17.356,17.354L32.682,45.266L15.328,27.91z M82.211,84.301c-1.402,1.402-3.263,2.173-5.246,2.173c-1.474,0-2.881-0.428-4.082-1.223
	l10.279-10.279C85.058,77.85,84.741,81.771,82.211,84.301z M81.154,72.75L70.66,83.244L50.675,63.259l10.494-10.494L81.154,72.75z
	 M85.641,24.062l-5.066-5.066l-2.116,2.116l5.066,5.066l-7.637,7.637L65.756,23.682l-2.116,2.116L73.773,35.93l-7.637,7.637
	l-5.064-5.064l-2.116,2.116l5.064,5.064l-7.64,7.64l-10.13-10.13l-2.116,2.116l10.13,10.13l-7.64,7.64l-5.065-5.065l-2.116,2.116
	l5.065,5.065l-7.639,7.639L26.739,62.702l-2.116,2.116l10.131,10.131l-7.638,7.638l-5.062-5.06l-2.115,2.116l5.062,5.06
	l-5.747,5.746L5.492,76.686L77.627,4.553l13.762,13.762L85.641,24.062z"/>
</svg>
