<?xml version="1.0" encoding="utf-8"?>
<!-- Generator: Adobe Illustrator 17.0.1, SVG Export Plug-In . SVG Version: 6.00 Build 0)  -->
<!DOCTYPE svg PUBLIC "-//W3C//DTD SVG 1.1//EN" "http://www.w3.org/Graphics/SVG/1.1/DTD/svg11.dtd">
<svg version="1.1" id="图层_1" xmlns="http://www.w3.org/2000/svg" xmlns:xlink="http://www.w3.org/1999/xlink" x="0px" y="0px"
	 width="120px" height="120px" viewBox="-12.5 -12.5 120 120" enable-background="new -12.5 -12.5 120 120" xml:space="preserve">
<path fill="#221F20" d="M94.868,72.732L74.533,27.065c-0.001-0.002-0.002-0.004-0.003-0.006l-0.011-0.024
	c-0.004-0.01-0.012-0.016-0.016-0.026c-0.052-0.109-0.117-0.21-0.192-0.303c-0.02-0.024-0.038-0.048-0.059-0.071
	c-0.086-0.095-0.181-0.181-0.288-0.252c-0.012-0.008-0.026-0.013-0.038-0.021c-0.098-0.061-0.204-0.108-0.315-0.146
	c-0.031-0.01-0.061-0.02-0.093-0.029c-0.126-0.034-0.256-0.057-0.393-0.057H49.027V10.537c0-0.843-0.683-1.527-1.527-1.527
	s-1.527,0.684-1.527,1.527V26.13h-24.1c-0.137,0-0.267,0.024-0.393,0.057c-0.032,0.008-0.062,0.018-0.093,0.029
	c-0.111,0.037-0.217,0.085-0.315,0.146c-0.012,0.008-0.026,0.013-0.038,0.021c-0.107,0.071-0.202,0.157-0.288,0.252
	c-0.021,0.023-0.04,0.047-0.059,0.072c-0.075,0.093-0.14,0.193-0.192,0.303c-0.004,0.009-0.012,0.016-0.016,0.026l-0.011,0.024
	c-0.001,0.002-0.002,0.004-0.003,0.006L0.132,72.732c-0.211,0.472-0.168,1.019,0.115,1.453c0.047,0.073,0.107,0.133,0.165,0.196
	C1.305,80.878,10.563,85.99,21.874,85.99c11.311,0,20.568-5.112,21.462-11.609c0.058-0.063,0.118-0.123,0.165-0.196
	c0.282-0.435,0.325-0.981,0.115-1.453L24.225,29.183h46.551L51.384,72.732c-0.211,0.472-0.168,1.019,0.115,1.453
	c0.047,0.073,0.107,0.133,0.165,0.196c0.894,6.497,10.151,11.609,21.462,11.609c11.311,0,20.568-5.112,21.462-11.609
	c0.058-0.063,0.118-0.123,0.165-0.196C95.035,73.75,95.078,73.204,94.868,72.732z M3.877,71.827l17.998-40.418l17.998,40.418H3.877z
	 M73.126,31.409l17.997,40.418H55.128L73.126,31.409z"/>
</svg>
