<?xml version="1.0" encoding="utf-8"?>
<!-- Generator: Adobe Illustrator 17.0.1, SVG Export Plug-In . SVG Version: 6.00 Build 0)  -->
<!DOCTYPE svg PUBLIC "-//W3C//DTD SVG 1.1//EN" "http://www.w3.org/Graphics/SVG/1.1/DTD/svg11.dtd">
<svg version="1.1" id="图层_1" xmlns="http://www.w3.org/2000/svg" xmlns:xlink="http://www.w3.org/1999/xlink" x="0px" y="0px"
	 width="120px" height="120px" viewBox="-12.5 -12.5 120 120" enable-background="new -12.5 -12.5 120 120" xml:space="preserve">
<path fill="#221F20" d="M93.508,13.313H25.376c-0.824,0-1.492,0.667-1.492,1.492v10.451h-10.45c-0.824,0-1.492,0.667-1.492,1.492
	v10.451H1.491c-0.824,0-1.492,0.667-1.492,1.492v41.506c0,0.823,0.667,1.492,1.492,1.492h68.132c0.823,0,1.492-0.668,1.492-1.493
	v-10.45h10.452c0.823,0,1.492-0.668,1.492-1.493v-10.45h10.451c0.823,0,1.492-0.668,1.491-1.492V14.805
	C94.999,13.98,94.331,13.313,93.508,13.313z M2.983,78.704V40.181h10.442c0.004,0,0.007,0.001,0.01,0.001
	c0.004,0,0.007-0.001,0.01-0.001h54.686v28.071c0,0,0,0,0,0.001s0,0,0,0.001v10.45H2.983z M71.115,66.761V38.69
	c0-0.824-0.668-1.492-1.492-1.492H14.926V28.24h65.148v28.061c0,0.003-0.001,0.006-0.001,0.01c0,0.003,0.001,0.006,0.001,0.01
	v10.441H71.115z M92.017,54.819h-8.959V26.747c0-0.824-0.668-1.492-1.492-1.492H26.868v-8.959h65.149V54.819z"/>
</svg>
