<?xml version="1.0" standalone="no"?>
<!DOCTYPE svg PUBLIC "-//W3C//DTD SVG 1.1//EN" "http://www.w3.org/Graphics/SVG/1.1/DTD/svg11.dtd" >
<svg xmlns="http://www.w3.org/2000/svg">
<metadata>
Created by FontForge 20120731 at Fri Jul  6 12:11:06 2018
 By yy,,,
</metadata>
<defs>
<font id="icons" horiz-adv-x="512" >
  <font-face 
    font-family="icons"
    font-weight="500"
    font-stretch="normal"
    units-per-em="512"
    panose-1="2 0 6 9 0 0 0 0 0 0"
    ascent="448"
    descent="-64"
    bbox="-158 -66 514 575"
    underline-thickness="25"
    underline-position="-52"
    unicode-range="U+F101-F174"
  />
<missing-glyph 
d="M17 0v341h136v-341h-136zM34 17h102v307h-102v-307z" />
    <glyph glyph-name=".notdef" 
d="M17 0v341h136v-341h-136zM34 17h102v307h-102v-307z" />
    <glyph glyph-name=".null" horiz-adv-x="0" 
 />
    <glyph glyph-name="nonmarkingreturn" 
 />
    <glyph glyph-name="about-1" unicode="&#xf101;" 
d="M256 378q50 0 99 -19.5t82.5 -48t54 -60.5t20.5 -58q0 -68 -76.5 -127t-179.5 -59q-51 0 -99.5 19t-82 47t-54 60.5t-20.5 59.5q0 23 20.5 54.5t54 61t82.5 50t99 20.5zM256 20q71 0 121.5 50.5t50.5 121.5t-50.5 121.5t-121.5 50.5t-121.5 -50.5t-50.5 -121.5
t50.5 -121.5t121.5 -50.5zM357 192q0 -42 -29.5 -71.5t-71.5 -29.5t-71.5 29.5t-29.5 71.5t29.5 71.5t71.5 29.5t71.5 -29.5t29.5 -71.5z" />
    <glyph glyph-name="about-2" unicode="&#xf102;" 
d="M286 448q0 3 15.5 -15.5t36.5 -54t40.5 -79t31.5 -99t7 -105.5q-7 -66 -53.5 -112.5t-111.5 -46.5t-111.5 46.5t-46.5 112.5q0 35 12.5 72t22 54t13.5 22q1 1 3 -4q1 -3 3 -14q6 -24 10 -23q105 127 128 246zM336 40q2 24 -3.5 51.5t-15.5 49.5t-20.5 39.5t-18 26.5
t-7.5 7q-12 -58 -64 -122q-1 -1 -2 3q-1 2 -3 9l-3 9q-2 -3 -6.5 -11t-10.5 -26.5t-6 -35.5q0 -33 23 -56t55 -23t55.5 23t26.5 56z" />
    <glyph glyph-name="about-3" unicode="&#xf103;" 
d="M469 227l44 -75l-39 1v-66q0 -17 -14 -27t-34 -10h-62l2 -48h-160l1 129l-2 1q-21 34 -30 45q-17 21 -17 51q0 64 46 109t110 45t110 -44t47 -107zM129 228q0 -39 23 -67q12 -15 26 -38v-121h-37l1 48h-62q-18 0 -25.5 9t-7.5 28v66l-46 -1l33 69l2 7v1q0 64 46 108.5
t110 44.5q9 0 21 -1q-39 -25 -61.5 -65.5t-22.5 -87.5z" />
    <glyph glyph-name="about-4" unicode="&#xf104;" 
d="M309 102l16 28q6 10 18.5 17t25.5 7h38q13 0 15.5 -5.5t-6.5 -14.5l-140 -144q-8 -9 -20 -9t-20 8l-140 145q-9 9 -6.5 14.5t15.5 5.5h20q12 0 23.5 9t15.5 20l14 43q3 11 10.5 12t13.5 -9l78 -127q6 -11 15 -10.5t14 10.5zM512 286q0 -17 -6.5 -35t-12.5 -28t-7 -10
q-5 -6 -9 -11.5t-6 -9l-2 -3.5l-2 -3q-4 -3 -31 -3h-85q-12 0 -25 -7t-18 -17q-6 -11 -14.5 -10.5t-14.5 11.5l-85 138q-6 10 -13.5 9t-10.5 -13l-27 -82q-4 -12 -15.5 -20.5t-23.5 -8.5h-28q-27 0 -31 3l-2 4l-2 3t-6 8.5t-9 12.5q-26 34 -26 72q0 54 38 91.5t92 37.5
q17 0 34.5 -8t30.5 -19t23.5 -22t16.5 -19l5 -8q7 -10 16 -10t16 10q2 3 5.5 8t15.5 18.5t24 23.5t30 18t35 8q54 0 92 -37.5t38 -91.5z" />
    <glyph glyph-name="arrow-down" unicode="&#xf105;" 
d="M489 320l23 -25l-256 -231l-256 231l23 25l233 -210z" />
    <glyph glyph-name="arrow-left" unicode="&#xf106;" 
d="M121 194l254 254l12 -12l-242 -242l242 -242l-12 -12z" />
    <glyph glyph-name="arrow-right" unicode="&#xf107;" 
d="M387 194l-254 -254l-12 12l242 242l-242 242l12 12z" />
    <glyph glyph-name="arrow-up" unicode="&#xf108;" 
d="M489 64l-233 210l-233 -210l-23 25l256 231l256 -231z" />
    <glyph glyph-name="classify-1" unicode="&#xf109;" 
d="M256 -64q-41 0 -69 29l-158 158q-29 28 -29 69t29 69l158 158q28 29 69 29t69 -29l158 -158q29 -28 29 -69t-29 -69l-158 -158q-28 -29 -69 -29zM256 438q-36 0 -62 -26l-158 -158q-26 -26 -26 -62t26 -62l158 -158q26 -26 62 -26t62 26l158 158q26 26 26 62t-26 62
l-158 158q-26 26 -62 26zM256 -35q-33 0 -56 23l-148 148q-23 23 -23 56t23 56l148 148q23 23 56 23t56 -23l148 -148q23 -23 23 -56t-23 -56l-148 -148q-23 -23 -56 -23zM256 409q-29 0 -49 -21l-147 -147q-21 -20 -21 -49t21 -49l147 -147q20 -21 49 -21t49 21l147 147
q21 20 21 49t-21 49l-147 147q-20 21 -49 21zM210 176l14 14l14 -14v-76h-28v76zM164 100v29l27 29v-58h-27zM303 194l27 29v-123h-27v94zM256 157l6 -6l22 23v-74h-28v57zM348 284v-64l-19 23l-67 -71l-38 39l-60 -60v26l60 61l38 -40l56 59l-23 27h53z" />
    <glyph glyph-name="classify-2" unicode="&#xf10a;" 
d="M258 138q-14 0 -20 11v2h2q4 -4 14 -4q4 0 6 1q6 0 10.5 2t6.5 4l1 1q0 1 0.5 1h1.5v-2q-5 -14 -20 -16h-2zM258 138zM333 223q7 0 11.5 -4t3.5 -10v-29q0 -10 -9 -14q-5 -24 -25 -39.5t-49 -18.5q-2 -8 -12 -8q-6 0 -9.5 3.5t-3.5 9t3.5 9t9.5 3.5q8 0 12 -8
q25 2 42.5 15t22.5 34q-6 1 -10 6q-8 -25 -32 -38l-1 -1h-1q-1 0 -1 1l1 1q17 15 15 46q-2 20 -17 40h-1q0 1 -1 1t-1 -2q-1 -7 -3 -10q-6 -11 -17 -13t-39 -7q-6 -1 -10.5 -7t-3.5 -13q4 -25 22 -38h-1h-1v-1q-27 11 -37 37q-5 -5 -12 -5q-6 0 -10.5 4t-4.5 11v28
q0 13 12 15q6 27 28 45t51 18q28 0 50 -17t28 -44zM320 215l0.5 1l0.5 1q-4 23 -22.5 38.5t-43 15.5t-43 -15.5t-23.5 -38.5l1.5 -1.5l0.5 -0.5q8 19 25.5 31.5t39 12.5t39 -12.5t25.5 -31.5zM320 215zM228 130zM228 130zM256 -64q-41 0 -69 29l-158 158q-29 28 -29 69
t29 69l158 158q28 29 69 29t69 -29l158 -158q29 -28 29 -69t-29 -69l-158 -158q-28 -29 -69 -29zM256 438q-36 0 -62 -26l-158 -158q-26 -26 -26 -62t26 -62l158 -158q26 -26 62 -26t62 26l158 158q26 26 26 62t-26 62l-158 158q-26 26 -62 26zM256 -35q-33 0 -56 23
l-148 148q-23 23 -23 56t23 56l148 148q23 23 56 23t56 -23l148 -148q23 -23 23 -56t-23 -56l-148 -148q-23 -23 -56 -23zM256 409q-29 0 -49 -21l-147 -147q-21 -20 -21 -49t21 -49l147 -147q20 -21 49 -21t49 21l147 147q21 20 21 49t-21 49l-147 147q-20 21 -49 21z" />
    <glyph glyph-name="classify-3" unicode="&#xf10b;" 
d="M256 -64q-41 0 -69 29l-158 158q-29 28 -29 69t29 69l158 158q28 29 69 29t69 -29l158 -158q29 -28 29 -69t-29 -69l-158 -158q-28 -29 -69 -29zM256 438q-36 0 -62 -26l-158 -158q-26 -26 -26 -62t26 -62l158 -158q26 -26 62 -26t62 26l158 158q26 26 26 62t-26 62
l-158 158q-26 26 -62 26zM256 -35q-33 0 -56 23l-148 148q-23 23 -23 56t23 56l148 148q23 23 56 23t56 -23l148 -148q23 -23 23 -56t-23 -56l-148 -148q-23 -23 -56 -23zM256 409q-29 0 -49 -21l-147 -147q-21 -20 -21 -49t21 -49l147 -147q20 -21 49 -21t49 21l147 147
q21 20 21 49t-21 49l-147 147q-20 21 -49 21zM194.5 243q-8.5 0 -14.5 6.5t-6 14.5t6 14.5t14.5 6.5t14.5 -6.5t6 -14.5t-6 -14.5t-14.5 -6.5zM253 99v11h61v-11h-61zM229 278h123v-127h-65v-34h-10v34h-42v10h107v106h-113v11zM243 187l-3 6l19 7l19 -10l10 39l16 -16
l16 26l7 -3l-20 -33l-16 13l-9 -35l-23 13zM256 219h-41l7 -120h-17l-7 62h-7l-7 -62h-17l7 72l-14 14l10 52h21l-4 -4l4 -7l-4 -31l7 -10l7 10l-3 31l3 7l-3 4h72z" />
    <glyph glyph-name="classify-4" unicode="&#xf10c;" 
d="M98.5 63q-40.5 0 -69.5 29l-158 158q-29 29 -29 69.5t29 69.5l158 157q29 29 69.5 29t69.5 -29l157 -157q29 -29 29 -69.5t-29 -69.5l-157 -158q-29 -29 -69.5 -29zM98.5 565q-36.5 0 -62.5 -26l-158 -158q-26 -25 -26 -61.5t26 -62.5l158 -158q26 -26 62.5 -26t61.5 26
l158 158q26 26 26 62.5t-26 61.5l-158 158q-25 26 -61.5 26zM98 92q-33 0 -56 24l-147 147q-24 23 -24 56t24 56l147 148q23 23 56 23t56 -23l148 -148q23 -23 23 -56t-23 -56l-148 -147q-23 -24 -56 -24zM98 536q-29 0 -49 -20l-147 -148q-21 -20 -21 -49t21 -49l147 -147
q20 -21 49 -21t49 21l148 147q20 20 20 49t-20 49l-148 148q-20 20 -49 20zM161 274l25 -36l-7 -5l-13 -10l-7 -5l-26 36l7 5l-11 15q-24 -14 -52 -10q-32 4 -51 30q-20 27 -15 59q5 33 31 52v0q27 19 58 15q33 -5 52 -31v0q20 -27 15 -59q-4 -28 -24 -47l11 -14zM78 276h1
h2l5 33l-4 8h7h7l-4 -8l4 -33h3l8 44h1q7 -5 23 -9q11 -2 11 -10v-1q10 14 13 32q4 27 -12.5 49t-43.5 26t-49.5 -12.5t-26.5 -43.5t13 -50q0 8 11 10q16 4 23 9zM108 346q-5 -18 -19 -19q-14 1 -19 19h-2q-2 -1 -3 2l-2 10q0 2 3 3h1q-1 2 -1 5v3q0 6 4.5 10.5t10.5 4.5h2
v1q2 5 14 0q1 0 3 -1l1 -1q10 -4 10 -14v-3q0 -3 -1 -5h1q4 -1 3 -3l-2 -10q0 -4 -3 -2h-1z" />
    <glyph glyph-name="close" unicode="&#xf10d;" 
d="M256 -58q-103 0 -176.5 73.5t-73.5 176.5t73.5 176.5t176.5 73.5t176.5 -73.5t73.5 -176.5t-73.5 -176.5t-176.5 -73.5zM148 103q-4 -5 0 -9l10 -10q2 -1 4.5 -1t4.5 1l93 94l94 -94q1 -1 3.5 -1t4.5 1l10 10q4 4 0 9l-94 93l94 94q4 4 0 8l-10 10q-2 2 -4.5 2t-3.5 -2
l-94 -94l-93 94q-2 2 -4.5 2t-4.5 -2l-10 -10q-4 -4 0 -8l94 -94zM256 436q-101 0 -172.5 -71.5t-71.5 -172.5t71.5 -172.5t172.5 -71.5t172.5 71.5t71.5 172.5t-71.5 172.5t-172.5 71.5zM260 223l89 89q4 4 9 4t8 -4l10 -10q9 -8 0 -17l-89 -89l89 -89q9 -9 0 -17l-10 -10
q-3 -3 -8 -3t-9 3l-89 89l-89 -89q-4 -3 -9 -3t-8 3l-10 10q-8 8 0 17l89 89l-89 89q-8 9 0 17l10 10q3 4 8 4t9 -4zM256 448q106 0 181 -75t75 -181t-75 -181t-181 -75t-181 75t-75 181t75 181t181 75zM260 206l-98 97l-9 -9l97 -98l-97 -98l9 -9l98 97l98 -97l10 9l-98 98
l98 98l-10 9z" />
    <glyph glyph-name="cloud-1" unicode="&#xf10e;" 
d="M335 98h-170v34h14v122h136l6 -44l14 -81v-31zM172 105h156v24l-13 80l-5 38h-125v-122h-14zM226 137h-20v32h20v-32zM212 143h7v20h-7v-20zM226 188h-20v33h20v-33zM212 195h7v19h-7v-19zM335 132h9v-34h-109v34h9v154h73v-51h18v-103zM271 149v0v35h-9v-35h9zM271 217
v0v35h-9v-35h9zM298 149v35h-9v-35h9zM298 217v35h-9v-35h9zM254 -64q-41 0 -70 30l-156 158q-28 29 -28 70t30 70l158 156q29 28 70 28t70 -30l156 -158q28 -29 28 -70t-30 -70l-158 -156q-29 -28 -70 -28zM258 435q-36 0 -61 -25l-158 -155q-26 -25 -26 -61t25 -61
l155 -158q25 -26 61 -26t61 25l158 155q26 25 26 61t-25 61l-155 158q-25 26 -61 26zM256 -35q-33 0 -57 24l-146 146q-24 24 -24 57t24 57l146 146q24 24 57 24t57 -24l146 -146q24 -24 24 -57t-24 -57l-146 -146q-24 -24 -57 -24zM256 406q-28 0 -48 -20l-146 -146
q-20 -20 -20 -48t20 -48l146 -146q20 -20 48 -20t48 20l146 146q20 20 20 48t-20 48l-146 146q-20 20 -48 20z" />
    <glyph glyph-name="cloud-2" unicode="&#xf10f;" 
d="M232 124q-27 0 -46 5q-16 5 -18 10v23q8 -6 24 -10q18 -5 40 -5h3q4 -13 13 -22q-8 -1 -16 -1zM232 172q-34 -1 -56 5q-8 2 -13 4v1q-6 3 -6 5v21l2 -2h1q3 -2 5 -3h1q3 -1 7 -2l1 -1q4 -1 8 -1l8 -2h1h1q4 -1 9 -1q4 -1 9 -1h0.5h1.5h9h13h1l3 1h1q-6 -11 -7 -24z
M296.5 109q-24.5 0 -42 17t-17.5 41t17.5 40.5t42 16.5t41.5 -16.5t17 -40.5t-17 -41t-41.5 -17zM296.5 218q-21.5 0 -37 -15t-15.5 -36.5t15.5 -36.5t37 -15t37 15t15.5 36.5t-15.5 36.5t-37 15zM306 135h-17v10h-13v27h8l-14 24h19l1 -3q5 -8 8 -14l9 17h19l-15 -24h8v-27
h-13v-10zM296 141h3v11h13v1h-13v11h13v2h-12l14 23h-3l-8 -13q-1 -3 -2 -5l-3 -6l-3 6q-3 6 -10 18h-4l14 -23h-12v-2h13v-11h-13v-1h13v-11zM196 247q-17 5 -17 11t17 11q19 6 47 6t47 -6q17 -5 17 -11v-2q-1 0 -2 -1q0 -1 -1 -1l-2 -2q-1 0 -1 -1h-1l-4 -2v0
q-5 -2 -11 -4h-1h-2q-2 -1 -4 -1h-1.5h-1.5v-1h-3q-2 0 -6 -1q-12 -1 -23 -1q-28 0 -47 6zM219 163h13q0 -4 1 -7h-1q-25 0 -44 6q-10 3 -15 7l1 -1h2q7 -2 14 -3q14 -2 29 -2zM277 235v0q20 4 30 10v-16q-5 1 -11 1q-14 0 -26 -6q-12 -5 -21 -15h-1h-5q-26 0 -46 5
q-16 5 -18 11v11v9q9 -6 25 -9q18 -4 39 -4q10 0 20 1q3 0 5 1h1h3q3 1 4 1h1zM254 -64q-41 0 -70 30l-156 158q-28 29 -28 70t30 70l158 156q29 28 70 28t70 -30l156 -158q28 -29 28 -70t-30 -70l-158 -156q-29 -28 -70 -28zM258 435q-36 0 -61 -25l-158 -155
q-26 -25 -26 -61t25 -61l155 -158q25 -26 61 -26t61 25l158 155q26 25 26 61t-25 61l-155 158q-25 26 -61 26zM256 -35q-33 0 -57 24l-146 146q-24 24 -24 57t24 57l146 146q24 24 57 24t57 -24l146 -146q24 -24 24 -57t-24 -57l-146 -146q-24 -24 -57 -24zM256 406
q-28 0 -48 -20l-146 -146q-20 -20 -20 -48t20 -48l146 -146q20 -20 48 -20t48 20l146 146q20 20 20 48t-20 48l-146 146q-20 20 -48 20z" />
    <glyph glyph-name="cloud-3" unicode="&#xf110;" 
d="M343 117v-10h9v-11h-188v11h9v10h13v11h144v-11h13zM217 137h-31v55h-7v7q0 8 8 8h28q8 0 8 -8v-7h-6v-55zM330 137h-30v55h-7v7q0 8 8 8h28q8 0 8 -8v-7h-7v-55zM273 137h-30v55h-7v7q0 8 8 8h28q8 0 8 -8v-7h-7v-55zM229 240l22 12q6 4 12 0l23 -12h-57zM209 235h97
l-40 22q-9 4 -17 0zM266 283q-9 4 -17 0l-84 -46q-10 -6 -10 -17v-8h205v8q0 11 -10 17zM263 278l84 -46q8 -4 8 -12v-3h-195v3q0 8 8 12l83 46q6 4 12 0zM266 283q-9 4 -17 0l-84 -46q-10 -6 -10 -17v-8h205v8q0 11 -10 17zM263 278l84 -46q8 -4 8 -12v-3h-195v3q0 8 8 12
l83 46q6 4 12 0zM226 237h63q1 0 1.5 1.5t-0.5 2.5l-25 13q-8 4 -15 0l-25 -13q-2 -1 -1.5 -2.5t2.5 -1.5zM265 280l83 -46q9 -4 9 -14v-5h-199v5q0 10 8 14l84 46q7 4 15 0zM254 -64q-41 0 -70 30l-156 158q-28 29 -28 70t30 70l158 156q29 28 70 28t70 -30l156 -158
q28 -29 28 -70t-30 -70l-158 -156q-29 -28 -70 -28zM258 435q-36 0 -61 -25l-158 -155q-26 -25 -26 -61t25 -61l155 -158q25 -26 61 -26t61 25l158 155q26 25 26 61t-25 61l-155 158q-25 26 -61 26zM256 -35q-33 0 -57 24l-146 146q-24 24 -24 57t24 57l146 146q24 24 57 24
t57 -24l146 -146q24 -24 24 -57t-24 -57l-146 -146q-24 -24 -57 -24zM256 406q-28 0 -48 -20l-146 -146q-20 -20 -20 -48t20 -48l146 -146q20 -20 48 -20t48 20l146 146q20 20 20 48t-20 48l-146 146q-20 20 -48 20z" />
    <glyph glyph-name="email" unicode="&#xf111;" 
d="M229 146l-222 221q10 15 28 15h443q16 0 26 -12l-224 -224q-11 -11 -26 -11t-25 11zM362 175l150 151v-290q0 -5 -1 -9zM1 321l145 -146l-145 -145v6v285zM336 149l147 -147q-3 -1 -5 -1h-443q-4 0 -9 2l147 146l30 -30q21 -21 51.5 -21t51.5 21z" />
    <glyph glyph-name="enlarge" unicode="&#xf112;" 
d="M512 439v-2h-1v-171q0 -5 -3 -8t-7.5 -3t-7.5 3t-3 8v145l-184 -185q-3 -3 -7 -3t-7 4q-8 7 0 15l184 185h-145q-4 0 -7 3t-3 7.5t3 7.5t7 3h171l0.5 -0.5t1.5 -0.5h1l1 -1h1l1 -1q1 -1 2 -3h1q0 -1 0.5 -1.5t0.5 -1.5v0zM206 156q8 8 15.5 0.5t0.5 -15.5l-185 -184h145
q4 0 7 -3t3 -7.5t-3 -7.5t-7 -3h-171q-11 0 -11 10v171q0 4 3 7t7.5 3t7.5 -3t3 -7v-146z" />
    <glyph glyph-name="facebook" unicode="&#xf113;" 
d="M322 363q-14 0 -22.5 -10t-8.5 -24v-52h87l-15 -84h-72v-256h-101v256h-56v84h56v58h1q1 49 25.5 79t89.5 32v1h72v-84h-56z" />
    <glyph glyph-name="global" unicode="&#xf114;" 
d="M256 389zM65 246zM247 448h17q47 -2 87 -18q43 -17 77.5 -49t55.5 -73q27 -52 28 -111v-10q-1 -59 -27 -110t-71 -86q-46 -37 -103 -49q-19 -4 -46 -6h-17q-34 2 -61 9q-73 21 -124 78q-34 40 -51 90q-11 35 -12 74v10q1 72 40 132q41 65 111 97q44 20 96 22zM199 393
q-20 -25 -36 -69q7 -1 37 -6q29 -3 46 -3v56v56q-26 -6 -47 -34zM266 315q32 1 62 6q11 1 21 3q-19 53 -44 80q-18 18 -39 23v-56.5v-55.5zM178 414q-55 -19 -95 -62q27 -14 60 -23q20 58 51 90q-5 -1 -16 -5zM318 419q2 -2 14 -15q22 -31 37 -75q32 9 60 23q-46 50 -111 67
zM69 336q-45 -60 -48 -134h102q1 56 14 107q-37 10 -68 27zM375 309q13 -51 14 -107h51h51q-3 75 -49 134q-29 -16 -67 -27zM144 202h51h51v93q-47 1 -89 10q-12 -48 -13 -103zM266 295v-93h51h51q-1 55 -13 103q-42 -9 -89 -10zM21 182q3 -74 49 -134q30 17 67 27
q-13 51 -14 107h-102zM144 182q1 -55 13 -103q41 9 89 10v93h-51.5h-50.5zM266 182v-93q47 -1 89 -10q13 51 13 103h-50.5h-51.5zM389 182q-1 -56 -14 -107q37 -10 67 -27q46 59 49 134h-51h-51zM163 60q18 -52 45 -80q17 -18 38 -23v56v56q-44 -1 -83 -9zM266 69v-49.5
v-62.5q26 6 47 34q21 25 36 69q-9 2 -38 6q-29 3 -45 3zM83 32q46 -50 111 -67q-31 32 -51 90q-31 -8 -60 -23zM369 55q-20 -58 -51 -90q65 17 111 67q-27 14 -60 23zM369 55z" />
    <glyph glyph-name="home-6-1" unicode="&#xf115;" 
d="M254 -61q-38 0 -66 28l-160 160q-28 28 -28 66.5t28 66.5l160 160q28 28 66.5 28t66.5 -28l160 -160q28 -28 28 -66.5t-28 -66.5l-160 -160q-28 -28 -67 -28zM52 140q-23 23 -23 54t23 53l149 149q22 23 53.5 23t53.5 -23l149 -149q22 -22 22 -53.5t-22 -53.5l-149 -149
q-23 -22 -54 -22t-53 22zM206 181l15 14l15 -15v-77h-30v78zM155 103v30l30 29v-59h-30zM307 199l30 29v-125h-30v96zM257 161l6 -6l24 23v-75h-30v58zM357 291v-65l-21 23l-73 -73l-42 41l-66 -62v26l66 63l42 -41l61 60l-25 28h58z" />
    <glyph glyph-name="home-6-2" unicode="&#xf116;" 
d="M254 -61q-38 0 -66 28l-160 160q-28 28 -28 66.5t28 66.5l160 160q28 28 66.5 28t66.5 -28l160 -160q28 -28 28 -66.5t-28 -66.5l-160 -160q-28 -28 -67 -28zM52 140q-23 23 -23 54t23 53l149 149q22 23 53.5 23t53.5 -23l149 -149q22 -22 22 -53.5t-22 -53.5l-149 -149
q-23 -22 -54 -22t-53 22zM255 129q-13 0 -19 11q0 1 1 1q0 1 1 0q4 -3 14 -3h6q6 1 10.5 3t5.5 3l1 2l1 0.5t1 -0.5q1 0 1 -1q-5 -14 -20 -16h-3zM255 129zM330 215q6 0 10 -4.5t4 -10.5v-29q0 -10 -9 -14q-5 -25 -24.5 -40.5t-47.5 -17.5q-2 -9 -12 -9q-5 0 -9 4t-4 9t4 9
t9 4q8 0 12 -8q24 1 41.5 14.5t21.5 34.5q-6 0 -9 6q-8 -25 -32 -39h-1h-1v1v1q17 15 14 46q-1 20 -16 40l-1 1q-2 0 -2 -2q-1 -7 -3 -10q-5 -11 -16 -13t-38 -7q-6 -1 -10.5 -7t-3.5 -13q4 -25 21 -38q-1 0 -1 -1l-1 -1q-25 11 -36 38q-4 -5 -11 -5q-6 0 -10.5 4t-4.5 10
v30q0 12 12 14q5 27 26.5 45.5t50.5 18.5q28 0 49 -17.5t28 -43.5zM316 206l1.5 1.5l0.5 0.5q-4 24 -22.5 39.5t-42.5 15.5t-42 -16t-22 -39l1 -1v-1q8 20 25 32t38.5 12t38.5 -12t24 -32zM316 206zM226 121zM226 121z" />
    <glyph glyph-name="home-6-4" unicode="&#xf117;" 
d="M256 -61q-39 0 -67 28l-160 160q-27 28 -27 66.5t27 66.5l160 160q28 28 67 28t67 -28l160 -160q27 -28 27 -66.5t-27 -66.5l-160 -160q-29 -28 -67 -28zM53 140q-22 23 -22 54t22 53l150 149q22 23 53 23t53 -23l150 -149q22 -22 22 -53.5t-22 -53.5l-150 -149
q-22 -22 -53 -22t-53 22zM320 132l26 -37l-7 -6l-14 -10l-7 -5l-27 37l7 5l-11 15q-24 -14 -53 -10q-33 5 -53 32q-21 27 -16 60t32 53v0q28 20 61 16q33 -5 53 -32v0q20 -27 15 -61q-4 -29 -25 -48l11 -15zM235 134q1 0 1 -1h2l5 34l-4 9h7h7l-4 -9l4 -34q1 1 4 1l8 45
q7 -5 24 -9q11 -2 11 -10v-1q11 14 14 32q4 28 -13 51t-45 27t-51 -13t-27 -45t13 -52v1q0 8 12 10q16 4 23 9h1zM265 205q-5 -18 -19 -19q-15 1 -20 19h-1q-3 -1 -4 3l-1 10q-1 2 2 3h1v5v3q0 7 4.5 11.5t10.5 4.5h2v1q2 5 14 0l4 -2h1q9 -5 9 -15v-3v-5h1q3 -1 2 -3
l-1 -10q0 -4 -4 -3h-1z" />
    <glyph glyph-name="home" unicode="&#xf118;" 
d="M448 236v-278h-132v91h-120v-91h-132v278h384zM408 305l-46 40v60h46v-100zM0 204l256 222l256 -222h-512z" />
    <glyph glyph-name="homepage-1" unicode="&#xf119;" 
d="M335 98h-170v34h14v122h136l6 -44l14 -81v-31zM172 105h156v24l-13 80l-5 38h-125v-122h-13v-20zM226 137h-20v32h20v-32zM212 143h7v20h-7v-20zM226 188h-20v33h20v-33zM212 195h7v19h-7v-19zM335 132h9v-34h-109v34h9v154h73v-51h18v-103zM271 149v0v35h-9v-35h9z
M271 217v0v35h-9v-35h9zM298 149v35h-9v-35h9zM298 217v35h-9v-35h9zM256 -64q-41 0 -70 29l-157 157q-29 29 -29 70t29 70l157 157q29 29 70 29t70 -29l157 -157q29 -29 29 -70t-29 -70l-157 -157q-29 -29 -70 -29zM256 435q-36 0 -61 -25l-157 -157q-25 -25 -25 -61
t25 -61l157 -157q25 -25 61 -25t61 25l157 157q25 25 25 61t-25 61l-157 157q-25 25 -61 25zM256 -35q-33 0 -57 24l-146 146q-24 24 -24 57t24 57l146 146q24 24 57 24t57 -24l146 -146q24 -24 24 -57t-24 -57l-146 -146q-24 -24 -57 -24zM256 406q-28 0 -48 -20l-146 -146
q-20 -20 -20 -48t20 -48l146 -146q20 -20 48 -20t48 20l146 146q20 20 20 48t-20 48l-146 146q-20 20 -48 20z" />
    <glyph glyph-name="homepage-6-1" unicode="&#xf11a;" 
d="M254.5 -66q41.5 0 70.5 29l160 160q29 29 29 70.5t-29 70.5l-160 160q-29 29 -70.5 29t-70.5 -29l-160 -160q-29 -29 -29 -70.5t29 -70.5l160 -160q29 -29 70.5 -29zM254 -56q-37 0 -63 27l-160 160q-26 26 -26 63t26 63l160 160q26 26 63 26t63 -26l160 -160
q27 -26 27 -63t-27 -63l-160 -160q-26 -27 -63 -27zM48 137l149 -150q24 -23 57.5 -23t56.5 23l150 150q23 23 23 56.5t-23 57.5l-150 149q-23 24 -56.5 24t-57.5 -24l-149 -149q-24 -24 -24 -57.5t24 -56.5zM55 144q-20 21 -20 50t20 49l150 150q20 20 49 20t50 -20
l149 -150q21 -20 21 -49t-21 -50l-149 -149q-21 -21 -50 -21t-49 21zM167 191q-5 4 -8 9h-3q-5 0 -5 4.5t4 4.5l176 4q5 0 5 -5q0 -3 -4 -4q-1 -3 -2 -7l-10 -29q-5 -13 -19 -16l-61 -12q-14 -3 -24 7l-49 44v0zM205 110h2q0 -8 -5 -13t-12 -5t-12 5t-5 12.5t5 12.5t12 5
q11 0 15 -10h-1l18 3q-8 23 -32 23q-14 0 -24 -9.5t-10 -23.5t10 -24t24 -10t24 10t10 24q0 1 -1 3l7 2zM285 88h-8l-18 33l45 9zM198 115l35 8zM410.5 200.5q-0.5 3.5 -3.5 2.5l-55 -10l-2 -2l-35 -51l-92 -19l-1 -1l-18 -3l-11 -3q-2 2 -5 2q-6 0 -6 -6.5t6 -6.5t7 4l10 3
l25 5l21 4l22 -38h16l24 51l5 1l2 2l35 51l53 10q3 1 2.5 4.5zM280 231q10 0 17.5 7.5t7.5 18t-7.5 18t-17.5 7.5q-13 0 -21 -11q-2 -3 -5 -0.5t-1 5.5q8 10 20 13q-11 15 -30 15q-13 0 -23.5 -9t-12.5 -22v-3l-3 -1q-16 -3 -16 -19q0 -8 5.5 -13.5t13.5 -5.5h73zM282 289
q13 -1 22 -10.5t9 -22.5q0 -14 -10 -23.5t-23 -9.5h-76q-10 2 -16.5 9.5t-6.5 17.5q0 21 19 26q3 15 14 25q13 11 29 11q26 0 39 -23v0z" />
    <glyph glyph-name="homepage-6-2" unicode="&#xf11b;" 
d="M254.5 -66q41.5 0 70.5 29l160 160q29 29 29 70.5t-29 70.5l-160 160q-29 29 -70.5 29t-70.5 -29l-160 -160q-29 -29 -29 -70.5t29 -70.5l160 -160q29 -29 70.5 -29zM254 -56q-37 0 -63 27l-160 160q-26 26 -26 63t26 63l160 160q26 26 63 26t63 -26l160 -160
q27 -26 27 -63t-27 -63l-160 -160q-26 -27 -63 -27zM48 137l149 -150q24 -23 57.5 -23t56.5 23l150 150q23 23 23 56.5t-23 57.5l-150 149q-23 24 -56.5 24t-57.5 -24l-149 -149q-24 -24 -24 -57.5t24 -56.5zM55 144q-20 21 -20 50t20 49l150 150q20 20 49 20t50 -20
l149 -150q21 -20 21 -49t-21 -50l-149 -149q-21 -21 -50 -21t-49 21zM219 261h102h4v7h-4h-102h-4v-7h4zM231 221h55q4 0 4 4t-4 4h-55q-4 0 -4 -4t4 -4zM231 237h70q4 0 4 4t-4 4h-70q-4 0 -4 -4t4 -4zM179 162q-5 -3 -1 -6l39 -36q2 -3 9 1q7 3 9 5h6q9 1 27 0q15 0 18 -1
q4 -1 8 0q4 0 9 2q5 1 14 8q28 21 37 28l4 4q9 8 3 13l-1 1l-1 1q-8 6 -23 -5q-8 -5 -14 -10q-8 -5 -9 -7q-2 -1 -8 -3q-9 -2 -29 -1q-7 0 -12 1q-3 0 -4 1q-1 0 -4 1l1 1h7q9 0 17 1q21 2 25.5 6t2.5 9q-2 3 -5 5q-3 1 -8 2h-3h-5q-16 1 -34 2q-16 0 -25 1h-5q-8 0 -23 -10
q-3 -1 -6 -3t-6.5 -4.5t-5.5 -3.5q-1 0 -2.5 -1t-1.5 -2zM174 155q-7 7 -14 0l-12 -10q-7 -7 -1 -13l36 -34q7 -6 14 0l11 10q8 7 2 13zM207 272v-54q0 -9 6 -14.5t14 -5.5h86q8 0 14 5.5t6 14.5v54q0 8 -6 14t-14 6h-86q-8 0 -14 -6t-6 -14zM215 272q0 5 3.5 8.5t8.5 3.5
h86q5 0 8.5 -3.5t3.5 -8.5v-54q0 -5 -3.5 -8.5t-8.5 -3.5h-86q-5 0 -8.5 3.5t-3.5 8.5v54z" />
    <glyph glyph-name="homepage-6-3" unicode="&#xf11c;" 
d="M254.5 -66q41.5 0 70.5 29l160 160q29 29 29 70.5t-29 70.5l-160 160q-29 29 -70.5 29t-70.5 -29l-160 -160q-29 -29 -29 -70.5t29 -70.5l160 -160q29 -29 70.5 -29zM254 -56q-37 0 -63 27l-160 160q-26 26 -26 63t26 63l160 160q26 26 63 26t63 -26l160 -160
q27 -26 27 -63t-27 -63l-160 -160q-26 -27 -63 -27zM48 137l149 -150q24 -23 57.5 -23t56.5 23l150 150q23 23 23 56.5t-23 57.5l-150 149q-23 24 -56.5 24t-57.5 -24l-149 -149q-24 -24 -24 -57.5t24 -56.5zM55 144q-20 21 -20 50t20 49l150 150q20 20 49 20t50 -20
l149 -150q21 -20 21 -49t-21 -50l-149 -149q-21 -21 -50 -21t-49 21zM191.5 246q8.5 0 15 6t6.5 14.5t-6.5 14.5t-15 6t-14.5 -6t-6 -14.5t6 -14.5t14.5 -6zM251 100h62v10h-62v-10zM227 281v-11h114v-108h-108v-10h42v-35h11v35h66v129h-125zM241 189l17 6l22 -13l10 36
l16 -13l20 33l-7 3l-16 -26l-16 16l-10 -39l-20 9l-19 -6zM254 221l14 18h-73l4 -4l-4 -7l4 -31l-7 -10l-7 10l3 31l-3 7l3 4h-21l-10 -52l14 -14l-7 -73h17l7 62h7l7 -62h18l-7 121h41z" />
    <glyph glyph-name="homepage-7-1" unicode="&#xf11d;" 
d="M254.5 -59q40.5 0 68.5 28l156 156q28 28 28 68.5t-28 68.5l-156 156q-28 29 -68.5 29t-68.5 -29l-156 -156q-29 -28 -29 -68.5t29 -68.5l156 -156q28 -28 68.5 -28zM254 -49q-36 0 -61 25l-156 156q-25 26 -25 62t25 61l156 156q25 25 61 25t62 -25l156 -156
q25 -25 25 -61t-25 -62l-156 -156q-26 -25 -62 -25zM53 138l146 -146q23 -23 55.5 -23t55.5 23l146 146q23 23 23 55.5t-23 55.5l-146 146q-23 23 -55.5 23t-55.5 -23l-146 -146q-23 -23 -23 -55.5t23 -55.5zM60 145q-20 20 -20 48.5t20 48.5l146 146q20 20 48.5 20
t48.5 -20l145 -146q20 -20 20 -48.5t-20 -48.5l-145 -145q-20 -20 -48.5 -20t-48.5 20zM313 211l14 -81v1v-25h-157v22h13v121h125zM318 212l-5 42h-135v-121h-13v-32h167v30zM210 145v20h9v-20h-9zM205 140h19v30h-19v-30zM210 196v20h9v-20h-9zM205 191h19v30h-19v-30z
M287 219v34h9v-34h-9zM287 151v34h9v-34h-9zM260 219v34h9v-34h-9zM260 151v34h9v-34h-9zM333 134v102h-18v51h-73v-153h-9v-34h109v34h-9z" />
    <glyph glyph-name="homepage-7-2" unicode="&#xf11e;" 
d="M254.5 -66q41.5 0 70.5 29l160 160q29 29 29 70.5t-29 70.5l-160 160q-29 29 -70.5 29t-70.5 -29l-160 -160q-29 -29 -29 -70.5t29 -70.5l160 -160q29 -29 70.5 -29zM254 -56q-37 0 -63 27l-160 160q-26 26 -26 63t26 63l160 160q26 26 63 26t63 -26l160 -160
q27 -26 27 -63t-27 -63l-160 -160q-26 -27 -63 -27zM48 137l149 -150q24 -23 57.5 -23t56.5 23l150 150q23 23 23 56.5t-23 57.5l-150 149q-23 24 -56.5 24t-57.5 -24l-149 -149q-24 -24 -24 -57.5t24 -56.5zM55 144q-20 21 -20 50t20 49l150 150q20 20 49 20t50 -20
l149 -150q21 -20 21 -49t-21 -50l-149 -149q-21 -21 -50 -21t-49 21zM232 122q-27 0 -47 6q-17 5 -19 10v23q9 -6 25 -10q18 -5 41 -5h3q4 -13 13 -23q-9 -1 -16 -1v0zM232 172q-35 -2 -57 4q-9 3 -13 5h-1q-6 4 -6 6v21q1 -1 2 -1q0 -1 1 -1l6 -2v-1q3 -1 7 -2h2l8 -2l8 -2
h1h1q5 -1 9 -1t9 -1h1h1h9h14h1q2 1 3 1h1q-6 -12 -7 -24v0zM304 159l10 -6v-3h-13v-11h-5v11h-14v3h12v4l-12 6v3h13l-14 24h5q8 -14 10 -19l3 -5l2 5q1 2 3 5l7 14h6l-15 -24h12v-3h-10v-4zM319 158v13h-8l15 24h-18l-9 -17v-1q-4 7 -9 16l-1 2h-17l14 -24h-9v-13
q-2 1 0 1v-14h14v-11h15v11h13v14q-2 0 0 -1zM297.5 219q22.5 0 38.5 -15.5t16 -37.5t-16 -37.5t-38.5 -15.5t-38.5 15.5t-16 37.5t16 37.5t38.5 15.5zM297.5 224q-24.5 0 -42 -17t-17.5 -41t17.5 -41t42 -17t42 17t17.5 41t-17.5 41t-42 17zM297.5 219q22.5 0 38.5 -15.5
t16 -37.5t-16 -37.5t-38.5 -15.5t-38.5 15.5t-16 37.5t16 37.5t38.5 15.5zM297.5 224q-24.5 0 -42 -17t-17.5 -41t17.5 -41t42 -17t42 17t17.5 41t-17.5 41t-42 17zM195 248q-18 5 -18 11t18 12q20 6 48 6t48 -6q17 -6 17 -12v-2q-1 0 -1 -1q-1 0 -2 -1l-2 -2q-1 0 -1 -1h-1
l-4 -2h-1q-4 -2 -11 -3v-1h-3q-1 -1 -4 -1h-1.5t-0.5 -1h-4t-5 -1h-1q-12 -1 -23 -1q-28 0 -48 6v0zM219 162q4 0 13 1v-8q-26 0 -46 6q-9 3 -15 7h1q2 0 3 -1q6 -1 14 -3q14 -2 30 -2v0zM277 236v0q-2 0 -5 -1h-2h-1h-1q-2 -1 -4 -1q-11 -1 -21 -1q-21 0 -40 4q-17 3 -26 9
v-9l1 -12q1 -5 18 -10q20 -6 47 -6h5h1q9 10 21 16q13 6 27 6q6 0 11 -1v16q-10 -7 -31 -10z" />
    <glyph glyph-name="homepage-7-3" unicode="&#xf11f;" 
d="M254.5 -66q41.5 0 70.5 29l160 160q29 29 29 70.5t-29 70.5l-160 160q-29 29 -70.5 29t-70.5 -29l-160 -160q-29 -29 -29 -70.5t29 -70.5l160 -160q29 -29 70.5 -29zM254 -56q-37 0 -63 27l-160 160q-26 26 -26 63t26 63l160 160q26 26 63 26t63 -26l160 -160
q27 -26 27 -63t-27 -63l-160 -160q-26 -27 -63 -27zM48 137l149 -150q24 -23 57.5 -23t56.5 23l150 150q23 23 23 56.5t-23 57.5l-150 149q-23 24 -56.5 24t-57.5 -24l-149 -149q-24 -24 -24 -57.5t24 -56.5zM55 144q-20 21 -20 50t20 49l150 150q20 20 49 20t50 -20
l149 -150q21 -20 21 -49t-21 -50l-149 -149q-21 -21 -50 -21t-49 21zM340 122h-13v11h-144v-11h-13v-11h-10v-10h189v10h-9v11zM214 142v54h6v7q0 8 -8 8h-28q-8 0 -8 -8v-7h7v-54h31zM327 142v54h7v7q0 8 -8 8h-28q-8 0 -8 -8v-7h7v-54h30zM270 142v54h7v7q0 8 -8 8h-28
q-8 0 -8 -8v-7h7v-54h30zM246 261l-40 -22h97l-40 22q-9 5 -17 0zM225 244l23 13q6 3 12 0l23 -13h-58zM260 283l84 -46q8 -4 8 -13v-2h-195v2q0 9 8 13l83 46q6 3 12 0zM263 287q-9 5 -17 0l-84 -46q-10 -5 -10 -17v-8h205v8q0 12 -10 17zM260 283l84 -46q8 -4 8 -13v-2
h-195v2q0 9 8 13l83 46q6 3 12 0zM263 287q-9 5 -17 0l-84 -46q-10 -5 -10 -17v-8h205v8q0 12 -10 17z" />
    <glyph glyph-name="homepage-7-4" unicode="&#xf120;" 
d="M256 -64q-41 0 -70 29l-157 157q-29 29 -29 70t29 70l157 157q29 29 70 29t70 -29l157 -157q29 -29 29 -70t-29 -70l-157 -157q-29 -29 -70 -29zM256 435q-36 0 -61 -25l-157 -157q-25 -25 -25 -61t25 -61l157 -157q25 -25 61 -25t61 25l157 157q25 25 25 61t-25 61
l-157 157q-25 25 -61 25zM256 -35q-33 0 -57 24l-146 146q-24 24 -24 57t24 57l146 146q24 24 57 24t57 -24l146 -146q24 -24 24 -57t-24 -57l-146 -146q-24 -24 -57 -24zM256 406q-28 0 -48 -20l-146 -146q-20 -20 -20 -48t20 -48l146 -146q20 -20 48 -20t48 20l146 146
q20 20 20 48t-20 48l-146 146q-20 20 -48 20zM335 98h-170v34h14v122h136l6 -44l14 -81v-31zM172 105h156v24l-13 80l-5 38h-125v-122h-13v-20zM226 137h-20v32h20v-32zM212 143h7v20h-7v-20zM226 188h-20v33h20v-33zM212 195h7v19h-7v-19zM335 132h9v-34h-109v34h9v154h73
v-51h18v-103zM271 149v0v35h-9v-35h9zM271 217v0v35h-9v-35h9zM298 149v35h-9v-35h9zM298 217v35h-9v-35h9z" />
    <glyph glyph-name="icon-profile-company" unicode="&#xf121;" 
d="M512 201q0 -13 -9 -20q-10 -9 -23 -9q-12 1 -20 8q-1 0 -2.5 2t-5.5 5.5t-7 7.5q-5 4 -15.5 14.5t-16.5 15.5q-6 7 -19.5 20.5t-18.5 17.5l-39 39q-26 26 -32 31q-10 11 -16 17q-17 15 -32 15q-16 -1 -32 -15q-6 -7 -19 -19q-14 -13 -32 -31q-4 -4 -17.5 -17t-21.5 -21
q-31 -31 -37 -36q-18 -18 -30 -29q-12 -13 -15 -15q-8 -6 -20 -7q-13 0 -22 8q-10 9 -10 23q1 14 9 22q4 5 19 18q15 16 37 37t47 45l47 46q3 3 37 36l9 9t6.5 6t2.5 3q20 20 42 20q23 0 38 -16q7 -5 13 -12q2 -2 10.5 -10t13.5 -14q6 -7 31 -32q6 -5 17.5 -17t18.5 -18
l35 -35q12 -13 31 -32q13 -12 24 -24l13 -13q11 -11 11 -24zM258 318q-15 0 -32 -16q-13 -13 -160 -153v-114q0 -7 5 -12.5t12 -5.5h99q4 0 6.5 2.5t2.5 6.5v81q0 4 2.5 7t6.5 3h111q3 0 6 -3t3 -7v-81q0 -4 2.5 -6.5t5.5 -2.5h101q8 0 13 5.5t5 12.5v113q-157 152 -159 154
q-17 16 -30 16v0z" />
    <glyph glyph-name="icon-profile-email" unicode="&#xf122;" 
d="M0 345l250 -132q6 -3 12 0l250 133v-246q0 -21 -15 -35.5t-36 -14.5h-410q-21 0 -36 14.5t-15 35.5v245zM51 448h410q21 0 36 -14.5t15 -34.5l-256 -139l-256 139q0 20 15 34.5t36 14.5z" />
    <glyph glyph-name="icon-profile-password" unicode="&#xf123;" 
d="M158 255h198v65q0 23 -10 40t-24.5 24t-28.5 11.5t-24 4.5h-10q-29 0 -50 -8.5t-30 -20.5t-14.5 -23.5t-6.5 -20.5v-8v-64zM479 255q14 0 23.5 -7.5t9.5 -18.5v-267q0 -10 -9.5 -18t-23.5 -8h-446q-14 0 -23.5 8t-9.5 18v267q0 11 9.5 18.5t23.5 7.5h66v64q0 36 16 62.5
t39.5 39t46.5 19t39 7.5l16 1q48 0 82.5 -13t48.5 -32t21.5 -38t6.5 -32v-13v-65h64z" />
    <glyph glyph-name="icon-profile-phone" unicode="&#xf124;" 
d="M61 60h287v300h-287v-300zM205 -29q17 0 29 10.5t12 25t-12 25t-29 10.5t-29 -10.5t-12 -25t12 -25t29 -10.5zM123 404v-18q0 -9 10 -9h143q11 0 11 9v18q0 9 -11 9h-143q-10 0 -10 -9zM348 448q26 0 44 -15.5t18 -37.5v-406q0 -22 -18 -37.5t-44 -15.5h-287
q-25 0 -43 15.5t-18 37.5v406q0 22 18 37.5t43 15.5h287z" />
    <glyph glyph-name="lang-EN" unicode="&#xf125;" 
d="M503 448q9 0 9 -9v-494q0 -9 -9 -9h-494q-9 0 -9 9v494q0 9 9 9h494zM237 292v28q0 5 -5 5h-132q-5 0 -5 -5v-256q0 -5 5 -5h132q5 0 5 5v28q0 5 -5 5h-99v76h99q5 0 5 5v28q0 5 -5 5h-99v76h99q5 0 5 5zM417 69v137q0 5 -5 5h-132q-5 0 -5 -5v-137q0 -10 9 -10h19
q10 0 10 10v104h66v-104q0 -10 10 -10h19q9 0 9 10z" />
    <glyph glyph-name="lang-ZH" unicode="&#xf126;" 
d="M277 256h107v-85h-107v85zM512 427v-470q0 -8 -6.5 -14.5t-14.5 -6.5h-470q-8 0 -14.5 6.5t-6.5 14.5v470q0 8 6.5 14.5t14.5 6.5h470q8 0 14.5 -6.5t6.5 -14.5zM427 299h-150v64h-42v-64h-150v-171h150v-107h42v107h150v171zM128 171v85h107v-85h-107z" />
    <glyph glyph-name="minus" unicode="&#xf127;" 
d="M63 132q-25 0 -42.5 17.5t-17.5 42.5t17.5 42.5t42.5 17.5h386q25 0 42.5 -17.5t17.5 -42.5t-17.5 -42.5t-42.5 -17.5h-386z" />
    <glyph glyph-name="partners-clients" unicode="&#xf128;" 
d="M0 193q0 105 75 180t182 75q105 0 180 -75t75 -180q0 -107 -75 -182t-180 -75q-107 0 -182 75t-75 182zM39 193q0 -90 64 -154t154 -64q89 0 152.5 64t63.5 154q0 89 -63.5 152.5t-152.5 63.5q-90 0 -154 -63.5t-64 -152.5zM178 77l115 115l-115 115l28 28l142 -142
l-142 -144z" />
    <glyph glyph-name="phone" unicode="&#xf129;" 
d="M89 433q7 7 17 7t17 -7l77 -77l5 -6q7 -6 7 -16t-7 -17l-5 -5l-51 -51q-12 -13 -13 -31t10 -32q21 -34 54 -67q33 -32 66 -53q4 -3 7 -5h1h1q30 -14 53 9l49 48l8 8q6 7 16 7t17 -7l83 -83q7 -7 7 -16.5t-7 -16.5l-77 -77q-6 -5 -14 -6q-61 -11 -137.5 22t-143.5 100.5
t-100 144t-23 136.5q1 9 7 15z" />
    <glyph glyph-name="play" unicode="&#xf12a;" 
d="M58 -64q-25 0 -42 20q-16 21 -16 54v364q0 33 16 54q17 20 42 20q19 0 39 -12l259 -183h1q35 -23 35.5 -61t-36.5 -62l-258 -181q-21 -13 -40 -13zM58 421q-15 0 -24 -13t-9 -34v-364q0 -21 9 -34t24 -13q13 0 27 10l258 181q25 16 25 38t-24 37v1l-260 182q-13 9 -26 9z
" />
    <glyph glyph-name="plus" unicode="&#xf12b;" 
d="M279 -11q-4 -25 -24.5 -40t-45 -11t-39.5 24.5t-11 45.5l63 390q4 25 24.5 40t45.5 10.5t39.5 -25t10.5 -45.5zM59 136q-25 0 -42.5 18t-17.5 43.5t17.5 43.5t42.5 18h391q25 0 43 -18t18 -43.5t-18 -43.5t-43 -18h-391z" />
    <glyph glyph-name="private-service-1-1" unicode="&#xf12c;" 
d="M433 355q10 0 16.5 -6.5t6.5 -16.5v-51q0 -9 -6.5 -16t-16.5 -7h-233q-9 0 -16 7t-7 16v51q0 10 7 16.5t16 6.5h233zM440 281v51q0 7 -7 7h-233q-7 0 -7 -7v-51q0 -7 7 -7h233q7 0 7 7zM433 240q10 0 16.5 -6.5t6.5 -15.5v-52q0 -9 -6.5 -15.5t-16.5 -6.5h-233
q-9 0 -16 6.5t-7 15.5v52q0 9 7 15.5t16 6.5h233zM440 166v52q0 7 -7 7h-233q-7 0 -7 -7v-52q0 -7 7 -7h233q7 0 7 7zM433 126q10 0 16.5 -7t6.5 -16v-51q0 -10 -6.5 -16.5t-16.5 -6.5h-233q-9 0 -16 6.5t-7 16.5v51q0 9 7 16t16 7h233zM440 52v51q0 7 -7 7h-233q-7 0 -7 -7
v-51q0 -7 7 -7h233q7 0 7 7zM143 355q10 0 16.5 -6.5t6.5 -16.5v-51q0 -9 -6.5 -16t-16.5 -7h-64q-10 0 -16.5 7t-6.5 16v51q0 10 6.5 16.5t16.5 6.5h64zM150 281v51q0 7 -7 7h-64q-7 0 -7 -7v-51q0 -7 7 -7h64q7 0 7 7zM143 240q10 0 16.5 -6.5t6.5 -15.5v-52
q0 -9 -6.5 -15.5t-16.5 -6.5h-64q-10 0 -16.5 6.5t-6.5 15.5v52q0 9 6.5 15.5t16.5 6.5h64zM150 166v52q0 7 -7 7h-64q-7 0 -7 -7v-52q0 -7 7 -7h64q7 0 7 7zM143 126q10 0 16.5 -7t6.5 -16v-51q0 -10 -6.5 -16.5t-16.5 -6.5h-64q-10 0 -16.5 6.5t-6.5 16.5v51q0 9 6.5 16
t16.5 7h64zM150 52v51q0 7 -7 7h-64q-7 0 -7 -7v-51q0 -7 7 -7h64q7 0 7 7z" />
    <glyph glyph-name="private-service-1-2" unicode="&#xf12d;" 
d="M101 172q-12 0 -20 9.5t-6 21.5q3 18 21 21q3 1 6 0l70 128q-6 9 -4 19q3 17 21 21q15 2 25 -10q8 -9 6 -21q-1 -6 -4 -11l83 -244h0.5h1.5q11 2 21 -5l60 66q-5 8 -3 18q3 17 21 20q15 3 25 -9q8 -9 6 -21q-4 -18 -21 -21q-3 -1 -5 -1q-6 0 -12 3l-62 -68q2 -6 1 -13
q-4 -17 -21 -20q-3 -1 -5 -1q-13 0 -21 9.5t-5 21.5q1 7 6 12l-84 244q-1 -1 -3 -1q-2 -1 -5 -1q-5 0 -10 2l-67 -122q3 -2 4 -4q8 -10 6 -22q-3 -17 -21 -21h-5zM394 182q-1 -5 2 -9q5 -5 11 -4q7 1 8 8q1 6 -2 9.5t-8 3.5h-2q-7 -1 -9 -8zM306 91h-3q-7 -1 -8 -8
q-1 -6 2.5 -9.5t8.5 -3.5h2q7 1 8 8q1 5 -2 9t-8 4zM183 368q-1 -5 3 -9q4 -5 10 -4q7 1 9 8q1 6 -2.5 9.5t-8.5 3.5h-2q-7 -1 -9 -8zM90 200q-1 -5 3 -9q4 -5 10 -3q7 1 9 8q1 5 -2.5 9t-8.5 4h-2q-7 -2 -9 -9zM437 45q8 0 13.5 -6t5.5 -14v-14q0 -8 -5.5 -13.5t-13.5 -5.5
h-362q-8 0 -13.5 5.5t-5.5 13.5v14q0 8 5.5 14t13.5 6h362zM440 11v14q0 4 -3 4h-362q-3 0 -3 -4v-14q0 -3 3 -3h362q3 0 3 3z" />
    <glyph glyph-name="private-service-1-3" unicode="&#xf12e;" 
d="M452 182q4 -2 4 -7v-125q0 -8 -8 -8h-47q-9 -17 -28 -17t-29 17h-135q-9 -17 -28 -17t-29 17h-55q-8 0 -8 8v172q-33 22 -33 62q0 31 22 53t53 22q24 0 43 -14t27 -37h113q8 0 8 -7v-51h59q4 0 6 -3l41 -49zM378 234h-56v-143h118v80l-21 14l-2 2zM72 284q0 -24 17 -41.5
t41.5 -17.5t42 17.5t17.5 41.5t-17.5 41.5t-42 17.5t-41.5 -17.5t-17 -41.5zM131 209q-13 0 -26 5v-123h76v0h125v202h-101q1 -5 1 -9q0 -31 -22 -53t-53 -22zM105 58h43q0 9 5 17h-48v-17zM181 41q7 0 12 5t5 12t-5 12t-12 5t-12 -5t-5 -12t5 -12t12 -5zM214 58h126
q0 9 5 18h-31h-105q5 -9 5 -18zM373 41q7 0 12 5t5 12t-5 12.5t-12 5.5t-12 -5.5t-5 -12.5t5 -12t12 -5zM406 58h34v18h-39q5 -9 5 -18zM139 284q0 -8 -8 -8h-34q-8 0 -8 8t8 8h26v25q0 8 8 8t8 -8v-33z" />
    <glyph glyph-name="private-service-2-1" unicode="&#xf12f;" 
d="M312 129q-3 0 -5 2l-58 58v127q0 8 7 8t7 -8v-121l54 -54q5 -5 0 -10q-2 -2 -5 -2zM82 199h25q7 0 7 -7t-7 -7h-25q-7 0 -7 7t7 7zM430 185h-25q-7 0 -7 7t7 7h25q7 0 7 -7t-7 -7zM256 11q-7 0 -7 7v25q0 7 7 7t7 -7v-25q0 -7 -7 -7zM256 334q-7 0 -7 7v25q0 7 7 7t7 -7
v-25q0 -7 -7 -7zM256 392q83 0 141.5 -58.5t58.5 -141.5t-58.5 -141.5t-141.5 -58.5t-141.5 58.5t-58.5 141.5q0 64 37 116l1 1l25 25h-50q-7 0 -7 7t7 7h69l7 -7v-68q0 -7 -7 -7t-7 7v53l-27 -27q-34 -48 -34 -107q0 -77 54.5 -131.5t131.5 -54.5t131.5 54.5t54.5 131.5
t-54.5 131.5t-131.5 54.5q-7 0 -7 7t7 7z" />
    <glyph glyph-name="private-service-2-2" unicode="&#xf130;" 
d="M273 179l31 -25q6 -4 1 -10q-2 -3 -5 -3t-5 2l-19 15v-103q0 -7 -7.5 -7t-7.5 7v103l-19 -15q-6 -5 -10.5 1t1.5 10l31 25q4 4 9 0zM406 211q22 -2 36 -18t14 -38q0 -24 -16.5 -40.5t-40.5 -16.5h-62q-7 0 -7 7t7 7h62q18 0 30.5 12.5t12.5 30.5t-12.5 30t-30.5 12h-7v7
q0 49 -36 83.5t-87 34.5q-45 0 -80.5 -27t-43.5 -67l-1 -6h-17q-23 0 -40 -16t-17 -39t16 -39t39 -16h75q7 0 7 -7t-7 -7h-75q-29 0 -49 20t-20 49t21 49t50 20h5q11 43 49.5 71.5t87.5 28.5q55 0 94.5 -36.5t42.5 -88.5z" />
    <glyph glyph-name="private-service-2-3" unicode="&#xf131;" 
d="M433 352q10 0 16.5 -6.5t6.5 -16.5v-162q0 -10 -6.5 -16.5t-16.5 -6.5h-210v14h210q9 0 9 9v29h-219v13h219v120q0 9 -9 9h-259q-9 0 -9 -9v-19h-14v19q0 10 6.5 16.5t16.5 6.5h259zM321 175q0 -6 -4.5 -10.5t-10.5 -4.5t-10.5 4.5t-4.5 10.5t4.5 10.5t10.5 4.5
t10.5 -4.5t4.5 -10.5zM305 175q0 1 1.5 1t1.5 -1t-1.5 -1t-1.5 1zM348 136l5 -23q1 -6 -1 -12l-1 -1q-5 -10 -16 -10h-51q-11 0 -16 10q-4 7 -1 14q3 13 3 20h5l9 2q1 -7 -4 -26q-1 -2 0 -4t4 -2h51q3 0 4 2v1q1 2 1 3l-5 23zM208 273v-219q0 -9 -6.5 -15.5t-15.5 -6.5h-108
q-9 0 -15.5 6.5t-6.5 15.5v219q0 10 6.5 16t15.5 6h108q9 0 15.5 -6t6.5 -16zM78 282q-8 0 -8 -9v-14h125v14q0 9 -9 9h-108zM195 86v159h-125v-159h122h3zM186 46q9 0 9 8v20q-2 -1 -3 -1h-122v-19q0 -8 8 -8h108zM118 264q-7 0 -7 6.5t7 6.5h43q7 0 7 -6.5t-7 -6.5h-43z
M132 69q5 0 8.5 -3.5t3.5 -8t-3.5 -8t-8.5 -3.5t-8 3.5t-3 8t3 8t8 3.5zM132 55q2 0 2 2.5t-2 2.5t-2 -2.5t2 -2.5z" />
    <glyph glyph-name="private-service-3-1" unicode="&#xf132;" 
d="M284 214q14 0 23.5 -9.5t9.5 -23.5v-149q0 -14 -9.5 -23.5t-23.5 -9.5h-56q-14 0 -23.5 9.5t-9.5 23.5v149q0 14 9.5 23.5t23.5 9.5h56zM303 32v149q0 8 -5.5 13.5t-13.5 5.5h-56q-8 0 -13.5 -5.5t-5.5 -13.5v-149q0 -8 5.5 -13.5t13.5 -5.5h56q8 0 13.5 5.5t5.5 13.5z
M423 324q14 0 23.5 -9.5t9.5 -22.5v-260q0 -14 -9.5 -23.5t-23.5 -9.5h-56q-13 0 -23 9.5t-10 23.5v259q0 14 10 23.5t23 9.5h56zM442 32v260q0 7 -5.5 12.5t-13.5 5.5h-56q-8 0 -13 -5.5t-5 -12.5v-260q0 -8 5 -13.5t13 -5.5h56q8 0 13.5 5.5t5.5 13.5zM145 146
q13 0 23 -9.5t10 -23.5v-81q0 -14 -10 -23.5t-23 -9.5h-56q-14 0 -23.5 9.5t-9.5 23.5v81q0 14 9.5 23.5t23.5 9.5h56zM163 32v81q0 8 -5 13.5t-13 5.5h-56q-8 0 -13.5 -5.5t-5.5 -13.5v-81q0 -8 5.5 -13.5t13.5 -5.5h56q8 0 13 5.5t5 13.5zM312 385q9 0 14 -7.5t2 -15.5
l-33 -83q-4 -10 -16 -10q-8 0 -13 7l-5 6q-1 2 -3 1l-136 -71q-4 -2 -8 -2q-11 0 -15 11q-4 10 4 18l111 106q1 1 0 3l-5 6q-5 8 -1 17t14 10zM314 367q1 2 0 3t-2 1l-89 -4q-2 0 -2.5 -1.5t0.5 -2.5l4 -7q9 -12 -2 -22l-110 -105q-2 -1 -1 -3t2 -2t2 1l135 70q13 7 22 -5
l4 -6q1 -1 2 -1q2 0 3 1z" />
    <glyph glyph-name="private-service-3-2" unicode="&#xf133;" 
d="M431 124v-1v-111q0 -8 -6 -14t-14 -6h-310q-8 0 -14 6t-6 14v111v1v1v2l36 248q1 7 6.5 12t13.5 5h238q8 0 13.5 -5t6.5 -12l36 -248v-3v0zM131 373l-33 -230h3h310h3l-33 230q-1 5 -6 5h-238q-5 0 -6 -5zM411 6q6 0 6 6v110v2q-1 5 -6 5h-310q-5 0 -6 -5v-2v-110
q0 -6 6 -6h310zM355.5 93q10.5 0 18 -7.5t7.5 -18t-7.5 -18t-18 -7.5t-18 7.5t-7.5 18t7.5 18t18 7.5zM355.5 56q4.5 0 8 3.5t3.5 8t-3.5 8t-8 3.5t-8 -3.5t-3.5 -8t3.5 -8t8 -3.5zM212 216q-25 0 -25 26q0 7 5.5 15t14.5 10q5 15 18.5 26.5t30.5 11.5q19 0 33.5 -11
t16.5 -27q9 -3 14 -10.5t5 -14.5q0 -12 -7 -19t-18 -7h-88zM212 253q-5 0 -8 -4t-3 -7q0 -12 11 -12h88q11 0 11 12q0 3 -3 7t-8 4h-8v7q0 14 -11 22.5t-25 8.5q-13 0 -23.5 -10t-13.5 -22l-1 -6h-6z" />
    <glyph glyph-name="private-service-3-3" unicode="&#xf134;" 
d="M274 37q7 0 7 -7t-7 -7h-171q-9 0 -14 6.5t-5 16.5v324q0 9 6.5 15.5t15.5 6.5h258q10 0 15.5 -5.5t5.5 -14.5v-226q0 -7 -7 -7t-7 7v226q0 6 -7 6h-258q-8 0 -8 -8v-324q0 -9 5 -9h171zM323 251q7 0 7 -7t-7 -7h-177q-7 0 -7 7t7 7h177zM330 170q0 -7 -7 -7h-177
q-7 0 -7 7t7 7h177q7 0 7 -7zM146 110h92q7 0 7 -7t-7 -7h-92q-7 0 -7 7t7 7zM323 318q7 0 7 -7t-7 -7h-177q-7 0 -7 7t7 7h177zM426 4q5 -5 0 -10q-2 -2 -5 -2t-5 2l-40 40l-1 2q-14 -12 -32 -12q-22 0 -37.5 16t-15.5 38t15.5 37.5t37.5 15.5t37.5 -15.5t15.5 -37.5
q0 -19 -11 -33l1 -1zM343 38q16 0 27.5 11.5t11.5 28t-11.5 28t-27.5 11.5t-27.5 -11.5t-11.5 -28t11.5 -28t27.5 -11.5z" />
    <glyph glyph-name="search" unicode="&#xf135;" 
d="M256 93q-47 0 -88 23.5t-65 63.5q-37 64 -18.5 134.5t81.5 107.5q42 24 89 24t88 -23.5t65 -64.5q36 -63 17.5 -133.5t-81.5 -107.5q-41 -24 -88 -24zM255 435q-44 0 -83 -23q-59 -34 -76.5 -100.5t16.5 -125.5q23 -38 61 -60t83 -22q44 0 83 22q59 35 76.5 101.5
t-17.5 125.5q-22 38 -60.5 60t-82.5 22zM360 133l102 -175l-37 -22l-102 175z" />
    <glyph glyph-name="service-center" unicode="&#xf136;" 
d="M446 240v3q0 85 -60.5 145t-145.5 60t-145.5 -60t-60.5 -145v-3q-15 -5 -24.5 -18.5t-9.5 -29.5v-68q0 -22 15 -36.5t36.5 -14.5t36.5 14.5t15 36.5v68q0 16 -9.5 29.5t-24.5 18.5v3q0 71 50 121t121 50t121 -50t50 -121v-3q-15 -5 -24.5 -18.5t-9.5 -29.5v-68
q0 -22 15 -36.5t36.5 -14.5t36.5 14.5t15 36.5v68q0 16 -9.5 29.5t-24.5 18.5zM309 -29v16q0 7 -5 12t-13 5h-68q-7 0 -12 -5t-5 -12v-34q0 -7 5 -12t12 -5h68q64 0 109.5 40t45.5 97h-17h-18q0 -39 -29.5 -67.5t-72.5 -34.5z" />
    <glyph glyph-name="star" unicode="&#xf137;" 
d="M384 122l31 -186l-159 87l-159 -87l31 186l-128 130l177 27l79 169l79 -169l177 -27z" />
    <glyph glyph-name="triangle-1" unicode="&#xf138;" 
d="M1 446l256 -255l-256 -257v512z" />
    <glyph glyph-name="twitter" unicode="&#xf139;" 
d="M509 349q-21 -32 -52 -54q1 -4 1 -13q0 -42 -12.5 -83.5t-37.5 -80t-59.5 -68t-83 -47t-103.5 -17.5q-87 0 -159 47q11 -1 25 -1q72 0 129 44q-34 1 -60.5 21t-36.5 51q10 -2 19 -2q14 0 28 4q-36 7 -60 35.5t-24 66.5v1q22 -12 47 -13q-21 14 -33.5 37t-12.5 49
q0 29 14 53q39 -48 95 -77t119 -32q-2 12 -2 24q0 43 30 73.5t73 30.5q45 0 76 -33q35 7 66 25q-12 -37 -46 -57q30 3 60 16z" />
    <glyph glyph-name="wechat" unicode="&#xf13a;" 
d="M346 274q-64 0 -108.5 -42t-44.5 -101q0 -19 5 -38q-9 -1 -17 -1q-17 0 -63 9l-63 -31l18 54q-73 51 -73 122q0 65 53 109.5t128 44.5q67 0 119 -36t64 -91q-10 1 -18 1zM249 323q-10 0 -18.5 -6t-8.5 -16t8.5 -16.5t18.5 -6.5t16.5 6.5t6.5 16.5t-6.5 16t-16.5 6z
M123 278q10 0 16 6.5t6 16.5t-6 16t-16 6q-11 0 -19.5 -6t-8.5 -16t8.5 -16.5t19.5 -6.5zM512 133q0 -56 -64 -104l14 -45l-50 27q-36 -9 -54 -9q-64 0 -109 38.5t-45 93t45 93t109 38.5q62 0 108 -39t46 -93zM308 156q10 0 16.5 5.5t6.5 12.5t-6.5 12.5t-16.5 5.5
q-7 0 -12.5 -5.5t-5.5 -12.5t5.5 -12.5t12.5 -5.5zM408 156q9 0 15.5 5.5t6.5 12.5t-6.5 12.5t-15.5 5.5q-7 0 -12.5 -5.5t-5.5 -12.5t5.5 -12.5t12.5 -5.5z" />
    <glyph glyph-name="weibo" unicode="&#xf13b;" 
d="M379 197q9 -2 20.5 -8t24 -18.5t13.5 -31.5t-10 -47q-25 -51 -94.5 -78.5t-137.5 -21.5q-181 14 -194 128v13.5t9 34.5t28 51q3 3 7.5 9t18.5 22t29 29t36 27t41 21q80 27 80 -40q-5 -16 -3.5 -23t19.5 -1q3 1 7.5 3t18.5 6t26 5.5t25.5 -1t21.5 -10.5q10 -10 11 -23.5
t-3 -22.5l-4 -8q-10 -11 10 -15zM201 19q62 2 106.5 35t44.5 75q0 40 -43.5 64t-107.5 21q-63 -3 -107 -32.5t-44 -70.5t44 -68t107 -24zM184 178q30 3 50.5 -7.5t28 -28t6 -36t-10.5 -30.5q-21 -26 -54.5 -33.5t-71.5 10.5q-10 6 -15.5 15.5t-6.5 15.5v7q1 0 -0.5 7.5
t2.5 20t10 24.5t22.5 22t39.5 13zM163 68.5q12 1.5 20 9.5t8 17q0 10 -8 16.5t-21 5.5q-12 -1 -19.5 -9.5t-7.5 -18.5t8 -16t20 -4.5zM213 110q9 8 4 16q-6 9 -16 2q-9 -7 -3 -16q5 -9 15 -2zM420 231q-6 0 -10 4t-4 9q0 2 0.5 4t1 8.5t-1 11t-4 11.5t-8 9.5t-14.5 5
t-22 -1.5q-6 0 -10 4t-4 9.5t4 9.5t10 4q3 1 9 1.5t20 -2t24.5 -9t17.5 -23.5t4 -42v-2q-2 -11 -13 -11zM410 390q22 -5 41.5 -16.5t37 -33t21 -51t-6.5 -70.5q-3 -17 -19 -17q-9 0 -14.5 5t-5.5 13l3 19q10 32 -6 66q-13 23 -37 35t-40 14t-22 -1l-18 -4q-8 0 -14 6t-6 14
q0 15 15 19l1 0.5l1 0.5q40 8 69 1zM410 390z" />
    <glyph glyph-name="eye" unicode="&#xf13c;" 
d="M256 38q-51 0 -91 12t-70.5 36t-50.5 47t-44 59q23 37 44 62.5t51 47.5t70 33t91 11t91 -12t70.5 -36t50.5 -47t44 -59q-38 -72 -98 -113t-158 -41zM256 80q43 0 72.5 31t29.5 74.5t-29.5 74.5t-72.5 31t-72.5 -31t-29.5 -74.5t29.5 -74.5t72.5 -31zM256 134
q-22 0 -36.5 15.5t-14.5 39.5t14.5 39t36.5 15t36.5 -15t14.5 -39t-14.5 -39.5t-36.5 -15.5z" />
    <glyph glyph-name="alarm-1" unicode="&#xf13d;" 
d="M405 393v-2v-173q0 -10 -8 -17t-20 -7h-80q-14 -25 -40 -40.5t-55.5 -20.5t-46 -6t-29.5 0l-86 -49q-1 -1 -3 -1q-3 0 -5 2q-3 3 -1 8l36 60q-51 25 -66 86q-12 106 91 144v13q0 10 8.5 17t19.5 7h257q16 0 28 -21zM120 401q-6 0 -10.5 -3.5t-4.5 -7.5v-1l144 -101
l143 101q-8 12 -15 12h-257zM125 140q2 1 12.5 -0.5t30.5 1.5t40.5 7.5t40.5 16.5t32 29h-161q-11 0 -19.5 7t-8.5 17v144q-88 -34 -78 -127q5 -17 13 -31.5t16 -22.5t17 -14.5t13 -8t6 -2.5q3 -1 4 -4t0 -6l-27 -44l65 37q2 1 4 1zM377 207q6 0 10.5 3.5t4.5 7.5v155
l-143 -101l-144 101v-155q0 -4 4.5 -7.5t10.5 -3.5h257z" />
    <glyph glyph-name="alarm-2" unicode="&#xf13e;" 
d="M397 58q7 0 7 -7.5t-7 -7.5h-352q-18 0 -31 11t-13 27v360q0 7 7.5 7t7.5 -7v-360q0 -10 8.5 -16.5t20.5 -6.5h352zM59 224.5q-6 4.5 -2 10.5q4 5 11 12.5t26.5 19t39.5 11.5q39 0 70 -43q24 -34 51 -32q17 0 34.5 14.5t24 23t9.5 13.5q4 7 10 3t3 -10q-5 -7 -12 -17
t-27.5 -25.5t-40.5 -16.5h-3q-33 0 -61 38q-27 37 -58 37q-16 0 -33 -10t-23 -16.5t-9 -10.5q-4 -6 -10 -1.5zM102 305.5q-6 4.5 -2 10.5t11 13.5t27 19t39 10.5q39 0 70 -43q24 -34 51 -32q17 0 34.5 14.5t23.5 23t10 14.5t10 2t3 -10q-5 -7 -12 -17t-27.5 -25.5
t-40.5 -16.5h-3q-33 0 -61 38q-27 37 -58 37q-16 0 -33 -10t-23 -16.5t-9 -10.5q-4 -6 -10 -1.5z" />
    <glyph glyph-name="alarm-3" unicode="&#xf13f;" 
d="M40.5 274q-7.5 0 -7.5 7v44q0 7 7 7h51q7 0 7 -7.5t-7 -7.5h-43v-36q0 -7 -7.5 -7zM365 69q7 0 7 -7v-44q0 -7 -7 -7h-50q-8 0 -8 7t8 7h43v37q0 7 7 7zM84 25q8 0 8 -7t-8 -7h-44q-7 0 -7 7v50q0 7 7.5 7t7.5 -7v-43h36zM365 332q7 0 7 -7v-50q0 -8 -7 -8t-7 8v42h-37
q-7 0 -7 7.5t7 7.5h44zM334 172q0 -38 -21 -70q-17 -28 -47 -45t-64 -17v0q-51 0 -89 34.5t-43 84.5v13q0 10 1 20q5 34 26 61t53 41v0l6 -14q-46 -19 -64 -65q-8 -21 -8 -43v-6q3 -46 37 -78.5t81 -32.5t81 32.5t36 78.5v6q0 38 -22 68.5t-57 42.5l4 14q40 -13 65 -47.5
t25 -77.5zM198 205q-5 0 -7 4q-3 6 -7.5 16.5t-14.5 34.5t-17 49t-13 52t-4.5 51.5t11.5 40.5q16 26 52 27t52 -25q10 -15 11.5 -39.5t-4.5 -52t-13 -52.5t-17 -50t-14.5 -35.5t-7.5 -16.5q-2 -4 -7 -4zM158 445q-8 -14 -8.5 -37.5t4 -47t13.5 -51.5t16.5 -45.5t14.5 -33.5
q7 17 14.5 34.5t16.5 46t13.5 52.5t4 47.5t-8.5 37.5q-12 17 -38 17h-2q-28 0 -40 -20zM237 382.5q0 -16.5 -12 -28.5t-28.5 -12t-28 12t-11.5 28.5t11.5 28t28 11.5t28.5 -11.5t12 -28zM196.5 357q10.5 0 18 7.5t7.5 18t-7.5 18t-18 7.5t-18 -7.5t-7.5 -18t7.5 -18t18 -7.5
z" />
    <glyph glyph-name="alarm-4" unicode="&#xf140;" 
d="M405 81v0v-1v-1v-1l-0.5 -0.5l-0.5 -0.5l-1 -1q-1 0 -1 -1h-1h-1l-1 -1v0h-393v0l-1 1h-1q-1 0 -1 0.5t-0.5 0.5h-0.5l-0.5 0.5l-0.5 0.5v1l-0.5 0.5t-0.5 1.5v1v0q-1 30 18.5 46.5t43.5 20.5v178q0 37 25 63.5t60 26.5h111q35 0 60 -26.5t25 -63.5v-178q24 -4 44 -20.5
t18 -46.5zM147 403q-30 0 -51 -22.5t-21 -54.5v-177h255v177q0 32 -21 54.5t-51 22.5h-111zM69 137q-5 -1 -11 -3t-17.5 -6.5t-19 -15.5t-8.5 -25h379q0 14 -8 24.5t-19 15.5t-17.5 7t-11.5 3h-267zM202.5 215q10.5 0 18 -7t7.5 -17.5t-7.5 -18t-18 -7.5t-17.5 7.5t-7 18
t7 17.5t17.5 7zM202.5 174q6.5 0 11.5 4.5t5 11.5t-5 12t-11.5 5t-11.5 -5t-5 -12t5 -11.5t11.5 -4.5zM201.5 236q-3.5 0 -4.5 3q-1 5 -3.5 13t-7.5 27t-8 35.5t-2 34t7 25.5q7 10 18.5 10t18.5 -10q6 -8 7 -25.5t-2 -34t-8 -35.5t-7.5 -27t-3.5 -13q-1 -3 -4.5 -3zM190 369
q-17 -23 12 -115q28 92 11 115q-4 6 -11.5 6t-11.5 -6z" />
    <glyph glyph-name="alarm-5" unicode="&#xf141;" 
d="M489.5 150.5l-0.5 -0.5v-0.5t-0.5 -0.5t-1 -0.5l-0.5 -0.5l-0.5 -0.5l-0.5 -0.5h-1h-2v0h-77q5 -11 5 -25v0v-1q0 -1 -0.5 -1.5l-0.5 -0.5v-1q-1 0 -1 -1q-1 0 -1 -0.5t-0.5 -0.5t-1 -0.5l-0.5 -0.5h-1h-1v0h-292q-4 0 -6 3q-3 2 -3 6q-1 12 4 23h-78v0h-2h-1l-0.5 0.5
l-0.5 0.5l-0.5 0.5l-0.5 0.5l-0.5 0.5l-0.5 0.5l-1 1v0.5v1t-1 0.5v1v0q0 18 11 28.5t25 13.5v100q0 23 15.5 39.5t37.5 16.5h57q20 24 50 24h82q29 0 49 -24h54q22 0 37 -16.5t15 -39.5v-100q15 -3 26 -13.5t11 -28.5v0v-1q-1 0 -1 -0.5v-1v-0.5zM476 161q-4 19 -29 22h-83
v-7q18 -4 30 -15h82zM157 163q-4 -1 -10.5 -2.5t-17.5 -10t-12 -21.5h279q-1 12 -11 20.5t-16.5 10.5t-11.5 3h-199v0h-1zM402 337h-45q7 -15 7 -31v-109h76v99q0 17 -11 29t-27 12zM217 361q-22 0 -36.5 -16t-14.5 -39v-116v0v-13h184v129q0 23 -15 39t-36 16h-82zM110 337
q-16 0 -27 -12t-11 -29v-99h79v109q0 16 7 31h-48zM65 183q-25 -4 -29 -22h82q14 12 33 16v6h-86z" />
    <glyph glyph-name="alarm-6" unicode="&#xf142;" 
d="M367 245q0 -54 -27 -101t-74 -74t-101 -27q-70 0 -125 42q-5 4 -1 9t9 1q52 -39 117 -39q50 0 94.5 25.5t69.5 68.5v1q25 43 25 94q0 79 -55.5 134.5t-133.5 55.5q-7 0 -7 6.5t7 6.5q84 0 143 -59.5t59 -143.5zM166 387q-6 0 -6 6.5t6 6.5q64 0 109 -45t45 -108.5
t-45 -109t-109 -45.5q-6 0 -6 6.5t6 6.5q58 0 99.5 41.5t41.5 99.5t-41.5 99.5t-99.5 41.5zM165 342q-7 0 -7 6t7 6q45 0 77.5 -32t32.5 -78q0 -27 -12 -51q-2 -3 -6 -3q-1 0 -2 1q-6 3 -3 8q10 21 10 45q0 40 -28.5 69t-68.5 29z" />
    <glyph glyph-name="api-1" unicode="&#xf143;" 
d="M402 110q7 -9 0 -14l-20 -17q-2 -2 -5 -2q-5 0 -9 4l-23 29l-25 -19q-2 -3 -5.5 -2t-4.5 5l-3 10q-6 -28 -25.5 -44.5t-46.5 -16.5q-32 0 -52.5 23.5t-21.5 61.5q-5 8 -5 18v34v-3h-136q-8 0 -14 7t-6 18v221q0 10 6 17.5t14 7.5h219q60 0 103 -43t43 -104
q0 -58 -41 -101l58 -34q3 -1 3.5 -4.5t-2.5 -5.5l-23 -19zM20 190h123q-32 27 -45 66q-2 -1 -5 -1h-40q-9 0 -9 8.5t9 8.5h40h2q-4 15 -4 29q0 1 0.5 2t0.5 2h-1h-38q-9 0 -9 8.5t9 8.5h38q1 0 2 -1q2 17 8 32h-1h-47q-9 0 -9 8.5t9 8.5h47q4 0 7 -3q24 47 71 68h-158
q-7 0 -7 -12v-221q0 -12 7 -12zM104 301q0 -34 16.5 -64t45.5 -48q3 -2 3 -6v-37q0 -11 9.5 -18t23.5 -7h69q17 0 28 10l-31 101q-1 4 2.5 7t6.5 1l58 -34l-2 1q39 39 39 94q0 56 -39 95t-95 39q-55 0 -94.5 -39t-39.5 -95zM235 56q24 0 40.5 15.5t20.5 41.5q-12 -5 -25 -5
h-69q-15 0 -27 7q4 -27 20.5 -43t39.5 -16zM377 91l14 12l-25 31q-2 2 -1.5 4.5t2.5 4.5l21 17l-103 60l35 -114l22 18q2 1 4 1q3 0 5 -2z" />
    <glyph glyph-name="api-2" unicode="&#xf144;" 
d="M332 448q14 0 23.5 -10t9.5 -25v-336q0 -14 -9.5 -24t-23.5 -10h-259q-13 0 -23 10t-10 24v336q0 15 10 25t23 10h259zM352 77v336q0 9 -6 15.5t-14 6.5h-259q-8 0 -14 -6.5t-6 -15.5v-336q0 -9 6 -15.5t14 -6.5h259q8 0 14 6.5t6 15.5zM109.5 384q13.5 0 22.5 -9.5
t9 -23t-9 -22.5t-22.5 -9t-22.5 9t-9 22.5t9 23t22.5 9.5zM109.5 333q7.5 0 13.5 5.5t6 13.5t-6 13.5t-13.5 5.5t-13.5 -5.5t-6 -13.5t6 -13.5t13.5 -5.5zM109 274q10 0 17 -7.5t7 -17.5t-7 -17t-17 -7t-17.5 7t-7.5 17t7.5 17.5t17.5 7.5zM109 237q5 0 8 3.5t3 8.5t-3 8.5
t-8 3.5t-8.5 -3.5t-3.5 -8.5t3.5 -8.5t8.5 -3.5zM109 202q10 0 17 -7t7 -17.5t-7 -17.5t-17 -7t-17.5 7t-7.5 17.5t7.5 17.5t17.5 7zM109 166q5 0 8 3.5t3 8t-3 8t-8 3.5t-8.5 -3.5t-3.5 -8t3.5 -8t8.5 -3.5zM296 258q8 0 8 -8.5t-8 -8.5h-116q-8 0 -8 8.5t8 8.5h116z
M296 186q8 0 8 -8.5t-8 -8.5h-116q-8 0 -8 8.5t8 8.5h116zM109 137q10 0 17 -7.5t7 -17.5t-7 -17t-17 -7t-17.5 7t-7.5 17t7.5 17.5t17.5 7.5zM109 101q5 0 8 3t3 8t-3 8.5t-8 3.5t-8.5 -3.5t-3.5 -8.5t3.5 -8t8.5 -3zM296 121q8 0 8 -8.5t-8 -8.5h-116q-8 0 -8 8.5t8 8.5
h116zM298 411q7 0 12.5 -4t5.5 -10v-87q0 -5 -5.5 -9t-12.5 -4h-116q-8 0 -13 4t-5 9v87q0 6 5 10t13 4h116zM303 311v85q-2 2 -5 2h-116q-3 0 -5 -2v-85q2 -1 5 -1h116q3 0 5 1z" />
    <glyph glyph-name="api-3" unicode="&#xf145;" 
d="M370 420q15 0 25 -10.5t10 -25.5v-278q0 -14 -10 -24.5t-25 -10.5h-335q-20 0 -30 17q-5 8 -5 18v278q0 15 10 25.5t25 10.5h335zM392 106v278q0 10 -6 16.5t-16 6.5h-335q-9 0 -15.5 -6.5t-6.5 -16.5v-278q0 -6 3 -11q7 -11 19 -11h335q10 0 16 6.5t6 15.5zM138 284
l2 -2q3 -6 -3 -9l-66 -34h-3q-4 0 -6 3q-3 6 3 9l56 29l-55 34q-6 3 -2.5 8.5t9.5 2.5l63 -39zM257 252q6 0 6 -6.5t-6 -6.5h-74q-7 0 -7 6.5t7 6.5h74z" />
    <glyph glyph-name="api-4" unicode="&#xf146;" 
d="M205.5 294q-4.5 0 -4.5 4v59q0 4 5 4q1 0 3 -1q1 1 2 1q12 4 23 -4l1 -1q11 -12 5 -26t-20 -15h-2q-4 0 -8 2v-19q0 -4 -4.5 -4zM210 351v-24q4 -3 9 -3q10 0 13 9q4 9 -3 17q-8 5 -15 3q-2 -1 -3 -2h-1zM261 296q-4 0 -4 4v57q0 4 4.5 4t4.5 -4l-1 -57q0 -4 -4 -4z
M137 296q-4 1 -3 5l21 57q1 2 4 3h1q4 1 5 -3l18 -57q1 -4 -3 -6h-1q-3 0 -4 3l-15 48l-11 -29h2l14 1q5 0 5 -4.5t-5 -4.5h-14q-3 0 -4 2l-5 -13q-1 -2 -4 -2h-1zM202.5 448q83.5 0 143 -59.5t59.5 -143t-59.5 -143t-143 -59.5t-143 59.5t-59.5 143t59.5 143t143 59.5z
M202.5 55q78.5 0 134.5 56t56 134.5t-56 134t-134.5 55.5t-134 -55.5t-55.5 -134t55.5 -134.5t134 -56zM203 235q34 0 57.5 -24t23.5 -57.5t-23.5 -57.5t-57.5 -24t-57.5 24t-23.5 57.5t23.5 57.5t57.5 24zM203 85q28 0 48.5 20t20.5 48.5t-20.5 48.5t-48.5 20t-48.5 -20
t-20.5 -48.5t20.5 -48.5t48.5 -20z" />
    <glyph glyph-name="api-5" unicode="&#xf147;" 
d="M117 221q-24 0 -41.5 17.5t-17.5 42t17.5 42t41.5 17.5t41.5 -17.5t17.5 -42t-17.5 -42t-41.5 -17.5zM117 332q-21 0 -36 -15t-15 -36.5t15 -36.5t36 -15t36 15t15 36.5t-15 36.5t-36 15zM106 250q-6 0 -10 4q-5 5 -5 14l1 26q1 17 15 17q5 0 11 -3l22 -14q10 -6 9.5 -15
t-10.5 -14l-23 -12q-5 -3 -10 -3zM100 293l-1 -25q0 -6 3 -9t10 0l23 13q6 3 6.5 7.5t-5.5 7.5l-22 14q-4 2 -7 2q-7 0 -7 -10zM222 200q-6 0 -10 4t-4 10v127q0 6 4 10t10 4h104q6 0 10.5 -4t4.5 -10v-127q0 -6 -4.5 -10t-10.5 -4h-104zM216 341v-127q0 -6 6 -6h104
q7 0 7 6v127q0 7 -7 7h-104q-6 0 -6 -7zM237 308q0 7 7 7t7 -7t-7 -7t-7 7zM237 275.5q0 7.5 7 7.5t7 -7.5t-7 -7.5t-7 7.5zM263 304q-4 0 -4 4t4 4h47q4 0 4 -4t-4 -4h-47zM263 271q-4 0 -4 4t4 4h47q4 0 4 -4t-4 -4h-47zM238 245.5q0 7.5 7 7.5t7 -7.5t-7 -7.5t-7 7.5z
M265 249h46q4 0 4 -4t-4 -4h-46q-4 0 -4 4t4 4zM400 127q8 -11 4 -20q-7 -14 -27 -14h-171h-7h-171q-20 0 -26 14q-5 9 3 19l33 48q-4 6 -4 13v186q0 10 8.5 17.5t20.5 7.5h276q13 0 21.5 -7.5t8.5 -17.5v-186q0 -6 -3 -11zM45 373v-186q0 -4 3 -7q5 -6 15 -6h276
q8 0 13 3.5t5 9.5v186q0 5 -5 9t-13 4h-276q-7 0 -12.5 -4t-5.5 -9zM393 112q2 3 -2 7v1l-33 47q-8 -5 -19 -5h-276q-9 0 -16 4l-33 -47q-3 -4 -2 -7q3 -7 16 -7h171h7h171q13 0 16 7z" />
    <glyph glyph-name="api-6" unicode="&#xf148;" 
d="M234 276h1q11 -14 5 -28q-6 -13 -21 -14h-1q-4 0 -9 1v-19q0 -4 -4.5 -4t-4.5 4l1 60q0 5 4 5q2 -1 3 -2q1 1 3 1q11 4 23 -4zM232 252q4 9 -4 17q-7 5 -15 3q-1 -1 -3 -2h-1v-25q5 -3 10 -3q9 1 13 10zM265.5 214q-4.5 0 -4.5 4l1 58q0 5 4 4.5t4 -4.5v-58q0 -4 -4.5 -4
zM164 278l18 -59q1 -5 -3 -6h-2q-3 0 -4 3l-15 49l-11 -30q1 1 2 1h15q4 0 4 -4.5t-4 -4.5h-15q-3 0 -4 2l-5 -13q-1 -3 -4 -3q-1 0 -1 1q-4 1 -3 5l22 58q1 3 3 3h1q4 2 6 -2zM203 448q83 0 142.5 -59.5t59.5 -143t-59.5 -143t-143 -59.5t-143 59.5t-59.5 142.5
q0 46 19.5 87t55.5 70q55 46 128 46zM202.5 56q78.5 0 134 55.5t55.5 134t-55.5 134t-133.5 55.5q-68 0 -120 -43q-33 -27 -51.5 -65.5t-18.5 -81.5q0 -78 55.5 -133.5t134 -55.5zM208.5 421q14.5 0 25 -10.5t10.5 -25t-10.5 -25t-25 -10.5t-25 10.5t-10.5 25t10.5 25
t25 10.5zM208.5 363q9.5 0 16 6.5t6.5 16t-6.5 16t-16 6.5t-16 -6.5t-6.5 -16t6.5 -16t16 -6.5zM105 283q-8 -24 -34 -24q-6 0 -11 2q-14 4 -20.5 17t-2.5 27q8 25 34 25q6 0 11 -2q14 -4 20.5 -17.5t2.5 -27.5zM92 288q3 8 -1 16.5t-13 11.5q-3 1 -7 1q-16 0 -21 -16
q-3 -8 1 -16.5t13 -11.5q4 -1 7 -1q16 0 21 16zM136 164q12 -9 14.5 -23.5t-6.5 -26.5q-11 -14 -29 -14q-11 0 -21 6q-12 9 -14 23.5t6 26.5q11 15 29 15q12 0 21 -7zM133 122q6 8 4.5 17t-9.5 15q-5 4 -13 4q-11 0 -18 -9q-5 -8 -4 -17t9 -15q6 -4 13 -4q12 0 18 9z
M280 164q18 0 29 -15q9 -12 6.5 -26.5t-14.5 -23.5q-9 -6 -21 -6q-18 0 -29 14q-8 12 -6 26.5t14 23.5q10 7 21 7zM302.5 124.5q1.5 9.5 -4.5 16.5q-6 10 -18 10q-7 0 -13 -5q-7 -5 -8.5 -14.5t3.5 -16.5q7 -9 18 -9q8 0 14 4q7 5 8.5 14.5zM372 294q4 -14 -2.5 -27
t-20.5 -18q-5 -2 -11 -2q-26 0 -34 25q-4 14 2.5 27t20.5 18q5 2 11 2q26 0 34 -25zM345 262q9 2 13 10.5t1 17.5q-5 15 -21 15q-3 0 -7 -1q-9 -3 -13 -11t-1 -17q5 -16 21 -16q4 0 7 2z" />
    <glyph glyph-name="database-1" unicode="&#xf149;" 
d="M380 162q25 -13 25 -30q1 -20 -22 -34l-2 -1l-21 -1h-20q-1 -10 -12 -16.5t-28 -6.5q-23 0 -34 12q-11 -8 -27 -8h-75q-16 0 -26 7q-11 -13 -36 -13q-17 0 -28 6.5t-11 17.5v1l-19 -1v1l-20 1l-1 1q-24 14 -23 34q1 17 26 30l1 1h1q18 2 35 10v156q0 11 11 18.5t27 7.5
q15 0 26 -7v15l1 1q1 3 3.5 7t9.5 13.5t15 16.5t20 13t24 6q39 0 75 -58l1 -1v-12q11 8 27 8q15 0 26 -7.5t11 -18.5v-157q18 -9 38 -11h1zM278 331h-2v-90h1q16 -35 50 -59v149q0 5 -7 9t-17 4t-17.5 -4t-7.5 -9zM200 407q-14 0 -29 -11.5t-21 -20t-10 -16.5v-11
q18 13 50 13h20q35 0 53 -15v11q-31 50 -63 50zM76 329v-149q32 21 51 58v91h-1q0 5 -7.5 9t-18 4t-17.5 -4t-7 -9zM13 131q-1 -10 15 -22h54h45v104q-39 -56 -97 -63q-17 -9 -17 -19zM102 84q23 0 27 10q-1 1 -1 2h-52v-1q0 -4 7.5 -7.5t18.5 -3.5zM164 90h75q10 0 17 3.5
t7 7.5v232q-3 8 -17.5 14t-35.5 6h-20q-37 0 -50 -17v-100v0v-1v-134q0 -4 7 -7.5t17 -3.5zM300 86q24 0 27 10l-52 -1q5 -9 25 -9zM377 109q16 11 16 22q-1 10 -18 19q-60 7 -99 67v-109l48 1h53z" />
    <glyph glyph-name="database-2" unicode="&#xf14a;" 
d="M276 255q5 3 8 3q7 1 15 0q20 -3 31 -19l3 -3q2 -4 4 -12l1 -1h1q19 -4 31 -16q9 -11 12 -24q2 -7 2 -14q0 -22 -13 -38q-8 -10 -18 -16q-14 -7 -30 -7h-134q-14 0 -27 6q-34 17 -34 55q0 9 3 18q7 31 34 43q2 0 3 0.5l3 1.5h2q0 3 1 6q4 14 15 24t25 12q2 0 2 1
q15 2 27 0h2q16 -4 29 -18h1q0 -1 1 -2zM281 244q-3 -2 -4 -2l-3 -1l-3 1l-5 5l-1 1q-11 11 -23 14h-2q-6 2 -8 2q-5 0 -13 -2q-1 0 -2 -1h-1q-23 -4 -29 -27v-1q-1 -2 -2 -5q-2 -6 -11 -9h-2l-1 -1q-22 -9 -28 -34v-1q-2 -7 -2 -14q0 -30 27 -44q10 -5 21 -5h134q13 0 24 7
q8 4 14 12q10 13 10 30q0 5 -1 11q-3 10 -9 18q-10 9 -25 13h-3h-1l-4 1l-3 8q-2 6 -4 9q0 1 -1 2v1q-9 11 -23 14q-6 0 -11 -1q-1 0 -5 -1zM444.5 184q6.5 0 6.5 -6q0 -81 -57 -138t-138 -57t-138 57t-57 138q0 80 56.5 137t137.5 58l-18 17q-4 5 0.5 9.5t8.5 -0.5l29 -28
q1 -2 1 -4.5t-1 -4.5l-29 -28q-1 -2 -4 -2t-5 2q-4 5 0 9l18 17q-75 0 -128 -53.5t-53 -128.5t53.5 -128.5t128.5 -53.5t128.5 53.5t53.5 128.5q0 6 6.5 6z" />
    <glyph glyph-name="database-3" unicode="&#xf14b;" 
d="M147 209q-6 0 -10 4t-4 11v125q0 6 4 10t10 4h103q13 0 15 -12l-5 -1l5 1v-2v-79q6 -4 6 -10q0 -4 -3 -7l-6 -4l13 -15l2 -4q0 -3 -2 -5l-11 -9l-2 -1q-4 -6 -12 -6h-103zM263 259v1q0 2 -3 3l-47 28h-1h1l16 -53q0 -2 1.5 -2.5t3.5 1.5l9 7h1l17 -19h1l6 5l-17 19l5 5z
M141 349v-125q0 -7 6 -7h103q3 0 5 2l-12 14l-4 -3q-3 -2 -7 -2h-4q-5 2 -7 8l-4 14h-28q-5 0 -4 6q1 2 4 2h25l-6 22h-20q-4 0 -4 4t4 4h17q-2 7 2 10.5t10 -0.5l40 -23v74v1q-1 5 -7 5h-103q-6 0 -6 -6zM162 316q0 7 7 7t7 -7t-7 -7t-7 7zM162 284q0 7 7 7t7 -7t-7 -7
t-7 7zM188 312q-4 0 -4 4t4 4h46q4 0 4 -4t-4 -4h-46zM400 127q8 -11 4 -20q-7 -14 -27 -14h-171h-7h-171q-20 0 -26 14q-5 9 3 19l33 48q-4 6 -4 13v186q0 10 8.5 17.5t20.5 7.5h276q13 0 21.5 -7.5t8.5 -17.5v-186q0 -6 -3 -11zM45 373v-186q0 -4 3 -7q5 -6 15 -6h276
q8 0 13 3.5t5 9.5v186q0 5 -5 9t-13 4h-276q-7 0 -12.5 -4t-5.5 -9zM393 112q2 3 -2 7v1l-33 47q-8 -5 -19 -5h-276q-9 0 -16 4l-33 -47q-3 -4 -2 -7q3 -7 16 -7h171h178q13 0 16 7zM163 254q0 7 7 7t7 -7t-7 -7t-7 7z" />
    <glyph glyph-name="share-1" unicode="&#xf14c;" 
d="M392 81q8 -10 8 -14t-12 -14q-11 -10 -16 -10q-4 -1 -12 9q-5 6 -13 15.5t-11 13.5q-23 -21 -32 -15q-4 2 -6.5 6.5t-4 7t-3 9.5t-2.5 8v1q-29 -26 -57 -41q-1 -1 -5.5 -3.5t-6 -3t-5 -2.5t-4.5 -2t-4 -1t-5 -0.5t-5 0.5t-6 1t-6 3q-52 24 -95 76q-98 117 -81 224
q0 4 4 5q57 18 88 57q7 9 10 15q2 3 7 5.5t9.5 3.5t11.5 2.5t8 2.5q90 21 152 -11q3 -2 5 -4t4.5 -6t3.5 -6q26 -35 80 -60q6 -3 6 -34q0 -25 -5 -46q-12 -58 -48 -112l-1 -1h0.5h1.5q3 -2 10.5 -6t13.5 -7.5t9 -7.5q8 -5 6 -12t-5 -10.5t-10 -8.5q12 -14 23 -27zM211 61
q40 21 73 51q-11 35 -15 48q0 1 -3.5 10.5t-4 12.5t0.5 11q1 3 2.5 4.5t4 1.5h4t4.5 -1.5t4.5 -2t4.5 -2.5t4 -2q7 -4 21 -12.5t21 -12.5q0 1 1 1q32 49 43 95q19 73 1 82q-60 30 -82 69l-2 2q-3 2 -5 3q-20 9 -42 13q-42 6 -81 -2q-3 -1 -12.5 -2.5t-14.5 -2.5t-11 -4.5
t-9 -8.5q-33 -47 -88 -66q-21 -8 -6 -68q9 -38 26 -72q41 -78 99 -120q1 -1 6.5 -5t7.5 -5.5t7.5 -5t8.5 -5t8 -3.5t8.5 -2.5t8 0t7.5 1.5zM373 57q3 3 6 5l3 3l3 3q-3 3 -10 11q0 1 -20 24q-2 3 -2 6t2 5q2 1 5.5 3.5t5 4t3 3.5t0 4t-4.5 4q-34 20 -37 21q-21 13 -42 25
q-5 3 -9 5q3 -11 10.5 -35.5t11.5 -36.5q2 -6 5 -16t5 -16h2.5t5.5 3t7 5t6 5t4 3q3 3 7 1t4 -5q7 -8 20 -24q4 -5 9 -11z" />
    <glyph glyph-name="share-2" unicode="&#xf14d;" 
d="M401 264q7 -14 2.5 -29t-18.5 -23q-8 -5 -18 -5q-7 0 -13 3l-42 -74q5 -5 8 -11q8 -13 3.5 -28.5t-18.5 -23.5q-9 -4 -18 -4q-23 0 -34 20q-2 3 -3 8l-91 -1q-3 -18 -19 -27q-9 -4 -19 -4q-23 0 -34 20q-7 14 -3 29q4 11 12 18l-44 76q-7 -3 -14 -3q-22 0 -33 20
q-8 14 -3.5 29.5t18.5 23.5q9 4 18 4q7 0 14 -2l43 77q-6 5 -9 11q-8 14 -3.5 29.5t18.5 22.5q9 5 19 5q23 0 33 -20q3 -6 5 -12l88 1q3 18 20 27q8 5 18 5q23 0 34 -20q6 -12 3.5 -25.5t-12.5 -22.5l44 -76q7 2 14 2q23 0 34 -20zM272 410q-10 -5 -13 -15t2 -20
q8 -13 23 -13q6 0 12 3q9 5 12 15.5t-2 19.5q-7 13 -22 13q-7 0 -12 -3zM95 394q-3 -10 2 -20q7 -13 23 -13q6 0 12 3q9 5 12 15t-2 20q-7 13 -22 13q-7 0 -13 -3q-9 -5 -12 -15zM16 232q7 -14 22 -14q7 0 13 3q9 5 12 15.5t-2 19.5q-7 13 -23 13q-6 0 -12 -3q-9 -5 -12 -15
t2 -19zM133 81q10 5 13 15t-2 19q-8 14 -23 14q-6 0 -12 -3q-9 -5 -12 -15.5t2 -19.5q7 -14 22 -14q7 0 12 4zM299 85q9 5 12 15t-2 19q-7 14 -22 14q-7 0 -13 -3q-9 -5 -12 -15.5t2 -19.5q7 -13 23 -13q6 0 12 3zM301 143l42 73q-6 5 -10 12q-7 13 -3 29q3 11 12 18l-45 77
q-6 -3 -13 -3q-23 0 -34 20q-3 6 -4 12l-88 -1q-1 -2 -1 -4q-5 -16 -19 -23q-9 -5 -18 -5q-7 0 -13 3l-44 -77q6 -5 9 -12q8 -14 3 -29q-3 -11 -12 -19l44 -75q7 3 14 3q23 0 34 -21q3 -5 4 -12h89q1 22 20 32q9 5 19 5q7 0 14 -3zM391 238.5q3 10.5 -2 19.5q-7 13 -22 13
q-7 0 -12 -3q-10 -5 -13 -15t2 -19q8 -14 23 -14q6 0 12 3q9 5 12 15.5zM204 303q32 0 47 -28q11 -19 4.5 -40t-25.5 -32q-12 -6 -26 -6q-31 0 -46 28q-11 19 -4.5 40t25.5 32q12 6 25 6zM224 215q14 8 19 24t-3 30q-12 21 -36 21q-10 0 -19 -5q-15 -8 -19.5 -24t3.5 -30
q11 -21 35 -21q11 0 20 5z" />
    <glyph glyph-name="share-3" unicode="&#xf14e;" 
d="M136 277q-2 -7 -11 -7h-65h-48q-8 0 -11 7q-3 4 1 9l10 14q-1 2 -1 4v60q0 4 3.5 7.5t9.5 3.5h72h17q5 0 8.5 -3.5t3.5 -7.5v-60v-3l10 -15q4 -5 1 -9zM21 364v-60l-4 -3l4 3q1 -1 3 -1h89q2 0 2 1v60q0 1 -2 1h-17h-72q-3 0 -3 -1zM12 281h48h65h1l-8 12h-5h-89h-4
l-9 -12h1zM403 288q4 -5 1 -10q-2 -6 -11 -6h-55h-2h-56q-8 0 -11 6q-2 5 1 10l10 14q-1 2 -1 4v60q0 4 3.5 7.5t9.5 3.5h89q5 0 9 -3.5t4 -7.5v-60q0 -2 -1 -3zM289 366v-60q1 -1 3 -1h89q2 0 2 1v60q0 1 -2 1h-89q-3 0 -3 -1zM393 283h1l-8 12q-3 -1 -5 -1h-89q-2 0 -4 1
l-9 -12h1h56h2h55zM258 131l10 -15q4 -4 2 -9q-3 -7 -12 -7h-55h-2h-55q-9 0 -12 7q-2 5 2 9l9 14q-1 2 -1 4v60q0 5 4 8t9 3h89q5 0 9 -3t4 -8v-60q0 -1 -1 -3zM154 194v-60q1 -1 3 -1h89q2 0 2 1v60q0 1 -2 1h-89q-2 0 -3 -1zM258 111h2l-9 12h-5h-89h-4l-9 -12h2h55h57z
M136 181q-2 -2 -4 -2t-3 1q-42 30 -47 81q-1 5 4 5.5t6 -4.5q5 -46 43 -74q4 -3 1 -7zM313 266.5q5 -0.5 5 -5.5q-6 -51 -47 -81q-1 -1 -3 -1q-3 0 -4 2q-3 4 1 7q38 28 43 74q0 5 5 4.5zM140 362q-4 -3 -7 1.5t1 6.5q31 21 68 20q36 0 66 -20q4 -3 1 -7q-1 -2 -4 -2h-3
q-27 18 -60 19q-34 0 -62 -18z" />
    <glyph glyph-name="share-4" unicode="&#xf14f;" 
d="M405 193v-107q0 -17 -12 -29q-11 -9 -25 -9q-3 0 -6 1l-134 18q-18 2 -30 16t-12 32v54q-6 -1 -18 -4v-47q0 -18 -13 -29q-11 -9 -25 -9q-3 0 -6 1l-81 11q-18 3 -30 17t-12 31v55q0 17 12.5 30t30.5 13h61l-2 16l-60 -1h-1q-17 0 -29 12q-13 12 -13 30v57q0 17 12.5 31
t29.5 16l84 11q18 3 30.5 -8.5t12.5 -29.5v-50q3 -1 7 -2q1 -1 4.5 -3t4.5 -2v60q0 18 12.5 32t29.5 16l134 19q18 3 31 -8.5t13 -29.5v-106q0 -18 -13 -30.5t-30 -12.5h-112q2 -11 9 -17q1 0 3 -2h100q17 0 30 -12.5t13 -30.5zM228 411q-12 -1 -21.5 -12t-9.5 -24v-21
q11 12 28 17q5 2 7 -3q4 -17 -4.5 -31t-23.5 -22q1 0 14 6h1q25 8 47 -18q5 -6 -1 -9q-14 -7 -15 -27h112q13 0 22 9t9 22v106q0 13 -9 20.5t-21 5.5zM222 359q-14 -6 -19 -16q-5 -8 -5 -19q25 12 24 35zM182 304q-2 1 -6 2.5t-5.5 2.5t-5 1.5t-5.5 0.5h-5t-7 -2
q-25 -10 -31 -31q-11 -37 14 -80q18 -29 36 -22.5t24 6.5q4 -1 15 -4.5t16 -3.5q22 2 34 25q10 20 4 24q-10 8 -13 13q-9 13 -7.5 33.5t14.5 30.5q-15 16 -32 11q-27 -12 -40 -7zM43 265l61 1q1 11 5 20q5 13 17 23t25 12q3 1 6 1v51q0 12 -8.5 19.5t-20.5 6.5l-85 -12
q-12 -1 -21.5 -12t-9.5 -23v-57q0 -13 9 -21.5t22 -8.5zM147 98.5q9 7.5 9 19.5v45q-5 0 -9 2q-29 16 -40 61h-63q-13 0 -22 -9t-9 -22v-55q0 -13 9.5 -23.5t21.5 -12.5l82 -12q12 -1 21 6.5zM384.5 66.5q8.5 7.5 8.5 19.5v107q0 13 -9 22t-22 9h-89q0 -24 -15 -41
q-23 -26 -49 -17q-6 2 -11 3v-54q0 -13 9.5 -24t21.5 -12l135 -19q12 -1 20.5 6.5z" />
    <glyph glyph-name="share-5" unicode="&#xf150;" 
d="M398 333v-255q0 -20 -15 -30q-8 -5 -17 -5h-252q-13 0 -22.5 10t-9.5 25v70h-47q-14 0 -21 5q-7 3 -7 9v76q0 14 28 14h47v161q0 14 9.5 24.5t22.5 10.5h163zM378 334l-97 92v-74q0 -7 7 -13t16 -6h1zM35 161h252q10 0 14 3v72q-4 3 -14 3h-252q-10 0 -14 -3v-72
q4 -3 14 -3zM375 59q10 6 10 19v242h-80h-1q-14 0 -25 9q-11 10 -11 23v83h-154q-7 0 -13 -6.5t-6 -15.5v-161h192q28 0 28 -14v-76q0 -14 -28 -14h-192v-70q0 -9 6 -15.5t13 -6.5h252q5 0 9 3l4 -6z" />
    <glyph glyph-name="share-6" unicode="&#xf151;" 
d="M68.5 299q-26.5 0 -45 18.5t-18.5 45t18.5 45t45.5 18.5q19 0 35 -10.5t23 -28.5q23 8 48 8q70 0 114 -54h8q26 0 44.5 -18.5t18.5 -45t-18.5 -45t-45 -18.5t-45 18.5t-18.5 45.5q0 20 11.5 36.5t30.5 22.5q-40 46 -100 46q-23 0 -44 -8q1 -6 1 -12q0 -27 -18.5 -45.5
t-45 -18.5zM348 277.5q0 21.5 -15 36.5t-36 15t-36 -15t-15 -36.5t15 -36.5t36 -15t36 15t15 36.5zM68.5 414q-21.5 0 -36 -15t-14.5 -36t14.5 -36t36 -15t36.5 15t15 36t-15 36t-36.5 15zM405 156q0 -17 -11 -30.5t-28 -16.5v-38q0 -7 -7 -7h-125q-6 0 -6 7v41
q-25 -10 -53 -10q-65 0 -108 47h-61q-6 0 -6 7v79q0 18 12.5 30.5t30.5 12.5h52q4 0 9 -1q14 11 31 11q20 0 34 -14t14 -34q0 -19 -13.5 -32.5t-31.5 -14.5v-37q0 -7 -7 -7h-47q39 -35 91 -35q28 0 53 12v24q0 18 12.5 30.5t30.5 12.5h52h4q13 11 31 11q19 0 33 -14t14 -34z
M135 280q-16 0 -27.5 -11.5t-11.5 -28t11.5 -28t27.5 -11.5t27.5 11.5t11.5 28t-11.5 28t-27.5 11.5zM43 266q-13 0 -21.5 -9t-8.5 -22v-73h58h1h53v32q-16 3 -27 16t-11 30q0 14 8 26h-52zM271 180q-12 0 -21 -8.5t-9 -21.5v-73h112v32q-18 2 -30.5 15.5t-12.5 31.5
q0 13 7 24h-46zM357.5 117q16.5 0 28 11.5t11.5 28t-11.5 28t-28 11.5t-28 -11.5t-11.5 -28t11.5 -28t28 -11.5zM107 240q-3 3 0 6t6 0l16 -15l28 28q3 3 6 0t0 -6l-32 -31q-1 -2 -2.5 -2t-2.5 2zM364 156l16 -16q3 -3 0 -6q-2 -1 -3.5 -1t-2.5 1l-16 16l-16 -16
q-1 -1 -3 -1t-3 1q-3 3 0 6l16 16l-16 16q-3 3 0 6t6 0l16 -16l16 16q3 3 6 0t0 -6z" />
    <glyph glyph-name="instance-1" unicode="&#xf152;" 
d="M203 418q77 0 132 -55t55 -132.5t-55 -132.5t-132.5 -55t-132.5 55t-55 132q0 89 69 145q52 43 119 43zM203 56q72 0 123 51t51 123t-51 123t-123 51q-62 0 -110 -39q-65 -52 -65 -135q0 -72 51.5 -123t123.5 -51zM202.5 331q6.5 0 6.5 -6v-95q0 -6 -6.5 -6t-6.5 6v95
q0 6 6.5 6zM180 435q-6 0 -6 6.5t6 6.5h45q7 0 7 -6.5t-7 -6.5h-45zM349 373l-34 29q-5 4 -1 9.5t9 0.5l35 -29q5 -4 0 -9q-1 -2 -5 -2q-2 0 -4 1z" />
    <glyph glyph-name="instance-2" unicode="&#xf153;" 
d="M36 162q6 -29 24 -53q5 -6 -1 -10q-2 -2 -4 -2q-4 0 -6 3q-20 27 -27 59q-2 7 5 8.5t9 -5.5zM102 314q-4 0 -7 3q-3 6 3 10q30 16 64 20q7 1 7.5 -6t-6.5 -8q-31 -3 -58 -18q-1 -1 -3 -1zM163 51q7 -1 7 -8q-1 -6 -7 -6h-1q-34 3 -64 20q-6 3 -2.5 9.5t10.5 2.5
q26 -15 57 -18zM27 216q-7 1 -6 8q8 33 28 60q4 5 10 1t1 -10q-18 -24 -24 -54q-2 -5 -7 -5h-2zM331 348q66 0 113 -46t47 -110t-47 -110t-113 -46q-41 0 -77 19q-13 -7 -26 -11h-2q-5 0 -7 5q-2 6 5 8q8 3 16 7q-32 21 -50.5 55t-18.5 73t18.5 73t50.5 55q-8 4 -16 7
q-7 2 -5 8.5t9 4.5q13 -4 26 -11q36 19 77 19zM331 50q60 0 102.5 41.5t42.5 100.5t-42.5 100.5t-102.5 41.5t-103 -41.5t-43 -100.5t43 -100.5t103 -41.5zM401 244q5 5 10 0t0 -10l-95 -93q-2 -2 -5 -2t-5 2l-57 55q-5 5 0 10t10 0l52 -50z" />
    <glyph glyph-name="instance-3" unicode="&#xf154;" 
d="M343 307q26 0 44 -18.5t18 -44t-18 -44t-44 -18.5q-24 0 -42 16.5t-20 39.5h-160q32 -33 40 -63q8 -28 41 -38q12 14 29 14t28.5 -12t11.5 -28t-11.5 -27.5t-28 -11.5t-28 11.5t-11.5 27.5q0 8 3 15q-37 12 -46 46q-9 32 -46 66h-32q-2 -12 -12 -20.5t-23 -8.5
q-15 0 -25.5 10.5t-10.5 25t10.5 25t25.5 10.5q13 0 23 -8t12 -21h29q2 1 7.5 3.5t18 10t23.5 15.5t21 21t14 26q14 54 85 65q1 12 10 19.5t20 7.5q13 0 22 -9t9 -21.5t-9 -21.5t-22 -9q-10 0 -18 6t-11 16q-62 -10 -74 -56q-11 -42 -69 -73h154q2 24 20 40t42 16z
M299.5 407q-7.5 0 -13 -5.5t-5.5 -13.5v-1q1 -7 6 -12t12 -5q8 0 13.5 5.5t5.5 13t-5.5 13t-13 5.5zM231.5 138q-11.5 0 -19 -8t-7.5 -19t7.5 -19t19 -8t19 8t7.5 19t-7.5 19t-19 8zM343 195q21 0 35.5 14.5t14.5 35t-14.5 35t-35.5 14.5t-35.5 -14.5t-14.5 -35t14.5 -35
t35.5 -14.5zM320 244.5q0 22.5 22.5 22.5t22.5 -22.5t-22.5 -22.5t-22.5 22.5z" />
    <glyph glyph-name="instance-4" unicode="&#xf155;" 
d="M280 76.5q0 -18.5 -13.5 -32t-32 -13.5t-32 13.5t-13.5 32t13.5 32t32 13.5t32 -13.5t13.5 -32zM317 145q-6 0 -10 4q-30 30 -72.5 30t-72.5 -30q-10 -10 -20.5 0t0.5 21q38 38 92.5 38t92.5 -38q10 -11 0 -21q-4 -4 -10 -4zM385 213q-6 0 -10 4q-58 59 -140.5 59
t-140.5 -59q-11 -10 -21 0.5t0 20.5q67 67 161.5 67t161.5 -67q10 -10 0 -21q-5 -4 -11 -4zM454 282q-6 0 -10 4q-87 87 -209.5 87t-209.5 -87q-11 -10 -21 0.5t0 20.5q96 95 230.5 95t230.5 -95q10 -10 0 -21q-5 -4 -11 -4zM396.5 -18q-47.5 0 -81.5 34t-34 81.5t34 81.5
t81.5 34t81.5 -34t34 -81.5t-34 -81.5t-81.5 -34zM396.5 198q-41.5 0 -71.5 -29.5t-30 -71t30 -71.5t71.5 -30t71.5 30t30 71.5t-30 71t-71.5 29.5zM385 56q-3 0 -5 2l-41 41q-5 5 0 10t11 0l35 -36l64 64q5 5 10 0t0 -11l-69 -68q-2 -2 -5 -2z" />
    <glyph glyph-name="instance-5" unicode="&#xf156;" 
d="M384 197v-5q0 -46 -29 -81t-73 -44q-13 -3 -26 -3q-53 0 -90.5 37.5t-37.5 90.5q0 49 33 85.5t82 41.5q6 1 13 1h5q50 -2 85.5 -37.5t37.5 -85.5zM375 186.5v0.5h-124v124h-0.5t-2.5 -0.5t-3 -0.5h-3t-3 -1h-3t-3 -0.5t-3 -0.5q-2 -1 -3 -1t-2 -1h-3q-1 -1 -3 -1
q-1 -1 -3 -1l-2 -1t-3 -1q-1 -1 -3 -1l-2 -2q-1 0 -3 -1q-1 0 -2 -1t-3 -1q-1 -1 -2.5 -2t-2.5 -1l-2 -2t-2 -1q-1 -1 -2.5 -2t-2.5 -2t-2.5 -2l-1.5 -1q-2 -1 -3 -2l-2 -2l-2 -2l-2 -2l-2 -2t-1.5 -2t-1.5 -2l-2 -2q-1 -1 -2 -3t-2 -2l-1 -2l-2 -2q0 -1 -1 -3t-2 -2
q0 -1 -1.5 -3l-1.5 -2q0 -1 -1 -3l-1 -2q-1 -1 -2 -3l-1 -2q0 -1 -1 -3q0 -2 -0.5 -2.5t-1.5 -3.5v-2q-1 -1 -1 -3l-0.5 -1t-0.5 -2l-1 -3v-1v-1q0 -1 -1 -4v-1v-1q0 -1 -1 -4v-1v-1v-4l-0.5 -1l-0.5 -1v-6q0 -49 35 -84t84 -35h5h1q1 1 4 1h1h1h3q1 0 1.5 0.5t1 0.5h3.5
q2 1 2.5 1h3.5l1 0.5l1 0.5l3 1q2 0 3 1l2.5 0.5l2.5 0.5q1 1 3 1.5t2.5 1t3 1.5l2.5 1l2 1l3 1.5t2.5 1.5t2 1t2.5 1.5t3 1.5l2 2q2 1 2.5 1.5l1.5 1.5q2 1 2.5 1.5l2 2t2.5 2t2 2t2 2t2 1.5l2 2q1 1 2 2.5t2 2.5l2 2t1.5 2t1.5 2t2 3l1 2l2 2q0 1 1 2.5t1.5 2.5t1.5 2.5
t1.5 3t1 2.5t1 2.5t1 2.5l1.5 3q0 1 1 2q0 1 0.5 3t1.5 3v3q1 1 1 2t1 3v3q1 1 1 3v3q1 1 1 3v2.5t0.5 3t0.5 3zM261 197h114q-2 46 -35 79t-79 35v-114zM61.5 319q-8.5 0 -8.5 8v59q0 9 9 9h67q9 0 9 -8.5t-9 -8.5h-59v-51q0 -8 -8.5 -8zM450.5 65q8.5 0 8.5 -8v-59
q0 -9 -9 -9h-67q-9 0 -9 8.5t9 8.5h59v51q0 8 8.5 8zM121 6q8 0 8 -8.5t-8 -8.5h-59q-9 0 -9 9v67q0 9 8.5 9t8.5 -9v-59h51zM450 395q9 0 9 -9v-67q0 -9 -8.5 -9t-8.5 9v59h-51q-8 0 -8 8.5t8 8.5h59z" />
    <glyph glyph-name="instance-6" unicode="&#xf157;" 
d="M351 448q13 0 22 -9t9 -22v-292q0 -13 -9 -22t-22 -9h-25v-20q0 -13 -9.5 -22t-22.5 -9h-240q-13 0 -22 9t-9 22v292q0 13 9 22t22 9h26v20q0 13 9 22t22 9h240zM294 55q8 0 13.5 5.5t5.5 13.5v20h-202q-13 0 -22 9t-9 22v259h-26q-7 0 -12.5 -5.5t-5.5 -12.5v-292
q0 -8 5.5 -13.5t12.5 -5.5h240zM369 125v292q0 7 -5 12.5t-13 5.5h-240q-8 0 -13 -5.5t-5 -12.5v-292q0 -8 5 -13t13 -5h240q8 0 13 5t5 13zM160.5 365q9.5 0 16.5 -7t7 -16.5t-7 -16.5t-16.5 -7t-16 7t-6.5 16.5t6.5 16.5t16 7zM161 331q4 0 7 3t3 7.5t-3 7.5t-7 3t-7.5 -3
t-3.5 -7.5t3.5 -7.5t7.5 -3zM160.5 300q9.5 0 16.5 -6.5t7 -16t-7 -16.5t-16.5 -7t-16 7t-6.5 16.5t6.5 16t16 6.5zM161 267q4 0 7 3t3 7.5t-3 7.5t-7 3t-7.5 -3t-3.5 -7.5t3.5 -7.5t7.5 -3zM160.5 234q9.5 0 16.5 -6.5t7 -16t-7 -16.5t-16.5 -7t-16 7t-6.5 16.5t6.5 16
t16 6.5zM161 201q4 0 7 3t3 7.5t-3 7.5t-7 3t-7.5 -3t-3.5 -7.5t3.5 -7.5t7.5 -3zM312 348q7 0 7 -6.5t-7 -6.5h-107q-6 0 -6 6.5t6 6.5h107zM312 284q7 0 7 -6.5t-7 -6.5h-107q-6 0 -6 6.5t6 6.5h107zM312 218q7 0 7 -6.5t-7 -6.5h-107q-6 0 -6 6.5t6 6.5h107z" />
    <glyph glyph-name="loadbalance-1" unicode="&#xf158;" 
d="M209 362v-110h110q7 0 7 -6.5t-7 -6.5h-110v-110q0 -7 -6.5 -7t-6.5 7v110h-110q-6 0 -6 6.5t6 6.5h110v110q0 6 6.5 6t6.5 -6zM399 252q6 0 6 -6.5t-6 -6.5h-32q-3 -64 -48.5 -109.5t-109.5 -48.5v-32q0 -6 -6.5 -6t-6.5 6v32q-64 3 -109.5 48.5t-47.5 109.5h-33
q-6 0 -6 6.5t6 6.5h33q2 64 47.5 109.5t109.5 47.5v33q0 6 6.5 6t6.5 -6v-33q64 -2 109.5 -47.5t48.5 -109.5h32zM203 98q61 0 104 43t43 104t-43 104t-104 43t-104 -43t-43 -104t43 -104t104 -43z" />
    <glyph glyph-name="loadbalance-2" unicode="&#xf159;" 
d="M405 370q0 -3 -2 -5l-133 -133l90 -90q13 -13 13 -31.5t-13 -31.5t-31.5 -13t-31.5 13l-90 90l-120 -120q-2 -2 -4.5 -2t-4.5 2l-68 67q-2 2 -2 4.5t2 4.5l120 121l-76 77q-3 1 -4 3l-49 104q-2 4 1 7t7 1l104 -49q2 -1 3 -3l77 -77l134 133q4 5 9 0l67 -68q2 -1 2 -4z
M100 381l-80 38l38 -80zM65 329l74 -74l45 45l-74 74l-16 -17zM351 88q8 8 9 19.5t-5 20.5l-44 -44q8 -5 17 -5q13 0 23 9zM346 138l-85 85l-45 -45l85 -85zM365 345l25 25l-59 59l-308 -308l59 -59l25 25l-22 21l9 9l22 -21l32 32l-43 43l9 9l43 -43l33 33l-22 21l9 9
l22 -21l33 32l-44 44l9 9l44 -44l32 33l-21 22l9 9l21 -22l33 33l-43 43l9 9l43 -43l32 32l-21 22l9 9z" />
    <glyph glyph-name="loadbalance-3" unicode="&#xf15a;" 
d="M399 391q6 0 6 -6v-177q0 -7 -6 -7h-45v-44q0 -7 -6 -7h-45v-44q0 -7 -6 -7h-291q-6 0 -6 7v177q0 6 6 6h45v45q0 6 6 6h45v45q0 6 6 6h291zM13 112h278v45v0v120h-234v0h-44v-165zM303 163h39v45v0v120h-278v-39h233q6 0 6 -6v-120zM393 214v164h-278v-38h233q6 0 6 -6
v-120h39z" />
    <glyph glyph-name="loadbalance-4" unicode="&#xf15b;" 
d="M377 153q0 -7 -7 -7h-68v-68q0 -7 -7 -7h-78q-7 0 -7 7v68h-68q-7 0 -7 7v78q0 7 7 7h68v68q0 7 7 7h78q7 0 7 -7v-68h68q7 0 7 -7v-78zM364 159v66h-69q-6 0 -6 6v69h-66v-69q0 -6 -6 -6h-69v-66h69q6 0 6 -6v-69h66v69q0 6 6 6h69zM129 395q9 0 9 -8.5t-9 -8.5h-59v-51
q0 -8 -8.5 -8t-8.5 8v59q0 9 9 9h67zM450.5 65q8.5 0 8.5 -8v-59q0 -9 -9 -9h-67q-9 0 -9 8.5t9 8.5h59v51q0 8 8.5 8zM121 6q8 0 8 -8.5t-8 -8.5h-59q-9 0 -9 9v67q0 9 8.5 9t8.5 -9v-59h51zM450 395q9 0 9 -9v-67q0 -9 -8.5 -9t-8.5 9v59h-51q-8 0 -8 8.5t8 8.5h59z" />
    <glyph glyph-name="loadbalance-5" unicode="&#xf15c;" 
d="M335 308v-1l-1 -144q-1 -26 -18 -39q-13 -9 -14 -31v-44q0 -6 -6 -6l-133 1q-3 0 -5 2t-2 4v6q1 33 -4 39q-5 7 -25 16q-16 8 -25.5 14t-19.5 24t-11 43v85q0 6 6 7h11q24 0 33 -9q3 -3 5 -7v49q-19 8 -30 25t-11 38q0 28 20 48t48.5 20t48.5 -20t20 -48q0 -11 -3 -20
q3 -2 5 -4q8 -6 8 -16v-1l-1 -38v-1h2h1v1v27q0 9 7.5 16t18 7t17.5 -7q8 -7 8 -17v-1v-13q1 4 3 7q8 11 22 11q17 -1 23 -15q2 -3 2 -7v-1zM181 301v-1v17v0v-16zM98 380q0 -33 28 -49l1 54v1v2v0q0 2 1 4l2 4v1q1 1 2 3h1q1 2 3 3v1q2 1 3 2h1l4 2v0q3 1 5 1q3 1 5 1
q11 0 19 -7q8 -8 8 -18v0v-1v0v0v-21v-4v-10v-18h1v2v3v1v2v1v0q0 10 7 16.5t18 6.5q2 8 2 17q0 23 -16.5 39t-39.5 16t-39 -16t-16 -39zM322 308v1q0 1 -0.5 1t-0.5 1q-2 7 -11 7q-8 0 -11 -5q0 -1 -1 -1q-1 -2 -1 -4v-13v0q0 -5 -4 -8.5t-9 -3.5q-10 0 -12 10v2v31v1v1
q0 4 -3 6q-4 4 -9 4q-13 0 -13 -10v-27v-1q-1 -5 -5 -9t-9.5 -4t-9.5 4t-4 9v1v39q0 4 -3 7q-3 2 -6 3h-3q-12 0 -13 -9l1 -1v0v-7h-1v-5v-3v-25q0 -5 -4 -9t-9.5 -3.5t-9 4t-3.5 8.5v1v11v9v57v6v1v0v1q0 4 -3 7q-5 4 -11 4t-10 -3.5t-4 -8.5l-1 -57l-1 -117v-1
q0 -5 -3.5 -8.5t-8.5 -3.5t-8 3q-4 4 -4 9v1v50q0 3 -2 5q-5 5 -24 5h-4l-1 -78q1 -23 9.5 -37.5t16.5 -20t24 -12.5q22 -11 29 -20q8 -9 7 -47l120 -1l1 38q0 28 18 42q13 9 13 28l1 145v0z" />
    <glyph glyph-name="loadbalance-6" unicode="&#xf15d;" 
d="M405 138q1 -4 -1 -7q-3 -21 -29.5 -35.5t-62.5 -14.5t-62.5 14.5t-29.5 35.5q-2 3 -1 7l83 185h-199l83 -185q2 -4 0 -7h-1q-3 -21 -29.5 -35.5t-62.5 -14.5t-62 14.5t-29 35.5h-1q-2 3 0 7l86 195v0q1 0 1 1h1q0 1 1 1v1h1h1l1 1h103v66q0 7 6.5 7t6.5 -7v-66h103
q1 0 2 -1h1l1 -1l1 -1l1 -1v0zM17 142h153l-77 172zM312 314l-77 -172h154z" />
    <glyph glyph-name="object-storage-1" unicode="&#xf15e;" 
d="M218 360q17 0 29 -12t12 -28v-237q0 -16 -12 -28t-29 -12h-32q-17 0 -29 12t-12 28v237q0 16 12 28t29 12h32zM246 83v237q0 11 -8 19t-20 8h-32q-12 0 -20 -8t-8 -19v-237q0 -11 8 -19t20 -8h32q12 0 20 8t8 19zM354 448q17 0 29 -12t12 -29v-324q0 -16 -12 -28t-29 -12
h-32q-17 0 -29 12t-12 28v324q0 17 12 29t29 12h32zM382 83v324q0 12 -8 20t-20 8h-32q-12 0 -20 -8t-8 -20v-324q0 -11 8 -19t20 -8h32q12 0 20 8t8 19zM84 258q17 0 29 -12t12 -29v-134q0 -16 -12 -28t-29 -12h-33q-17 0 -29 12t-12 28v134q0 17 12 29t29 12h33zM112 83
v134q0 12 -8.5 20t-19.5 8h-33q-11 0 -19 -8t-8 -20v-134q0 -11 8 -19t19 -8h33q11 0 19.5 8t8.5 19z" />
    <glyph glyph-name="object-storage-2" unicode="&#xf15f;" 
d="M99.5 353q-13.5 0 -22.5 9.5t-9 22.5t9 22t22.5 9t22.5 -9t9 -22t-9 -22.5t-22.5 -9.5zM99.5 408q-9.5 0 -16 -7t-6.5 -16t6.5 -16t16 -7t16 7t6.5 16t-6.5 16t-16 7zM99.5 218q-13.5 0 -22.5 9t-9 22.5t9 22.5t22.5 9t22.5 -9t9 -22.5t-9 -22.5t-22.5 -9zM99.5 272
q-9.5 0 -16 -6.5t-6.5 -16t6.5 -16t16 -6.5t16 6.5t6.5 16t-6.5 16t-16 6.5zM99.5 76q-13.5 0 -22.5 9.5t-9 22.5t9 22t22.5 9t22.5 -9t9 -22t-9 -22.5t-22.5 -9.5zM99.5 130q-9.5 0 -16 -6.5t-6.5 -16t6.5 -16t16 -6.5t16 6.5t6.5 16t-6.5 16t-16 6.5zM385 448q6 0 9.5 -4
t3.5 -9v-98q0 -5 -3.5 -9t-9.5 -4h-365q-5 0 -9 4t-4 9v98q0 5 4 9t9 4h365zM385 338v97h-365v-97h365zM385 306q6 0 9.5 -3.5t3.5 -9.5v-97q0 -6 -3.5 -9.5t-9.5 -3.5h-365q-5 0 -9 3.5t-4 9.5v97q0 6 4 9.5t9 3.5h365zM385 196v97h-365v-97h365zM385 166q6 0 9.5 -3.5
t3.5 -9.5v-97q0 -6 -3.5 -9.5t-9.5 -3.5h-365q-5 0 -9 3.5t-4 9.5v97q0 6 4 9.5t9 3.5h365zM385 56v97h-365v-97h365z" />
    <glyph glyph-name="object-storage-3" unicode="&#xf160;" 
d="M371 107v-2v-7h-2q-8 -24 -54.5 -39.5t-111.5 -15.5q-68 0 -115 16t-53 41v1q-1 3 -1 6h1v271q0 5 2 10q4 26 51 43t116 17q71 0 119 -18.5t48 -46.5v-5v-271zM358 199v72q-19 -17 -60.5 -28t-94.5 -11t-94.5 11t-60.5 29v-73h1q0 -19 44.5 -35t109.5 -16t109.5 16
t44.5 35h1zM204 435q-65 0 -109.5 -16t-44.5 -35.5t44.5 -35.5t109.5 -16t109.5 16t44.5 35.5t-44.5 35.5t-109.5 16zM204 319q-54 0 -96 11t-60 29v-62h1q0 -19 44.5 -35.5t109.5 -16.5q43 0 79.5 8t55.5 20t19 24h1v60q-19 -18 -60.5 -28t-93.5 -10zM203 56q63 0 107.5 15
t47.5 34v69q-19 -18 -60.5 -28.5t-94.5 -10.5t-94.5 10.5t-60.5 28.5v-71q6 -19 49.5 -33t105.5 -14z" />
    <glyph glyph-name="subaccount-1" unicode="&#xf161;" 
d="M368 175v-70v0q0 -5 -5 -6h-2h-59v-50q0 -4 -4 -6h-2h-186q-2 0 -4 1.5t-2 4.5v50h-60q-6 0 -6 6v70q0 16 10.5 27t25.5 11h42h5q1 0 3 -1q17 16 41 16h76q25 0 43 -18q2 3 5 3h43q15 0 25.5 -11t10.5 -27zM355 175q0 10 -7 17.5t-16 7.5h-40q10 -15 10 -33v-56h53v64z
M165 215q-20 0 -34 -14t-14 -34v-60v-2v-2v-48h172v112q0 20 -14 34t-34 14h-76zM74 200q-10 0 -17 -7.5t-7 -17.5v-64h54v56q0 18 10 33h-40zM95 236q-24 0 -41 16.5t-17 40.5t17 41t41 17q8 0 17 -3q-1 5 -1 8q0 38 27 65t65 27t64.5 -27t26.5 -65v-7q7 1 13 1
q24 0 41 -16.5t17 -40.5t-17 -41t-41 -17q-19 0 -34.5 12t-20.5 31q-1 0 -1 1q-22 -14 -48 -14q-29 0 -52 16v-1q-5 -20 -20.5 -32t-35.5 -12zM307 338q-8 0 -15 -3q-8 -30 -32 -50q3 -1 4 -4q4 -14 16 -23.5t27 -9.5q19 0 32 13t13 31.5t-13 32t-32 13.5zM202.5 435
q-32.5 0 -55.5 -23t-23 -55.5t23 -55.5t55.5 -23t56 23t23.5 55.5t-23.5 55.5t-56 23zM95 338q-19 0 -32 -13t-13 -31.5t13 -32t32 -13.5q16 0 28 10t16 25q0 3 4 4q-22 19 -29 47q-2 0 -3 1q-8 3 -16 3z" />
    <glyph glyph-name="subaccount-2" unicode="&#xf162;" 
d="M285 158h-59q-27 0 -46 19t-19 46v34q-6 -23 -25 -38t-44 -15q-29 0 -50 20.5t-21 50t21 50t50 20.5q25 0 44 -15t25 -38v58q0 27 19 46t46 19h59q8 0 8 -8t-8 -8h-59q-21 0 -35 -14.5t-14 -34.5v-127q0 -20 14 -34.5t35 -14.5h59q8 0 8 -8t-8 -8zM92 220q23 0 39 16
t16 38.5t-16 39t-39 16.5t-39 -16.5t-16 -39t16 -38.5t39 -16zM420 287q29 0 50 -21t21 -50t-21 -50t-50 -21q-25 0 -44 15.5t-25 38.5v-58q0 -27 -19 -46t-46 -19h-59q-8 0 -8 8t8 8h59q21 0 35 14.5t14 34.5v127q0 20 -14 34.5t-35 14.5h-59q-8 0 -8 8t8 8h59q27 0 46 -19
t19 -46v-35q6 24 25 39t44 15zM420 161q23 0 39 16t16 39t-16 39t-39 16t-39 -16t-16 -39t16 -39t39 -16z" />
    <glyph glyph-name="subaccount-3" unicode="&#xf163;" 
d="M399 89q9 -9 1 -17l-30 -27q-3 -2 -7 -2h-3q-4 1 -7 4l-40 44l-23 -21q-5 -4 -11 -4h-3q-7 2 -10 10l-23 61q-6 -3 -13 -5q1 -1 1 -2l-1 -55q0 -5 -4 -9q-3 -2 -6 -2l-36 1q-4 0 -7 3q-4 3 -4 8l1 54q-21 4 -40 14l-1 -1l-40 -37q-3 -4 -7 -4h-2q-3 1 -6 3l-25 27
q-7 7 1 15l38 35q-16 22 -21 48q-2 -1 -3 -1h-55q-5 0 -9 4q-2 3 -2 6v37q0 4 3.5 7t7.5 3h55q2 0 4 -1q5 24 20 45l-38 38q-4 5 -3 10q1 3 3 6l26 25q8 7 15 -1l38 -39v-1h1q18 10 38 14v1v54q0 5 3 8t7 3h37q4 0 7 -3t3 -8l-1 -55v-2q25 -6 45 -21l39 37q8 8 15 0l25 -26
q3 -3 3 -8q-1 -4 -4 -7l-39 -37l-2 -2q8 -15 11 -31h2h54q5 0 8 -3t3 -7v-36q0 -4 -3 -7t-8 -3h-54h-1q-3 -12 -7 -23h-1l62 -32q8 -3 9 -10.5t-5 -13.5l-20 -17zM66 242v31h-51v-31h51zM325 273v-31h50v31h-50zM283 351l1 -1l11 -11l9 -11l37 35l-21 22zM185 435v-50l31 -1
v51h-31zM65 376l35 -36q9 11 20 19l2 2l-35 36zM122 151l-1 2q-12 8 -21 19l-35 -33l21 -23zM217 77l1 51h-31l-1 -51h31zM196 141q22 0 43 8l-14 37q-13 -5 -27 -5q-31 0 -53 21.5t-22 52.5t22 53t53 22t53 -22t22 -53q0 -13 -5 -25l35 -18q9 21 9 44q0 42 -27 74l-10 11
q-33 30 -79 30q-37 0 -67 -22l-22 -21q-26 -31 -26 -72q0 -38 24 -69q2 -1 4 -3l20 -21q30 -22 67 -22zM205 240q-4 9 1.5 13.5t13.5 0.5l36 -18q4 9 4 19q0 26 -18 44t-43.5 18t-44 -18t-18.5 -43.5t18.5 -43.5t43.5 -18q11 0 22 4zM363 56l26 24l-47 53l5 5v1l24 21
q1 1 1 1.5t-1 1.5l-153 77l60 -160l1.5 -1.5t1.5 1.5l27 24h1l6 5z" />
    <glyph glyph-name="subaccount-4" unicode="&#xf164;" 
d="M392 327h-85q-7 0 -11 5q-3 3 -3 7v57q0 5 4 8.5t10 3.5h85q5 0 9 -3.5t4 -8.5v-57q0 -5 -4 -8.5t-9 -3.5zM306 340h1h85v55h-85h-1v-55zM244 82h-85q-7 0 -11 5q-2 4 -2 7v57q0 5 4 8.5t9 3.5h85q6 0 10 -3.5t4 -8.5v-57q0 -5 -4 -8.5t-10 -3.5zM159 95h85h1v55l-1 1
h-85v-1v-55zM98 327h-84q-8 0 -12 6q-2 3 -2 7v56q0 5 4 9t10 4h84q6 0 10 -4t4 -9v-56q0 -6 -4 -9.5t-10 -3.5zM13 340h1h84h1v56h-1h-84h-1v-56zM277 182h-145q-11 0 -16 8q-3 5 -3 10v106q0 7 5.5 12t13.5 5h145q8 0 13.5 -5t5.5 -12v-106q0 -8 -5.5 -13t-13.5 -5z
M132 311q-6 0 -6 -5v-106v-2q2 -3 6 -3h145q6 0 6 5v106q0 5 -6 5h-145zM200.5 154q-6.5 0 -6.5 6v25q0 6 7 6q6 0 6 -7v-24q0 -6 -6.5 -6zM287 311q-3 0 -4 1q-5 5 -1 9l14 15q4 5 9 0.5t0 -9.5l-13 -14q-2 -2 -5 -2zM120 311q-3 0 -5 2l-13 14q-5 5 0 9t9 0l14 -14
q4 -5 0 -10q-2 -1 -5 -1z" />
    <glyph glyph-name="subaccount-5" unicode="&#xf165;" 
d="M140 130q5 0 5 -4t-5 -4h-27v-42q0 -4 -4.5 -4t-4.5 4v42h-28q-4 0 -4 4t4 4h28v19h-25q-4 0 -4 4t4 4h11l-16 32q-2 4 1.5 6t5.5 -2l19 -36h14l22 35q2 4 5.5 2t1.5 -6l-19 -31h13q4 0 4 -4t-4 -4h-24v-19h27zM338 198q5 0 8.5 -3.5t3.5 -9.5v-103q0 -5 -3.5 -8.5
t-8.5 -3.5h-79q-5 0 -9 3.5t-4 8.5v103q0 6 4 9.5t9 3.5h79zM342 82v103q0 5 -4 5h-79q-4 0 -4 -5v-103q0 -4 4 -4h79q4 0 4 4zM276 160q-4 0 -4 4t4 4h33q4 0 4 -4t-4 -4h-33zM311 150q4 0 4 -4.5t-4 -4.5h-36q-5 0 -5 4.5t5 4.5h36zM338 233q26 0 44 -18.5t18 -43.5v-122
v-2q-2 -4 -6 -4h-191h-2h-188h-1q-7 0 -7 6v122q0 26 18.5 44t44.5 18h79q18 0 33 -9.5t23 -25.5q17 35 56 35h79zM196 56v115q0 20 -14.5 35t-34.5 15h-79q-21 0 -35.5 -15t-14.5 -35v-115h178zM387 56v115q0 20 -14.5 34.5t-34.5 14.5h-79q-21 0 -35.5 -14.5t-14.5 -34.5
v-1v-114h178zM298 259q-39 0 -66.5 28t-27.5 66.5t27.5 66.5t66.5 28t66.5 -28t27.5 -66.5t-27.5 -66.5t-66.5 -28zM298 435q-34 0 -57.5 -24t-23.5 -57.5t23.5 -57.5t57.5 -24t57.5 24t23.5 57.5t-23.5 57.5t-57.5 24zM108 260q-39 0 -66.5 27.5t-27.5 66.5t27.5 66.5
t66.5 27.5t66.5 -27.5t27.5 -66.5t-27.5 -66.5t-66.5 -27.5zM108.5 435q-33.5 0 -57.5 -24t-24 -57.5t24 -57.5t57.5 -24t57.5 24t24 57.5t-24 57.5t-57.5 24z" />
    <glyph glyph-name="subaccount-6" unicode="&#xf166;" 
d="M371 365q49 0 84.5 -35t35.5 -84.5t-35.5 -84.5t-84.5 -35q-40 0 -72 24t-43 61q-11 -37 -43 -61t-72 -24q-49 0 -84.5 35t-35.5 84.5t35.5 84.5t84.5 35q40 0 72 -24t43 -62q11 38 43 62t72 24zM141 138q41 0 72 27.5t35 68.5l-152 -85v193l100 -59l-6 -11l-81 48v-150
l139 79q-1 43 -32 73.5t-75 30.5t-75.5 -31.5t-31.5 -76t31.5 -76t75.5 -31.5zM371 138q44 0 75.5 31.5t31.5 76t-31.5 76t-75.5 31.5q-41 0 -71.5 -27.5t-35.5 -67.5l150 84v-193l-100 57l7 11l80 -47v150l-137 -77q1 -44 32 -74.5t75 -30.5z" />
    <glyph glyph-name="network-1" unicode="&#xf167;" 
d="M487 174q4 -13 4 -26q0 -38 -24 -68q-13 -17 -32 -27q-25 -14 -54 -14h-250q-26 0 -49 11q-28 14 -44.5 40.5t-16.5 57.5q0 17 5 33q7 26 23.5 46.5t38.5 30.5q3 2 4 2q2 1 6 2q6 1 6 3q2 5 4 11q7 25 26 42.5t44 22.5q3 0 5 1q26 5 47 1l4 -1q28 -6 52 -31l1 -1l3 -3
q1 -2 2 -2q2 0 4 1q8 4 13 5q13 2 26 0q36 -6 56 -34q2 -2 4 -6q4 -7 8 -20l2 -3v-2h5q34 -7 56 -29q16 -19 21 -43zM456 89q20 26 20 59q0 11 -3 22q-5 21 -18 37q-18 18 -49 24l-6 2h-6l-1 5q-1 2 -2 5l-1 4q-4 11 -7 17l-4 4v1q-16 23 -46 28q-11 2 -21 0q-3 -1 -11 -4
q-5 -2 -8 -3l-3 -1l-3 1q-3 2 -8 7q-1 2 -2 3l-1 1q-21 22 -45 27h-4q-11 3 -17 3q-8 0 -25 -3q-1 -1 -3 -1h-1q-22 -4 -38 -19t-21 -36v-1q-3 -5 -4 -10q-3 -10 -17 -13q-2 -1 -3 -1l-4 -2q-20 -9 -34 -27t-20 -41q-4 -14 -4 -29q0 -27 14 -50t39 -35q19 -10 42 -10h250
q25 0 47 12q16 10 28 24zM257 179q11 -6 11 -19q0 -9 -6 -15.5t-15 -6.5t-15 6.5t-6 15.5q0 13 11 19v32q0 5 5 5h10q5 0 5 -5v-32zM247.5 247q32.5 0 55.5 -23t23 -56t-23 -56t-55.5 -23t-56 23t-23.5 56t23.5 56t56 23zM247.5 99q28.5 0 49 20t20.5 49t-20.5 49t-49 20
t-49 -20t-20.5 -49t20.5 -49t49 -20z" />
    <glyph glyph-name="network-2" unicode="&#xf168;" 
d="M181 71l16 16l9 -9l-16 -17q-23 -22 -55.5 -22t-55.5 22l-9 10q-23 23 -23 55.5t23 55.5l104 104q23 23 55.5 23t55.5 -23l10 -9q22 -23 22 -55.5t-22 -55.5l-41 -41l-9 9l40 41q20 19 20 46t-20 47l-9 9q-19 19 -46 19t-47 -19l-104 -104q-19 -20 -19 -47t19 -46l9 -9
q20 -20 47 -20t46 20zM442 313q23 -23 23 -55.5t-23 -55.5l-104 -104q-23 -23 -55.5 -23t-55.5 23l-10 9q-22 23 -22 55.5t22 55.5l38 38l9 -10l-37 -37q-20 -19 -20 -46t20 -47l9 -9q19 -19 46.5 -19t46.5 19l104 104q19 20 19 47t-19 46l-9 9q-20 20 -47 20t-46 -20
l-16 -16l-10 9l17 17q23 22 55.5 22t55.5 -22z" />
    <glyph glyph-name="network-3" unicode="&#xf169;" 
d="M424 425q9 0 15.5 -6.5t6.5 -15.5v-194h-380v194q0 9 6.5 15.5t15.5 6.5h336zM249 390v-77q0 -6 6.5 -6t6.5 6v77q0 6 -6.5 6t-6.5 -6zM178 236v77q0 6 -6.5 6t-6.5 -6v-77q0 -6 6.5 -6t6.5 6zM194 336q7 0 7 6.5t-7 6.5h-16v41q0 6 -6.5 6t-6.5 -6v-41h-16q-7 0 -7 -6.5
t7 -6.5h22h1h22zM278 277q6 0 6 6.5t-6 6.5h-45q-7 0 -7 -6.5t7 -6.5h16v-41q0 -6 6.5 -6t6.5 6v41h16zM346 236v77q0 6 -6.5 6t-6.5 -6v-77q0 -6 6.5 -6t6.5 6zM362 336q6 0 6 6.5t-6 6.5h-16v41q0 6 -6.5 6t-6.5 -6v-41h-17q-6 0 -6 -6.5t6 -6.5h46zM66 172v28h380v-28
q0 -9 -6.5 -15.5t-15.5 -6.5h-336q-9 0 -15.5 6.5t-6.5 15.5zM237 137h39l40 -52q3 -3 3 -7q0 -5 -3.5 -8.5t-7.5 -3.5h-103q-4 0 -7.5 3.5t-3.5 8.5q0 4 3 7zM424 437q14 0 24.5 -10t10.5 -24v-231q0 -14 -10.5 -24.5t-24.5 -10.5h-132l34 -44q6 -7 6 -15q0 -10 -7 -17.5
t-17 -7.5h-103q-10 0 -17 7.5t-7 17.5q0 8 6 15l34 44h-133q-14 0 -24.5 10.5t-10.5 24.5v231q0 14 10.5 24t24.5 10h336zM316 85l-40 52h-39l-40 -52q-3 -3 -3 -7q0 -5 3.5 -8.5t7.5 -3.5h103q4 0 7.5 3.5t3.5 8.5q0 4 -3 7zM446 172v28h-380v-28q0 -9 6.5 -15.5t15.5 -6.5
h336q9 0 15.5 6.5t6.5 15.5zM446 209v194q0 9 -6.5 15.5t-15.5 6.5h-336q-9 0 -15.5 -6.5t-6.5 -15.5v-194h380zM255.5 307q-6.5 0 -6.5 6v77q0 6 6.5 6t6.5 -6v-77q0 -6 -6.5 -6zM171.5 319q6.5 0 6.5 -6v-77q0 -6 -6.5 -6t-6.5 6v77q0 6 6.5 6zM339.5 319q6.5 0 6.5 -6
v-77q0 -6 -6.5 -6t-6.5 6v77q0 6 6.5 6zM194 349q7 0 7 -6.5t-7 -6.5h-22h-1h-22q-7 0 -7 6.5t7 6.5h16v41q0 6 6.5 6t6.5 -6v-41h16zM362 349q6 0 6 -6.5t-6 -6.5h-46q-6 0 -6 6.5t6 6.5h17v41q0 6 6.5 6t6.5 -6v-41h16zM278 290q6 0 6 -6.5t-6 -6.5h-16v-41q0 -6 -6.5 -6
t-6.5 6v41h-16q-7 0 -7 6.5t7 6.5h45z" />
    <glyph glyph-name="network-4" unicode="&#xf16a;" 
d="M77.5 361q14.5 0 24.5 -10t10 -24.5t-10 -24.5t-24.5 -10t-24.5 10t-10 24.5t10 24.5t24.5 10zM77 300q11 0 19 8t8 19t-8 18.5t-19 7.5t-18.5 -7.5t-7.5 -18.5t7.5 -19t18.5 -8zM77.5 254q14.5 0 24.5 -10.5t10 -24.5t-10 -24.5t-24.5 -10.5t-24.5 10.5t-10 24.5
t10 24.5t24.5 10.5zM77 192q11 0 19 8t8 19t-8 19t-19 8t-18.5 -8t-7.5 -19t7.5 -19t18.5 -8zM188.5 292q-14.5 0 -24.5 10t-10 24.5t10 24.5t24.5 10t24.5 -10t10 -24.5t-10 -24.5t-24.5 -10zM189 353q-11 0 -19 -7.5t-8 -18.5t8 -19t19 -8t19 8t8 19t-8 18.5t-19 7.5z
M300.5 292q-14.5 0 -24.5 10t-10 24.5t10 24.5t24.5 10t24.5 -10t10 -24.5t-10 -24.5t-24.5 -10zM300 353q-11 0 -19 -7.5t-8 -18.5t8 -19t19 -8t19 8t8 19t-8 18.5t-19 7.5zM77.5 142q14.5 0 24.5 -10t10 -24.5t-10 -24.5t-24.5 -10t-24.5 10t-10 24.5t10 24.5t24.5 10z
M77 81q11 0 19 8t8 19t-8 18.5t-19 7.5t-18.5 -7.5t-7.5 -18.5t7.5 -19t18.5 -8zM468 99q1 -1 1 -3.5t-1 -4.5l-68 -67q-2 -1 -4.5 -1t-3.5 1t-3 4q-19 19 -25 20q-7 1 -21 -3q-17 -5 -27 -5q-24 0 -49 23l-44 44q0 -14 -10 -24t-24 -10q-15 0 -25 10t-10 24.5t10 24.5
t25 10q22 0 31 -20q14 16 26 16h2l-49 49q-3 -3 -10 -3q-15 0 -25 10.5t-10 24.5t10 24.5t25 10.5q13 0 23 -9.5t11 -22.5l10 -10q-1 3 -1 6q0 8 6 13.5t14 5.5t13 -6h1l2 -3q-6 13 4 23q6 5 14 5t13 -5l1 -1l3 -4q-2 11 6 19q9 9 21 3q3 -1 5 -3h1v-1l82 -83q15 -15 13 -32
q-1 -12 12 -24zM189 81q11 0 19 8t8 19t-8 18.5t-19 7.5t-19 -7.5t-8 -18.5t8 -19t19 -8zM396 37l59 58l-21 21q-16 17 -14 34q1 11 -10 22l-83 84v1h-1l-1 1q-4 2 -8 -2q-3 -3 -2 -7v-1t2 -3l7 -7q1 -1 1 -2q1 -3 1 -6q1 -4 -2 -7q-6 -6 -13 -1l-2 2l-17 18h-1
q-5 6 -10.5 0.5t-0.5 -10.5l15 -16h1q7 -9 -0.5 -16.5t-15.5 0.5h-1l-22 22v1q-6 5 -11 0q-2 -2 -2 -5t2 -5v-1q1 0 1 -1l22 -22q4 -3 3.5 -7.5t-3.5 -7.5q-7 -8 -15 0h-1q-43 45 -47 49h-1q-6 6 -12 0t0 -13l99 -101h1q7 -7 0 -14.5t-14 0.5h-1l-29 29q-1 2 -3 2
q-6 0 -15 -10l44 -45q21 -19 41 -19q8 0 23 4q14 4 21 4h6q9 -2 30 -23z" />
    <glyph glyph-name="network-5" unicode="&#xf16b;" 
d="M185.5 97.5q6.5 0.5 6.5 -6.5v-102q0 -6 -6.5 -6t-6.5 6v102q0 6 6.5 6.5zM318.5 235q6.5 0 6.5 -6v-240q0 -6 -6.5 -6t-6.5 6v240q0 6 6.5 6zM452 128q6 0 6 -6.5t-6 -6.5h-95q-7 0 -7 6.5t7 6.5h95zM288 128q6 0 6 -6.5t-6 -6.5h-56q-1 -1 -2 -1q-6 0 -7 5v2v1
q-1 15 -12 25.5t-26 10.5t-26.5 -11t-11.5 -26q0 -7 -6 -7q-2 0 -3 1h-2h-76q-7 0 -7 6.5t7 6.5h75q2 17 14.5 29t29.5 14v58v56v110q0 6 6 6t6 -6l1 -110v-56v-58q17 -2 29 -14t14 -29h53zM60 252q-6 0 -6 6.5t6 6.5h93q7 0 7 -6.5t-7 -6.5h-93zM363 252q-7 0 -7 6
q0 16 -11 27t-26.5 11t-27 -11t-11.5 -27q0 -6 -6 -6h-1h-53q-6 0 -6 6.5t6 6.5h48q2 17 14.5 29t29.5 15v86q0 6 6.5 6t6.5 -6v-86q17 -3 29 -15t15 -29h83q7 0 7 -6.5t-7 -6.5h-86h-2h-1z" />
    <glyph glyph-name="network-6" unicode="&#xf16c;" 
d="M256.5 155.5q5.5 -3.5 1.5 -9.5l-19 -29q-12 -19 -41 -19h-41v-55q0 -6 -6 -6h-95q-6 0 -6 6v95q0 7 6 7h95q6 0 6 -7v-28h41q22 0 30 14l20 29q3 6 8.5 2.5zM145 50v82h-82v-82h82zM465 278v-1v-1v-0.5v-1t-1 -1.5l-1 -1v0l-42 -41q-2 -3 -5 -3q-4 0 -5.5 4t1.5 7l31 31
h-81q-17 0 -27 -9q0 -3 -1 -6l-18 -26q-3 -4 -7 -4q-3 0 -5 1q-7 5 -2 12l18 27q2 3 5 3q14 15 37 15h81l-31 31q-3 3 -1.5 7t5.5 4q3 0 5 -2l42 -42v0h1v-1l1 -1v-1zM465 104v-1v-1v-0.5v-1t-1 -1.5l-1 -1v0l-42 -41q-2 -3 -5 -3v0q-4 1 -5.5 4.5t1.5 6.5l32 33h-82
q-29 0 -40 19l-94 139v1q-8 13 -30 13h-41q-7 -16 -21 -26t-32 -10q-24 0 -40.5 16.5t-16.5 40t16.5 40t40 16.5t40 -16.5t16.5 -40.5v-7h38q29 0 41 -19l11 -17v-1l83 -122q7 -14 29 -14h80l-30 30q-3 3 -1.5 7t5.5 4q3 0 5 -2l42 -42v0l0.5 -0.5l0.5 -0.5l1 -1v-1z
M103.5 246q18.5 0 31 13t12.5 31t-12.5 31t-31 13t-31 -13t-12.5 -31t12.5 -31t31 -13z" />
    <glyph glyph-name="volume-1" unicode="&#xf16d;" 
d="M404 311q61 -61 61 -148t-61 -148q-1 -1 -3 -1q-2 -2 -4 -2q-3 0 -5 2l-35 35q-5 5 -0.5 9.5t9.5 -0.5l31 -31q53 54 55 130h-45q-6 0 -6 6.5t6 6.5h45q-3 74 -53 128l-32 -32q-2 -2 -4.5 -2t-4.5 2q-5 5 0 9l31 32q-48 45 -113 51q-6 1 -15 1v-45q0 -6 -6 -6t-6 6v45
q-74 -3 -128 -54l32 -31q4 -5 0 -9q-2 -2 -4.5 -2t-4.5 2l-32 31q-50 -54 -52 -128h45q6 0 6 -6t-6 -6h-45q3 -75 54 -129l32 32q4 4 9 -0.5t0 -8.5l-36 -36q-1 -2 -4 -2q-2 0 -3 1q-3 1 -4 2q-61 61 -61 148t61 148q34 33 78 49t91 11q74 -8 127 -60zM319 235q4 4 8.5 -0.5
t0.5 -9.5l-67 -67q-2 -1 -5 -1t-5 1q-4 5 0 9z" />
    <glyph glyph-name="volume-2" unicode="&#xf16e;" 
d="M451 129q9 -9 7.5 -18.5t-9.5 -15.5q-94 -68 -112 -79q-12 -7 -25 -7q-15 0 -25 7l-4 3t-11 7.5t-15.5 10t-17.5 11.5t-17.5 11.5t-15.5 10.5t-11 7q-11 7 -22 7q-14 0 -23 -7l-31 -18q-5 -2 -8 2l-56 67q-2 2 -1.5 5t3.5 5q30 16 81 39q26 11 50 11q29 0 45 -12
q59 -41 100 -71q11 -9 12 -19v-1q61 43 64 44v1h1q13 8 23 8q11 0 18 -9zM442 106q4 2 4 6t-4 9q-4 4 -9 4q-7 0 -17 -6q-1 -1 -2 -1q-4 -3 -81 -56l-1 -1q-9 -4 -19 -4q-9 0 -15 4l-78 51q-4 3 -3 7q2 8 9 8q3 0 7 -3q4 -4 71 -46q6 -3 12 -3q7 0 11.5 4t4.5 7q0 4 -7 8
q-28 21 -99 72q-14 10 -38 10q-21 0 -45 -11q-39 -17 -73 -35l47 -57l26 15q12 9 30 9q15 0 28 -9q18 -11 93 -61q7 -6 18 -6q9 0 18 6q15 9 112 79zM153 319q-2 2 -3 5q-2 7 6.5 14.5t23.5 13.5t24.5 9t17.5 5q35 9 59 9q22 0 25 -10q0 -3 -1 -6l5 -19q3 -9 -17 -21.5
t-47 -19.5q-26 -8 -54 -8q-22 0 -29 4q-4 2 -5 6zM242 311q44 13 55 28l-2 9q-5 -3 -11 -6q-20 -10 -51 -18q-35 -10 -59 -10q-3 0 -6 1l2 -9q3 -3 27 -2.5t45 7.5zM225 354q-46 -13 -61 -26v0q4 -1 10 -1q23 0 56 9q47 12 61 25v1q-3 1 -10 1q-22 0 -56 -9zM240 280
q3 5 12 5q22 0 68 -27q8 -4 16.5 -9.5t21 -15t18.5 -19t3 -15.5q-2 -3 -5 -4l-10 -17q-2 -5 -12 -5q-25 0 -63 21q-22 12 -40 29.5t-21 26.5q-1 4 1 7l10 17q-1 3 1 6zM295 205q41 -22 59 -19l5 8q-24 5 -61 26q-37 22 -52 41l-5 -8q4 -8 19.5 -22.5t34.5 -25.5zM366 206
q-10 17 -52 41.5t-61 25.5v-1q10 -16 52 -40.5t61 -25.5v0z" />
    <glyph glyph-name="volume-3" unicode="&#xf16f;" 
d="M186 150q-12 19 14 57q1 1 3.5 1t3.5 -1q24 -37 13 -57q-6 -10 -16.5 -10t-17.5 10zM212 154q8 14 -9 42q-17 -29 -10 -41q4 -6 11 -6q5 0 8 5zM299 428q12 0 20 -8.5t8 -19.5v-80q0 -27 -36.5 -52.5t-72.5 -34.5q35 -9 72 -35t37 -52v-55v-4q-1 -10 -9.5 -17t-18.5 -7
h-192q-11 0 -19 7t-10 17v4v55q0 26 37 52t72 35q-35 9 -72 34.5t-37 52.5v80q0 11 8.5 19.5t20.5 8.5h192zM314 342zM107 415q-7 0 -11.5 -4.5t-4.5 -10.5v-38q72 28 116 -16q23 -23 69 -17q31 4 38 13v58q0 6 -4.5 10.5t-10.5 4.5h-192zM314 146q0 23 -43 50t-68.5 27
t-68.5 -27t-43 -50v-55v-1v-1q2 -14 16 -14h192q13 0 15 14v1v1v55zM202.5 244q25.5 0 68.5 26.5t43 49.5v7q-2 -1 -5 -2q-22 -9 -49 -9q-40 0 -62 21q-17 17 -41.5 20.5t-39 0t-26.5 -9.5v-28q0 -23 43 -49.5t68.5 -26.5zM375 313q30 -34 30 -76q0 -35 -23 -66q-2 -3 -5 -3
q-2 0 -4 1q-5 4 -1 9q20 28 20 59t-20 59l-11 -31q-1 -2 -4 -4h-3t-4 1q-3 3 -2 7l16 42v1l1 1v1h1v0l1 1h1h0.5t1 0.5l0.5 0.5l1 -1h1v0h1l1 -1h1v-1zM46 222.5q6 -2.5 4 -8.5l-15 -41q-1 -3 -4 -4v-1h-1v0h-2v0h-2q-2 1 -3 3q-23 31 -23 66q0 42 31 76q4 5 8.5 1t0.5 -9
q-27 -31 -27 -68q0 -25 14 -49l11 31q2 6 8 3.5z" />
    <glyph glyph-name="volume-4" unicode="&#xf170;" 
d="M181 329q-5 0 -5 5.5t5 5.5h217q10 0 17 -7t7 -17v-118q0 -6 -5.5 -6t-5.5 6v118q0 5 -4 9t-9 4h-217zM393.5 165q5.5 0 5.5 -6v-14q0 -6 -5.5 -6t-5.5 6v14q0 6 5.5 6zM159 306q-6 0 -6 5.5t6 5.5h216q10 0 17 -7t7 -17v-97q0 -6 -5.5 -6t-5.5 6v97q0 5 -3.5 9t-9.5 4
h-216zM118 190q-6 0 -6 6v75q0 10 7 17t17 7h217q10 0 17 -7t7 -17v-77q0 -5 -5.5 -5t-5.5 5v77q0 5 -4 8.5t-9 3.5h-217q-5 0 -8.5 -3.5t-3.5 -8.5v-75q0 -6 -6 -6zM371.5 163q5.5 0 5.5 -6v-35q0 -10 -7 -17t-17 -7h-82l20 -26q4 -5 4 -11q0 -7 -5 -12t-12 -5h-66
q-7 0 -12 5t-5 12q0 6 4 11l20 26h-83q-10 0 -17 7t-7 17v37q0 6 6 6t6 -6v-37q0 -5 3.5 -8.5t8.5 -3.5h217q5 0 9 3.5t4 8.5v35q0 6 5.5 6zM282 65l-25 33h-24l-25 -33q-2 -2 -2 -4q0 -6 6 -6h66q6 0 6 6q0 2 -2 4zM210 153l14 14q-81 1 -137 8q-66 7 -66 21q0 13 51 20
q6 1 6.5 -4.5t-4.5 -6.5q-30 -4 -39 -9q31 -15 189 -17l-14 13q-4 4 0 8t8 0l23 -23l2 -2l-1 2q0 -1 1 -2q1 -4 -1 -6l-24 -24q-2 -2 -4 -2t-4 2q-4 4 0 8zM428 218q63 -8 63 -22t-67 -21q-61 -7 -151 -8q-5 0 -5 5.5t5 5.5q83 1 137.5 6.5t66.5 11.5q-11 6 -50 10
q-6 1 -5 6.5t6 5.5z" />
    <glyph glyph-name="volume-5" unicode="&#xf171;" 
d="M398 171q8 -9 7 -18.5t-9 -15.5q-95 -69 -113 -79q-12 -7 -24 -7q-15 0 -25 7l-8 5.5t-19.5 13t-24 16t-24 16t-17.5 10.5q-10 7 -21 7q-14 0 -24 -7l-31 -18q-4 -3 -8 2l-56 67q-1 2 -0.5 5t2.5 5q34 18 81 39q27 11 51 11q29 0 45 -12q58 -41 99 -72q12 -8 12 -18v-1
q62 43 65 44v1q13 8 24 8t18 -9zM389 148q3 2 3.5 6t-3.5 9q-4 4 -9 4q-7 0 -17 -6q-1 -1 -2 -1q-4 -3 -82 -57q-9 -5 -19 -5q-9 0 -15 5l-79 51q-4 3 -2 7q1 7 8 7q4 0 7 -2q5 -4 71 -46q6 -4 13 -4q6 0 11 4t4 8q0 3 -6 8q-27 20 -100 72q-13 9 -37 9q-22 0 -45 -10
q-39 -18 -74 -35l48 -57l25 15q13 8 31 8q15 0 28 -8q16 -10 93 -61q7 -6 17 -6t19 6q18 11 112 79zM249 209q-48 0 -82 34t-34 81.5t34 81.5t82 34t82 -34t34 -81.5t-34 -81.5t-82 -34zM151 292q16 -45 60 -63q-8 22 -12 53q-27 3 -48 10zM149 343l-1 -1q-2 -9 -2 -17.5
t2 -18.5h1q20 -7 48 -11q-1 14 -1 29t1 30q-28 -4 -48 -11zM350 342q-1 0 -1 1q-20 7 -48 11q1 -15 1 -30t-1 -29q28 4 48 11h1q2 10 2 18.5t-2 17.5zM289 324.5q0 15.5 -1 30.5q-19 2 -39 2t-39 -2q-1 -15 -1 -30.5t1 -31.5q19 -1 39 -1t39 1q1 16 1 31.5zM226 224
q12 -2 23 -2t23 2v1q10 22 14 55q-18 -1 -37 -1t-37 1q4 -33 14 -55v-1zM287 229q45 18 60 63q-21 -7 -48 -10q-3 -31 -12 -53zM347 357q-15 45 -60 63q9 -23 12 -53q27 -3 48 -10zM272 425q-12 2 -23 2t-23 -2v-1q-10 -22 -14 -56q18 2 37 2t37 -2q-4 34 -14 56v1zM211 420
q-44 -18 -60 -63q21 7 48 10q4 30 12 53z" />
    <glyph glyph-name="volume-6" unicode="&#xf172;" 
d="M102 174q-8 0 -13.5 5.5t-5.5 13.5t5.5 14t13.5 6t13.5 -6t5.5 -14t-5.5 -13.5t-13.5 -5.5zM102 205q-5 0 -8 -3.5t-3 -8t3 -8t8 -3.5t8 3.5t3 8t-3 8t-8 3.5zM102 117q-8 0 -13.5 5.5t-5.5 14t5.5 14t13.5 5.5t13.5 -5.5t5.5 -14t-5.5 -14t-13.5 -5.5zM102 148
q-5 0 -8 -3.5t-3 -8t3 -8t8 -3.5t8 3.5t3 8t-3 8t-8 3.5zM308 261q2 -2 2 -5v-183q0 -13 -9 -21.5t-21 -8.5h-219q-13 0 -21.5 8.5t-8.5 21.5v272q0 12 8.5 21t21.5 9h130q3 0 5 -2zM198 353v-73q0 -7 5 -12t12 -5h73zM297 73v177h-82q-13 0 -21.5 9t-8.5 21v82h-124
q-7 0 -12 -5t-5 -12v-272q0 -7 5 -12t12 -5h219q7 0 12 5t5 12zM131 190.5q0 8.5 9 8.5h103q8 0 8 -8.5t-8 -8.5h-103q-9 0 -9 8.5zM243 140q8 0 8 -9t-8 -9h-103q-9 0 -9 9t9 9h103zM263 442l112 -110v-182q0 -13 -9 -21.5t-22 -8.5h-9v13h9q8 0 13 5t5 12v173h-85
q-12 0 -21 9t-9 21v82h-121q-8 0 -13 -5t-5 -12v-17h-13v17q0 12 9 21t22 9h127h2h1l2 -2zM277 336h73l-90 90v-73q0 -7 5 -12t12 -5z" />
    <glyph glyph-name="volume-7" unicode="&#xf173;" 
d="M402 226q3 -7 3 -14v-93q0 -15 -10.5 -26t-26.5 -11h-331q-15 0 -26 11t-11 26v93q0 7 3 13v0v1l70 159q9 24 34 24h191q25 0 35 -24l68 -157q1 0 1 -1v-1zM85 380l-58 -133q5 2 10 2h331q5 0 11 -2l-58 133q-7 16 -23 16h-191q-16 0 -22 -16zM392 119v93q0 4 -1 8h-1
l-1 3q-6 13 -21 13h-331q-16 0 -22 -15v-1q-2 -4 -2 -8v-93q0 -10 7 -17t17 -7h259v80l-40 -40q-2 -2 -4.5 -2t-4.5 2q-5 5 0 10l51 51q4 4 9 0l51 -51q4 -5 0 -10q-2 -2 -5 -2t-4 2l-40 40v-80h59q10 0 17 7t7 17z" />
    <glyph glyph-name="volume-8" unicode="&#xf174;" 
d="M402 256q3 -2 3 -5.5t-3 -5.5l-73 -42v-49q0 -3 -3 -5l-122 -71h-1h-1.5h-1.5h-1h-1l-122 71q-3 2 -3 5v52l-70 41q-3 1 -3 5t3 6l64 36l-57 33q-3 2 -3 5.5t3 5.5l122 70q3 2 6 0l63 -36l70 40q3 2 6 0l122 -70q3 -2 3 -5.5t-3 -5.5l-63 -37zM310 294l-82 47l-27 16
l-109 -63l109 -63l65 38zM274 399l-60 -34l52 -31l57 -32l60 34zM135 395l-109 -63l53 -30l58 33l51 30zM79 287l-60 -35l109 -63l60 35zM86 199v-41l109 -63v118l-64 -37q-1 -1 -3 -1t-3 1zM317 158v37l-37 -20q-1 -1 -3 -1t-3 1l-66 38v-118zM317 211l69 39l-63 37
l-109 -63l63 -37l40 23v1z" />
  </font>
</defs>
</svg>
