<?xml version="1.0" encoding="iso-8859-1"?>
<!-- Generator: Adobe Illustrator 16.0.4, SVG Export Plug-In . SVG Version: 6.00 Build 0)  -->
<!DOCTYPE svg PUBLIC "-//W3C//DTD SVG 1.1//EN" "http://www.w3.org/Graphics/SVG/1.1/DTD/svg11.dtd">
<svg version="1.1" id="&#x56FE;&#x5C42;_1" xmlns="http://www.w3.org/2000/svg" xmlns:xlink="http://www.w3.org/1999/xlink" x="0px"
	 y="0px" width="32px" height="32px" viewBox="0 0 32 32" style="enable-background:new 0 0 32 32;" xml:space="preserve">
<rect x="11.099" y="23" style="fill:#444444;" width="8.379" height="2"/>
<rect x="11.099" y="17" style="fill:#444444;" width="8.379" height="2"/>
<rect x="7.099" y="17" style="fill:#444444;" width="2" height="2"/>
<rect x="7.099" y="23" style="fill:#444444;" width="2" height="2"/>
<rect x="7.099" y="11" style="fill:#444444;" width="2" height="2"/>
<rect x="11.099" y="11" style="fill:#444444;" width="8.379" height="2"/>
<path style="fill:#444444;" d="M23.307,5h-1.438h-0.078h-1.438h-0.5H3.099c-1.102,0-2,0.898-2,2v19.625v0.125V30
	c0,1.104,0.898,2,2,2h16.754h0.5h1.438h0.078h1.438c1.104,0,2-0.896,2-2v-3.25v-0.125V7C25.307,5.898,24.41,5,23.307,5z
	 M23.306,26.625L23.306,26.625L23.305,30h-1.436h-0.078h-1.438h-0.5H3.099v-3.25v-0.125V7h16.754h0.5h1.438h0.078h1.438
	L23.306,26.625z"/>
<path style="fill:#444444;" d="M31.104,21.625V2c0-1.102-0.896-2-2-2h-1.438h-0.078H26.15h-0.5H8.895
	C8.839,0,8.787,0.012,8.733,0.017V2h0.162H25.65h0.5h1.438h0.078h1.438l-0.001,19.625h-0.001V25h2.002v-3.25V21.625z"/>
</svg>
