<?xml version="1.0" encoding="UTF-8"?>
<svg width="15px" height="18px" viewBox="0 0 15 18" version="1.1" xmlns="http://www.w3.org/2000/svg" xmlns:xlink="http://www.w3.org/1999/xlink">
    <!-- Generator: Sketch 44.1 (41455) - http://www.bohemiancoding.com/sketch -->
    <title>流量流出</title>
    <desc>Created with Sketch.</desc>
    <defs></defs>
    <g id="Welcome" stroke="none" stroke-width="1" fill="none" fill-rule="evenodd">
        <g id="正常-copy-3" transform="translate(-1021.000000, -359.000000)">
            <g id="9" transform="translate(992.000000, 343.000000)">
                <g id="流量流出" transform="translate(30.000000, 17.000000)">
                    <path d="M6.5,16 C2.91014913,16 0,13.0898509 0,9.5 C0,7.10676608 2.16666667,3.94009942 6.5,0 C10.8333333,3.94009942 13,7.10676608 13,9.5 C13,13.0898509 10.0898509,16 6.5,16 Z" id="Combined-Shape-Copy" stroke="#6C777A"></path>
                    <path d="M7.53800607,8.0677164 L6.9752263,7.52349154 L6.9752263,11.9165078 C6.9752263,12.1804936 6.75190562,12.3964327 6.47899688,12.3964327 C6.2060106,12.3964327 5.9827093,12.1804936 5.9827093,11.9165078 L5.9827093,7.5244476 L5.41998769,8.06867246 C5.22605539,8.25480482 4.91309625,8.25480482 4.71924149,8.06867246 C4.52666617,7.88113412 4.52666617,7.57854952 4.71924149,7.39099244 L6.12263367,6.033814 L6.12664646,6.02714031 C6.16807322,5.98899152 6.21616859,5.95809755 6.26856753,5.93590189 C6.27552692,5.93305245 6.27946217,5.92725983 6.28644094,5.92441039 C6.3470981,5.89974021 6.41221391,5.8869927 6.47800822,5.8869927 L6.47998554,5.8869927 C6.5457023,5.88740512 6.61075996,5.90017138 6.6715722,5.92441039 C6.67845405,5.92725983 6.68246684,5.93305245 6.68944561,5.93590189 C6.74184455,5.95809755 6.78984299,5.98899152 6.8313473,6.02714031 L6.83528255,6.033814 L8.23875227,7.39099244 C8.41035251,7.58126774 8.4002139,7.86765551 8.21543154,8.04604563 C8.03066857,8.224492 7.73459418,8.23394015 7.53800607,8.0677164" id="Fill-4" fill="#6C777A"></path>
                </g>
            </g>
        </g>
    </g>
</svg>