<?xml version="1.0" encoding="utf-8"?>
<!-- Generator: Adobe Illustrator 16.0.4, SVG Export Plug-In . SVG Version: 6.00 Build 0)  -->
<!DOCTYPE svg PUBLIC "-//W3C//DTD SVG 1.1//EN" "http://www.w3.org/Graphics/SVG/1.1/DTD/svg11.dtd">
<svg version="1.1" id="图层_1" xmlns="http://www.w3.org/2000/svg" xmlns:xlink="http://www.w3.org/1999/xlink" x="0px" y="0px"
	 width="32px" height="32px" viewBox="0 0 32 32" enable-background="new 0 0 32 32" xml:space="preserve">
<g>
	<path fill="#444444" d="M17.428,27.419c0,0.005-0.225,0.009-0.5,0.009h-0.477c-0.275,0-0.611,0-0.746,0c-0.135,0-0.467,0-0.739,0
		c-0.271,0-0.493-0.004-0.493-0.009s-0.225-0.009-0.5-0.009H8.117c-0.275,0-0.5-0.003-0.5-0.006c0-0.004-0.225-0.006-0.5-0.006
		H4.675c-0.275,0-0.5,0.225-0.5,0.5v1.004c0,0.274,0.225,0.5,0.5,0.5H14.96c0.275,0,0.61,0,0.745,0c0.135,0,0.47,0,0.746,0h10.824
		c0.274,0,0.5-0.226,0.5-0.5v-0.976c0-0.274-0.226-0.5-0.5-0.5h-6.39c-0.274,0-0.5-0.004-0.5-0.009s-0.225-0.009-0.5-0.009h-1.958
		C17.652,27.41,17.428,27.414,17.428,27.419z"/>
</g>
<path fill="#3D3D3D" d="M19.645,14.391l0.746,0.767c0.143,0.143,0.355,0.143,0.498,0l5.776-5.566v4.586
	c0,0.195,0.161,0.356,0.356,0.356h1.066c0.195,0,0.355-0.161,0.355-0.356V6.711c0-0.195-0.16-0.355-0.355-0.355H20.62
	c-0.195,0-0.354,0.16-0.354,0.355v1.067c0,0.196,0.159,0.355,0.354,0.355h4.996l-5.956,5.742
	C19.52,14.017,19.501,14.249,19.645,14.391z"/>
<g>
	<path fill="#3D3D3D" d="M9.942,14.193l0.807,0.839c0.568,0.594,1.468,0.977,2.29,0.977h1.845v7.093H2V16.01h1.306
		c0.76,0,1.622-0.323,2.194-0.824l1.133-0.992L9.942,14.193 M10.295,12.193H6.381c-0.275,0-0.669,0.148-0.876,0.329L4.182,13.68
		c-0.207,0.181-0.602,0.329-0.876,0.329H0.5c-0.275,0-0.5,0.225-0.5,0.5v10.093c0,0.274,0.225,0.5,0.5,0.5h15.884
		c0.276,0,0.5-0.226,0.5-0.5V14.51c0-0.275-0.225-0.5-0.5-0.5H13.04c-0.275,0-0.656-0.162-0.846-0.361l-1.052-1.095
		C10.951,12.355,10.57,12.193,10.295,12.193L10.295,12.193z"/>
</g>
<path fill="#444444" d="M31.963,21.152V3.156c0-0.196-0.16-0.356-0.355-0.356H0.318c-0.196,0-0.356,0.16-0.356,0.356v9.293H1.74
	V4.578h28.443V17.27h-0.026l0.002,0.275l0.024,3.616v0.673v0.141h0.006l0.01,1.273l-11.383,0.064v1.776l12.817-0.073
	c0.195-0.002,0.354-0.164,0.354-0.359L31.963,21.152z"/>
</svg>
