<?xml version="1.0" encoding="iso-8859-1"?>
<!-- Generator: Adobe Illustrator 16.0.4, SVG Export Plug-In . SVG Version: 6.00 Build 0)  -->
<!DOCTYPE svg PUBLIC "-//W3C//DTD SVG 1.1//EN" "http://www.w3.org/Graphics/SVG/1.1/DTD/svg11.dtd">
<svg version="1.1" id="&#x56FE;&#x5C42;_1" xmlns="http://www.w3.org/2000/svg" xmlns:xlink="http://www.w3.org/1999/xlink" x="0px"
	 y="0px" width="32px" height="32px" viewBox="0 0 32 32" style="enable-background:new 0 0 32 32;" xml:space="preserve">
<path style="fill:#454444;" d="M7.247,23.576l5.656-5.656l1.414,1.414L8.661,24.99L7.247,23.576z M24.241,24.989l-5.656-5.656
	l1.414-1.414l5.656,5.656L24.241,24.989z M15.283,14.12V6.121h2.004v7.999H15.283z"/>
<path style="fill:#454444;" d="M15.996,31.938c-8.029,0-14.562-6.533-14.562-14.562c0-8.03,6.531-14.563,14.562-14.563
	c8.035,0,14.566,6.533,14.566,14.563C30.562,25.405,24.029,31.938,15.996,31.938z M15.996,4.633
	c-7.024,0-12.742,5.716-12.742,12.743c0,7.024,5.716,12.742,12.742,12.742c7.031,0,12.746-5.718,12.746-12.742
	C28.742,10.349,23.024,4.633,15.996,4.633z"/>
<g>
	<circle style="fill:#FFFFFF;" cx="26.737" cy="25.64" r="5"/>
	<path style="fill:#FFFFFF;" d="M26.737,22.64c1.654,0,3,1.346,3,3s-1.346,3-3,3s-3-1.346-3-3S25.083,22.64,26.737,22.64
		 M26.737,20.64c-2.764,0-5,2.238-5,5s2.236,5,5,5c2.762,0,5-2.238,5-5S29.499,20.64,26.737,20.64L26.737,20.64z"/>
</g>
<g>
	<circle style="fill:#FFFFFF;" cx="5.237" cy="25.702" r="5"/>
	<path style="fill:#FFFFFF;" d="M5.237,22.702c1.654,0,3,1.346,3,3s-1.346,3-3,3c-1.654,0-3-1.346-3-3S3.583,22.702,5.237,22.702
		 M5.237,20.702c-2.763,0-5,2.238-5,5s2.237,5,5,5c2.761,0,5-2.238,5-5S7.999,20.702,5.237,20.702L5.237,20.702z"/>
</g>
<g>
	<circle style="fill:#FFFFFF;" cx="5.237" cy="25.702" r="4"/>
	<path style="fill:#454444;" d="M5.237,23.702c1.103,0,2,0.897,2,2s-0.897,2-2,2s-2-0.897-2-2S4.134,23.702,5.237,23.702
		 M5.237,21.702c-2.209,0-4,1.789-4,4c0,2.209,1.791,4,4,4c2.209,0,4-1.791,4-4C9.237,23.491,7.446,21.702,5.237,21.702
		L5.237,21.702z"/>
</g>
<g>
	<path style="fill:#FFFFFF;" d="M19.148,0.004c1.244,0.91,2.052,2.38,2.052,4.038c0,2.761-2.238,5-5.003,5c-2.763,0-5-2.239-5-5
		c0-1.661,0.81-3.133,2.056-4.042"/>
	<path style="fill:#FFFFFF;" d="M16.197,1.042c1.658,0,3.003,1.346,3.003,3s-1.346,3-3.003,3c-1.654,0-3-1.346-3-3
		S14.542,1.042,16.197,1.042 M13.252,0c-1.247,0.909-2.056,2.381-2.056,4.042c0,2.761,2.237,5,5,5c2.765,0,5.003-2.239,5.003-5
		c0-1.658-0.808-3.128-2.052-4.038"/>
</g>
<g>
	<circle style="fill:#FFFFFF;" cx="26.753" cy="25.591" r="4"/>
	<path style="fill:#454444;" d="M26.753,23.591c1.103,0,2,0.897,2,2s-0.897,2-2,2s-2-0.897-2-2S25.65,23.591,26.753,23.591
		 M26.753,21.591c-2.21,0-4,1.79-4,4s1.79,4,4,4c2.209,0,4-1.79,4-4S28.962,21.591,26.753,21.591L26.753,21.591z"/>
</g>
<g>
	<circle style="fill:#FFFFFF;" cx="16.198" cy="4.042" r="4.002"/>
	<path style="fill:#454444;" d="M16.197,2.042c1.106,0,2.003,0.897,2.003,2s-0.897,2-2.003,2c-1.103,0-2-0.897-2-2
		S15.094,2.042,16.197,2.042 M16.197,0.042c-2.21,0-4,1.791-4,4s1.79,4,4,4c2.212,0,4.003-1.791,4.003-4S18.409,0.042,16.197,0.042
		L16.197,0.042z"/>
</g>
<g>
	<circle style="fill:#FFFFFF;" cx="16.238" cy="17.296" r="5.094"/>
	<path style="fill:#454444;" d="M16.236,14.206c1.708,0,3.095,1.386,3.095,3.09s-1.387,3.091-3.095,3.091
		c-1.705,0-3.092-1.387-3.092-3.091S14.531,14.206,16.236,14.206 M16.236,12.206c-2.815,0-5.092,2.279-5.092,5.09
		c0,2.812,2.277,5.091,5.092,5.091c2.815,0,5.095-2.278,5.095-5.091C21.331,14.484,19.052,12.206,16.236,12.206L16.236,12.206z"/>
</g>
<g>
	<path style="fill:#454444;" d="M15.743,18.927l-0.007-0.006l-0.005,0.006l-1.636-1.582l0.331-0.32l1.311,1.268l2.274-2.193
		l0.331,0.319L15.743,18.927z"/>
	<path style="fill:#454444;" d="M18.012,16.099l0.331,0.319l-2.6,2.508l-0.007-0.006l-0.005,0.006l-1.636-1.582l0.331-0.32
		l1.311,1.268L18.012,16.099 M18.012,15.751l-0.174,0.168l-2.101,2.025l-1.137-1.1l-0.174-0.168l-0.174,0.168l-0.331,0.32
		l-0.186,0.18l0.186,0.18l1.636,1.582l0.194,0.188l0.127-0.153l0.039-0.034l2.6-2.508l0.187-0.18l-0.187-0.18l-0.331-0.32
		L18.012,15.751L18.012,15.751z"/>
</g>
</svg>
