<?xml version="1.0" encoding="utf-8"?>
<!-- Generator: Adobe Illustrator 17.0.1, SVG Export Plug-In . SVG Version: 6.00 Build 0)  -->
<!DOCTYPE svg PUBLIC "-//W3C//DTD SVG 1.1//EN" "http://www.w3.org/Graphics/SVG/1.1/DTD/svg11.dtd">
<svg version="1.1" id="图层_1" xmlns="http://www.w3.org/2000/svg" xmlns:xlink="http://www.w3.org/1999/xlink" x="0px" y="0px"
	 width="120px" height="120px" viewBox="0 0 120 120" enable-background="new 0 0 120 120" xml:space="preserve">
<g>
	<path fill="#040000" d="M42.434,88.475c-5.984,5.984-15.723,5.984-21.708,0l-2.23-2.23C15.597,83.345,14,79.49,14,75.39
		c0-4.1,1.597-7.954,4.496-10.854l24.476-24.476c2.899-2.899,6.754-4.496,10.854-4.496s7.954,1.597,10.854,4.496l2.231,2.23
		c2.899,2.899,4.495,6.754,4.495,10.854S69.81,61.1,66.91,63.999l-9.492,9.491l2.121,2.121l9.492-9.491
		c7.154-7.154,7.154-18.796,0-25.951l-2.231-2.23c-3.466-3.466-8.073-5.375-12.975-5.375s-9.509,1.909-12.975,5.375L16.375,62.415
		c-7.155,7.154-7.155,18.796,0,25.95l2.23,2.23c3.577,3.577,8.276,5.366,12.975,5.366c4.699,0,9.398-1.789,12.975-5.366l3.801-3.802
		l-2.121-2.121L42.434,88.475z"/>
	<path fill="#040000" d="M103.625,31.635l-2.23-2.23c-7.154-7.154-18.795-7.154-25.949,0l-3.849,3.849l2.121,2.121l3.849-3.849
		c2.899-2.899,6.754-4.496,10.854-4.496s7.954,1.597,10.854,4.496l2.23,2.23C104.403,36.655,106,40.51,106,44.61
		s-1.597,7.955-4.496,10.854L77.028,79.939c-5.984,5.984-15.722,5.984-21.708,0l-2.23-2.23c-2.899-2.899-4.496-6.754-4.496-10.854
		c0-4.1,1.597-7.954,4.496-10.854l8.763-8.763l-2.121-2.121l-8.763,8.763c-7.155,7.154-7.155,18.796,0,25.95l2.23,2.23
		c3.577,3.577,8.276,5.366,12.975,5.366s9.397-1.789,12.975-5.366l24.476-24.476C107.091,54.12,109,49.511,109,44.61
		S107.091,35.1,103.625,31.635z"/>
</g>
</svg>
