<?xml version="1.0" encoding="utf-8"?>
<!-- Generator: Adobe Illustrator 17.0.1, SVG Export Plug-In . SVG Version: 6.00 Build 0)  -->
<!DOCTYPE svg PUBLIC "-//W3C//DTD SVG 1.1//EN" "http://www.w3.org/Graphics/SVG/1.1/DTD/svg11.dtd">
<svg version="1.1" id="图层_1" xmlns="http://www.w3.org/2000/svg" xmlns:xlink="http://www.w3.org/1999/xlink" x="0px" y="0px"
	 width="120px" height="120px" viewBox="0 0 120 120" enable-background="new 0 0 120 120" xml:space="preserve">
<g>
	<path fill="#040000" d="M114.249,64.24c-0.894-3.666-2.611-7.138-4.966-10.044l-0.119-0.132
		c-4.347-4.331-10.163-6.014-13.178-6.619c-0.349-0.085-0.706-0.155-1.071-0.212c-0.034-0.102-0.067-0.203-0.1-0.305l-0.259-0.792
		c-0.486-1.464-1.079-3.153-1.977-4.678c-0.318-0.542-0.652-1.026-1.013-1.475c-3.007-4.24-7.653-7.048-13.084-7.912
		c-2.54-0.404-3.703-0.384-5.965,0.057c-1.172,0.227-2.216,0.679-3.224,1.114c-0.296,0.129-0.586,0.252-0.867,0.367
		c-0.156-0.161-0.32-0.345-0.494-0.542c-0.191-0.215-0.384-0.433-0.564-0.617c-0.081-0.088-0.164-0.171-0.248-0.254l-0.108-0.107
		c-3.653-3.803-7.882-6.286-12.231-7.181l-0.911-0.191c-3.334-0.703-4.865-0.998-11.047,0.185c-0.337,0.065-0.673,0.147-1.044,0.242
		C33.8,26.501,27.365,32.42,25.342,40.262c-0.367,0.931-0.657,1.783-0.882,2.599c-0.14,0.357-0.421,0.497-1.517,0.779
		c-0.434,0.113-0.886,0.229-1.297,0.401c-0.307,0.117-0.611,0.252-1.003,0.428c-7.005,3.11-12.54,10.041-14.462,18.099
		C5.397,65.074,5,67.672,5,70.294c0,9.787,5.461,18.576,14.253,22.941c3.554,1.766,7.372,2.661,11.349,2.661h58.798
		c4.38,0,8.718-1.144,12.542-3.307c2.888-1.63,5.404-3.778,7.478-6.381C113.071,81.624,115,76.123,115,70.296
		C115,68.324,114.748,66.288,114.249,64.24z M106.787,84.108c-1.802,2.264-3.989,4.13-6.499,5.546
		c-3.324,1.877-7.089,2.87-10.888,2.87H30.602c-3.452,0-6.766-0.778-9.849-2.31c-7.636-3.787-12.38-11.421-12.38-19.918
		c0-2.298,0.351-4.576,1.043-6.771l0.032-0.119c1.67-7.079,6.483-13.154,12.56-15.85l0.104-0.047
		c0.241-0.109,0.485-0.218,0.775-0.329c0.239-0.098,0.56-0.182,0.9-0.27c1.237-0.321,3.108-0.805,3.867-2.969l0.036-0.113
		c0.204-0.747,0.474-1.538,0.823-2.417l0.068-0.211c1.67-6.619,7.093-11.617,13.818-12.736l0.185-0.041
		c0.287-0.073,0.575-0.148,0.867-0.203c2.78-0.534,4.46-0.75,5.801-0.75c1.308,0,2.29,0.207,3.916,0.556l0.927,0.195
		c3.677,0.758,7.302,2.906,10.487,6.221l0.336,0.339c0.168,0.173,0.328,0.353,0.486,0.533c0.501,0.565,1.068,1.203,1.861,1.669
		l0.653,0.381l0.719-0.234c0.694-0.223,1.354-0.509,1.99-0.785c0.882-0.381,1.715-0.742,2.53-0.9
		c1.869-0.362,2.676-0.372,4.794-0.036c4.545,0.721,8.412,3.057,10.89,6.572l0.072,0.094c0.267,0.328,0.516,0.688,0.758,1.1
		c0.731,1.24,1.251,2.73,1.682,4.032l0.256,0.777c0.146,0.448,0.292,0.895,0.443,1.34l0.36,0.961l1.392,0.211
		c0.505,0.054,0.959,0.132,1.453,0.249c2.692,0.541,7.747,1.992,11.462,5.653c2.014,2.505,3.484,5.491,4.253,8.647
		c0.437,1.785,0.657,3.554,0.657,5.256C111.632,75.353,109.956,80.129,106.787,84.108z"/>
	<path fill="#040000" d="M60.178,63.067v-7.548c0-0.569-0.461-1.029-1.029-1.029h-2.527c-0.569,0-1.029,0.461-1.029,1.029v7.548
		c-1.62,0.834-2.729,2.517-2.729,4.464c0,2.773,2.249,5.022,5.022,5.022s5.022-2.249,5.022-5.022
		C62.906,65.585,61.797,63.901,60.178,63.067z"/>
	<path fill="#040000" d="M57.967,47.12c-10.194,0-18.487,8.294-18.487,18.486c0,10.194,8.294,18.487,18.487,18.487
		S76.454,75.8,76.454,65.606C76.455,55.414,68.161,47.12,57.967,47.12z M57.967,81.846c-8.954,0-16.239-7.283-16.239-16.239
		c0-8.953,7.284-16.238,16.239-16.238s16.239,7.284,16.239,16.238C74.206,74.561,66.921,81.846,57.967,81.846z"/>
</g>
</svg>
