<?xml version="1.0" encoding="utf-8"?>
<!-- Generator: Adobe Illustrator 17.0.1, SVG Export Plug-In . SVG Version: 6.00 Build 0)  -->
<!DOCTYPE svg PUBLIC "-//W3C//DTD SVG 1.1//EN" "http://www.w3.org/Graphics/SVG/1.1/DTD/svg11.dtd">
<svg version="1.1" id="图层_1" xmlns="http://www.w3.org/2000/svg" xmlns:xlink="http://www.w3.org/1999/xlink" x="0px" y="0px"
	 width="120px" height="120px" viewBox="0 0 120 120" enable-background="new 0 0 120 120" xml:space="preserve">
<g>
	<path fill="#040000" d="M60.098,68.644c-0.688-0.461-1.621-0.276-2.081,0.411l-4.623,6.895l-0.062,0.1
		c-0.017,0.03-1.78,3.059-6.988,3.059h-9.466v-6.496c0-0.828-0.671-1.5-1.5-1.5H13.185c-0.829,0-1.5,0.672-1.5,1.5v22.193
		c0,0.828,0.671,1.5,1.5,1.5h22.193c0.829,0,1.5-0.672,1.5-1.5V82.107h9.466c6.556,0,9.199-3.925,9.562-4.519l4.602-6.864
		C60.97,70.037,60.786,69.105,60.098,68.644z M33.878,93.305H14.685V74.111h19.193V93.305z"/>
	<path fill="#040000" d="M108.944,39.834c-0.018-0.092-0.019-0.187-0.055-0.275c-0.038-0.093-0.111-0.17-0.168-0.255
		c-0.053-0.079-0.086-0.167-0.156-0.237c-0.002-0.002-0.004-0.002-0.006-0.004s-0.002-0.004-0.004-0.006l-9.869-9.776
		c-0.276-0.307-0.677-0.5-1.121-0.5c-0.608,0-1.156,0.367-1.387,0.929c-0.231,0.563-0.101,1.208,0.331,1.636l7.345,7.276H84.938
		c-4.822,0-7.521,2.119-8.759,3.479c-0.495,0.103-0.952,0.39-1.255,0.843l-4.205,6.271c-0.615,0.917-0.37,2.16,0.547,2.775
		c0.343,0.229,0.729,0.339,1.112,0.339c0.645,0,1.277-0.311,1.663-0.886l4.205-6.271c0.257-0.383,0.356-0.822,0.326-1.25
		c0.904-0.912,2.857-2.3,6.366-2.3h18.917l-7.345,7.276c-0.432,0.428-0.563,1.074-0.331,1.636c0.23,0.562,0.778,0.929,1.387,0.929
		h0.014c0.463,0,0.875-0.21,1.148-0.54l9.828-9.736c0.002-0.002,0.002-0.004,0.004-0.006s0.004-0.002,0.006-0.004
		c0.069-0.07,0.103-0.158,0.156-0.237c0.057-0.085,0.13-0.162,0.168-0.255c0.036-0.088,0.036-0.183,0.055-0.275
		c0.019-0.097,0.055-0.19,0.055-0.288S108.963,39.93,108.944,39.834z"/>
	<path fill="#040000" d="M108.943,80.605c-0.018-0.09-0.019-0.182-0.054-0.269c-0.039-0.095-0.113-0.174-0.172-0.261
		c-0.052-0.077-0.084-0.163-0.152-0.231c-0.002-0.002-0.004-0.002-0.006-0.004s-0.002-0.004-0.004-0.006l-9.869-9.777
		c-0.276-0.307-0.677-0.499-1.121-0.499c-0.608,0-1.156,0.367-1.387,0.93c-0.231,0.562-0.101,1.208,0.331,1.636l7.05,6.984H84.938
		c-5.113,0-6.923-2.948-6.988-3.059l-19.25-28.714c-0.024-0.046-0.044-0.094-0.074-0.138l-2.72-4.056
		c-0.363-0.595-3.006-4.519-9.562-4.519H37.45c0.067-0.54,0.113-1.087,0.113-1.645c0-7.324-5.958-13.282-13.282-13.282
		C16.958,23.695,11,29.653,11,36.977c0,7.323,5.958,13.281,13.281,13.281c5.688,0,10.538-3.6,12.427-8.636h9.636
		c5.113,0,6.922,2.948,6.988,3.059l0.03,0.044c0.028,0.057,0.054,0.115,0.09,0.169l21.924,32.695
		c0.362,0.594,3.006,4.519,9.563,4.519h19.212l-7.639,7.567c-0.418,0.414-0.556,1.034-0.351,1.586
		c0.204,0.553,0.712,0.934,1.3,0.976l0.014,0.001c0.036,0.003,0.072,0.004,0.107,0.004c0.459,0,0.873-0.209,1.148-0.542l9.827-9.734
		c0.002-0.002,0.002-0.004,0.004-0.006s0.004-0.002,0.006-0.004c0.068-0.068,0.1-0.154,0.152-0.231
		c0.059-0.087,0.133-0.166,0.172-0.261c0.035-0.086,0.035-0.179,0.054-0.269c0.02-0.099,0.056-0.194,0.056-0.295
		C108.999,80.799,108.963,80.703,108.943,80.605z M24.281,47.258C18.612,47.258,14,42.646,14,36.977
		c0-5.669,4.612-10.282,10.281-10.282c5.669,0,10.282,4.612,10.282,10.282C34.563,42.646,29.951,47.258,24.281,47.258z"/>
</g>
</svg>
