<?xml version="1.0" encoding="utf-8"?>
<!-- Generator: Adobe Illustrator 17.0.1, SVG Export Plug-In . SVG Version: 6.00 Build 0)  -->
<!DOCTYPE svg PUBLIC "-//W3C//DTD SVG 1.1//EN" "http://www.w3.org/Graphics/SVG/1.1/DTD/svg11.dtd">
<svg version="1.1" id="图层_1" xmlns="http://www.w3.org/2000/svg" xmlns:xlink="http://www.w3.org/1999/xlink" x="0px" y="0px"
	 width="120px" height="120px" viewBox="0 0 120 120" enable-background="new 0 0 120 120" xml:space="preserve">
<g>
	<path fill="#221E1F" d="M43.419,82.147C43.418,82.147,43.418,82.147,43.419,82.147c-0.83,0.001-1.5,0.673-1.5,1.501l0.015,23.852
		c0,0.828,0.672,1.499,1.5,1.499c0,0,0,0,0.001,0c0.829-0.001,1.5-0.673,1.499-1.501l-0.015-23.852
		C44.918,82.818,44.247,82.147,43.419,82.147z"/>
	<path fill="#221E1F" d="M74.619,49.897L74.619,49.897c-0.829,0-1.501,0.672-1.5,1.501l0.034,56.103
		c0.001,0.828,0.672,1.499,1.5,1.499h0.001c0.828-0.001,1.5-0.673,1.499-1.501l-0.034-56.103
		C76.118,50.568,75.447,49.897,74.619,49.897z"/>
	<path fill="#221E1F" d="M105.839,75.081H83.611c-0.828,0-1.5,0.672-1.5,1.5s0.672,1.5,1.5,1.5h22.228c0.828,0,1.5-0.672,1.5-1.5
		S106.667,75.081,105.839,75.081z"/>
	<path fill="#221E1F" d="M67.475,75.081H55.158c-0.749-5.269-4.957-9.43-10.25-10.102l-0.008-13.756l-0.008-13.099l-0.016-25.625
		c0-0.828-0.672-1.499-1.5-1.499c0,0,0,0-0.001,0c-0.828,0-1.5,0.672-1.499,1.501l0.016,25.625l0.008,13.099l0.008,13.753
		c-5.296,0.67-9.506,4.832-10.255,10.103H13.996c-0.829,0-1.5,0.672-1.5,1.5s0.671,1.5,1.5,1.5h17.996
		c0.097,0,0.191-0.011,0.283-0.029c0.22,0.127,0.472,0.205,0.745,0.205c0.829,0,1.5-0.672,1.5-1.5c0-4.899,3.986-8.885,8.885-8.885
		c4.768,0,8.66,3.778,8.866,8.496c-0.01,0.07-0.021,0.139-0.021,0.212c0,0.144,0.027,0.281,0.065,0.413
		c0.114,0.715,0.729,1.264,1.476,1.264c0.251,0,0.484-0.068,0.692-0.177h12.992c0.828,0,1.5-0.672,1.5-1.5
		S68.303,75.081,67.475,75.081z"/>
	<path fill="#221E1F" d="M14.161,45.971h21.811c0.829,0,1.5-0.671,1.5-1.5s-0.671-1.5-1.5-1.5H14.161c-0.829,0-1.5,0.671-1.5,1.5
		S13.332,45.971,14.161,45.971z"/>
	<path fill="#221E1F" d="M85.01,45.971c0.132,0,0.257-0.022,0.379-0.054c0.122,0.032,0.247,0.054,0.379,0.054h20.236
		c0.828,0,1.5-0.671,1.5-1.5s-0.672-1.5-1.5-1.5H86.404c-0.68-5.359-4.935-9.61-10.297-10.282l-0.013-20.189
		C76.094,11.671,75.423,11,74.595,11h-0.001c-0.828,0-1.5,0.672-1.499,1.501l0.013,20.192c-5.346,0.685-9.585,4.929-10.263,10.277
		H51.612c-0.829,0-1.5,0.671-1.5,1.5s0.671,1.5,1.5,1.5h12.452c0.03,0,0.058-0.007,0.088-0.009c0.03,0.002,0.058,0.009,0.088,0.009
		c0.828,0,1.5-0.671,1.5-1.5c0-4.899,3.985-8.885,8.885-8.885s8.886,3.986,8.886,8.885C83.51,45.299,84.182,45.971,85.01,45.971z"/>
</g>
</svg>
