<?xml version="1.0" encoding="utf-8"?>
<!-- Generator: Adobe Illustrator 17.0.1, SVG Export Plug-In . SVG Version: 6.00 Build 0)  -->
<!DOCTYPE svg PUBLIC "-//W3C//DTD SVG 1.1//EN" "http://www.w3.org/Graphics/SVG/1.1/DTD/svg11.dtd">
<svg version="1.1" id="图层_1" xmlns="http://www.w3.org/2000/svg" xmlns:xlink="http://www.w3.org/1999/xlink" x="0px" y="0px"
	 width="120px" height="120px" viewBox="0 0 120 120" enable-background="new 0 0 120 120" xml:space="preserve">
<g>
	<path d="M64.662,45.165c-0.098-0.11-0.195-0.218-0.278-0.303l-0.197-0.2c-2.039-2.122-4.408-3.509-6.854-4.013l-0.484-0.101
		c-1.762-0.372-2.72-0.558-6.144,0.097c-0.182,0.034-0.362,0.079-0.572,0.132c-4.476,0.771-8.088,4.089-9.237,8.486
		c-0.178,0.453-0.322,0.876-0.44,1.284c-0.106,0.039-0.284,0.086-0.411,0.119c-0.278,0.072-0.549,0.147-0.759,0.235
		c-0.175,0.067-0.346,0.142-0.565,0.24c-3.907,1.734-6.994,5.588-8.069,10.067C30.219,62.599,30,64.043,30,65.498
		c0,5.462,3.049,10.369,7.956,12.806c1.985,0.986,4.117,1.486,6.336,1.486h31.417c2.444,0,4.865-0.638,7.005-1.847
		c1.613-0.912,3.016-2.11,4.171-3.562C88.922,71.822,90,68.751,90,65.498c0-1.106-0.14-2.244-0.419-3.38
		c-0.498-2.047-1.457-3.986-2.772-5.606l-0.107-0.119c-2.436-2.428-5.673-3.367-7.33-3.698c-0.082-0.02-0.165-0.038-0.248-0.056
		l-0.079-0.241c-0.27-0.811-0.599-1.749-1.11-2.618c-0.182-0.31-0.373-0.588-0.58-0.846c-1.704-2.392-4.324-3.977-7.383-4.464
		c-1.436-0.228-2.122-0.217-3.401,0.034c-0.693,0.134-1.308,0.4-1.851,0.635C64.7,45.147,64.68,45.156,64.662,45.165z
		 M65.919,47.917c0.44-0.19,0.856-0.37,1.228-0.441c0.926-0.182,1.293-0.184,2.348-0.016c2.263,0.36,4.186,1.518,5.415,3.26
		l0.063,0.084c0.131,0.161,0.247,0.333,0.351,0.511c0.361,0.613,0.625,1.373,0.846,2.037l0.664,1.991l0.894,0.149l0.268,0.033
		c0.223,0.024,0.445,0.06,0.721,0.124c1.099,0.22,3.849,0.937,5.791,2.832c1.022,1.279,1.739,2.743,2.133,4.355
		c0.22,0.903,0.333,1.799,0.333,2.662c0,2.561-0.849,4.981-2.456,6.998c-0.912,1.147-2.02,2.093-3.292,2.811
		c-1.686,0.952-3.594,1.456-5.518,1.456H44.291c-1.747,0-3.426-0.394-4.99-1.17c-3.871-1.922-6.275-5.79-6.275-10.096
		c0-1.165,0.179-2.321,0.529-3.433l0.029-0.108c0.849-3.6,3.288-6.685,6.422-8.077c0.12-0.054,0.239-0.108,0.398-0.169
		c0.123-0.051,0.262-0.082,0.4-0.117c0.691-0.18,1.976-0.512,2.491-1.976l0.031-0.101c0.104-0.379,0.24-0.781,0.419-1.228
		l0.061-0.189c0.832-3.3,3.537-5.793,6.89-6.35l0.165-0.036c0.136-0.035,0.273-0.071,0.412-0.098c1.427-0.273,2.32-0.39,2.985-0.39
		c0.635,0,1.137,0.106,1.967,0.281l0.499,0.104c1.843,0.38,3.669,1.467,5.286,3.15l0.182,0.185c0.085,0.086,0.164,0.177,0.242,0.266
		c0.283,0.318,0.633,0.714,1.139,1.011l0.586,0.343l0.647-0.21C65.179,48.235,65.547,48.077,65.919,47.917z"/>
	<path d="M104.209,61.791c-0.828,0-1.5,0.672-1.5,1.5C102.709,86.841,83.55,106,60,106c-23.55,0-42.709-19.159-42.709-42.709
		c0-23.437,18.977-42.518,42.371-42.701l-4.012,4.012c-0.586,0.585-0.586,1.536,0,2.121c0.293,0.293,0.677,0.439,1.061,0.439
		s0.768-0.146,1.061-0.439l6.582-6.582c0.281-0.281,0.439-0.663,0.439-1.061s-0.158-0.779-0.439-1.061l-6.582-6.581
		c-0.586-0.586-1.535-0.586-2.121,0s-0.586,1.536,0,2.121l4.029,4.029c-25.056,0.175-45.387,20.605-45.387,45.702
		C14.291,88.495,34.796,109,60,109s45.709-20.505,45.709-45.709C105.709,62.463,105.037,61.791,104.209,61.791z"/>
</g>
</svg>
