<?xml version="1.0" encoding="UTF-8"?>
<svg width="240px" height="207px" viewBox="0 0 240 207" version="1.1" xmlns="http://www.w3.org/2000/svg" xmlns:xlink="http://www.w3.org/1999/xlink">
    <!-- Generator: Sketch 46.2 (44496) - http://www.bohemiancoding.com/sketch -->
    <title>Group 16 Copy 2</title>
    <desc>Created with Sketch.</desc>
    <defs>
        <linearGradient x1="100%" y1="5.08209796%" x2="66.3840664%" y2="55.3138851%" id="linearGradient-1">
            <stop stop-color="#3E85D0" offset="0%"></stop>
            <stop stop-color="#0C3E9B" offset="100%"></stop>
        </linearGradient>
        <linearGradient x1="98.0223759%" y1="14.4967459%" x2="3.86404267%" y2="57.8815256%" id="linearGradient-2">
            <stop stop-color="#3E85D0" offset="0%"></stop>
            <stop stop-color="#0C3E9B" offset="100%"></stop>
        </linearGradient>
        <linearGradient x1="90.3992492%" y1="26.3873922%" x2="18.2934253%" y2="71.5180496%" id="linearGradient-3">
            <stop stop-color="#3E85D0" offset="0%"></stop>
            <stop stop-color="#0C3E9B" offset="100%"></stop>
        </linearGradient>
        <linearGradient x1="121.550135%" y1="0%" x2="0%" y2="87.5868056%" id="linearGradient-4">
            <stop stop-color="#3E85D0" offset="0%"></stop>
            <stop stop-color="#0C3E9B" offset="100%"></stop>
        </linearGradient>
        <linearGradient x1="19.8681352%" y1="100%" x2="100%" y2="-225.840759%" id="linearGradient-5">
            <stop stop-color="#DADFE9" offset="0%"></stop>
            <stop stop-color="#DEF1F3" offset="99.764073%"></stop>
            <stop stop-color="#DEF1F3" offset="100%"></stop>
        </linearGradient>
        <linearGradient x1="62.2440733%" y1="0%" x2="31.2342852%" y2="100%" id="linearGradient-6">
            <stop stop-color="#EEF3F3" offset="0%"></stop>
            <stop stop-color="#BEF0F1" offset="100%"></stop>
        </linearGradient>
        <linearGradient x1="19.8681352%" y1="100%" x2="100%" y2="-225.840759%" id="linearGradient-7">
            <stop stop-color="#DADFE9" offset="0%"></stop>
            <stop stop-color="#DAE1EA" offset="26.2442069%"></stop>
            <stop stop-color="#DEF1F3" offset="99.764073%"></stop>
            <stop stop-color="#DEF1F3" offset="100%"></stop>
        </linearGradient>
        <linearGradient x1="34.2346191%" y1="121.042209%" x2="85.9281182%" y2="9.64976922%" id="linearGradient-8">
            <stop stop-color="#DADFE9" offset="0%"></stop>
            <stop stop-color="#DEF1F3" offset="99.764073%"></stop>
            <stop stop-color="#DEF1F3" offset="100%"></stop>
        </linearGradient>
        <linearGradient x1="31.2342852%" y1="-21.5123033%" x2="50%" y2="96.2694054%" id="linearGradient-9">
            <stop stop-color="#EEF3F3" offset="0%"></stop>
            <stop stop-color="#BEF0F1" offset="100%"></stop>
        </linearGradient>
        <linearGradient x1="60.4107197%" y1="-29.3146307%" x2="45.7369291%" y2="113.89678%" id="linearGradient-10">
            <stop stop-color="#EEF3F3" offset="0%"></stop>
            <stop stop-color="#BEF0F1" offset="100%"></stop>
        </linearGradient>
        <path d="M112.933711,92.5681243 L33.5393229,92.5681243 L33.2581135,92.5470706 C21.5160603,92.4013003 11.9599253,82.7231876 11.9599253,70.9386317 C11.9599253,60.4993733 19.3821453,51.5617095 29.614679,49.6741894 L32.5710292,49.1216183 L33.0080704,46.1387691 C34.3822389,36.5860867 39.1603064,27.8154254 46.4575049,21.4224077 C53.8273654,14.9774695 63.2691645,11.4317008 73.0644789,11.4317008 C86.347218,11.4317008 98.5473274,17.8557637 106.083883,28.4932483 C97.1836663,30.2244713 89.1057064,35.219914 83.6198958,42.6138757 C82.2353978,44.4701721 82.6206138,47.0983195 84.4943344,48.4851891 C86.3470399,49.8618887 88.9705336,49.4759632 90.3548535,47.6196669 C95.72615,40.3820023 103.960476,36.2208581 112.933355,36.2208581 C128.433357,36.2208581 141.049849,48.8500609 141.049849,64.3891385 C141.049849,79.9282162 128.433713,92.5681243 112.933711,92.5681243 L112.933711,92.5681243 Z" id="path-11"></path>
    </defs>
    <g id="Page-1" stroke="none" stroke-width="1" fill="none" fill-rule="evenodd">
        <g id="全栈云平台——私有云" transform="translate(-1264.000000, -1147.000000)">
            <g id="Group-16-Copy-2" transform="translate(1225.000000, 1090.000000)">
                <g id="左图">
                    <g id="组织架构" transform="translate(39.000000, 57.000000)">
                        <path d="M11.8935547,129.006198 C23.6088968,128.997934 33.3986103,128.997934 41.2626953,129.006198 C48.5888672,129.026462 52.5991211,129.006198 63.6425781,129.006198 C67.5507812,129.006198 70.9189453,132.843492 70.9189453,135.990234 C70.9189453,145.599216 70.9189453,189.37207 70.9189453,194.95752 C66.4448242,203.06722 63.1207682,207.046875 60.9467773,206.896484 L1.05951028,150.952487 C0.867290228,147.814955 1.14072773,145.494398 1.87982278,143.990817 C2.61891783,142.487237 5.95682847,137.492363 11.8935547,129.006198 Z" id="Rectangle-3-Copy-2" fill="url(#linearGradient-1)"></path>
                        <path d="M138.255859,132.983887 C138.392849,132.931373 139.299316,128.930176 143.728516,128.903579 C152.435042,128.851297 172.652841,128.99625 182.119081,129.006198 C189.445252,129.026462 191.383035,129.083167 197.720703,129.006198 C198.919434,132.523532 203.074463,136.756592 206.098145,144.58252 C206.662109,145.285482 206.662109,147.435872 206.098145,151.033691 C167.380046,183.812988 146.348958,201.753255 143.004883,204.854492 C140.646484,200.54541 140.11377,199.507324 138.265137,195.044434 C138.265137,189.255859 137.562287,133.249763 138.255859,132.983887 Z" id="Rectangle-3-Copy-2" fill="url(#linearGradient-2)"></path>
                        <path d="M77.1222145,129.005633 C100.741583,128.998122 115.0693,128.998122 120.105367,129.005633 C124.79696,129.024051 127.088179,129.07559 131.146746,129.005633 C131.914399,132.202518 132.960345,135.512126 134.896675,142.625066 C135.257831,143.263984 135.625606,145.150931 136,148.285906 L72.0381097,148.952487 C71.9150142,146.100802 72.0901204,143.991662 72.5634281,142.625066 C73.0367357,141.25847 74.5563312,136.718659 77.1222145,129.005633 Z" id="Rectangle-3-Copy-3" fill="url(#linearGradient-3)"></path>
                        <path d="M60.149569,144 L6.37766965,144 C3.40446702,144 1,146.412932 1,149.387048 L1,201.612952 C1,204.585466 3.40446702,207 6.37766965,207 L60.150102,207 C63.1174414,207 65.5277717,204.585466 65.5277717,201.612952 L65.5277717,149.387048 C65.5272386,146.412932 63.1169084,144 60.149569,144 Z" id="Path" fill="url(#linearGradient-4)"></path>
                        <path d="M58.2638858,155.266113 C58.2634728,152.961589 56.3958039,151.091905 54.0965308,151.091905 L54.0965308,151.091905 L12.4308278,151.091905 C10.1270116,151.091905 8.26388583,152.961589 8.26388583,155.266113 L8.26388583,195.733887 C8.26388583,198.037169 10.1270116,199.908095 12.4308278,199.908095" id="Path" stroke="#F89435" stroke-dasharray="4,3,3"></path>
                        <path d="M131.149569,144 L77.3776697,144 C74.404467,144 72,146.412932 72,149.387048 L72,201.612952 C72,204.585466 74.404467,207 77.3776697,207 L131.150102,207 C134.117441,207 136.527772,204.585466 136.527772,201.612952 L136.527772,149.387048 C136.527239,146.412932 134.116908,144 131.149569,144 Z" id="Path-Copy" fill="url(#linearGradient-4)"></path>
                        <path d="M202.149569,144 L148.37767,144 C145.404467,144 143,146.412932 143,149.387048 L143,201.612952 C143,204.585466 145.404467,207 148.37767,207 L202.150102,207 C205.117441,207 207.527772,204.585466 207.527772,201.612952 L207.527772,149.387048 C207.527239,146.412932 205.116908,144 202.149569,144 Z" id="Path-Copy-2" fill="url(#linearGradient-4)"></path>
                        <path d="M61.9986094,0.00619810396 C98.8815052,-0.00206603465 121.254996,-0.00206603465 129.119081,0.00619810396 C136.445252,0.0264617758 140.023112,0.0831674156 146.36078,0.00619810396 C147.55951,3.52353209 149.192811,7.16488951 152.216493,14.9908172 C152.780458,15.6937795 153.354758,17.76987 153.939393,21.2190887 L54.0595103,21.9524872 C53.8672902,18.8149546 54.1407277,16.494398 54.8798228,14.9908172 C55.6189178,13.4872365 57.9918467,8.49236347 61.9986094,0.00619810396 Z" id="Rectangle-3" fill="url(#linearGradient-5)"></path>
                        <path d="M59.5558615,94 L148.444139,94 C151.509802,94 154,91.5006314 154,88.4180583 L154,21.5852617 C154,18.4993686 151.509802,16 148.444139,16 L59.5558615,16 C56.4857923,16 54,18.4993686 54,21.5852617 L54,88.4175049 C54,91.5006314 56.4857923,94 59.5558615,94 Z" id="Path" fill="url(#linearGradient-6)"></path>
                        <polygon id="Rectangle-6" fill="url(#linearGradient-7)" points="97.0270996 95 108.948242 95 110 98 96 98"></polygon>
                        <polygon id="Rectangle-6" fill="url(#linearGradient-7)" points="2 107 204 107 208 113 0 113"></polygon>
                        <polygon id="Rectangle-8" fill="url(#linearGradient-8)" points="40 113 44.706543 113 44.706543 126.983398 43.0810547 131.445312"></polygon>
                        <polygon id="Rectangle-8-Copy" fill="url(#linearGradient-9)" transform="translate(165.353271, 122.247070) scale(-1, 1) translate(-165.353271, -122.247070) " points="163 113 167.706543 113 167.706543 126.983398 165.353271 131.494141"></polygon>
                        <path d="M165,120 L110,120 L110,131 L96,131 L96,120 L43,120 L43,131 L29,131 L29,120 L0,120 L0,113 L96,113 L96,98 L110,98 L110,113 L208,113 L208,120 L179,120 L179,131 L165,131 L165,120 Z" id="Combined-Shape" fill="url(#linearGradient-10)"></path>
                    </g>
                    <g id="云" transform="translate(126.000000, 122.000000)">
                        <path d="M119.230192,103 L26.1130099,103 L25.7831952,102.973273 C12.0116059,102.788222 0.803756343,90.5021792 0.803756343,75.5420762 C0.803756343,62.2897837 9.5088579,50.9437158 21.5100172,48.5475716 L24.977353,47.8461009 L25.4899338,44.0594728 C27.1016183,31.9326591 32.7055431,20.7985953 41.264014,12.6828713 C49.9077061,4.50123585 60.9814575,0 72.4698271,0 C88.0483997,0 102.357217,8.15513495 111.196417,21.659069 C100.757856,23.8567992 91.2836746,30.1983481 84.849678,39.5847374 C83.2258787,41.9412441 83.6776767,45.2775901 85.8752574,47.0381752 C88.0481908,48.7858497 91.125138,48.29593 92.7487284,45.9394233 C99.048418,36.7514481 108.705993,31.4690135 119.229774,31.4690135 C137.408849,31.4690135 152.206017,47.5013678 152.206017,67.2277117 C152.206017,86.9540557 137.409266,103 119.230192,103 L119.230192,103 Z" id="Path" fill-opacity="0.402570199" fill="#FFFFFF"></path>
                        <g id="Path">
                            <use fill-opacity="0.402570199" fill="#FFFFFF" fill-rule="evenodd" xlink:href="#path-11"></use>
                            <path stroke-opacity="0.6953125" stroke="#FFFFFF" stroke-width="8" d="M99.0631057,26.3108564 C92.2804172,19.4043143 82.9773221,15.4317008 73.0644789,15.4317008 C64.2380213,15.4317008 55.7317442,18.6258459 49.0933837,24.4310857 C42.5089094,30.1996913 38.2045517,38.1075288 36.9658144,46.71865 L36.1145566,52.5285688 L33.3059418,53.0535267 L30.3402878,53.6078254 C22.0063658,55.1451226 15.9599253,62.4273107 15.9599253,70.9386317 C15.9599253,80.5288033 23.7507172,88.4287339 33.3077672,88.5473788 L33.4324286,88.5489264 L33.6888507,88.5681243 L112.933711,88.5681243 C126.224195,88.5681243 137.049849,77.7194487 137.049849,64.3891385 C137.049849,51.0614176 126.226427,40.2208581 112.933355,40.2208581 C105.231703,40.2208581 98.1867129,43.7784579 93.5613938,50.0109216 C90.8594974,53.6340152 85.7343098,54.3900141 82.1146115,51.7002971 C78.4641214,48.9983179 77.7022463,43.8576007 80.4074971,40.230497 C85.1496976,33.8387982 91.6683612,29.0225065 99.0631057,26.3108564 Z"></path>
                        </g>
                    </g>
                </g>
            </g>
        </g>
    </g>
</svg>