<?xml version="1.0" encoding="utf-8"?>
<!-- Generator: Adobe Illustrator 17.0.1, SVG Export Plug-In . SVG Version: 6.00 Build 0)  -->
<!DOCTYPE svg PUBLIC "-//W3C//DTD SVG 1.1//EN" "http://www.w3.org/Graphics/SVG/1.1/DTD/svg11.dtd">
<svg version="1.1" id="图层_1" xmlns="http://www.w3.org/2000/svg" xmlns:xlink="http://www.w3.org/1999/xlink" x="0px" y="0px"
	 width="120px" height="120px" viewBox="-12.5 -12.5 120 120" enable-background="new -12.5 -12.5 120 120" xml:space="preserve">
<g id="图层_1_1_">
</g>
<g>
	<path fill="#221F20" d="M54.805,40.245c-1.744-1.166-3.675-1.497-5.437-0.926c-0.004,0.001-0.007,0.005-0.012,0.006
		c-0.198,0.065-0.392,0.14-0.583,0.227c-0.184-0.18-0.433-0.294-0.711-0.295c-0.002,0-0.003,0-0.005,0
		c-0.564,0-1.023,0.456-1.026,1.021l-0.071,14.089c-0.003,0.566,0.454,1.028,1.021,1.031c0.002,0,0.003,0,0.005,0
		c0.563,0,1.022-0.456,1.026-1.021l0.023-4.524c0.65,0.258,1.341,0.403,2.052,0.403c0.116,0,0.234-0.004,0.353-0.012
		c2.142-0.132,3.989-1.444,4.822-3.424c0.875-2.083,0.407-4.473-1.252-6.394C54.951,40.358,54.882,40.296,54.805,40.245z
		 M54.371,46.026c-0.527,1.256-1.699,2.086-3.057,2.171c-0.82,0.05-1.607-0.191-2.267-0.661l0.029-5.846
		c0.062-0.022,0.124-0.043,0.183-0.077c0.234-0.142,0.483-0.255,0.74-0.339c0.002-0.001,0.003-0.002,0.005-0.003
		c1.113-0.358,2.364-0.143,3.543,0.606C54.631,43.189,54.931,44.694,54.371,46.026z"/>
	<path fill="#221F20" d="M62.233,54.923c0.002,0,0.004,0,0.006,0c0.565,0,1.023-0.455,1.026-1.02l0.085-13.614
		c0.003-0.566-0.453-1.028-1.02-1.032c-0.002,0-0.004,0-0.006,0c-0.564,0-1.022,0.455-1.026,1.02l-0.085,13.614
		C61.21,54.457,61.666,54.919,62.233,54.923z"/>
	<path fill="#221F20" d="M38.322,39.944c-0.166-0.541-0.741-0.849-1.283-0.679c-0.071,0.022-0.125,0.067-0.187,0.102
		c-0.373,0.042-0.71,0.278-0.85,0.654l-5.026,13.57c-0.197,0.532,0.075,1.123,0.606,1.319c0.119,0.044,0.238,0.064,0.357,0.064
		c0.417,0,0.808-0.255,0.961-0.669l1.134-3.063c0.166,0.345,0.513,0.586,0.92,0.586c0.004,0,0.008,0,0.013,0l3.428-0.042
		c0.566-0.007,1.02-0.472,1.013-1.039c-0.007-0.562-0.465-1.013-1.026-1.013c-0.004,0-0.008,0-0.013,0l-3.428,0.042
		c-0.14,0.002-0.273,0.032-0.395,0.085l2.555-6.899l3.508,11.419c0.135,0.44,0.542,0.724,0.981,0.724
		c0.098,0,0.201-0.014,0.301-0.045c0.541-0.167,0.845-0.741,0.679-1.283L38.322,39.944z"/>
	<path fill="#221F20" d="M47.5-0.001c-10.921,0-21.582,3.797-30.026,10.694C6.369,19.763,0,33.178,0,47.501
		c0,26.191,21.309,47.5,47.5,47.5S95,73.692,95,47.5S73.691-0.001,47.5-0.001z M47.499,91.924
		c-24.495,0-44.422-19.928-44.422-44.423c0-13.396,5.958-25.943,16.346-34.425C27.317,6.627,37.289,3.077,47.5,3.077
		c24.494,0,44.422,19.928,44.422,44.423S71.994,91.924,47.499,91.924z"/>
	<path fill="#221F20" d="M48.923,6.246c-4.605,0-8.352,3.747-8.352,8.352c0,4.605,3.747,8.352,8.352,8.352
		c4.604,0,8.352-3.747,8.352-8.352C57.275,9.993,53.528,6.246,48.923,6.246z M48.923,19.872c-2.909,0-5.274-2.365-5.274-5.274
		s2.366-5.274,5.274-5.274c2.908,0,5.274,2.365,5.274,5.274S51.831,19.872,48.923,19.872z"/>
	<path fill="#221F20" d="M24.59,38.56c1.422-4.379-0.984-9.1-5.363-10.524c-0.837-0.272-1.706-0.409-2.58-0.409
		c-3.628,0-6.82,2.319-7.943,5.773c-1.422,4.379,0.983,9.1,5.365,10.525c0.837,0.272,1.706,0.409,2.581,0.409
		C20.278,44.334,23.47,42.015,24.59,38.56z M21.664,37.611c-0.708,2.181-2.723,3.646-5.014,3.646c-0.552,0-1.101-0.088-1.631-0.26
		c-2.765-0.9-4.284-3.88-3.386-6.646c0.708-2.181,2.723-3.646,5.015-3.646c0.551,0,1.099,0.087,1.63,0.26
		C21.043,31.865,22.562,34.845,21.664,37.611z"/>
	<path fill="#221F20" d="M31.92,66.525c-1.436-1.043-3.132-1.595-4.904-1.595c-2.668,0-5.196,1.288-6.762,3.443
		c-2.706,3.726-1.878,8.959,1.847,11.667c1.436,1.043,3.131,1.595,4.903,1.595c2.669,0,5.197-1.287,6.763-3.443
		c1.312-1.805,1.842-4.012,1.492-6.216C34.911,69.772,33.725,67.837,31.92,66.525z M31.276,76.383
		c-0.989,1.362-2.587,2.175-4.273,2.175c-1.117,0-2.188-0.349-3.094-1.007c-2.352-1.71-2.875-5.016-1.166-7.368
		c0.989-1.361,2.587-2.174,4.272-2.174c1.118,0,2.188,0.348,3.095,1.007c1.14,0.828,1.889,2.051,2.109,3.442
		C32.439,73.849,32.105,75.244,31.276,76.383z"/>
	<path fill="#221F20" d="M65.681,66.601c-1.77,0-3.465,0.552-4.902,1.595c-3.724,2.707-4.554,7.94-1.848,11.667
		c1.567,2.156,4.096,3.443,6.763,3.443c1.772,0,3.467-0.551,4.903-1.594c1.804-1.312,2.99-3.248,3.34-5.451
		c0.348-2.203-0.181-4.41-1.492-6.216C70.878,67.889,68.349,66.601,65.681,66.601z M70.899,75.779
		c-0.221,1.392-0.97,2.614-2.11,3.442c-0.908,0.66-1.977,1.008-3.094,1.008c-1.687,0-3.284-0.813-4.273-2.174
		c-1.709-2.353-1.185-5.658,1.167-7.367c0.907-0.659,1.977-1.008,3.093-1.008c1.686,0,3.285,0.812,4.274,2.174
		C70.784,72.993,71.119,74.389,70.899,75.779z"/>
	<path fill="#221F20" d="M87.173,36.105c-1.122-3.452-4.314-5.772-7.942-5.772c-0.875,0-1.743,0.136-2.582,0.409
		c-4.379,1.423-6.784,6.146-5.361,10.525c1.122,3.452,4.313,5.772,7.942,5.772c0.875,0,1.743-0.137,2.581-0.409
		C86.19,45.207,88.596,40.485,87.173,36.105z M80.861,43.702c-0.531,0.172-1.08,0.26-1.631,0.26c-2.291,0-4.306-1.465-5.014-3.646
		c-0.899-2.766,0.618-5.748,3.384-6.646c0.531-0.172,1.08-0.26,1.632-0.26c2.29,0,4.306,1.465,5.014,3.645
		C85.145,39.822,83.626,42.804,80.861,43.702z"/>
</g>
</svg>
