<?xml version="1.0" encoding="utf-8"?>
<!-- Generator: Adobe Illustrator 17.0.1, SVG Export Plug-In . SVG Version: 6.00 Build 0)  -->
<!DOCTYPE svg PUBLIC "-//W3C//DTD SVG 1.1//EN" "http://www.w3.org/Graphics/SVG/1.1/DTD/svg11.dtd">
<svg version="1.1" id="图层_1" xmlns="http://www.w3.org/2000/svg" xmlns:xlink="http://www.w3.org/1999/xlink" x="0px" y="0px"
	 width="120px" height="120px" viewBox="-12.5 -12.5 120 120" enable-background="new -12.5 -12.5 120 120" xml:space="preserve">
<g id="图层_1_1_">
</g>
<g>
	<path d="M86.836,6.678H8.163C3.661,6.678,0,10.367,0,14.902v65.197c0,1.514,0.412,2.995,1.192,4.282
		c1.496,2.468,4.103,3.941,6.971,3.941h78.673c4.502,0,8.164-3.689,8.164-8.222V14.902C95,10.367,91.338,6.678,86.836,6.678z
		 M91.956,80.099c0,2.855-2.297,5.178-5.12,5.178H8.163c-1.796,0-3.428-0.925-4.369-2.475c-0.49-0.81-0.75-1.745-0.75-2.702V14.902
		c0-2.856,2.297-5.179,5.119-5.179h78.673c2.824,0,5.12,2.323,5.12,5.179V80.099z"/>
	<path d="M32.266,38.397c-0.115-0.165-0.263-0.311-0.445-0.424L17.074,28.81c-0.716-0.442-1.653-0.225-2.097,0.489
		c-0.444,0.715-0.224,1.653,0.489,2.097l12.933,8.036l-13.178,6.743c-0.748,0.383-1.045,1.301-0.661,2.049
		c0.269,0.526,0.803,0.828,1.356,0.828c0.234,0,0.471-0.054,0.693-0.167l15.456-7.909c0.748-0.383,1.045-1.301,0.661-2.049
		C32.614,38.708,32.452,38.533,32.266,38.397z"/>
	<path d="M60.169,46.008H42.807c-0.84,0-1.522,0.682-1.522,1.522c0,0.84,0.682,1.522,1.522,1.522h17.362
		c0.84,0,1.522-0.682,1.522-1.522C61.691,46.69,61.009,46.008,60.169,46.008z"/>
</g>
</svg>
