<?xml version="1.0" encoding="utf-8"?>
<!-- Generator: Adobe Illustrator 17.0.1, SVG Export Plug-In . SVG Version: 6.00 Build 0)  -->
<!DOCTYPE svg PUBLIC "-//W3C//DTD SVG 1.1//EN" "http://www.w3.org/Graphics/SVG/1.1/DTD/svg11.dtd">
<svg version="1.1" id="图层_1" xmlns="http://www.w3.org/2000/svg" xmlns:xlink="http://www.w3.org/1999/xlink" x="0px" y="0px"
	 width="120px" height="120px" viewBox="-12.5 -12.5 120 120" enable-background="new -12.5 -12.5 120 120" xml:space="preserve">
<g>
	<path fill="#040000" d="M31.984,40.186c0.352-0.738,0.228-1.571-0.337-2.293l-2.353-3.41c0.068-0.223,0.117-0.454,0.117-0.696
		v-14.05c0-1.464-1.335-2.654-2.975-2.654h-3.879h-0.001H5.516c-1.641,0-2.976,1.191-2.976,2.654v14.05
		c0,0.318,0.07,0.628,0.191,0.921l-2.197,3.185c-0.565,0.723-0.689,1.556-0.337,2.293c0.419,0.881,1.485,1.45,2.714,1.45h11.186
		h15.172C30.499,41.636,31.564,41.067,31.984,40.186z M4.958,19.74c0.014-0.058,0.209-0.238,0.557-0.238h17.041h0.001h3.879
		c0.349,0,0.543,0.18,0.557,0.235v14.048c-0.015,0.057-0.209,0.237-0.557,0.237H5.515c-0.264,0-0.465-0.107-0.539-0.206
		l-0.974,0.728l-0.014-0.01l0.97-0.747V19.74z M2.911,39.217c-0.127,0-0.237-0.016-0.327-0.037l1.994-2.89
		c0.3,0.089,0.611,0.151,0.937,0.151h20.922c0.4,0,0.781-0.073,1.13-0.202l2.029,2.941c-0.09,0.021-0.2,0.037-0.327,0.037H14.097
		H2.911z"/>
	<path fill="#040000" d="M94.465,37.463l-2.351-3.409c0.069-0.223,0.117-0.454,0.117-0.696v-14.05c0-1.464-1.334-2.654-2.975-2.654
		H68.334c-1.64,0-2.975,1.191-2.975,2.654v14.05c0,0.318,0.07,0.628,0.191,0.921l-2.197,3.184c-0.565,0.723-0.688,1.556-0.337,2.293
		c0.42,0.881,1.485,1.45,2.715,1.45h12.914h0.529h0.001h12.914c1.23,0,2.295-0.569,2.714-1.45
		C95.154,39.018,95.03,38.185,94.465,37.463z M67.777,19.309c0.015-0.057,0.208-0.237,0.557-0.237h20.922
		c0.348,0,0.543,0.18,0.557,0.235v14.048c-0.015,0.057-0.21,0.237-0.557,0.237H68.334c-0.265,0-0.465-0.107-0.557-0.235V19.309z
		 M92.089,38.787H79.175h-0.53H65.731c-0.127,0-0.237-0.016-0.327-0.037l1.993-2.89c0.3,0.089,0.611,0.151,0.937,0.151h20.922
		c0.401,0,0.782-0.073,1.131-0.202l2.028,2.941C92.326,38.772,92.216,38.787,92.089,38.787z"/>
	<path fill="#040000" d="M60.524,74.305c0.068-0.223,0.117-0.453,0.116-0.695V59.56c0-1.464-1.334-2.654-2.975-2.654H36.743
		c-1.64,0-2.975,1.19-2.975,2.654v14.05c0,0.319,0.07,0.629,0.192,0.923l-2.196,3.184c-0.566,0.722-0.69,1.555-0.338,2.292
		c0.42,0.881,1.485,1.45,2.715,1.45h12.914h0.529h0.001h12.914c1.23,0,2.295-0.57,2.715-1.451c0.351-0.737,0.228-1.57-0.337-2.292
		L60.524,74.305z M36.187,59.562c0.014-0.058,0.208-0.238,0.557-0.238v0.001h20.922c0.349,0,0.544,0.18,0.557,0.235v14.048
		c-0.015,0.057-0.209,0.237-0.557,0.237H36.744c-0.265,0-0.465-0.107-0.557-0.235V59.562z M60.499,79.04H47.055v0.001H34.141
		c-0.126,0-0.237-0.016-0.326-0.037l1.994-2.891c0.299,0.088,0.61,0.15,0.935,0.15h20.922c0.401,0,0.782-0.073,1.132-0.202
		l2.028,2.942C60.736,79.024,60.626,79.04,60.499,79.04z"/>
	<path fill="#040000" d="M31.842,62.529c0.394-0.538,0.278-1.295-0.261-1.69c-5.626-4.123-9.277-10.382-10.017-17.173
		c-0.072-0.664-0.67-1.141-1.333-1.071c-0.664,0.072-1.143,0.669-1.071,1.333c0.813,7.464,4.819,14.339,10.992,18.862
		c0.215,0.158,0.466,0.234,0.714,0.234C31.238,63.024,31.605,62.853,31.842,62.529z"/>
	<path fill="#040000" d="M73.437,42.596c-0.657-0.072-1.261,0.407-1.333,1.071c-0.739,6.79-4.39,13.049-10.015,17.172
		c-0.539,0.395-0.655,1.151-0.261,1.69c0.237,0.323,0.604,0.494,0.976,0.494c0.248,0,0.498-0.077,0.715-0.234
		c6.172-4.524,10.177-11.398,10.99-18.86C74.581,43.265,74.102,42.668,73.437,42.596z"/>
	<path fill="#040000" d="M32.819,20.213c4.303-2.844,9.351-4.317,14.556-4.25c5.036,0.062,9.886,1.555,14.023,4.318
		c0.206,0.138,0.44,0.204,0.671,0.204c0.39,0,0.773-0.189,1.006-0.538c0.371-0.555,0.221-1.306-0.334-1.677
		c-4.528-3.023-9.83-4.657-15.336-4.725c-5.73-0.084-11.212,1.538-15.92,4.65c-0.557,0.369-0.71,1.119-0.342,1.676
		C31.512,20.429,32.263,20.581,32.819,20.213z"/>
</g>
</svg>
