<?xml version="1.0" encoding="utf-8"?>
<!-- Generator: Adobe Illustrator 17.0.1, SVG Export Plug-In . SVG Version: 6.00 Build 0)  -->
<!DOCTYPE svg PUBLIC "-//W3C//DTD SVG 1.1//EN" "http://www.w3.org/Graphics/SVG/1.1/DTD/svg11.dtd">
<svg version="1.1" id="图层_1" xmlns="http://www.w3.org/2000/svg" xmlns:xlink="http://www.w3.org/1999/xlink" x="0px" y="0px"
	 width="120px" height="120px" viewBox="-12.5 -12.5 120 120" enable-background="new -12.5 -12.5 120 120" xml:space="preserve">
<g>
	<path fill="#040000" d="M93.9,43.068c-1.579-2.901-4.614-4.703-7.919-4.703c-1.085,0-2.165,0.206-3.181,0.591L72.321,21.066
		c3.22-2.697,4.21-7.384,2.127-11.21c-1.578-2.901-4.614-4.703-7.919-4.703c-1.493,0-2.98,0.379-4.299,1.097
		c-2.537,1.382-4.138,3.816-4.572,6.467l-20.741,0.129c-0.168-0.95-0.482-1.878-0.956-2.749c-1.579-2.901-4.614-4.703-7.919-4.703
		c-1.493,0-2.98,0.38-4.299,1.098c-2.113,1.15-3.653,3.054-4.334,5.362c-0.681,2.308-0.423,4.743,0.728,6.856
		c0.568,1.043,1.329,1.938,2.219,2.664L12.088,39.408c-0.975-0.355-2.011-0.562-3.083-0.562c-1.493,0-2.98,0.38-4.299,1.098
		c-2.114,1.149-3.653,3.053-4.334,5.361s-0.423,4.743,0.728,6.856c1.579,2.901,4.614,4.703,7.919,4.703
		c1.086,0,2.166-0.207,3.183-0.592L22.57,73.975c-1.329,1.123-2.305,2.607-2.808,4.315c-0.681,2.308-0.423,4.743,0.728,6.856
		c1.579,2.901,4.614,4.702,7.919,4.702c1.494,0,2.98-0.379,4.299-1.096c2.465-1.342,4.052-3.676,4.539-6.239l21.258-0.132
		c0.178,0.619,0.42,1.228,0.74,1.817c1.579,2.901,4.614,4.703,7.919,4.703c1.493,0,2.98-0.379,4.3-1.097
		c4.362-2.376,5.979-7.857,3.605-12.218c-0.52-0.955-1.209-1.777-2.003-2.469l9.847-17.297c0.974,0.355,2.01,0.562,3.082,0.562
		c1.494,0,2.981-0.379,4.299-1.098c2.114-1.149,3.653-3.053,4.334-5.361C95.309,47.616,95.051,45.181,93.9,43.068z M63.666,8.888
		c0.879-0.478,1.87-0.731,2.863-0.731c2.205,0,4.229,1.201,5.281,3.135c1.582,2.908,0.504,6.561-2.403,8.144
		c-0.88,0.478-1.871,0.731-2.864,0.731c-2.204,0-4.228-1.2-5.28-3.135C59.681,14.124,60.759,10.471,63.666,8.888z M22.29,12.703
		c0.455-1.538,1.48-2.807,2.889-3.574c0.879-0.479,1.87-0.732,2.863-0.732c2.204,0,4.228,1.202,5.28,3.135
		c0.766,1.409,0.939,3.031,0.485,4.569c-0.455,1.538-1.48,2.807-2.889,3.574c-0.879,0.479-1.87,0.732-2.863,0.732
		c-2.204,0-4.228-1.201-5.28-3.135C22.009,15.863,21.836,14.24,22.29,12.703z M3.739,50.723c-0.766-1.409-0.939-3.032-0.485-4.569
		c0.455-1.538,1.48-2.807,2.889-3.574c0.879-0.479,1.87-0.732,2.863-0.732c2.204,0,4.227,1.202,5.28,3.135
		c0.766,1.409,0.939,3.031,0.485,4.569c-0.455,1.538-1.48,2.807-2.889,3.574c-0.879,0.479-1.87,0.732-2.863,0.732
		C6.815,53.858,4.791,52.657,3.739,50.723z M31.273,86.111c-0.88,0.478-1.871,0.731-2.864,0.731c-2.205,0-4.228-1.2-5.28-3.134
		c-0.766-1.409-0.939-3.032-0.485-4.569c0.455-1.538,1.48-2.807,2.889-3.574c0.879-0.479,1.87-0.732,2.863-0.732
		c2.204,0,4.227,1.202,5.28,3.134C35.258,80.875,34.18,84.528,31.273,86.111z M70.028,85.166c-0.88,0.478-1.871,0.731-2.864,0.731
		c-2.204,0-4.228-1.2-5.28-3.135c-1.582-2.908-0.505-6.561,2.402-8.144c0.88-0.478,1.871-0.731,2.864-0.731
		c2.204,0,4.228,1.2,5.28,3.135C74.012,79.93,72.935,83.583,70.028,85.166z M70.507,71.542c-1.051-0.422-2.185-0.659-3.357-0.659
		c-1.494,0-2.98,0.379-4.3,1.097c-2.832,1.543-4.497,4.395-4.674,7.399l-20.876,0.129c-0.151-1.015-0.468-2.022-0.987-2.975
		c-1.579-2.901-4.614-4.703-7.919-4.703c-1.106,0-2.208,0.211-3.241,0.611l-10.355-17.68c1.353-1.128,2.344-2.629,2.853-4.357
		c0.681-2.308,0.423-4.743-0.728-6.856c-0.568-1.044-1.33-1.939-2.22-2.665l10.267-18.035c0.975,0.355,2.012,0.563,3.084,0.563
		c1.494,0,2.981-0.38,4.299-1.099c2.114-1.149,3.653-3.053,4.334-5.361c0.108-0.365,0.183-0.733,0.244-1.103l20.739-0.129
		c0.164,0.938,0.473,1.866,0.953,2.747c1.579,2.901,4.614,4.703,7.919,4.703c1.086,0,2.167-0.206,3.183-0.591l10.476,17.887
		c-1.353,1.128-2.345,2.629-2.855,4.357c-0.681,2.308-0.423,4.743,0.728,6.856c0.568,1.044,1.33,1.939,2.22,2.666L70.507,71.542z
		 M91.747,49.072c-0.455,1.538-1.48,2.807-2.889,3.574c-0.879,0.479-1.87,0.732-2.863,0.732c-2.204,0-4.228-1.201-5.28-3.135
		c-0.766-1.409-0.939-3.031-0.485-4.569c0.455-1.538,1.48-2.807,2.889-3.574c0.879-0.479,1.87-0.732,2.863-0.732
		c2.204,0,4.227,1.202,5.28,3.135C92.028,45.912,92.201,47.535,91.747,49.072z"/>
	<path fill="#040000" d="M47.902,33.94c-2.066,0-4.123,0.525-5.947,1.518c-6.033,3.285-8.271,10.867-4.987,16.901
		c2.184,4.014,6.381,6.506,10.954,6.506c2.066,0,4.123-0.523,5.947-1.518c6.033-3.285,8.271-10.867,4.987-16.901
		C56.672,36.432,52.475,33.94,47.902,33.94z M52.433,54.71c-1.386,0.754-2.946,1.152-4.511,1.152c-3.471,0-6.659-1.893-8.316-4.938
		c-2.493-4.581-0.794-10.335,3.785-12.827c1.386-0.754,2.946-1.152,4.511-1.152c3.472,0,6.658,1.892,8.316,4.938
		C58.711,46.464,57.012,52.218,52.433,54.71z"/>
</g>
</svg>
