<?xml version="1.0" encoding="utf-8"?>
<!-- Generator: Adobe Illustrator 17.0.1, SVG Export Plug-In . SVG Version: 6.00 Build 0)  -->
<!DOCTYPE svg PUBLIC "-//W3C//DTD SVG 1.1//EN" "http://www.w3.org/Graphics/SVG/1.1/DTD/svg11.dtd">
<svg version="1.1" id="图层_1" xmlns="http://www.w3.org/2000/svg" xmlns:xlink="http://www.w3.org/1999/xlink" x="0px" y="0px"
	 width="120px" height="120px" viewBox="-12.5 -12.5 120 120" enable-background="new -12.5 -12.5 120 120" xml:space="preserve">
<path d="M91.779,86.078c-1.768-2.092-3.537-4.184-5.306-6.275c2.648-2.065,5.241-4.294,2.176-7.487
	c-1.927-2.008-5.535-3.315-7.901-4.706c-0.093-0.055-0.187-0.11-0.28-0.165c0.067-0.071,0.132-0.146,0.19-0.234
	c5.301-8.018,9.258-16.693,11.322-26.1c0.783-3.566,1.101-7.234,1.112-10.879c0.004-1.517,0.239-7.208-1.504-8.016
	c-7.087-3.284-13.918-7.594-18.591-13.988c-1.122-1.534-1.509-2.9-3.214-3.794C58.994-1.223,45.741-0.791,34.238,1.979
	c-1.947,0.469-7.392,1.145-8.407,3.111c-0.639,1.239-1.482,2.391-2.337,3.485C18.301,15.227,10.82,19.55,2.871,22.057
	c-0.482,0.152-1.018,0.563-1.101,1.101c-2.936,19.133,7.162,38.347,19.08,52.599c6.089,7.282,13.606,13.737,22.245,17.771
	c4.671,2.18,6.544,0.656,11.076-1.799c4.841-2.621,9.294-5.942,13.418-9.584c0.009,0.028,0.017,0.056,0.026,0.085
	c0.784,2.568,1.147,5.793,3.532,7.35c2.076,1.357,5.392-1.56,7.55-3.537c1.88,2.224,3.761,4.448,5.641,6.672
	c0.66,0.78,1.693,2.388,2.876,2.282c1.613-0.144,2.578-1.32,3.777-2.334c1.08-0.913,2.751-1.815,2.751-3.429
	C93.743,88.045,92.496,86.926,91.779,86.078z M49.521,90.615c-4.636,2.367-10.863-2.947-14.575-5.689
	c-9.818-7.251-17.495-17.529-23.14-28.241C8.986,51.333,6.902,45.633,5.521,39.75C4.615,35.887,2.172,25.708,6.98,24
	c8.209-2.914,15.652-8.467,20.571-15.672c2.156-3.159,7.288-3.31,11.02-4.101c6.209-1.317,12.733-1.417,18.992-0.413
	c3.37,0.541,6.734,1.524,9.837,2.952c0.473,0.218,0.932,0.469,1.387,0.725c0.065,0.098,0.174,0.264,0.335,0.549
	c4.132,7.329,11.848,12.452,19.167,16.105c4.28,2.136,0.745,15.93-0.086,19.282c-1.974,7.965-5.765,15.382-10.267,22.192
	c-0.057,0.086-0.097,0.172-0.135,0.257c-3.314-1.95-6.629-3.899-9.943-5.849c-1.896-1.115-5.083-3.535-6.493-0.555
	c-0.937,1.979,1.176,6.132,1.733,7.958c1.159,3.795,2.317,7.59,3.475,11.385C61.401,83.513,55.754,87.433,49.521,90.615z
	 M87.458,91.536c-0.7-0.828-1.4-1.656-2.101-2.484c-1.551-1.834-3.102-3.668-4.652-5.502c-0.135-1.05-1.618-1.96-2.757-1.057
	c-0.7,0.556-5.483,4.826-5.844,3.643c-0.743-2.435-1.486-4.869-2.229-7.304c-1.731-5.672-3.462-11.345-5.193-17.017
	c0.73,0.429,1.459,0.858,2.188,1.288c3.235,1.903,6.47,3.806,9.705,5.709c2.9,1.706,5.801,3.412,8.701,5.118
	c2.753,1.619-0.135,2.929-1.96,4.368c-0.461,0.363-0.594,0.805-0.523,1.221c-0.053,0.411,0.048,0.85,0.381,1.244
	c1.61,1.904,3.219,3.808,4.829,5.711c0.756,0.894,1.512,1.788,2.268,2.681c-0.502,0.425-1.005,0.849-1.507,1.274
	C88.329,90.799,87.894,91.168,87.458,91.536z"/>
</svg>
