<?xml version="1.0" encoding="utf-8"?>
<!-- Generator: Adobe Illustrator 17.0.1, SVG Export Plug-In . SVG Version: 6.00 Build 0)  -->
<!DOCTYPE svg PUBLIC "-//W3C//DTD SVG 1.1//EN" "http://www.w3.org/Graphics/SVG/1.1/DTD/svg11.dtd">
<svg version="1.1" id="图层_1" xmlns="http://www.w3.org/2000/svg" xmlns:xlink="http://www.w3.org/1999/xlink" x="0px" y="0px"
	 width="120px" height="120px" viewBox="0 0 120 120" enable-background="new 0 0 120 120" xml:space="preserve">
<g>
	<path fill="#040000" d="M105.793,74.652c-1.145-1.267-2.646-1.937-4.34-1.937c-2.392,0-4.529,1.293-5.442,1.846
		c-0.091,0.055-0.163,0.1-0.191,0.116c-0.475,0.229-7.699,5.209-15.064,10.313c0.001-0.066,0-0.132-0.003-0.196
		c-0.061-1.552-0.995-3-2.776-4.306c-2.543-1.863-23.148-16.589-23.318-16.709c-0.156-0.12-3.892-2.91-10.497-2.91
		c-3.797,0-7.788,0.919-11.863,2.733c-11.156,4.964-18.925,9.05-19.002,9.091c-0.397,0.21-0.679,0.589-0.768,1.029
		c-0.089,0.441,0.027,0.898,0.314,1.245l13.069,15.79c0.468,0.565,1.276,0.708,1.908,0.336l7.221-4.249
		c0.023-0.015,2.391-1.492,5.473-1.492c1.809,0,3.525,0.505,5.101,1.501c4.732,2.992,21.524,14.253,21.633,14.324
		c0.097,0.073,2.426,1.776,5.84,1.776c1.994,0,3.948-0.571,5.808-1.696c4.122-2.495,25.543-17.98,26.439-18.629
		c0.193-0.137,1.897-1.401,2.137-3.58C107.637,77.545,107.072,76.067,105.793,74.652z M103.596,80.196
		c-0.222,0.16-22.23,16.071-26.248,18.503c-1.386,0.84-2.821,1.265-4.261,1.265c-2.389,0-4.049-1.178-4.116-1.227
		c-0.169-0.113-16.994-11.397-21.76-14.409c-2.061-1.304-4.314-1.964-6.697-1.964c-4.006,0-6.973,1.892-7.043,1.938l-6.069,3.57
		L16.328,74.491c2.828-1.439,9.108-4.567,17.185-8.162c3.69-1.641,7.272-2.474,10.647-2.474c5.534,0,8.66,2.28,8.722,2.326
		c0.207,0.147,20.798,14.864,23.326,16.716c0.982,0.719,1.535,1.434,1.557,2.013c0.025,0.609-0.563,1.246-1.06,1.674
		c-0.741,0.637-1.568,0.948-2.527,0.948c-1.587,0-2.943-0.866-2.979-0.888c-6.018-3.779-15.86-10.01-16.641-10.641
		c-0.529-0.436-1.08-0.658-1.638-0.658c-1.13,0-1.861,0.865-2.082,1.72c-0.16,0.62,0.092,1.271,0.625,1.622
		c0,0,14.606,9.608,18.355,12.052c1.011,0.661,2.206,0.996,3.552,0.996c2.307,0,4.318-1.015,4.402-1.058
		c0.06-0.032,0.117-0.066,0.172-0.104c7.308-5.073,18.463-12.785,19.175-13.208c0.086-0.041,0.236-0.127,0.438-0.25
		c0.698-0.423,2.336-1.413,3.894-1.413c0.861,0,1.536,0.304,2.125,0.953c0.674,0.746,0.986,1.435,0.925,2.047
		C104.418,79.577,103.603,80.191,103.596,80.196z"/>
	<path fill="#040000" d="M35.954,30.181l1.15,4.38c0.133,0.511,0.478,0.926,1.022,1.233c1.094,0.617,3.672,1.023,6.956,1.023
		c3.662,0,8.201-0.505,12.537-1.786c7.907-2.336,15.848-6.836,15.068-9.811l-1.151-4.386c0.173-0.477,0.207-0.954,0.081-1.434
		c-0.555-2.109-3.518-2.353-5.698-2.353c-3.549,0-8.589,0.789-13.828,2.164c-3.042,0.798-18.156,5.022-16.914,9.755
		C35.309,29.474,35.587,29.867,35.954,30.181z M56.772,32.165c-7.633,2.255-15.1,1.765-16.907,1.142l-0.538-2.047
		c0.531,0.043,1.059,0.059,1.548,0.059c3.548,0,8.588-0.789,13.827-2.164c4.578-1.202,8.797-2.713,11.881-4.256
		c1-0.5,1.844-0.987,2.546-1.465l0.566,2.158C68.828,26.751,64.342,29.929,56.772,32.165z M52.85,22.1
		c5.002-1.313,9.766-2.066,13.069-2.066c1.201,0,1.932,0.103,2.375,0.207c0.002,0.01,0.002,0.02,0.005,0.03l0.013,0.049
		c-1.405,1.272-6.177,3.795-14.367,5.945c-5.003,1.313-9.766,2.066-13.069,2.066c-1.198,0-1.927-0.103-2.37-0.205l-0.008-0.031
		c-0.004-0.016-0.012-0.03-0.017-0.046C39.879,26.779,44.653,24.253,52.85,22.1z"/>
	<path fill="#040000" d="M56.246,39.405c-0.245,0.42-0.328,0.88-0.285,1.366l-2.308,3.951c-0.267,0.456-0.316,0.993-0.148,1.595
		c0.714,2.559,6.79,9.146,14.322,13.242c5.137,2.796,11.058,4.833,14.619,4.833c1.459,0,2.522-0.342,2.974-1.117l2.288-3.918
		c0.545-0.258,0.878-0.62,1.072-0.951c2.466-4.224-10.957-12.353-13.673-13.939c-6.61-3.861-12.915-6.355-16.065-6.355
		C57.355,38.112,56.591,38.816,56.246,39.405z M69.255,56.934c-6.992-3.802-11.924-9.427-12.763-11.146l1.079-1.848
		c3.256,3.949,10.44,8.29,12.348,9.404c5.516,3.222,10.813,5.486,14.249,6.149l-1.128,1.931
		C81.618,61.631,76.19,60.706,69.255,56.934z M85.842,56.637c-0.008,0.013-0.019,0.024-0.027,0.038l-0.018,0.03
		c-2.227-0.099-7.568-1.965-14.371-5.94c-7.312-4.271-11.23-7.984-12.242-9.586l0.026-0.045c0.005-0.009,0.007-0.018,0.012-0.027
		c2.225,0.097,7.567,1.963,14.374,5.941C80.913,51.323,84.834,55.036,85.842,56.637z"/>
</g>
</svg>
