<?xml version="1.0" encoding="utf-8"?>
<!-- Generator: Adobe Illustrator 17.0.1, SVG Export Plug-In . SVG Version: 6.00 Build 0)  -->
<!DOCTYPE svg PUBLIC "-//W3C//DTD SVG 1.1//EN" "http://www.w3.org/Graphics/SVG/1.1/DTD/svg11.dtd">
<svg version="1.1" id="图层_1" xmlns="http://www.w3.org/2000/svg" xmlns:xlink="http://www.w3.org/1999/xlink" x="0px" y="0px"
	 width="120px" height="120px" viewBox="-12.5 -12.5 120 120" enable-background="new -12.5 -12.5 120 120" xml:space="preserve">
<g>
	<path fill="#040000" d="M93.294,64.838c-1.146-1.266-2.646-1.936-4.339-1.936c-2.391,0-4.528,1.292-5.439,1.844
		c-0.091,0.056-0.164,0.1-0.191,0.116c-0.475,0.23-7.703,5.211-15.071,10.316c0.001-0.068,0-0.135-0.003-0.203
		c-0.062-1.551-0.995-2.998-2.775-4.302c-2.543-1.863-23.15-16.591-23.32-16.711c-0.156-0.119-3.892-2.911-10.495-2.911
		c-3.797,0-7.787,0.921-11.862,2.734C8.642,58.75,0.873,62.837,0.795,62.878c-0.397,0.21-0.678,0.587-0.766,1.027
		c-0.088,0.44,0.027,0.897,0.313,1.243l13.07,15.791c0.467,0.564,1.273,0.707,1.906,0.335l7.216-4.247
		c0.023-0.015,2.386-1.495,5.479-1.495c1.809,0,3.527,0.505,5.102,1.501c4.733,2.993,21.524,14.255,21.634,14.325
		c0.097,0.073,2.426,1.775,5.838,1.775c1.994,0,3.948-0.571,5.807-1.694c4.123-2.495,25.544-17.981,26.442-18.63
		c0.193-0.137,1.896-1.402,2.135-3.578C95.137,67.729,94.573,66.251,93.294,64.838z M91.1,70.383
		c-0.222,0.161-22.231,16.072-26.25,18.503c-1.388,0.839-2.822,1.264-4.264,1.264c-2.389,0-4.049-1.18-4.117-1.228
		C56.3,88.809,39.475,77.526,34.708,74.512c-2.06-1.303-4.313-1.963-6.696-1.963c-4.004,0-6.971,1.891-7.04,1.937l-6.072,3.573
		L3.822,64.673c2.826-1.439,9.109-4.568,17.19-8.165c3.691-1.642,7.274-2.475,10.649-2.475c5.535,0,8.662,2.281,8.724,2.327
		c0.208,0.148,20.8,14.864,23.329,16.717c0.981,0.719,1.535,1.434,1.558,2.014c0.025,0.609-0.565,1.247-1.062,1.677
		c-0.743,0.638-1.57,0.949-2.529,0.949c-1.587,0-2.945-0.866-2.981-0.889c-6.021-3.78-15.863-10.011-16.643-10.639
		c-0.528-0.437-1.079-0.659-1.637-0.659c-1.128,0-1.857,0.863-2.079,1.718c-0.16,0.617,0.09,1.268,0.624,1.619
		c0,0,14.608,9.608,18.355,12.052c1.012,0.66,2.206,0.995,3.551,0.995c2.307,0,4.318-1.014,4.403-1.057
		c0.059-0.032,0.116-0.066,0.171-0.103c7.308-5.072,18.464-12.785,19.176-13.208c0.087-0.041,0.237-0.127,0.438-0.25
		c0.699-0.423,2.337-1.415,3.896-1.415c0.863,0,1.539,0.304,2.127,0.954c0.675,0.747,0.987,1.436,0.926,2.05
		C91.924,69.761,91.107,70.378,91.1,70.383z"/>
	<path fill="#040000" d="M58.371,56.064c14.943,0,27.099-12.155,27.099-27.098S73.314,1.867,58.371,1.867
		c-14.942,0-27.098,12.157-27.098,27.099S43.429,56.064,58.371,56.064z M35.501,36.601c3.14,1.035,6.924,1.832,11.098,2.352
		c0.565,4.656,1.524,8.899,2.819,12.399C42.879,48.727,37.75,43.32,35.501,36.601z M34.999,24.669
		c3.043-1.167,6.923-2.063,11.289-2.644c-0.184,2.252-0.28,4.577-0.28,6.941c0,2.365,0.096,4.69,0.28,6.941
		c-4.366-0.581-8.246-1.477-11.289-2.644c-0.121-0.047-0.245-0.071-0.368-0.085c-0.242-1.369-0.376-2.775-0.376-4.212
		c0-1.443,0.135-2.855,0.379-4.229C34.756,24.723,34.879,24.715,34.999,24.669z M82.112,24.755c0.242,1.369,0.376,2.774,0.376,4.212
		c0,1.437-0.134,2.843-0.376,4.212c-0.122,0.014-0.245,0.038-0.366,0.085c-3.044,1.168-6.925,2.064-11.293,2.645
		c0.184-2.252,0.28-4.577,0.28-6.942s-0.096-4.69-0.28-6.942c4.367,0.581,8.247,1.477,11.291,2.644
		C81.866,24.716,81.989,24.74,82.112,24.755z M67.752,28.966c0,2.495-0.112,4.936-0.321,7.285c-2.884,0.275-5.93,0.421-9.058,0.421
		c-3.13,0-6.177-0.147-9.063-0.422c-0.209-2.35-0.321-4.79-0.321-7.285s0.112-4.935,0.321-7.285
		c2.885-0.275,5.932-0.422,9.061-0.422c3.129,0,6.175,0.147,9.06,0.422C67.64,24.031,67.752,26.471,67.752,28.966z M53.082,52.491
		c-0.021-0.078-0.044-0.156-0.078-0.233c-1.554-3.428-2.701-7.921-3.363-12.981c2.8,0.248,5.734,0.378,8.732,0.378
		c2.997,0,5.93-0.129,8.729-0.378c-0.662,5.058-1.808,9.55-3.361,12.977c-0.035,0.077-0.058,0.156-0.079,0.236
		c-1.704,0.383-3.472,0.592-5.29,0.592C56.554,53.082,54.785,52.873,53.082,52.491z M67.324,51.352
		c1.295-3.5,2.254-7.744,2.819-12.399c4.174-0.519,7.958-1.317,11.099-2.351C78.992,43.321,73.863,48.727,67.324,51.352z
		 M81.242,21.331c-3.14-1.035-6.924-1.833-11.099-2.352c-0.565-4.656-1.524-8.9-2.819-12.4
		C73.864,9.205,78.993,14.612,81.242,21.331z M63.659,5.441c0.021,0.078,0.044,0.157,0.079,0.233
		c1.554,3.428,2.701,7.921,3.363,12.981c-2.799-0.248-5.732-0.378-8.729-0.378c-2.998,0-5.932,0.13-8.732,0.378
		c0.662-5.057,1.808-9.549,3.361-12.977c0.035-0.078,0.059-0.157,0.08-0.237c1.704-0.383,3.472-0.592,5.29-0.592
		C60.188,4.849,61.956,5.058,63.659,5.441z M49.417,6.58c-1.295,3.5-2.254,7.744-2.819,12.4c-4.174,0.519-7.957,1.317-11.098,2.352
		C37.75,14.613,42.878,9.205,49.417,6.58z"/>
</g>
</svg>
