<?xml version="1.0" encoding="utf-8"?>
<!-- Generator: Adobe Illustrator 17.0.1, SVG Export Plug-In . SVG Version: 6.00 Build 0)  -->
<!DOCTYPE svg PUBLIC "-//W3C//DTD SVG 1.1//EN" "http://www.w3.org/Graphics/SVG/1.1/DTD/svg11.dtd">
<svg version="1.1" id="图层_1" xmlns="http://www.w3.org/2000/svg" xmlns:xlink="http://www.w3.org/1999/xlink" x="0px" y="0px"
	 width="120px" height="120px" viewBox="-12.5 -12.5 120 120" enable-background="new -12.5 -12.5 120 120" xml:space="preserve">
<g>
	<path fill="#040000" d="M23.893,64.219c-2.51,0-4.551-2.042-4.551-4.551s2.042-4.551,4.551-4.551s4.551,2.042,4.551,4.551
		C28.444,62.177,26.403,64.219,23.893,64.219z M23.893,57.033c-1.453,0-2.635,1.182-2.635,2.635s1.182,2.635,2.635,2.635
		s2.634-1.182,2.634-2.635S25.346,57.033,23.893,57.033z"/>
</g>
<g>
	<path fill="#040000" d="M23.893,77.563c-2.51,0-4.551-2.042-4.551-4.551s2.042-4.55,4.551-4.55s4.551,2.041,4.551,4.55
		S26.403,77.563,23.893,77.563z M23.893,70.378c-1.453,0-2.635,1.181-2.635,2.634s1.182,2.635,2.635,2.635s2.634-1.182,2.634-2.635
		S25.346,70.378,23.893,70.378z"/>
</g>
<g>
	<path fill="#040000" d="M72.194,43.864L45.89,17.541c-0.288-0.288-0.674-0.428-1.065-0.429v-0.014H14.27
		c-3.899,0-7.071,3.171-7.071,7.07v63.761c0,3.899,3.172,7.071,7.071,7.071H65.57c3.898,0,7.07-3.172,7.07-7.071V44.93h-0.018
		C72.622,44.538,72.482,44.152,72.194,43.864z M46.332,22.255L67.483,43.42H50.382c-2.233,0-4.05-1.818-4.05-4.051V22.255z
		 M69.62,87.929c0,2.234-1.817,4.051-4.05,4.051H14.27c-2.233,0-4.05-1.818-4.05-4.051V24.168c0-2.233,1.817-4.05,4.05-4.05h29.041
		v19.251c0,3.899,3.172,7.071,7.071,7.071H69.62V87.929z"/>
	<path fill="#040000" d="M30.754,60.28c0,1.112,0.901,2.014,2.014,2.014h24.109c1.111,0,2.014-0.901,2.014-2.014
		c0-1.112-0.901-2.014-2.014-2.014H32.767C31.655,58.266,30.754,59.168,30.754,60.28z"/>
	<path fill="#040000" d="M56.877,72.283H32.767c-1.112,0-2.014,0.901-2.014,2.014c0,1.112,0.901,2.014,2.014,2.014h24.109
		c1.111,0,2.014-0.901,2.014-2.014C58.89,73.184,57.989,72.283,56.877,72.283z"/>
	<path fill="#040000" d="M61.556,1.444l-1.012-1.012c-0.029-0.029-0.067-0.046-0.1-0.074l-0.354-0.347h-0.439
		c-0.127-0.015-0.254-0.018-0.383,0H29.43c-3.899,0-7.071,3.172-7.071,7.071v4.037h3.02V7.084c0-2.233,1.817-4.051,4.05-4.051
		h28.537v19.229c0,3.899,3.172,7.07,7.071,7.07H84.78v40.533c0,2.233-1.817,4.05-4.05,4.05h-2.112v3.02h2.112
		c3.899,0,7.071-3.171,7.071-7.07V27.092L61.556,1.444z M65.037,26.312c-2.233,0-4.05-1.817-4.05-4.05V5.147l21.151,21.165H65.037z"
		/>
</g>
</svg>
