<?xml version="1.0" encoding="utf-8"?>
<!-- Generator: Adobe Illustrator 17.0.1, SVG Export Plug-In . SVG Version: 6.00 Build 0)  -->
<!DOCTYPE svg PUBLIC "-//W3C//DTD SVG 1.1//EN" "http://www.w3.org/Graphics/SVG/1.1/DTD/svg11.dtd">
<svg version="1.1" id="图层_1" xmlns="http://www.w3.org/2000/svg" xmlns:xlink="http://www.w3.org/1999/xlink" x="0px" y="0px"
	 width="120px" height="120px" viewBox="-12.5 -12.5 120 120" enable-background="new -12.5 -12.5 120 120" xml:space="preserve">
<path fill="#040000" d="M94.254,45.035l-15.567-8.988l14.88-8.59c0.462-0.267,0.746-0.759,0.746-1.292
	c0-0.533-0.285-1.026-0.746-1.292L65.02,8.391c-0.462-0.267-1.031-0.267-1.492,0l-16.371,9.452L32.408,9.328
	c-0.462-0.267-1.031-0.267-1.492,0L2.359,25.804c-0.462,0.267-0.746,0.759-0.746,1.292c0,0.533,0.285,1.026,0.746,1.292
	l13.245,7.647L0.746,44.613C0.285,44.879,0,45.372,0,45.905c0,0.533,0.285,1.027,0.746,1.292l16.372,9.453v12.186
	c0,0.533,0.284,1.026,0.746,1.292L46.41,86.609c0.017,0.01,0.036,0.013,0.053,0.022c0.08,0.043,0.165,0.077,0.253,0.104
	c0.03,0.009,0.059,0.02,0.089,0.028c0.113,0.027,0.229,0.046,0.351,0.046c0.121,0,0.238-0.018,0.351-0.046
	c0.031-0.007,0.06-0.018,0.09-0.028c0.088-0.027,0.172-0.062,0.252-0.104c0.017-0.009,0.036-0.012,0.053-0.022l28.546-16.481
	c0.462-0.267,0.746-0.759,0.746-1.292V57.468l17.059-9.848C94.715,47.353,95,46.861,95,46.328
	C95,45.794,94.715,45.302,94.254,45.035z M72.718,36.047L62.372,42.02l-15.194,8.772L21.616,36.035L47.157,21.29l6.39,3.689
	L72.718,36.047z M64.274,11.408l25.562,14.758l-14.133,8.158l-13.321-7.69l-12.241-7.067L64.274,11.408z M31.661,12.343
	l12.511,7.224l-12.006,6.931L18.61,34.324L6.09,27.096L31.661,12.343z M18.589,37.758L44.15,52.516l-14.112,8.147L4.477,45.905
	L18.589,37.758z M20.102,58.373l9.19,5.306c0.231,0.133,0.488,0.2,0.746,0.2c0.258,0,0.515-0.068,0.746-0.201l14.879-8.591v27.645
	L20.102,67.974V58.373z M74.21,67.974L48.648,82.732V55.113L64.215,64.1c0.231,0.133,0.488,0.2,0.746,0.2
	c0.258,0,0.515-0.067,0.746-0.2l8.503-4.909V67.974z M74.37,55.653h-0.16v0.092l-9.249,5.339l-14.821-8.556L75.703,37.77
	l14.821,8.557L74.37,55.653z"/>
</svg>
