<?xml version="1.0" encoding="utf-8"?>
<!-- Generator: Adobe Illustrator 17.0.1, SVG Export Plug-In . SVG Version: 6.00 Build 0)  -->
<!DOCTYPE svg PUBLIC "-//W3C//DTD SVG 1.1//EN" "http://www.w3.org/Graphics/SVG/1.1/DTD/svg11.dtd">
<svg version="1.1" id="图层_1" xmlns="http://www.w3.org/2000/svg" xmlns:xlink="http://www.w3.org/1999/xlink" x="0px" y="0px"
	 width="120px" height="120px" viewBox="-12.5 -12.5 120 120" enable-background="new -12.5 -12.5 120 120" xml:space="preserve">
<g>
	<path fill="#040000" d="M43.585,69.774c0.973,1.518,2.519,2.425,4.137,2.425c1.594,0,3.025-0.882,3.825-2.361
		c0.951-1.756,1.822-5.812-3.03-13.25c-0.181-0.277-0.49-0.448-0.822-0.454c-0.33,0.013-0.646,0.154-0.837,0.426
		C46.229,57.454,40.797,65.422,43.585,69.774z M49.783,68.883c-0.451,0.833-1.202,1.31-2.062,1.31c-0.929,0-1.845-0.56-2.448-1.501
		c-1.473-2.3,0.753-6.985,2.387-9.684C51.259,65.113,50.218,68.083,49.783,68.883z"/>
	<path fill="#040000" d="M70.024,4.683H24.977c-3.681,0-6.676,2.995-6.676,6.676v18.633c0,9.122,16.192,18.154,25.515,20.372
		c-9.237,2.3-25.515,11.513-25.515,20.464v12.813c0,0.291,0.027,0.578,0.082,0.874c0.438,3.312,3.263,5.802,6.594,5.802h45.047
		c3.331,0,6.157-2.491,6.595-5.804c0.055-0.297,0.081-0.583,0.081-0.873V70.828c0-8.95-16.278-18.163-25.514-20.464
		C60.509,48.146,76.7,39.114,76.7,29.992V11.359C76.7,7.678,73.705,4.683,70.024,4.683z M73.691,24.934L73.691,24.934
		c-0.001-0.003,0-0.005,0-0.008V24.934z M24.977,7.692h45.047c2.021,0,3.667,1.645,3.667,3.667v13.375
		c-0.595,0.778-4.056,2.434-9.079,3.076c-3.229,0.413-11.255,0.853-16.048-3.94c-9.274-9.274-22.165-5.732-27.254-3.794v-8.717
		C21.31,9.337,22.955,7.692,24.977,7.692z M73.692,70.828v12.811c0,0.131-0.015,0.245-0.036,0.349L73.64,84.09
		c-0.228,1.834-1.783,3.217-3.615,3.217H24.978c-1.834,0-3.387-1.383-3.615-3.216l-0.017-0.106
		c-0.021-0.103-0.036-0.216-0.036-0.345V70.828c0-7.797,19.179-18.004,26.191-18.004C54.512,52.824,73.691,63.031,73.692,70.828z
		 M47.501,47.875c-7.011,0-26.191-10.138-26.191-17.883v-6.667c3.392-1.422,16.419-6.034,25.127,2.673
		c3.691,3.691,9.182,5.048,14.505,5.048c4.303,0,8.494-0.887,11.529-2.144c0.447-0.185,0.845-0.375,1.22-0.566v1.656
		C73.691,37.737,54.512,47.875,47.501,47.875z"/>
	<path fill="#040000" d="M87.829,31.552c-0.01-0.011-0.022-0.019-0.032-0.029c-0.047-0.05-0.096-0.096-0.15-0.139
		c-0.028-0.023-0.055-0.044-0.084-0.065c-0.048-0.034-0.098-0.064-0.15-0.092c-0.039-0.021-0.078-0.04-0.118-0.058
		c-0.025-0.011-0.046-0.025-0.071-0.035c-0.026-0.01-0.053-0.012-0.079-0.02c-0.045-0.014-0.089-0.025-0.135-0.035
		c-0.051-0.011-0.101-0.019-0.151-0.024c-0.048-0.005-0.095-0.007-0.143-0.007c-0.047,0-0.094,0-0.14,0.004
		c-0.054,0.004-0.106,0.013-0.159,0.023c-0.039,0.008-0.078,0.016-0.116,0.027c-0.057,0.016-0.113,0.036-0.168,0.059
		c-0.033,0.014-0.066,0.028-0.099,0.044c-0.054,0.027-0.105,0.057-0.156,0.091c-0.033,0.022-0.065,0.044-0.096,0.069
		c-0.024,0.019-0.051,0.033-0.074,0.053c-0.022,0.019-0.038,0.043-0.058,0.063c-0.028,0.028-0.054,0.056-0.08,0.086
		c-0.041,0.048-0.079,0.096-0.114,0.148c-0.019,0.028-0.036,0.057-0.053,0.086c-0.034,0.06-0.064,0.12-0.09,0.183
		c-0.006,0.015-0.015,0.027-0.02,0.042l-3.632,9.847c-0.214,0.579-0.052,1.23,0.407,1.642c0.282,0.252,0.642,0.383,1.004,0.383
		c0.228,0,0.459-0.051,0.675-0.158l0.009-0.004c0.395-0.198,0.664-0.546,0.773-0.94l2.666-7.229
		c3.14,4.269,4.797,8.998,4.797,13.814c0,4.868-1.617,9.525-4.807,13.843c-0.494,0.669-0.352,1.612,0.316,2.105
		c0.27,0.198,0.583,0.294,0.894,0.294c0.462,0,0.916-0.212,1.212-0.611C93.134,60.232,95,54.827,95,49.38
		C95,43.046,92.522,36.881,87.829,31.552z"/>
	<path fill="#040000" d="M10.789,52.862c-0.776-0.286-1.644,0.112-1.932,0.891l-2.61,7.075c-2.139-3.63-3.239-7.467-3.239-11.446
		c0-5.591,2.219-11.068,6.418-15.84c0.55-0.624,0.489-1.574-0.135-2.123c-0.623-0.55-1.573-0.489-2.123,0.135
		C2.479,36.884,0,43.048,0,49.381c0,5.447,1.867,10.853,5.398,15.635c0.179,0.241,0.42,0.405,0.682,0.504c0,0,0.001,0,0.001,0
		c0.17,0.064,0.348,0.106,0.529,0.106c0.005,0,0.009-0.002,0.014-0.002c0.004,0,0.008,0.002,0.012,0.002
		c0.146,0,0.292-0.029,0.435-0.072c0,0,0.001,0,0.001,0c0.049-0.015,0.099-0.025,0.147-0.045l0.009-0.004
		c0.442-0.186,0.747-0.556,0.864-0.983l3.588-9.726C11.967,54.014,11.568,53.15,10.789,52.862z"/>
</g>
</svg>
