<?xml version="1.0" encoding="utf-8"?>
<!-- Generator: Adobe Illustrator 17.0.1, SVG Export Plug-In . SVG Version: 6.00 Build 0)  -->
<!DOCTYPE svg PUBLIC "-//W3C//DTD SVG 1.1//EN" "http://www.w3.org/Graphics/SVG/1.1/DTD/svg11.dtd">
<svg version="1.1" id="图层_1" xmlns="http://www.w3.org/2000/svg" xmlns:xlink="http://www.w3.org/1999/xlink" x="0px" y="0px"
	 width="120px" height="120px" viewBox="0 0 120 120" enable-background="new 0 0 120 120" xml:space="preserve">
<g>
	<path fill="#221E1F" d="M94.648,32.163c-7.966-7.965-18.514-12.974-29.701-14.103c-14.72-1.488-29.148,3.656-39.596,14.103
		c-19.105,19.105-19.105,50.191,0,69.296c0.221,0.221,0.497,0.331,0.783,0.385c0.249,0.163,0.522,0.272,0.808,0.272
		c0.384,0,0.768-0.146,1.061-0.439l8.329-8.329c0.586-0.586,0.586-1.535,0-2.121s-1.535-0.586-2.121,0l-7.407,7.407
		c-8.088-8.433-12.337-19.205-12.741-30.103H24.5c0.829,0,1.5-0.672,1.5-1.5s-0.671-1.5-1.5-1.5H14.052
		c0.298-10.814,4.375-21.536,12.235-30l7.394,7.394c0.293,0.293,0.677,0.439,1.061,0.439s0.768-0.146,1.061-0.439
		c0.586-0.585,0.586-1.535,0-2.121l-7.399-7.4c8.176-7.738,18.753-12.141,29.877-12.547v10.453c0,0.829,0.671,1.5,1.5,1.5
		c0.828,0,1.5-0.671,1.5-1.5V20.842c1.12,0.032,2.242,0.089,3.367,0.202c9.93,1.002,19.322,5.266,26.638,12.049l-7.398,7.398
		c-0.586,0.585-0.586,1.536,0,2.121c0.293,0.293,0.677,0.439,1.061,0.439s0.768-0.146,1.061-0.439l7.402-7.402
		c7.949,8.399,12.128,19.078,12.529,29.879H95.5c-0.828,0-1.5,0.672-1.5,1.5s0.672,1.5,1.5,1.5h10.448
		c-0.305,11.079-4.579,22.061-12.822,30.618l-7.409-7.409c-0.586-0.586-1.535-0.586-2.121,0s-0.586,1.535,0,2.121l8.329,8.329
		c0.293,0.293,0.677,0.439,1.061,0.439c0.334,0,0.658-0.132,0.932-0.354c0.266-0.061,0.523-0.168,0.731-0.375
		C113.753,82.354,113.753,51.268,94.648,32.163z"/>
	<path fill="#221E1F" d="M74.655,50.034L58.939,65.75c-0.586,0.586-0.586,1.535,0,2.121c0.293,0.293,0.677,0.439,1.061,0.439
		s0.768-0.146,1.061-0.439l15.716-15.716c0.586-0.585,0.586-1.536,0-2.121C76.19,49.448,75.241,49.448,74.655,50.034z"/>
</g>
</svg>
