<?xml version="1.0" encoding="utf-8"?>
<!-- Generator: Adobe Illustrator 17.0.1, SVG Export Plug-In . SVG Version: 6.00 Build 0)  -->
<!DOCTYPE svg PUBLIC "-//W3C//DTD SVG 1.1//EN" "http://www.w3.org/Graphics/SVG/1.1/DTD/svg11.dtd">
<svg version="1.1" id="图层_1" xmlns="http://www.w3.org/2000/svg" xmlns:xlink="http://www.w3.org/1999/xlink" x="0px" y="0px"
	 width="120px" height="120px" viewBox="-12.5 -12.5 120 120" enable-background="new -12.5 -12.5 120 120" xml:space="preserve">
<g id="图层_1_1_">
</g>
<g>
	<path fill="#040000" d="M27.423,53.103c7.647,0,13.868-6.221,13.868-13.868S35.07,25.366,27.423,25.366
		s-13.868,6.221-13.868,13.868C13.555,46.882,19.776,53.103,27.423,53.103z M27.423,27.213c6.628,0,12.021,5.392,12.021,12.022
		c0,6.628-5.393,12.021-12.021,12.021c-6.629,0-12.022-5.393-12.022-12.021C15.401,32.606,20.794,27.213,27.423,27.213z"/>
	<path fill="#040000" d="M24.847,46.487c0.766,0,1.571-0.226,2.397-0.674l5.329-2.892c1.526-0.829,2.387-2.021,2.422-3.357
		c0.035-1.336-0.762-2.571-2.243-3.479l-5.169-3.168c-0.871-0.534-1.731-0.805-2.554-0.805c-2.002,0-3.391,1.633-3.455,4.065
		l-0.16,6.061c-0.036,1.383,0.34,2.521,1.089,3.29C23.113,46.155,23.923,46.487,24.847,46.487z M23.42,36.228
		c0.019-0.682,0.211-2.267,1.608-2.267c0.47,0,1.02,0.184,1.588,0.532l5.169,3.168c0.881,0.54,1.377,1.217,1.362,1.855
		c-0.018,0.639-0.548,1.289-1.456,1.782l-5.329,2.892c-1.052,0.572-2.002,0.599-2.536,0.052c-0.387-0.398-0.588-1.091-0.565-1.952
		L23.42,36.228z"/>
	<path fill="#040000" d="M52.139,58.195H76.5c1.891,0,3.429-1.537,3.428-3.427v-29.66c0-1.89-1.538-3.427-3.428-3.427h-24.36
		c-1.89,0-3.427,1.537-3.427,3.427v29.66C48.713,56.658,50.25,58.195,52.139,58.195z M50.56,25.108c0-0.871,0.708-1.579,1.579-1.579
		H76.5c0.871,0,1.58,0.708,1.58,1.579v29.66c0,0.871-0.709,1.579-1.58,1.579h-24.36c-0.871,0-1.579-0.708-1.579-1.579V25.108z"/>
	<circle fill="#040000" cx="57.2" cy="32.826" r="1.699"/>
	<circle fill="#040000" cx="57.2" cy="40.451" r="1.699"/>
	<path fill="#040000" d="M61.732,33.749h10.855c0.51,0,0.923-0.413,0.923-0.923s-0.412-0.923-0.923-0.923H61.732
		c-0.51,0-0.923,0.413-0.923,0.923S61.221,33.749,61.732,33.749z"/>
	<path fill="#040000" d="M61.732,41.375h10.855c0.51,0,0.923-0.413,0.923-0.923c0-0.51-0.412-0.923-0.923-0.923H61.732
		c-0.51,0-0.923,0.412-0.923,0.923C60.808,40.962,61.221,41.375,61.732,41.375z"/>
	<circle fill="#040000" cx="57.477" cy="47.5" r="1.699"/>
	<path fill="#040000" d="M62.007,46.577c-0.51,0-0.923,0.413-0.923,0.923s0.412,0.923,0.923,0.923h10.855
		c0.511,0,0.923-0.413,0.923-0.923s-0.412-0.923-0.923-0.923H62.007z"/>
	<path fill="#040000" d="M93.81,75.351l-8.038-11.654c0.414-0.753,0.651-1.591,0.651-2.476V17.677c0-3.232-3.076-5.861-6.858-5.861
		h-64.84c-3.781,0-6.858,2.63-6.858,5.861V61.22c0,1.074,0.347,2.113,0.987,3.021L1.19,75.352c-1.66,2.078-1.225,3.826-0.815,4.686
		c0.91,1.911,3.376,3.146,6.28,3.146H46.68h1.639h40.024c2.905,0,5.37-1.236,6.28-3.147C95.034,79.177,95.47,77.429,93.81,75.351z
		 M10.638,17.677c0-1.704,1.834-3.089,4.087-3.089h64.84c2.254,0,4.087,1.385,4.087,3.089v43.544c0,1.704-1.834,3.089-4.087,3.089
		h-64.84c-1.465,0-2.83-0.608-3.563-1.589c-0.342-0.456-0.524-0.975-0.524-1.5V17.677z M92.123,78.845
		c-0.371,0.78-1.788,1.568-3.779,1.568H48.319H46.68H6.656c-1.991,0-3.409-0.789-3.779-1.568c-0.235-0.491-0.066-1.093,0.501-1.792
		l7.557-10.952c1.104,0.625,2.41,0.979,3.79,0.979h64.839c1.621,0,3.11-0.485,4.285-1.292l7.709,11.177l0.064,0.087
		C92.189,77.752,92.357,78.354,92.123,78.845z"/>
</g>
</svg>
