<?xml version="1.0" encoding="utf-8"?>
<!-- Generator: Adobe Illustrator 17.0.1, SVG Export Plug-In . SVG Version: 6.00 Build 0)  -->
<!DOCTYPE svg PUBLIC "-//W3C//DTD SVG 1.1//EN" "http://www.w3.org/Graphics/SVG/1.1/DTD/svg11.dtd">
<svg version="1.1" id="图层_1" xmlns="http://www.w3.org/2000/svg" xmlns:xlink="http://www.w3.org/1999/xlink" x="0px" y="0px"
	 width="120px" height="120px" viewBox="-12.5 -12.5 120 120" enable-background="new -12.5 -12.5 120 120" xml:space="preserve">
<g id="图层_1_1_">
</g>
<g>
	<path fill="#040000" d="M77.815,0h-60.63c-4.259,0-7.724,3.65-7.724,8.137v78.726c0,4.487,3.465,8.137,7.724,8.137h60.63
		c4.259,0,7.724-3.65,7.724-8.137V8.137C85.539,3.65,82.074,0,77.815,0z M82.555,86.863c0,2.841-2.126,5.153-4.74,5.153h-60.63
		c-2.614,0-4.74-2.312-4.74-5.153V8.137c0-2.841,2.127-5.153,4.74-5.153h60.63c2.614,0,4.74,2.311,4.74,5.153V86.863z"/>
	<path fill="#040000" d="M25.647,15.095c-4.124,0-7.479,3.355-7.479,7.479c0,4.124,3.355,7.479,7.479,7.479
		c4.124,0,7.479-3.355,7.479-7.479C33.126,18.45,29.771,15.095,25.647,15.095z M25.647,27.052c-2.47,0-4.479-2.009-4.479-4.479
		s2.009-4.479,4.479-4.479c2.47,0,4.479,2.009,4.479,4.479S28.117,27.052,25.647,27.052z"/>
	<path fill="#040000" d="M25.466,40.852c-3.171,0-5.751,2.58-5.751,5.751c0,3.171,2.58,5.751,5.751,5.751
		c3.172,0,5.751-2.58,5.751-5.751C31.217,43.432,28.637,40.852,25.466,40.852z M25.466,49.354c-1.517,0-2.751-1.234-2.751-2.751
		c0-1.517,1.234-2.751,2.751-2.751c1.517,0,2.751,1.234,2.751,2.751C28.217,48.12,26.983,49.354,25.466,49.354z"/>
	<path fill="#040000" d="M25.466,57.621c-3.171,0-5.751,2.58-5.751,5.752c0,3.171,2.58,5.751,5.751,5.751
		c3.172,0,5.752-2.58,5.751-5.751C31.217,60.201,28.637,57.621,25.466,57.621z M25.466,66.124c-1.517,0-2.751-1.234-2.751-2.751
		c0-1.518,1.234-2.752,2.751-2.752c1.517,0,2.752,1.234,2.751,2.752C28.217,64.89,26.983,66.124,25.466,66.124z"/>
	<path fill="#040000" d="M69.359,44.604H42.197c-1.104,0-2,0.896-2,2s0.896,2,2,2h27.162c1.105,0,2-0.896,2-2
		S70.463,44.604,69.359,44.604z"/>
	<path fill="#040000" d="M69.359,61.373H42.197c-1.104,0-2,0.896-2,2s0.896,2,2,2h27.162c1.105,0,2-0.896,2-2
		S70.463,61.373,69.359,61.373z"/>
	<path fill="#040000" d="M25.466,72.933c-3.171,0-5.751,2.58-5.751,5.751c0,3.172,2.58,5.752,5.751,5.752
		c3.172,0,5.752-2.581,5.751-5.752C31.217,75.513,28.637,72.933,25.466,72.933z M25.466,81.436c-1.517,0-2.751-1.234-2.751-2.752
		c0-1.517,1.234-2.751,2.751-2.751c1.517,0,2.752,1.234,2.751,2.751C28.217,80.202,26.983,81.436,25.466,81.436z"/>
	<path fill="#040000" d="M69.359,76.684H42.197c-1.104,0-2,0.896-2,2c0,1.104,0.896,2,2,2h27.162c1.105,0,2-0.896,2-2
		C71.359,77.58,70.463,76.684,69.359,76.684z"/>
	<path fill="#040000" d="M69.764,8.738h-27.05c-2.44,0-4.28,1.38-4.28,3.212v20.285c0,1.831,1.84,3.212,4.28,3.212h27.05
		c2.44,0,4.28-1.381,4.28-3.212V11.95C74.044,10.119,72.204,8.738,69.764,8.738z M71.043,32.098
		c-0.148,0.126-0.584,0.349-1.28,0.349h-27.05c-0.696,0-1.132-0.223-1.28-0.349V12.086c0.148-0.126,0.584-0.349,1.28-0.349h27.05
		c0.696,0,1.132,0.223,1.28,0.349V32.098z"/>
</g>
</svg>
