<?xml version="1.0" encoding="utf-8"?>
<!-- Generator: Adobe Illustrator 17.0.1, SVG Export Plug-In . SVG Version: 6.00 Build 0)  -->
<!DOCTYPE svg PUBLIC "-//W3C//DTD SVG 1.1//EN" "http://www.w3.org/Graphics/SVG/1.1/DTD/svg11.dtd">
<svg version="1.1" id="图层_1" xmlns="http://www.w3.org/2000/svg" xmlns:xlink="http://www.w3.org/1999/xlink" x="0px" y="0px"
	 width="120px" height="120px" viewBox="-12.5 -12.5 120 120" enable-background="new -12.5 -12.5 120 120" xml:space="preserve">
<g id="图层_1_1_">
</g>
<path fill="#030000" d="M94.321,79.304l-5.261-6.436l5.381-4.356c0.384-0.311,0.591-0.791,0.555-1.283
	c-0.037-0.493-0.312-0.937-0.738-1.187l-13.554-7.973c6.117-6.419,9.486-14.806,9.486-23.696C90.19,15.481,74.869,0.104,56,0.005V0
	H4.673C2.053,0,0,2.583,0,5.879V57.67c0,3.297,2.052,5.879,4.673,5.879h31.882v-0.703c0.009,0.006,0.018,0.013,0.027,0.019v7.896
	c0,1.541,0.449,2.978,1.242,4.232C37.883,86.78,44.999,95,55.179,95c8.495,0,14.845-5.734,16.753-14.478l0.769,2.518
	c0.145,0.476,0.516,0.851,0.993,0.999c0.473,0.146,0.994,0.05,1.384-0.259l5.741-4.561l5.546,6.778
	c0.545,0.644,1.274,1.013,2.002,1.013c0.471,0,0.92-0.162,1.268-0.456l4.679-3.957C95.226,81.824,95.222,80.368,94.321,79.304z
	 M4.673,60.536c-0.783,0-1.66-1.226-1.66-2.866V5.879c0-1.641,0.876-2.866,1.66-2.866H41.77
	c-7.225,3.249-13.129,8.918-16.677,15.973c-0.368-0.459-0.927-0.758-1.561-0.758H12.325c-1.11,0-2.009,0.9-2.009,2.009
	c0,1.11,0.9,2.009,2.009,2.009h11.207c0.045,0,0.087-0.01,0.132-0.013c-0.898,2.369-1.538,4.862-1.892,7.446
	c-0.169-0.046-0.344-0.079-0.528-0.079h-8.919c-1.11,0-2.009,0.899-2.009,2.009s0.9,2.009,2.009,2.009h8.919
	c0.075,0,0.146-0.014,0.219-0.022c-0.006,0.259-0.02,0.516-0.02,0.777c0,2.369,0.253,4.696,0.717,6.959
	c-0.095-0.014-0.191-0.029-0.29-0.029h-9.546c-1.11,0-2.009,0.899-2.009,2.009s0.9,2.009,2.009,2.009h9.546
	c0.459,0,0.876-0.16,1.215-0.418c1.937,6.047,5.532,11.458,10.444,15.633H4.673z M24.455,34.373
	c0-17.279,14.047-31.339,31.323-31.36h0.077c17.274,0.021,31.323,14.081,31.323,31.36c0,8.294-3.207,16.114-9.031,22.02l0.431,0.425
	l-13.583-7.99c-0.537-0.315-1.21-0.269-1.697,0.116s-0.689,1.029-0.508,1.623l7.261,23.79c-1.564,1.46-3.943,2.331-6.456,2.331
	H47.317c-4.331,0-7.723-2.603-7.723-5.925v-8.618c0.032-0.535-0.225-1.057-0.69-1.356C29.856,54.983,24.455,45.108,24.455,34.373z
	 M55.18,91.987c-7.519,0-13.008-5.59-14.127-13.932c1.753,1.035,3.906,1.644,6.265,1.644h16.278c2.033,0,3.971-0.44,5.663-1.233
	C68.019,86.583,62.577,91.987,55.18,91.987z M88.365,83.683l-6.154-7.521c-0.298-0.364-0.731-0.552-1.167-0.552
	c-0.329,0-0.659,0.107-0.936,0.327l-5.171,4.108L66.8,53.387l24.057,14.15l-4.868,3.942c-0.312,0.252-0.51,0.618-0.551,1.017
	c-0.042,0.398,0.078,0.797,0.332,1.107l5.931,7.258L88.365,83.683z"/>
</svg>
