<?xml version="1.0" encoding="utf-8"?>
<!-- Generator: Adobe Illustrator 17.0.1, SVG Export Plug-In . SVG Version: 6.00 Build 0)  -->
<!DOCTYPE svg PUBLIC "-//W3C//DTD SVG 1.1//EN" "http://www.w3.org/Graphics/SVG/1.1/DTD/svg11.dtd">
<svg version="1.1" id="图层_1" xmlns="http://www.w3.org/2000/svg" xmlns:xlink="http://www.w3.org/1999/xlink" x="0px" y="0px"
	 width="120px" height="120px" viewBox="-12.5 -12.5 120 120" enable-background="new -12.5 -12.5 120 120" xml:space="preserve">
<g id="图层_1_1_">
</g>
<g>
	<path fill="#221F20" d="M48.14,36.12c0.002,0,0.003,0,0.005,0c0.55,0,0.996-0.445,0.999-0.994l0.022-4.436
		c0.639,0.254,1.317,0.397,2.015,0.397c0.114,0,0.229-0.004,0.343-0.01c2.095-0.13,3.902-1.412,4.716-3.348
		c0.856-2.037,0.399-4.375-1.224-6.254c-0.058-0.068-0.126-0.127-0.201-0.177c-1.707-1.141-3.596-1.463-5.316-0.905
		c-0.003,0.001-0.004,0.003-0.007,0.004c-0.197,0.063-0.39,0.138-0.579,0.224c-0.179-0.176-0.423-0.287-0.693-0.289
		c-0.002,0-0.003,0-0.005,0c-0.55,0-0.996,0.444-0.999,0.994l-0.069,13.789C47.142,35.667,47.587,36.117,48.14,36.12z
		 M49.206,22.703c0.062-0.022,0.124-0.043,0.182-0.077c0.231-0.139,0.474-0.25,0.724-0.331c0.001,0,0.002-0.001,0.003-0.001
		c1.092-0.349,2.32-0.14,3.475,0.593c1.061,1.285,1.356,2.761,0.806,4.067c-0.518,1.23-1.666,2.046-2.997,2.128
		c-0.8,0.055-1.574-0.188-2.222-0.65L49.206,22.703z"/>
	<path fill="#221F20" d="M61.149,35.655c0.002,0,0.004,0,0.006,0c0.549,0,0.995-0.444,0.999-0.993l0.083-13.325
		c0.003-0.552-0.441-1.001-0.993-1.005c-0.002,0-0.004,0-0.006,0c-0.55,0-0.995,0.443-0.999,0.993L60.156,34.65
		C60.153,35.201,60.597,35.651,61.149,35.655z"/>
	<path fill="#221F20" d="M32.091,35.641c0.116,0.043,0.233,0.063,0.348,0.063c0.406,0,0.787-0.249,0.936-0.653l1.112-3.004
		c0.16,0.34,0.502,0.578,0.901,0.578c0.004,0,0.008,0,0.013,0l3.354-0.042c0.551-0.007,0.993-0.46,0.986-1.012
		c-0.007-0.548-0.453-0.986-0.999-0.986c-0.004,0-0.008,0-0.013,0l-3.354,0.042c-0.141,0.002-0.274,0.034-0.395,0.088l2.51-6.778
		l3.437,11.191c0.132,0.43,0.528,0.706,0.955,0.706c0.097,0,0.196-0.013,0.294-0.044c0.527-0.162,0.823-0.721,0.661-1.249L38.68,21
		c-0.162-0.527-0.716-0.825-1.249-0.661c-0.07,0.021-0.124,0.066-0.185,0.101c-0.363,0.041-0.69,0.27-0.826,0.636l-4.919,13.282
		C31.309,34.874,31.573,35.45,32.091,35.641z"/>
	<path fill="#221F20" d="M47.5,0C21.309,0,0,21.308,0,47.5S21.308,95,47.5,95S95,73.691,95,47.5S73.691,0,47.5,0z M47.5,92.002
		c-24.539,0-44.503-19.963-44.503-44.503c0-24.538,19.964-44.502,44.503-44.502S92.003,22.962,92.002,47.5
		C92.002,72.038,72.039,92.002,47.5,92.002z"/>
	<path fill="#221F20" d="M47.579,49.96c-10.523,0-19.082,8.559-19.082,19.082s8.56,19.082,19.082,19.082
		c10.522,0,19.082-8.559,19.082-19.082S58.102,49.96,47.579,49.96z M47.579,85.125c-8.869,0-16.084-7.215-16.084-16.084
		c0-8.869,7.215-16.084,16.084-16.084c8.869,0,16.084,7.215,16.084,16.084C63.663,77.91,56.448,85.125,47.579,85.125z"/>
</g>
</svg>
