<?xml version="1.0" encoding="utf-8"?>
<!-- Generator: Adobe Illustrator 17.0.1, SVG Export Plug-In . SVG Version: 6.00 Build 0)  -->
<!DOCTYPE svg PUBLIC "-//W3C//DTD SVG 1.1//EN" "http://www.w3.org/Graphics/SVG/1.1/DTD/svg11.dtd">
<svg version="1.1" id="图层_1" xmlns="http://www.w3.org/2000/svg" xmlns:xlink="http://www.w3.org/1999/xlink" x="0px" y="0px"
	 width="120px" height="120px" viewBox="-12.5 -12.5 120 120" enable-background="new -12.5 -12.5 120 120" xml:space="preserve">
<g>
	<path fill="#221E1F" d="M80.364,33.053c-7.573,0-13.821,5.783-14.561,13.164H29.866c5.516-2.998,13.824-8.758,16.013-17.11
		c1.835-7.004,7.977-11.622,17.346-13.114c0.871,3.022,3.656,5.215,6.926,5.215c3.978,0,7.214-3.236,7.215-7.214
		c0-3.979-3.237-7.215-7.214-7.215c-3.658,0-6.682,2.739-7.146,6.272c-10.73,1.639-17.811,7.035-19.978,15.309
		c-2.9,11.069-19.522,17.794-19.685,17.857h-6.642c-0.697-3.947-4.136-6.947-8.282-6.947C3.769,39.27,0,43.039,0,47.689
		c0,4.65,3.769,8.419,8.419,8.419c4.147,0,7.585-3,8.282-6.947h7.489c2.373,2.205,8.894,8.739,10.723,15.504
		c1.935,7.155,7.465,9.686,10.782,10.754c-0.455,1.093-0.708,2.289-0.708,3.544c0,5.104,4.153,9.257,9.257,9.257
		s9.257-4.152,9.258-9.257c0-5.105-4.153-9.258-9.258-9.258c-2.755,0-5.226,1.217-6.924,3.134c-2.782-0.807-7.875-2.693-9.564-8.943
		c-1.601-5.92-6.198-11.459-9.361-14.735h37.407c0.741,7.381,6.987,13.164,14.561,13.164c8.07,0,14.636-6.566,14.636-14.636
		C95,39.619,88.434,33.053,80.364,33.053z M70.152,9.724c2.354,0,4.269,1.916,4.269,4.27s-1.916,4.269-4.269,4.269
		c-2.259,0-4.133-1.764-4.263-4.021c-0.005-0.082-0.007-0.165-0.007-0.248C65.882,11.639,67.798,9.724,70.152,9.724z M54.244,72.651
		c3.48,0,6.312,2.832,6.313,6.313c0,3.48-2.832,6.312-6.313,6.312c-3.48,0-6.312-2.832-6.312-6.312
		C47.932,75.483,50.764,72.651,54.244,72.651z M80.364,59.38c-6.447,0-11.692-5.245-11.692-11.692
		c0-6.446,5.245-11.691,11.692-11.691c6.446,0,11.691,5.245,11.691,11.691C92.055,54.135,86.81,59.38,80.364,59.38z"/>
	<circle fill="#221E1F" cx="80.364" cy="47.689" r="5.288"/>
</g>
</svg>
