<?xml version="1.0" encoding="utf-8"?>
<!-- Generator: Adobe Illustrator 17.0.1, SVG Export Plug-In . SVG Version: 6.00 Build 0)  -->
<!DOCTYPE svg PUBLIC "-//W3C//DTD SVG 1.1//EN" "http://www.w3.org/Graphics/SVG/1.1/DTD/svg11.dtd">
<svg version="1.1" id="图层_1" xmlns="http://www.w3.org/2000/svg" xmlns:xlink="http://www.w3.org/1999/xlink" x="0px" y="0px"
	 width="120px" height="120px" viewBox="0 0 120 120" enable-background="new 0 0 120 120" xml:space="preserve">
<g>
	<path fill="#221F20" d="M90,58.909h-0.027c-0.565-15.675-13.206-28.317-28.88-28.881V30H60c-1.034,0-2.055,0.053-3.063,0.155
		C41.829,31.694,30,44.492,30,60c0,16.542,13.458,30,30,30c2.068,0,4.087-0.21,6.038-0.61C79.696,86.588,90,74.474,90,60V58.909z
		 M87.786,61.243c-0.011,0.247-0.03,0.491-0.047,0.735c-0.016,0.222-0.03,0.445-0.051,0.666c-0.022,0.239-0.053,0.477-0.081,0.715
		c-0.027,0.221-0.053,0.443-0.085,0.663c-0.034,0.234-0.074,0.466-0.114,0.697c-0.038,0.221-0.075,0.44-0.118,0.66
		c-0.045,0.229-0.095,0.455-0.146,0.682c-0.049,0.218-0.097,0.436-0.151,0.652c-0.055,0.223-0.116,0.443-0.177,0.664
		c-0.059,0.216-0.12,0.431-0.183,0.645c-0.065,0.217-0.135,0.431-0.206,0.646c-0.07,0.213-0.14,0.425-0.216,0.637
		c-0.075,0.21-0.154,0.42-0.234,0.627c-0.081,0.21-0.163,0.421-0.248,0.628c-0.084,0.203-0.172,0.406-0.261,0.608
		c-0.091,0.206-0.183,0.413-0.279,0.617c-0.093,0.199-0.189,0.395-0.287,0.591c-0.1,0.202-0.203,0.403-0.309,0.602
		c-0.102,0.193-0.206,0.384-0.313,0.573c-0.11,0.197-0.222,0.391-0.337,0.585c-0.111,0.187-0.224,0.373-0.34,0.557
		c-0.12,0.191-0.24,0.38-0.364,0.568c-0.12,0.181-0.24,0.361-0.364,0.538c-0.129,0.185-0.259,0.368-0.39,0.549
		c-0.128,0.175-0.256,0.349-0.388,0.52c-0.136,0.178-0.276,0.354-0.417,0.53c-0.135,0.168-0.272,0.336-0.411,0.5
		c-0.145,0.172-0.292,0.341-0.441,0.509c-0.143,0.162-0.287,0.322-0.433,0.481c-0.152,0.165-0.308,0.325-0.463,0.487
		c-0.151,0.155-0.302,0.31-0.457,0.461c-0.16,0.157-0.322,0.31-0.485,0.462c-0.159,0.149-0.317,0.296-0.479,0.441
		c-0.166,0.149-0.335,0.293-0.504,0.437c-0.166,0.141-0.332,0.282-0.501,0.421c-0.172,0.14-0.347,0.276-0.522,0.411
		c-0.174,0.134-0.348,0.27-0.524,0.4c-0.177,0.131-0.359,0.257-0.539,0.384c-0.18,0.127-0.36,0.253-0.544,0.376
		c-0.183,0.123-0.37,0.239-0.556,0.356c-0.188,0.119-0.374,0.239-0.565,0.352c-0.188,0.113-0.38,0.22-0.571,0.328
		c-0.195,0.111-0.388,0.222-0.586,0.328c-0.192,0.102-0.386,0.2-0.579,0.297c-0.203,0.102-0.405,0.206-0.61,0.305
		c-0.195,0.092-0.391,0.178-0.588,0.267c-0.21,0.093-0.421,0.19-0.633,0.278c-0.198,0.082-0.398,0.158-0.597,0.236
		c-0.217,0.085-0.433,0.171-0.653,0.251c-0.201,0.072-0.403,0.137-0.605,0.205c-0.224,0.075-0.448,0.153-0.675,0.223
		c-0.201,0.062-0.404,0.116-0.608,0.172c-0.233,0.065-0.463,0.134-0.699,0.194c-0.201,0.051-0.404,0.093-0.606,0.14
		c-0.241,0.055-0.481,0.114-0.725,0.164c-0.197,0.04-0.397,0.071-0.595,0.106c-0.253,0.045-0.504,0.093-0.758,0.132
		c-0.189,0.028-0.381,0.048-0.571,0.073c-0.267,0.035-0.534,0.073-0.803,0.099c-0.167,0.017-0.338,0.024-0.506,0.039
		c-0.296,0.024-0.591,0.051-0.889,0.066c-0.042,0.002-0.085,0.002-0.126,0.003c-0.422,0.019-0.845,0.031-1.271,0.031
		c-15.339,0-27.817-12.478-27.817-27.817c0-0.474,0.013-0.945,0.036-1.414c0.007-0.149,0.023-0.295,0.033-0.443
		c0.021-0.319,0.041-0.637,0.073-0.953c0.018-0.175,0.045-0.349,0.065-0.524c0.034-0.284,0.066-0.571,0.108-0.853
		c0.028-0.185,0.065-0.368,0.096-0.551c0.046-0.268,0.09-0.537,0.143-0.802c0.038-0.188,0.085-0.373,0.126-0.559
		c0.058-0.258,0.114-0.517,0.178-0.772c0.048-0.189,0.104-0.374,0.156-0.562c0.069-0.248,0.136-0.498,0.212-0.744
		c0.058-0.188,0.123-0.373,0.185-0.559c0.08-0.24,0.158-0.483,0.244-0.72c0.067-0.185,0.14-0.367,0.212-0.55
		c0.091-0.235,0.18-0.469,0.276-0.7c0.077-0.183,0.16-0.362,0.24-0.543c0.1-0.227,0.201-0.454,0.307-0.677
		c0.086-0.18,0.177-0.356,0.267-0.534c0.111-0.22,0.221-0.44,0.337-0.656c0.093-0.175,0.194-0.348,0.291-0.52
		c0.12-0.213,0.24-0.426,0.366-0.637c0.102-0.17,0.209-0.338,0.315-0.506c0.129-0.206,0.259-0.412,0.394-0.614
		c0.111-0.166,0.226-0.328,0.34-0.493c0.139-0.199,0.277-0.397,0.422-0.592c0.118-0.161,0.24-0.316,0.361-0.475
		c0.148-0.192,0.296-0.384,0.449-0.571c0.126-0.155,0.254-0.305,0.383-0.457c0.157-0.184,0.313-0.368,0.475-0.548
		c0.133-0.149,0.269-0.294,0.405-0.44c0.165-0.176,0.33-0.35,0.498-0.523c0.14-0.142,0.282-0.281,0.425-0.421
		c0.172-0.168,0.346-0.335,0.523-0.498c0.146-0.135,0.295-0.269,0.444-0.4c0.18-0.161,0.362-0.318,0.546-0.473
		c0.153-0.129,0.308-0.255,0.463-0.38c0.188-0.152,0.377-0.301,0.57-0.448c0.158-0.121,0.318-0.239,0.479-0.356
		c0.196-0.143,0.393-0.284,0.593-0.422c0.164-0.114,0.329-0.224,0.496-0.334c0.203-0.134,0.407-0.265,0.613-0.393
		c0.169-0.105,0.34-0.209,0.512-0.312c0.209-0.125,0.421-0.245,0.633-0.364c0.174-0.097,0.35-0.194,0.527-0.287
		c0.215-0.114,0.433-0.226,0.652-0.335c0.179-0.089,0.359-0.177,0.54-0.263c0.222-0.104,0.446-0.205,0.671-0.304
		c0.183-0.081,0.368-0.161,0.553-0.238c0.228-0.093,0.458-0.184,0.688-0.273c0.188-0.071,0.376-0.143,0.565-0.21
		c0.234-0.084,0.469-0.163,0.706-0.239c0.192-0.062,0.383-0.126,0.576-0.183c0.239-0.073,0.482-0.14,0.724-0.206
		c0.194-0.054,0.387-0.106,0.582-0.155c0.247-0.062,0.496-0.117,0.745-0.172c0.195-0.043,0.39-0.087,0.587-0.126
		c0.253-0.051,0.509-0.093,0.764-0.137c0.197-0.033,0.393-0.068,0.591-0.096c0.259-0.038,0.521-0.069,0.783-0.099
		c0.198-0.023,0.395-0.048,0.594-0.068c0.266-0.025,0.534-0.043,0.802-0.061c0.198-0.013,0.395-0.028,0.594-0.038
		c0.063-0.003,0.128-0.002,0.19-0.005v28.88h28.885C87.788,61.141,87.789,61.193,87.786,61.243z M61.091,58.909V32.211
		C75.563,32.773,87.228,44.438,87.79,58.91L61.091,58.909L61.091,58.909z"/>
	<path fill="#221F20" d="M14.477,30.284c1.093,0,1.978-0.885,1.978-1.978V16.454h13.801c1.092,0,1.977-0.885,1.977-1.977
		S31.349,12.5,30.257,12.5h-15.78c-1.092,0-1.977,0.885-1.977,1.977v13.83C12.5,29.399,13.385,30.284,14.477,30.284z"/>
	<path fill="#221F20" d="M105.523,89.715c-1.092,0-1.977,0.885-1.977,1.977v11.853H89.743c-1.092,0-1.977,0.885-1.977,1.977
		c0,1.092,0.885,1.977,1.977,1.977h15.78c1.092,0.001,1.977-0.885,1.977-1.977v-13.83C107.5,90.6,106.615,89.715,105.523,89.715z"/>
	<path fill="#221F20" d="M28.307,103.545H16.454V89.743c0-1.092-0.885-1.977-1.977-1.977S12.5,88.651,12.5,89.743v15.78
		c0,1.092,0.885,1.977,1.977,1.977h13.83c1.092,0,1.976-0.886,1.976-1.978C30.284,104.43,29.398,103.545,28.307,103.545z"/>
	<path fill="#221F20" d="M105.523,12.501h-13.83c-1.092,0-1.977,0.885-1.977,1.977s0.885,1.977,1.977,1.977h11.853v13.802
		c0,1.092,0.885,1.977,1.977,1.977s1.977-0.885,1.977-1.977V14.478C107.5,13.386,106.615,12.501,105.523,12.501z"/>
</g>
</svg>
