<?xml version="1.0" encoding="utf-8"?>
<!-- Generator: Adobe Illustrator 17.0.1, SVG Export Plug-In . SVG Version: 6.00 Build 0)  -->
<!DOCTYPE svg PUBLIC "-//W3C//DTD SVG 1.1//EN" "http://www.w3.org/Graphics/SVG/1.1/DTD/svg11.dtd">
<svg version="1.1" id="图层_1" xmlns="http://www.w3.org/2000/svg" xmlns:xlink="http://www.w3.org/1999/xlink" x="0px" y="0px"
	 width="120px" height="120px" viewBox="0 0 120 120" enable-background="new 0 0 120 120" xml:space="preserve">
<g>
	<path fill="#221F20" d="M88.302,69.235v-18.47c0-0.818-0.664-1.483-1.483-1.483H70.718V33.18c0-0.819-0.664-1.483-1.483-1.483
		h-18.47c-0.819,0-1.483,0.664-1.483,1.483v16.101H33.18c-0.819,0-1.483,0.664-1.483,1.483v18.471c0,0.818,0.664,1.483,1.483,1.483
		h16.101V86.82c0,0.818,0.664,1.483,1.483,1.483h18.471c0.82,0,1.484-0.665,1.484-1.484v-16.1h16.1
		C87.639,70.718,88.302,70.054,88.302,69.235z M85.338,67.752H69.236c-0.819,0-1.483,0.664-1.483,1.483v16.1H52.249h-0.001V69.234
		c0-0.818-0.664-1.483-1.483-1.483H34.663V52.248h16.102c0.819,0,1.483-0.664,1.483-1.483V34.663h15.504v16.102
		c0,0.818,0.664,1.483,1.483,1.483h16.102L85.338,67.752L85.338,67.752z"/>
	<path fill="#221F20" d="M30.257,12.5h-15.78c-1.092,0-1.977,0.885-1.977,1.977v13.83c0,1.092,0.885,1.977,1.977,1.977
		c1.093,0,1.978-0.885,1.978-1.978V16.454h13.801c1.092,0,1.977-0.885,1.977-1.977S31.349,12.5,30.257,12.5z"/>
	<path fill="#221F20" d="M105.523,89.715c-1.092,0-1.977,0.885-1.977,1.977v11.853H89.743c-1.092,0-1.977,0.885-1.977,1.977
		c0,1.092,0.885,1.977,1.977,1.977h15.78c1.092,0.001,1.977-0.885,1.977-1.977v-13.83C107.5,90.6,106.615,89.715,105.523,89.715z"/>
	<path fill="#221F20" d="M28.307,103.545H16.454V89.743c0-1.092-0.885-1.977-1.977-1.977S12.5,88.651,12.5,89.743v15.78
		c0,1.092,0.885,1.977,1.977,1.977h13.83c1.092,0,1.976-0.886,1.976-1.978C30.284,104.43,29.398,103.545,28.307,103.545z"/>
	<path fill="#221F20" d="M105.523,12.501h-13.83c-1.092,0-1.977,0.885-1.977,1.977s0.885,1.977,1.977,1.977h11.853v13.802
		c0,1.092,0.885,1.977,1.977,1.977c1.092,0,1.977-0.885,1.977-1.977V14.478C107.5,13.386,106.615,12.501,105.523,12.501z"/>
</g>
</svg>
