<?xml version="1.0" encoding="utf-8"?>
<!-- Generator: Adobe Illustrator 17.0.1, SVG Export Plug-In . SVG Version: 6.00 Build 0)  -->
<!DOCTYPE svg PUBLIC "-//W3C//DTD SVG 1.1//EN" "http://www.w3.org/Graphics/SVG/1.1/DTD/svg11.dtd">
<svg version="1.1" id="图层_1" xmlns="http://www.w3.org/2000/svg" xmlns:xlink="http://www.w3.org/1999/xlink" x="0px" y="0px"
	 width="120px" height="120px" viewBox="-12.5 -12.5 120 120" enable-background="new -12.5 -12.5 120 120" xml:space="preserve">
<path fill="#040000" d="M78.454,32.788l0.002-0.2c0.005-0.559-0.13-1.103-0.4-1.618c-0.86-2.045-3.039-3.426-5.506-3.447
	c-2.005,0-3.843,0.913-4.935,2.448c-0.431,0.511-0.731,1.11-0.893,1.77l0.025-3.083c0.021-0.129,0.037-0.258,0.038-0.395
	c0.012-1.478-0.622-2.86-1.786-3.894c-1.106-0.982-2.57-1.53-4.177-1.543c-3.248,0-5.915,2.391-5.944,5.333l-0.049,6.256
	c-0.004,0.042-0.008,0.096-0.012,0.169c-0.03,0.032-0.131,0.092-0.3,0.092c-0.187-0.002-0.291-0.089-0.301-0.099h-0.001
	c0-0.03,0-0.062-0.001-0.1c-0.001-0.023-0.004-0.054-0.008-0.086l0.071-8.927c0.006-0.055,0.01-0.111,0.01-0.155
	c0.012-1.458-0.61-2.823-1.752-3.844c-0.361-0.322-0.771-0.578-1.201-0.802c0.449-1.493,0.677-3.04,0.677-4.616
	C52.012,7.198,44.813,0,35.965,0c-8.849,0-16.047,7.198-16.047,16.047c0,6.399,3.829,12.173,9.653,14.714L29.477,42.22
	c-0.213-0.589-0.554-1.123-1.013-1.586c-1.465-1.478-4.107-2.226-7.852-2.226c-1.462,0-2.541,0.122-2.586,0.127
	c-0.75,0.086-1.319,0.718-1.325,1.473l-0.16,19.925c0.621,13.03,7.651,16.337,13.298,18.994c2.439,1.147,4.544,2.137,5.856,3.724
	c1.152,1.394,1.029,6.956,0.978,9.331c-0.01,0.472-0.019,0.898-0.022,1.258c-0.003,0.397,0.152,0.778,0.43,1.06
	c0.278,0.283,0.657,0.443,1.053,0.446L69.289,95c0.005,0,0.009,0,0.013,0c0.82,0,1.488-0.661,1.495-1.48l0.085-10.318
	c0.042-5.131,1.471-6.16,3.124-7.349c1.932-1.39,4.122-2.965,4.172-9.017l0.272-33.774c0.006-0.057,0.01-0.115,0.01-0.164
	C78.459,32.864,78.457,32.827,78.454,32.788z M42.314,34.547l0.029-3.775c0.061-0.027,0.121-0.058,0.182-0.085
	c-0.015,1.353-0.03,2.751-0.039,3.942c-0.041,0.014-0.127,0.017-0.174,0.003C42.313,34.604,42.314,34.575,42.314,34.547z
	 M22.908,16.048c0-7.2,5.857-13.057,13.057-13.057c7.199,0,13.057,5.857,13.056,13.056c0,1.33-0.198,2.634-0.591,3.89
	c-0.001,0-0.002,0-0.003,0c-3.196,0-5.816,2.366-5.84,5.287c0,0,0,0.001,0,0.001c0,0,0,0.001,0,0.001
	c0,0.018,0.004,0.035,0.004,0.052c0.002,0.072,0.006,0.143,0.017,0.216c-0.019,0.219-0.022,0.431-0.025,0.616l-0.002,0.152
	c0,0.007-0.001,0.015-0.001,0.022l-0.009,0.671l-0.005,0.352c-0.066,0.039-0.132,0.078-0.198,0.115l0.032-4.176
	c0.007-0.926,0.013-1.755,0.018-2.5l0.005-0.709c0.02-2.712,0.031-4.153-0.009-4.966l0.027,0.005c0,0,0-0.001,0-0.001l0.001,0
	l0.002-0.023c0.013-0.082,0.025-0.195,0.026-0.272c0,0,0,0,0-0.001l0,0c0.013-1.582-0.663-3.064-1.904-4.174
	c-1.187-1.06-2.76-1.651-4.486-1.665c-0.008,0-0.016,0.002-0.025,0.002c-0.376,0.001-0.742,0.036-1.101,0.095
	c-0.034,0.006-0.068,0.008-0.102,0.014c-0.349,0.062-0.685,0.155-1.011,0.266c-0.042,0.014-0.085,0.027-0.127,0.042
	c-0.317,0.116-0.619,0.256-0.909,0.415c-0.043,0.023-0.085,0.045-0.127,0.07c-0.283,0.163-0.549,0.347-0.8,0.547
	c-0.038,0.03-0.076,0.06-0.113,0.092c-0.246,0.206-0.473,0.429-0.681,0.667c-0.03,0.034-0.058,0.069-0.087,0.104
	c-0.204,0.245-0.388,0.504-0.548,0.778c-0.02,0.034-0.038,0.069-0.057,0.103c-0.157,0.282-0.292,0.575-0.396,0.881
	c-0.01,0.028-0.016,0.057-0.026,0.085c-0.103,0.318-0.18,0.645-0.221,0.983c0,0.004-0.002,0.007-0.003,0.011l0,0.027
	c-0.019,0.164-0.034,0.329-0.037,0.496c-0.006,0.05-0.009,0.101-0.009,0.151l-0.104,12.682
	C25.525,25.172,22.908,20.822,22.908,16.048z M75.465,32.852c0,0.009,0,0.018,0,0.028c0,0.016-0.001,0.032-0.001,0.047L75.187,66.81
	c-0.038,4.535-1.312,5.453-2.928,6.614c-1.921,1.382-4.313,3.102-4.368,9.751l-0.072,8.824l-28.151-0.229
	c0.097-4.663,0.017-8.983-1.667-11.024c-1.739-2.103-4.239-3.28-6.888-4.525c-5.432-2.555-11.049-5.197-11.582-16.346l0.15-18.464
	c0.281-0.011,0.596-0.018,0.933-0.018c2.796,0,4.884,0.489,5.73,1.342c0.29,0.291,0.417,0.617,0.414,1.053l-0.096,11.762
	c-0.001,0.072,0.002,0.142,0.008,0.21c-0.002,0.033-0.004,0.064-0.004,0.086c-0.006,0.742,0.317,1.458,0.886,1.967
	c0.524,0.467,1.21,0.729,1.957,0.734c1.554,0,2.827-1.191,2.839-2.649c0-0.027,0-0.054-0.001-0.079
	c0.007-0.066,0.013-0.136,0.013-0.211l0.224-27.45L32.701,14.7c0.012-1.528,1.528-2.771,3.413-2.771
	c0.941,0.008,1.815,0.329,2.46,0.906c0.533,0.476,0.838,1.079,0.89,1.722c0.003,0.039,0.014,0.076,0.016,0.114l-0.002,0.047
	c-0.002,0.029-0.005,0.059-0.006,0.082c-0.001,0.02-0.001,0.041-0.001,0.061c0,0.011,0,0.038,0,0.067l-0.05,1.421h0.041
	c-0.02,2.772-0.065,8.85-0.099,13.396l-0.016,2.138h0c-0.008,1.031-0.015,1.904-0.02,2.523c-0.014,0.098-0.023,0.197-0.024,0.299
	c-0.013,1.597,1.362,2.907,3.093,2.921c1.688,0,3.071-1.288,3.084-2.845c0.001-0.047-0.001-0.104-0.005-0.158
	c0.014-1.718,0.038-3.881,0.06-5.68l0.001,0l0.01-0.785c0.007-0.487,0.013-0.934,0.018-1.319h0.064l-0.038-1.535c0,0,0,0,0-0.001
	c0-0.001,0-0.002,0-0.002c-0.001-0.048-0.005-0.096-0.01-0.144c0.062-1.236,1.321-2.229,2.878-2.229c0.001,0,0.001,0,0.001,0
	c0.207,0.001,0.429,0.027,0.674,0.079l0.065,0.014c0.509,0.117,0.975,0.339,1.347,0.671c0.471,0.422,0.736,0.958,0.753,1.529
	c-0.004,0.044-0.007,0.089-0.007,0.127l-0.073,9.08c-0.003,0.095,0.003,0.178,0.011,0.248c0.051,1.643,1.491,2.974,3.296,2.989
	c1.804,0,3.232-1.303,3.285-2.99c0.006-0.058,0.01-0.117,0.01-0.16l0.051-6.328c0.013-1.308,1.337-2.371,2.983-2.371
	c0.829,0.007,1.598,0.287,2.163,0.789c0.508,0.451,0.785,1.031,0.78,1.575c-0.011,0.072-0.022,0.143-0.03,0.217
	c-0.004,0.045-0.007,0.091-0.007,0.136l-0.06,7.309c0,0.187,0.023,0.371,0.069,0.547c0.234,1.301,1.433,2.273,2.871,2.284
	c1.592,0,2.898-1.22,2.911-2.732c0-0.018-0.001-0.038-0.002-0.059c0.001-0.009,0.001-0.019,0.001-0.028l0.024-2.955
	c0.004-0.434,0.115-0.759,0.348-1.027c0.038-0.044,0.074-0.09,0.107-0.138c0.52-0.754,1.486-1.223,2.551-1.223
	c1.247,0.011,2.346,0.675,2.736,1.652c0.024,0.06,0.052,0.118,0.083,0.174c0.063,0.112,0.069,0.181,0.069,0.237L75.465,32.852z"/>
</svg>
