<?xml version="1.0" encoding="utf-8"?>
<!-- Generator: Adobe Illustrator 17.0.1, SVG Export Plug-In . SVG Version: 6.00 Build 0)  -->
<!DOCTYPE svg PUBLIC "-//W3C//DTD SVG 1.1//EN" "http://www.w3.org/Graphics/SVG/1.1/DTD/svg11.dtd">
<svg version="1.1" id="图层_1" xmlns="http://www.w3.org/2000/svg" xmlns:xlink="http://www.w3.org/1999/xlink" x="0px" y="0px"
	 width="120px" height="120px" viewBox="-12.5 -12.5 120 120" enable-background="new -12.5 -12.5 120 120" xml:space="preserve">
<g>
	<path fill="#221F20" d="M49.005,20.168c0-0.831-0.674-1.506-1.506-1.506c-0.832,0-1.506,0.675-1.506,1.506v25.826H20.167
		c-0.832,0-1.506,0.675-1.506,1.506s0.674,1.506,1.506,1.506h25.826v25.827c0,0.831,0.674,1.506,1.506,1.506
		c0.832,0,1.506-0.675,1.506-1.507V49.006h25.826c0.832,0,1.506-0.675,1.506-1.506s-0.674-1.506-1.506-1.506H49.005V20.168z"/>
	<path fill="#221F20" d="M93.494,45.995h-7.529C85.19,25.961,69.04,9.811,49.006,9.035V1.506c0-0.831-0.674-1.506-1.506-1.506
		c-0.832,0-1.506,0.675-1.506,1.506v7.528C25.96,9.81,9.81,25.959,9.034,45.994H1.506C0.674,45.994,0,46.669,0,47.5
		s0.674,1.506,1.506,1.506h7.528C9.81,69.041,25.96,85.19,45.994,85.965v7.528c0,0.831,0.674,1.506,1.506,1.506
		c0.831,0,1.506-0.674,1.506-1.506v-7.528C69.04,85.19,85.189,69.04,85.965,49.007h7.529c0.831,0,1.506-0.675,1.506-1.506
		S94.326,45.995,93.494,45.995z M47.499,81.988c-19.017,0-34.488-15.471-34.488-34.488s15.472-34.488,34.488-34.488
		c19.017,0,34.488,15.472,34.488,34.488S66.516,81.988,47.499,81.988z"/>
</g>
</svg>
