<?xml version="1.0" encoding="utf-8"?>
<!-- Generator: Adobe Illustrator 17.0.1, SVG Export Plug-In . SVG Version: 6.00 Build 0)  -->
<!DOCTYPE svg PUBLIC "-//W3C//DTD SVG 1.1//EN" "http://www.w3.org/Graphics/SVG/1.1/DTD/svg11.dtd">
<svg version="1.1" id="图层_1" xmlns="http://www.w3.org/2000/svg" xmlns:xlink="http://www.w3.org/1999/xlink" x="0px" y="0px"
	 width="120px" height="120px" viewBox="-12.5 -12.5 120 120" enable-background="new -12.5 -12.5 120 120" xml:space="preserve">
<path fill="#040000" d="M89.008,67l-0.25-0.127l-0.278-0.029c-3.287-0.339-6.212-1.318-8.794-2.651V27.41
	c0-3.438-3.825-6.13-8.708-6.13c-2.511,0-4.737,0.715-6.313,1.874v-2.719l-0.226-0.364C58.887,11.129,52.982,6.596,46.885,6.596
	c-10.164,0-16.682,12.567-16.954,13.103l-0.163,0.321v3.421c-1.588-1.044-3.746-1.68-6.162-1.68c-4.986,0-8.892,2.693-8.892,6.132
	v36.612c-2.43,1.173-5.158,2.025-8.192,2.338l-0.278,0.029l-0.25,0.127c-3.854,1.969-5.868,4.354-5.987,7.09
	C-0.19,78.624,5.115,82,5.341,82.141L5.7,82.365l4.577,0.046l0.001,0.211l4.436-0.026v0.208c0,3.193,3.981,5.601,9.258,5.601
	c3.747,0,6.832-1.217,8.311-3.063c1.555,1.004,3.712,1.617,6.131,1.617h17.605c2.549,0,4.8-0.684,6.369-1.785
	c1.567,1.669,4.509,2.749,8.04,2.749c5.16,0,9.068-2.302,9.242-5.389l4.76-0.028l-0.001-0.09l4.872-0.049l0.358-0.224
	c0.225-0.141,5.532-3.515,5.335-8.052C94.876,71.356,92.863,68.97,89.008,67z M65.271,27.41c0-1.479,2.344-3.127,5.706-3.127
	s5.705,1.648,5.705,3.127v34.983c-7.91-5.447-11.728-13.824-11.78-13.942l-0.237,0.105V27.41H65.271z M46.885,9.599
	c4.912,0,9.881,3.934,14.776,11.694v2.561c-2.536-2.145-7.057-3.551-12.331-3.551h-4.712c-4.953,0-9.242,1.24-11.847,3.167v-2.71
	C33.78,18.942,39.337,9.599,46.885,9.599z M17.717,27.893c0-1.477,2.518-3.129,5.888-3.129s5.889,1.652,5.889,3.129h0.273v21.235
	c-1.106,2.17-5.042,9.114-12.05,13.676C17.717,58.158,17.717,27.893,17.717,27.893z M3.006,74.22
	c0.082-1.881,2.227-3.423,4.112-4.42c11.518-1.307,18.871-9.282,22.649-14.8v24.504l-10.626,0.063l0.001-0.07L6.6,79.371
	C5.362,78.497,2.915,76.325,3.006,74.22z M23.972,85.401c-3.761,0-6.255-1.563-6.255-2.597v-0.225l12.226-0.072
	c0.06,0.194,0.137,0.383,0.226,0.568C29.794,84.09,27.417,85.401,23.972,85.401z M38.414,83.954c-3.445,0-5.643-1.538-5.643-2.597
	V49.828c0.034-0.075,0.062-0.135,0.074-0.163l-0.074-0.033V26.228c1.596-2.078,6.017-3.922,11.847-3.922h4.712
	c6.608,0,11.407,2.367,12.331,4.761v54.29c0,1.059-2.199,2.597-5.642,2.597H38.414z M70.427,84.918
	c-3.168,0-5.431-1.109-6.067-2.077c0.03-0.073,0.059-0.145,0.085-0.219l12.196-0.072C76.315,83.571,73.918,84.918,70.427,84.918z
	 M88.4,79.371l-12.541,0.125l0.001,0.055l-11.195,0.066V54.146c3.581,5.51,11.089,14.277,23.218,15.654
	c1.882,0.996,4.026,2.537,4.111,4.415C92.09,76.326,89.679,78.471,88.4,79.371z"/>
</svg>
