<?xml version="1.0" encoding="utf-8"?>
<!-- Generator: Adobe Illustrator 17.0.1, SVG Export Plug-In . SVG Version: 6.00 Build 0)  -->
<!DOCTYPE svg PUBLIC "-//W3C//DTD SVG 1.1//EN" "http://www.w3.org/Graphics/SVG/1.1/DTD/svg11.dtd">
<svg version="1.1" id="图层_1" xmlns="http://www.w3.org/2000/svg" xmlns:xlink="http://www.w3.org/1999/xlink" x="0px" y="0px"
	 width="120px" height="120px" viewBox="-12.5 -12.5 120 120" enable-background="new -12.5 -12.5 120 120" xml:space="preserve">
<g>
	<path d="M34.537,56.019H58.65c1.169,0,2.2-0.593,2.813-1.493c0.183-0.04,0.357-0.106,0.5-0.226l2.48-2.098
		c0.314-0.266,0.461-0.684,0.394-1.12c-0.045-0.29-0.177-0.571-0.382-0.813L61.47,46.74l1.249-0.984
		c0.586-0.462,0.881-1.103,0.833-1.804c-0.057-0.831-0.608-1.616-1.499-2.185V23.293c0-0.152-0.009-0.303-0.025-0.45l-0.987,0.109
		l0.984-0.125c-0.216-1.694-1.667-2.97-3.375-2.97H34.537c-1.875,0-3.402,1.525-3.402,3.401v29.359
		C31.135,54.493,32.661,56.019,34.537,56.019z M61.575,44.304l-1.566,1.235l0.013,0.017l-1.15,0.972l3.928,4.645l-1.417,1.198
		h-0.276l-3.898-4.616l-0.147,0.124l-0.018-0.023l-2.117,1.68c-0.294,0.235-0.594,0.328-0.823,0.256
		c-0.23-0.071-0.424-0.318-0.535-0.678l-3.726-12.21c-0.025-0.082-0.043-0.153-0.056-0.216c0.057,0.027,0.122,0.061,0.198,0.105
		l11.004,6.469c0.48,0.283,0.71,0.612,0.723,0.813C61.712,44.114,61.717,44.191,61.575,44.304z M32.982,23.258
		c0-0.857,0.697-1.554,1.554-1.554H58.65c0.781,0,1.444,0.582,1.542,1.355c0.008,0.076,0.013,0.154,0.013,0.233v17.37L50.92,35.2
		c-1.283-0.755-2.063-0.407-2.41-0.131c-0.35,0.275-0.87,0.95-0.435,2.374l0.024,0.079c-1.356,0-2.712,0-4.068,0
		c-1.191,0-1.191,1.847,0,1.847c1.544,0,3.088,0,4.632,0l1.566,5.13c-1.975,0-3.949,0-5.924,0c-1.191-0.001-1.191,1.847,0,1.847
		c2.163,0,4.325,0,6.488,0l1.009,3.306c0.291,0.954,0.929,1.648,1.751,1.903c0.231,0.072,0.468,0.107,0.708,0.107
		c0.618,0,1.251-0.233,1.813-0.68l0.864-0.686l2.848,3.373c-0.284,0.306-0.687,0.501-1.136,0.501H34.537
		c-0.857,0-1.554-0.697-1.554-1.554V23.258z"/>
	<circle cx="39.547" cy="30.897" r="1.682"/>
	<circle cx="39.547" cy="38.445" r="1.682"/>
	<path d="M44.031,31.821c3.582,0,7.163,0,10.745,0c1.191,0,1.191-1.847,0-1.847c-3.582,0-7.163,0-10.745,0
		C42.84,29.974,42.84,31.821,44.031,31.821z"/>
	<path d="M93.81,75.351l-8.038-11.655c0.413-0.753,0.65-1.59,0.65-2.475V17.677c0-3.232-3.077-5.861-6.858-5.861H14.724
		c-3.782,0-6.858,2.629-6.858,5.861v43.543c0,1.071,0.347,2.108,0.987,3.019L1.19,75.352c-1.66,2.078-1.223,3.826-0.814,4.685
		c0.912,1.911,3.376,3.147,6.281,3.147h40.025h1.64h40.025c2.903,0,5.369-1.235,6.28-3.148C95.034,79.177,95.47,77.429,93.81,75.351
		z M10.638,17.677c0-1.704,1.834-3.09,4.087-3.09h64.839c2.253,0,4.087,1.386,4.087,3.09v43.543c0,1.704-1.834,3.09-4.087,3.09
		H14.725c-1.464,0-2.83-0.609-3.562-1.587c-0.349-0.465-0.525-0.972-0.525-1.502V17.677z M92.123,78.845
		c-0.371,0.778-1.789,1.567-3.779,1.567H46.681v0H6.656c-1.99,0-3.406-0.788-3.779-1.567c-0.234-0.491-0.065-1.094,0.5-1.792
		l7.556-10.951c1.105,0.626,2.412,0.98,3.791,0.98h64.839c1.621,0,3.111-0.486,4.286-1.293l7.708,11.177l0.064,0.086
		C92.188,77.751,92.357,78.354,92.123,78.845z"/>
	<circle cx="39.819" cy="45.422" r="1.682"/>
</g>
</svg>
