<?xml version="1.0" encoding="utf-8"?>
<!-- Generator: Adobe Illustrator 17.0.1, SVG Export Plug-In . SVG Version: 6.00 Build 0)  -->
<!DOCTYPE svg PUBLIC "-//W3C//DTD SVG 1.1//EN" "http://www.w3.org/Graphics/SVG/1.1/DTD/svg11.dtd">
<svg version="1.1" id="图层_1" xmlns="http://www.w3.org/2000/svg" xmlns:xlink="http://www.w3.org/1999/xlink" x="0px" y="0px"
	 width="120px" height="120px" viewBox="0 -12.5 120 120" enable-background="new 0 -12.5 120 120" xml:space="preserve">
<path d="M86.921,19.421c-12.716,0-23.479,8.499-26.921,20.114c-3.442-11.615-14.205-20.114-26.921-20.114
	C17.596,19.421,5,32.017,5,47.5s12.596,28.079,28.079,28.079c12.716,0,23.479-8.499,26.921-20.114
	c3.442,11.615,14.205,20.114,26.921,20.114C102.404,75.579,115,62.983,115,47.5S102.403,19.421,86.921,19.421z M33.079,72.641
	c-13.863,0-25.141-11.279-25.141-25.141s11.279-25.141,25.141-25.141c13.592,0,24.693,10.845,25.12,24.335L25.487,65.095v-35.12
	l18.956,11.272l1.501-2.525L22.549,24.811v45.307l35.532-19.987C56.762,62.761,46.053,72.641,33.079,72.641z M86.921,72.641
	c-13.68,0-24.836-10.986-25.127-24.598l32.245-18.138v35.159L75.12,54.149l-1.469,2.544l23.326,13.457V24.882l-35.022,19.7
	c1.452-12.492,12.091-22.223,24.966-22.223c13.863,0,25.141,11.279,25.141,25.141S100.783,72.641,86.921,72.641z"/>
</svg>
