<?xml version="1.0" encoding="utf-8"?>
<!-- Generator: Adobe Illustrator 17.0.1, SVG Export Plug-In . SVG Version: 6.00 Build 0)  -->
<!DOCTYPE svg PUBLIC "-//W3C//DTD SVG 1.1//EN" "http://www.w3.org/Graphics/SVG/1.1/DTD/svg11.dtd">
<svg version="1.1" id="图层_1" xmlns="http://www.w3.org/2000/svg" xmlns:xlink="http://www.w3.org/1999/xlink" x="0px" y="0px"
	 width="120px" height="120px" viewBox="-12.5 -12.5 120 120" enable-background="new -12.5 -12.5 120 120" xml:space="preserve">
<g id="图层_1_1_">
</g>
<g id="图层_2">
	<g>
		<path fill="#040000" d="M91.807,28.38H71.964c-1.065,0-2.054-0.473-2.646-1.266c-0.356-0.474-0.546-1.037-0.546-1.622V12.167
			c0-1.592,1.432-2.887,3.192-2.887h19.842c1.761,0,3.193,1.295,3.193,2.887v13.326C95,27.084,93.568,28.38,91.807,28.38z
			 M71.807,25.321c0.037,0.012,0.09,0.024,0.157,0.024h19.842c0.067,0,0.12-0.012,0.158-0.025V12.34
			c-0.039-0.013-0.091-0.025-0.158-0.025H71.963c-0.066,0-0.12,0.012-0.157,0.025V25.321z"/>
		<path fill="#040000" d="M57.197,85.785H37.354c-1.063,0-2.052-0.472-2.645-1.264c-0.357-0.48-0.547-1.042-0.547-1.624V69.572
			c0-1.593,1.432-2.888,3.192-2.888h19.843c1.761,0,3.192,1.295,3.192,2.888v13.326C60.39,84.489,58.958,85.785,57.197,85.785z
			 M37.197,82.726c0.037,0.012,0.09,0.024,0.157,0.024h19.843c0.066,0,0.12-0.012,0.157-0.025V69.743
			c-0.038-0.013-0.091-0.025-0.157-0.025H37.354c-0.066,0-0.12,0.012-0.157,0.025L37.197,82.726L37.197,82.726z"/>
		<path fill="#040000" d="M23.036,28.316H3.193c-1.065,0-2.054-0.473-2.646-1.266C0.19,26.572,0,26.011,0,25.429V12.102
			c0-1.593,1.433-2.888,3.193-2.888h19.842c1.761,0,3.193,1.295,3.193,2.888v13.326C26.229,27.02,24.797,28.316,23.036,28.316z
			 M3.036,25.257c0.037,0.012,0.09,0.024,0.158,0.024h19.842c0.067,0,0.12-0.012,0.158-0.025V12.274
			c-0.039-0.013-0.091-0.025-0.158-0.025H3.193c-0.067,0-0.12,0.012-0.158,0.025V25.257z"/>
		<path fill="#040000" d="M64.97,62.292H30.854c-1.509,0-2.895-0.704-3.708-1.885c-0.451-0.658-0.689-1.417-0.689-2.197V33.267
			c0-2.251,1.972-4.081,4.397-4.081H64.97c2.425,0,4.397,1.83,4.397,4.081V58.21C69.367,60.461,67.396,62.292,64.97,62.292z
			 M30.854,32.22c-0.738,0-1.361,0.479-1.361,1.047V58.21c0,0.167,0.052,0.329,0.155,0.478c0.241,0.349,0.704,0.568,1.206,0.568
			H64.97c0.738,0,1.361-0.479,1.361-1.047V33.267c0-0.567-0.623-1.047-1.361-1.047H30.854z"/>
		<path d="M46.989,68.952c-0.004,0-0.007,0-0.011,0c-0.838-0.006-1.513-0.691-1.507-1.529l0.041-5.685
			c0.006-0.838,0.677-1.487,1.529-1.507c0.838,0.006,1.513,0.691,1.507,1.529l-0.041,5.685
			C48.501,68.279,47.822,68.952,46.989,68.952z"/>
		<path d="M67.256,32.22c-0.372,0-0.746-0.137-1.039-0.411c-0.611-0.573-0.642-1.535-0.068-2.145l3.164-3.371
			c0.574-0.611,1.536-0.64,2.145-0.068c0.611,0.573,0.642,1.535,0.068,2.145l-3.164,3.371C68.064,32.058,67.661,32.22,67.256,32.22z
			"/>
		<path d="M28.156,32.204c-0.399,0-0.798-0.157-1.095-0.468l-3.198-3.339c-0.58-0.605-0.559-1.566,0.047-2.145
			c0.604-0.58,1.566-0.56,2.145,0.047l3.198,3.339c0.58,0.605,0.559,1.566-0.047,2.145C28.912,32.063,28.534,32.204,28.156,32.204z"
			/>
	</g>
</g>
</svg>
