<?xml version="1.0" encoding="utf-8"?>
<!-- Generator: Adobe Illustrator 17.0.1, SVG Export Plug-In . SVG Version: 6.00 Build 0)  -->
<!DOCTYPE svg PUBLIC "-//W3C//DTD SVG 1.1//EN" "http://www.w3.org/Graphics/SVG/1.1/DTD/svg11.dtd">
<svg version="1.1" id="图层_1" xmlns="http://www.w3.org/2000/svg" xmlns:xlink="http://www.w3.org/1999/xlink" x="0px" y="0px"
	 width="120px" height="120px" viewBox="0 -12.5 120 120" enable-background="new 0 -12.5 120 120" xml:space="preserve">
<g>
	<path fill="#221E1F" d="M66.824,68.001c1.028,0,1.86-0.831,1.86-1.859c0-1.028-0.832-1.86-1.86-1.86H52.912
		c-6.353,0-11.523-5.169-11.523-11.524V23.03c0-6.353,5.168-11.523,11.523-11.523h13.912c1.028,0,1.86-0.833,1.86-1.86
		c0-1.027-0.832-1.86-1.86-1.86H52.912c-8.405,0-15.243,6.838-15.243,15.243v13.605c-1.8-7.214-8.316-12.581-16.079-12.581
		C12.442,24.054,5,31.496,5,40.644s7.443,16.589,16.59,16.589c7.763,0,14.279-5.366,16.079-12.581v8.105
		c0,8.405,6.838,15.244,15.243,15.244H66.824z M21.59,53.513c-7.096,0-12.871-5.773-12.871-12.869s5.774-12.871,12.871-12.871
		S34.46,33.548,34.46,40.644S28.687,53.513,21.59,53.513z"/>
	<path fill="#221E1F" d="M98.411,37.767c-7.762,0-14.277,5.366-16.079,12.578v-8.103c0-8.405-6.838-15.243-15.243-15.243H53.177
		c-1.027,0-1.86,0.833-1.86,1.86c0,1.027,0.833,1.86,1.86,1.86h13.912c6.354,0,11.523,5.169,11.523,11.523V71.97
		c0,6.354-5.168,11.523-11.523,11.523H53.177c-1.027,0-1.86,0.832-1.86,1.86c0,1.028,0.833,1.86,1.86,1.86h13.912
		c8.405,0,15.243-6.837,15.243-15.243v-13.6c1.802,7.212,8.317,12.577,16.079,12.577c9.148,0,16.589-7.441,16.589-16.589
		C115,45.209,107.558,37.767,98.411,37.767z M98.411,67.226c-7.096,0-12.871-5.773-12.871-12.869s5.773-12.871,12.871-12.871
		c7.095,0,12.869,5.774,12.869,12.871C111.28,61.451,105.507,67.226,98.411,67.226z"/>
</g>
</svg>
