<?xml version="1.0" encoding="utf-8"?>
<!-- Generator: Adobe Illustrator 17.0.1, SVG Export Plug-In . SVG Version: 6.00 Build 0)  -->
<!DOCTYPE svg PUBLIC "-//W3C//DTD SVG 1.1//EN" "http://www.w3.org/Graphics/SVG/1.1/DTD/svg11.dtd">
<svg version="1.1" id="图层_1" xmlns="http://www.w3.org/2000/svg" xmlns:xlink="http://www.w3.org/1999/xlink" x="0px" y="0px"
	 width="120px" height="120px" viewBox="-12.5 -12.5 120 120" enable-background="new -12.5 -12.5 120 120" xml:space="preserve">
<g id="图层_1_1_">
</g>
<g>
	<path fill="#221F20" d="M86.216,64.076c0-4.972-3.815-9.017-8.504-9.017h-9.904c-0.518,0-0.974,0.265-1.242,0.667
		c-2.572-2.54-6.1-4.113-9.992-4.113H38.577c-3.715,0-7.092,1.443-9.629,3.783c-0.195-0.143-0.424-0.245-0.681-0.279
		c-0.35-0.046-0.705-0.069-1.055-0.069h-9.904c-4.689,0-8.503,4.045-8.503,9.017v16.341c0,0.824,0.669,1.493,1.493,1.493h14.048
		v11.607c0,0.412,0.168,0.786,0.438,1.056C25.054,94.832,25.428,95,25.84,95h43.474c0.206,0,0.402-0.042,0.581-0.117
		c0.536-0.227,0.912-0.758,0.912-1.376c0-0.007-0.002-0.013-0.002-0.02V81.911h13.918c0.103,0,0.204-0.01,0.301-0.03
		c0.68-0.139,1.192-0.741,1.192-1.463c0,0,0-0.001,0-0.001s0-0.001,0-0.001V64.076z M83.23,64.077v14.848H70.805V65.844
		c0-2.879-0.866-5.557-2.341-7.799h9.248C80.754,58.045,83.23,60.751,83.23,64.077z M38.578,54.598h17.997
		c6.202,0,11.246,5.045,11.246,11.246v26.17H27.332V80.817c0.038-0.131,0.064-0.267,0.064-0.411c0-0.143-0.026-0.278-0.064-0.409
		V65.844C27.332,59.642,32.377,54.598,38.578,54.598z M17.306,58.033h9.388c-1.48,2.244-2.348,4.927-2.348,7.811v13.069H11.789
		V64.065C11.789,60.739,14.264,58.033,17.306,58.033z"/>
	<path fill="#221F20" d="M22.26,49.8c6.303,0,11.699-4.281,13.126-10.414c0.015-0.067,0.019-0.133,0.026-0.2
		c3.449,2.363,7.615,3.752,12.102,3.752c4.189,0,8.089-1.225,11.397-3.308c0.007,0.093,0.022,0.187,0.047,0.28
		c1.6,5.831,6.945,9.902,12.997,9.902c7.43,0,13.475-6.045,13.476-13.476c0-7.432-6.045-13.477-13.476-13.477
		c-1.04,0-2.062,0.129-3.06,0.362c0.047-0.579,0.089-1.16,0.089-1.752C68.983,9.631,59.351,0,47.513,0S26.044,9.631,26.044,21.468
		c0,0.66,0.04,1.31,0.099,1.955c-1.254-0.378-2.553-0.576-3.883-0.576c-7.431,0-13.476,6.045-13.476,13.476
		C8.784,43.755,14.829,49.8,22.26,49.8z M71.954,25.845c5.784,0,10.49,4.706,10.49,10.491c0,5.784-4.706,10.49-10.49,10.49
		c-4.712,0-8.873-3.168-10.118-7.705c-0.123-0.452-0.444-0.792-0.841-0.967c3.618-2.929,6.253-7.011,7.374-11.68
		C69.514,26.058,70.72,25.845,71.954,25.845z M47.513,2.986c10.191,0,18.483,8.292,18.483,18.482
		c0,10.191-8.291,18.483-18.483,18.483c-10.19,0-18.482-8.291-18.482-18.483C29.031,11.278,37.322,2.986,47.513,2.986z
		 M22.26,25.832c1.303,0,2.572,0.236,3.771,0.698c0.219,0.084,0.445,0.108,0.664,0.089c1.077,4.347,3.471,8.171,6.746,11.024
		c-0.466,0.163-0.843,0.55-0.963,1.066c-1.11,4.771-5.312,8.103-10.218,8.103c-5.784,0-10.49-4.706-10.49-10.491
		C11.77,30.538,16.476,25.832,22.26,25.832z"/>
</g>
</svg>
