<?xml version="1.0" encoding="utf-8"?>
<!-- Generator: Adobe Illustrator 17.0.1, SVG Export Plug-In . SVG Version: 6.00 Build 0)  -->
<!DOCTYPE svg PUBLIC "-//W3C//DTD SVG 1.1//EN" "http://www.w3.org/Graphics/SVG/1.1/DTD/svg11.dtd">
<svg version="1.1" id="图层_1" xmlns="http://www.w3.org/2000/svg" xmlns:xlink="http://www.w3.org/1999/xlink" x="0px" y="0px"
	 width="120px" height="120px" viewBox="-12.5 -12.5 120 120" enable-background="new -12.5 -12.5 120 120" xml:space="preserve">
<path fill="#030000" d="M94.874,59.783c-0.028-5.54-4.559-10.048-10.099-10.048H61.504c-0.355-0.222-0.662-0.421-0.847-0.594
	c-1.042-0.974-1.708-2.374-2.013-3.909h26.131c5.544,0,10.055-4.511,10.056-10.055V10.231c0-2.714-1.066-5.135-3-6.816
	c-1.934-1.682-4.475-2.398-7.167-2.023L53.148,5.815c-5.391,0.757-9.777,5.801-9.777,11.245v14.221
	c-0.752-0.389-1.508-0.979-2.223-1.249c-0.526-0.199-1.038-0.337-1.544-0.431l0.068-11.893c0.015-2.713-1.036-5.141-2.96-6.836
	c-1.925-1.695-4.469-2.433-7.155-2.074L9.795,11.426C4.394,12.143,0,17.16,0,22.609v13.208c0,2.68,1.051,5.192,2.96,7.073
	c1.872,1.846,4.341,2.857,6.965,2.857c0.05,0,0.1-0.001,0.15-0.001l14.159-0.207c0.019,1.2,0.121,2.426,0.302,3.655l-14.276,0.071
	c-5.54,0.028-10.048,4.558-10.048,10.098v12.781c0,5.444,4.385,10.491,9.774,11.251l19.142,2.703
	c0.47,0.066,0.935,0.099,1.394,0.099c2.164,0,4.18-0.73,5.781-2.113c1.943-1.678,3.02-4.096,3.034-6.809l0.057-10.83
	c1.526-0.474,2.858-0.872,4.189-1.047v12.722c0,5.447,4.391,10.474,9.787,11.208l31.507,4.284c0.454,0.061,0.904,0.092,1.346,0.092
	c2.183,0,4.21-0.742,5.811-2.147c1.925-1.69,2.979-4.115,2.965-6.829L94.874,59.783z M53.537,8.587l31.515-4.424
	c1.871-0.264,3.628,0.22,4.941,1.363c1.313,1.143,2.037,2.813,2.037,4.704v24.947c0,4.001-3.255,7.256-7.256,7.256H58.489
	c0.212-2.677,1.442-5.259,3.687-6.383c0.783-0.392,0.756-1.414,0.257-1.998c-2.802-3.284-6.579-5.729-11.018-4.371
	c-0.103,0.032-0.196,0.073-0.28,0.12c-0.008,0.003-0.015,0.004-0.023,0.008c-1.137,0.498-2.22,1.069-3.367,1.452
	c4.558-2.342,7.929-6.939,6.566-12.405c-0.165-0.661-0.913-1.084-1.565-0.889c-2.622,0.786-4.824,2.134-6.576,4.17V17.06
	C46.17,13.027,49.543,9.147,53.537,8.587z M52.058,20.913c0.214,3.66-2.415,6.613-5.607,8.176c0-1.523,0.123-2.889,1.011-4.459
	C48.458,22.868,50.203,21.678,52.058,20.913z M42.57,33.645c3.533,1.408,6.353-0.097,9.565-1.521
	c3.022-0.904,5.459,0.573,7.442,2.576c-4.387,3.398-4.423,10.746-1.684,15.067c0.787,1.242,1.987,2.113,3.142,2.975
	c1.307,0.974-0.157,3.945-1.01,5.573c-1.571,2.997-4.465,5.505-7.924,5.817c-2.209,0.199-5.028-1.456-7.336-1.726
	c-1.859-0.218-3.971,0.83-5.635,1.461c-4.074,1.546-6.605-2.298-8.369-5.331c-3.043-5.232-5.055-12.661-3.352-18.605
	c1.001-3.495,4.144-6.099,7.372-7.411C37.781,31.3,39.82,32.55,42.57,33.645z M10.034,42.947c-1.934,0.029-3.74-0.7-5.11-2.051
	c-1.37-1.35-2.125-3.154-2.125-5.079V22.609c0-4.028,3.373-7.878,7.365-8.409l19.762-2.628c1.878-0.248,3.628,0.248,4.936,1.4
	c1.307,1.152,2.022,2.828,2.011,4.72l-0.068,11.812c-0.474,0.045-0.957,0.113-1.457,0.201c-4.194,0.732-8.292,4.388-9.868,8.261
	c-0.584,1.435-0.952,3.054-1.128,4.772L10.034,42.947z M34.474,81.967c-1.322,1.142-3.083,1.622-4.955,1.362l-19.141-2.703
	c-3.992-0.564-7.366-4.447-7.366-8.48V59.364c0-4.005,3.258-7.279,7.263-7.299l14.809-0.074c1.473,6.037,4.786,11.722,9.407,14.24
	c0.595,0.324,1.344,0.53,2.102,0.606l-0.054,10.425C36.529,79.153,35.796,80.825,34.474,81.967z M90.188,89.455
	c-1.306,1.147-3.056,1.639-4.932,1.385l-31.507-4.284c-3.993-0.543-7.366-4.405-7.366-8.435V65.406
	c0.787,0.106,1.615,0.295,2.532,0.616c4.63,1.619,8.495-0.521,11.584-3.965c2.398-2.673,3.551-6.014,3.594-9.523h20.682
	c4.005,0,7.28,3.258,7.3,7.263l0.126,24.947C92.211,86.634,91.496,88.308,90.188,89.455z"/>
</svg>
