<?xml version="1.0" encoding="utf-8"?>
<!-- Generator: Adobe Illustrator 17.0.1, SVG Export Plug-In . SVG Version: 6.00 Build 0)  -->
<!DOCTYPE svg PUBLIC "-//W3C//DTD SVG 1.1//EN" "http://www.w3.org/Graphics/SVG/1.1/DTD/svg11.dtd">
<svg version="1.1" id="图层_1" xmlns="http://www.w3.org/2000/svg" xmlns:xlink="http://www.w3.org/1999/xlink" x="0px" y="0px"
	 width="120px" height="120px" viewBox="-12.5 -12.5 120 120" enable-background="new -12.5 -12.5 120 120" xml:space="preserve">
<path fill="#040000" d="M93.283,26.96L64.827,0H26.825c-4.195,0-7.607,3.676-7.607,8.195v37.677H8.254
	c-3.016,0-6.537,0.884-6.537,3.377V66.93c0,0.522,0.194,1.514,1.489,2.286c1.162,0.694,3.002,1.09,5.048,1.09h10.964v16.499
	c0,4.518,3.412,8.195,7.607,8.195h58.844c1.425,0,2.815-0.428,4.02-1.237l0,0.001c2.246-1.508,3.587-4.109,3.588-6.959V26.967
	L93.283,26.96z M88.572,26.803l-17.186,0.074c-0.01,0-0.02,0-0.03,0c-1.491,0-2.884-0.488-3.925-1.376
	c-0.981-0.836-1.524-1.933-1.529-3.088L65.828,5.247L88.572,26.803z M8.253,67.188c-1.598,0-2.858-0.313-3.418-0.631h0.001V49.621
	c0.425-0.239,1.58-0.629,3.418-0.629h58.974c1.838,0,2.993,0.39,3.418,0.629v16.938c-0.425,0.239-1.58,0.629-3.418,0.629H8.253z
	 M87.952,91.173l0.895,1.335l-0.895-1.334c-0.689,0.462-1.479,0.707-2.283,0.707H26.825c-2.474,0-4.488-2.277-4.488-5.076V70.306
	h44.89c3.016,0,6.537-0.883,6.537-3.376V49.248c0-2.493-3.522-3.377-6.537-3.377h-44.89c0-4.939,0-37.677,0-37.677
	c0-2.799,2.013-5.076,4.488-5.076H62.7l0.083,19.308c0.009,2.077,0.941,4.011,2.623,5.447c1.605,1.37,3.717,2.123,5.95,2.123
	c0.015,0,0.03,0,0.044-0.001l18.758-0.081v56.89C90.159,88.586,89.313,90.261,87.952,91.173z"/>
</svg>
