<?xml version="1.0" encoding="utf-8"?>
<!-- Generator: Adobe Illustrator 17.0.1, SVG Export Plug-In . SVG Version: 6.00 Build 0)  -->
<!DOCTYPE svg PUBLIC "-//W3C//DTD SVG 1.1//EN" "http://www.w3.org/Graphics/SVG/1.1/DTD/svg11.dtd">
<svg version="1.1" id="图层_1" xmlns="http://www.w3.org/2000/svg" xmlns:xlink="http://www.w3.org/1999/xlink" x="0px" y="0px"
	 width="120px" height="120px" viewBox="-12.5 -12.5 120 120" enable-background="new -12.5 -12.5 120 120" xml:space="preserve">
<g>
	<path fill="#221F20" d="M16.075,34.916c8.233,0,14.932-6.699,14.933-14.932c0-1.008-0.103-1.992-0.295-2.945
		c3.281-1.132,6.712-1.714,10.237-1.714c9.117,0,17.559,3.842,23.527,10.605c-5.743,2.082-9.864,7.575-9.864,14.028
		c0,8.233,6.699,14.932,14.933,14.932c8.233,0,14.932-6.699,14.932-14.932c0-8.234-6.699-14.933-14.932-14.933
		c-0.63,0-1.246,0.052-1.855,0.128c-6.567-8.136-16.244-12.79-26.741-12.79c-3.822,0-7.544,0.626-11.105,1.844
		c-2.263-5.373-7.582-9.156-13.769-9.156c-8.233,0-14.932,6.699-14.932,14.933C1.143,28.218,7.842,34.916,16.075,34.916z
		 M81.516,39.958c0,6.601-5.37,11.97-11.97,11.97c-6.602,0-11.971-5.37-11.971-11.97c0-6.602,5.371-11.971,11.971-11.971
		C76.145,27.987,81.516,33.357,81.516,39.958z M16.075,8.013c6.601,0,11.971,5.37,11.971,11.971c0,6.601-5.371,11.97-11.971,11.97
		s-11.97-5.37-11.97-11.97C4.105,13.383,9.474,8.013,16.075,8.013z"/>
	<path fill="#221F20" d="M95,68.352c0-6.155-5.008-11.164-11.164-11.164c-2.741,0-5.251,0.997-7.196,2.643
		c-0.327-0.033-0.657-0.05-0.992-0.05H63.529c-5.547,0-10.059,4.512-10.059,10.059v5.733c-3.955,1.721-8.163,2.601-12.52,2.601
		c-7.896,0-15.4-2.953-21.155-8.2h10.961c0.817,0,1.481-0.663,1.481-1.481v-8.708c5.87-0.322,10.549-5.183,10.549-11.132
		c0-6.156-5.008-11.164-11.164-11.164c-2.717,0-5.209,0.978-7.147,2.598c-0.751-0.178-1.521-0.279-2.298-0.279H10.058
		C4.512,39.808,0,44.32,0,49.866v18.627c0,0.817,0.662,1.481,1.481,1.481h14.121c6.514,7.109,15.663,11.162,25.348,11.162
		c4.335,0,8.538-0.792,12.52-2.352v9.684c0,0.817,0.662,1.481,1.481,1.481h29.275c0.817,0,1.48-0.663,1.481-1.48h0v-9.123
		C90.973,78.451,95,73.869,95,68.352z M31.622,39.463c5.067,0,9.19,4.123,9.19,9.19c0,5.067-4.123,9.19-9.19,9.19
		s-9.19-4.123-9.19-9.19C22.433,43.585,26.554,39.463,31.622,39.463z M10.058,42.77h12.094c-1.067,1.711-1.694,3.723-1.694,5.883
		c0,5.35,3.785,9.828,8.817,10.91v7.449H16.932c-0.025-0.03-0.053-0.058-0.078-0.088l-0.105,0.088H2.961V49.867
		C2.961,45.953,6.145,42.77,10.058,42.77z M63.529,62.742H74.2c-0.965,1.651-1.528,3.564-1.528,5.61
		c0,5.787,4.427,10.557,10.073,11.108v7.527H56.431V69.839C56.431,65.925,59.615,62.742,63.529,62.742z M83.836,77.542
		c-5.067,0-9.19-4.122-9.19-9.19c0-5.068,4.122-9.191,9.19-9.191c5.067,0,9.19,4.123,9.19,9.191
		C93.026,73.42,88.903,77.542,83.836,77.542z"/>
	<path fill="#221F20" d="M25.048,48.663l4.376,4.375c0.192,0.193,0.445,0.289,0.697,0.289c0.253,0,0.506-0.096,0.697-0.288
		l7.377-7.377c0.386-0.386,0.386-1.01,0-1.396c-0.386-0.386-1.01-0.386-1.396,0l-6.679,6.679l-3.678-3.678
		c-0.386-0.386-1.01-0.386-1.396,0C24.662,47.653,24.662,48.277,25.048,48.663z"/>
	<path fill="#221F20" d="M85.232,68.351l3.739-3.739c0.386-0.386,0.386-1.01,0-1.396c-0.386-0.386-1.01-0.386-1.396,0l-3.739,3.739
		l-3.739-3.739c-0.386-0.386-1.01-0.386-1.396,0s-0.386,1.01,0,1.396l3.739,3.739l-3.74,3.74c-0.386,0.386-0.386,1.01,0,1.396
		c0.192,0.193,0.445,0.289,0.697,0.289c0.253,0,0.506-0.096,0.698-0.289l3.74-3.74l3.74,3.74c0.192,0.193,0.445,0.289,0.697,0.289
		c0.252,0,0.505-0.096,0.698-0.289c0.386-0.386,0.386-1.01,0-1.396L85.232,68.351z"/>
</g>
</svg>
