<?xml version="1.0" encoding="utf-8"?>
<!-- Generator: Adobe Illustrator 17.0.1, SVG Export Plug-In . SVG Version: 6.00 Build 0)  -->
<!DOCTYPE svg PUBLIC "-//W3C//DTD SVG 1.1//EN" "http://www.w3.org/Graphics/SVG/1.1/DTD/svg11.dtd">
<svg version="1.1" id="图层_1" xmlns="http://www.w3.org/2000/svg" xmlns:xlink="http://www.w3.org/1999/xlink" x="0px" y="0px"
	 width="120px" height="120px" viewBox="-12.5 -12.5 120 120" enable-background="new -12.5 -12.5 120 120" xml:space="preserve">
<g id="图层_1_1_">
</g>
<g>
	<path fill="#221F20" d="M86.112,47.501C86.112,21.308,64.803,0,38.612,0c-0.836,0-1.513,0.677-1.513,1.514
		c0,0.837,0.679,1.515,1.515,1.515c24.52,0,44.469,19.949,44.469,44.47c0,7.814-2.055,15.497-5.941,22.221
		c-0.003,0.005-0.004,0.01-0.007,0.015C69.2,83.451,54.44,91.971,38.614,91.971c-9.986,0-19.418-3.233-27.281-9.348
		c-0.662-0.514-1.614-0.395-2.126,0.265c-0.514,0.662-0.395,1.613,0.265,2.126C17.871,91.547,27.948,95,38.612,95
		c16.912,0,32.68-9.105,41.156-23.763c0.005-0.009,0.008-0.02,0.013-0.029C83.922,64.031,86.112,55.834,86.112,47.501z"/>
	<path fill="#221F20" d="M38.902,14.35c18.181,0,32.973,14.791,32.973,32.973S57.083,80.297,38.902,80.297
		c-0.837,0-1.515,0.679-1.515,1.515c0,0.837,0.679,1.515,1.515,1.515c19.852,0,36.004-16.15,36.004-36.003
		c0-19.853-16.152-36.004-36.004-36.004c-0.837,0-1.515,0.678-1.515,1.515C37.387,13.672,38.066,14.35,38.902,14.35z"/>
	<path fill="#221F20" d="M38.614,24.961c12.623,0,22.892,10.269,22.892,22.892c0,3.678-0.844,7.187-2.509,10.431
		c-0.383,0.744-0.088,1.657,0.656,2.04c0.22,0.114,0.458,0.167,0.69,0.167c0.549,0,1.08-0.299,1.351-0.824
		c1.858-3.624,2.842-7.709,2.842-11.814c0-14.294-11.628-25.922-25.922-25.922c-0.837,0-1.515,0.678-1.515,1.515
		C37.099,24.283,37.778,24.961,38.614,24.961z"/>
</g>
</svg>
