<?xml version="1.0" encoding="utf-8"?>
<!-- Generator: Adobe Illustrator 17.0.1, SVG Export Plug-In . SVG Version: 6.00 Build 0)  -->
<!DOCTYPE svg PUBLIC "-//W3C//DTD SVG 1.1//EN" "http://www.w3.org/Graphics/SVG/1.1/DTD/svg11.dtd">
<svg version="1.1" id="图层_1" xmlns="http://www.w3.org/2000/svg" xmlns:xlink="http://www.w3.org/1999/xlink" x="0px" y="0px"
	 width="120px" height="120px" viewBox="-12.5 -12.5 120 120" enable-background="new -12.5 -12.5 120 120" xml:space="preserve">
<g id="图层_1_1_">
</g>
<g>
	<path fill="#040000" d="M92.952,91.511H10.52c-3.71,0-6.728-2.413-6.728-5.379V1.744C3.792,0.781,3.011,0,2.048,0
		C1.085,0,0.304,0.781,0.304,1.744v84.388C0.304,91.022,4.887,95,10.52,95h82.432c0.964,0,1.744-0.781,1.744-1.745
		C94.696,92.292,93.916,91.511,92.952,91.511z"/>
	<path fill="#040000" d="M13.741,52.347c0.762,0.585,1.858,0.439,2.445-0.324c0.067-0.087,6.793-8.723,15.15-8.723
		c0.052,0,0.105,0,0.157,0.001c4.78,0.062,9.307,2.985,13.455,8.688c4.367,6.005,9.219,9.045,14.434,9.045
		c0.207,0,0.414-0.005,0.62-0.015c10.562-0.487,18.317-13.322,18.642-13.868c0.493-0.828,0.221-1.898-0.607-2.391
		c-0.83-0.494-1.898-0.22-2.391,0.607c-0.07,0.118-7.099,11.766-15.804,12.167c-4.184,0.195-8.267-2.362-12.074-7.597
		c-4.835-6.649-10.303-10.055-16.251-10.125c-0.061-0.001-0.123-0.001-0.184-0.001c-10.095,0-17.603,9.679-17.919,10.093
		C12.83,50.669,12.976,51.762,13.741,52.347z"/>
	<path fill="#040000" d="M23.809,33.326c0.767,0.586,1.861,0.439,2.445-0.328c0.067-0.088,6.758-8.722,15.148-8.722
		c0.048,0,0.095,0,0.143,0c4.786,0.056,9.317,2.98,13.47,8.689c4.367,6.005,9.22,9.044,14.434,9.044c0.207,0,0.414-0.005,0.62-0.013
		c10.563-0.487,18.318-13.322,18.643-13.868c0.493-0.828,0.221-1.898-0.607-2.391c-0.829-0.493-1.898-0.22-2.391,0.607
		c-0.07,0.118-7.099,11.766-15.805,12.167c-4.192,0.194-8.267-2.362-12.074-7.597C53,24.265,47.532,20.859,41.584,20.789
		c-10.159-0.157-17.785,9.675-18.103,10.092C22.896,31.647,23.043,32.741,23.809,33.326z"/>
</g>
</svg>
