<?xml version="1.0" encoding="UTF-8"?>
<svg width="15px" height="16px" viewBox="0 0 15 16" version="1.1" xmlns="http://www.w3.org/2000/svg" xmlns:xlink="http://www.w3.org/1999/xlink">
    <!-- Generator: Sketch 48.2 (47327) - http://www.bohemiancoding.com/sketch -->
    <title>Shape</title>
    <desc>Created with Sketch.</desc>
    <defs></defs>
    <g id="尾页" stroke="none" stroke-width="1" fill="none" fill-rule="evenodd" transform="translate(-360.000000, -142.000000)" opacity="0.699999988">
        <g fill="#FFFFFF" fill-rule="nonzero" id="联系我们">
            <g transform="translate(360.000000, 59.000000)">
                <g id="邮箱" transform="translate(0.000000, 83.000000)">
                    <g id="服务2">
                        <path d="M13.9285714,6.496 L13.9285714,6.4 C13.9285714,2.86933333 11.0464286,0 7.5,0 C3.95357143,0 1.07142857,2.86933333 1.07142857,6.4 L1.07142857,6.496 C0.45,6.72 0,7.30666667 0,8 L0,10.1333333 C0,11.0186667 0.717857143,11.7333333 1.60714286,11.7333333 C2.49642857,11.7333333 3.21428571,11.0186667 3.21428571,10.1333333 L3.21428571,8 C3.21428571,7.30666667 2.76428571,6.72 2.14285714,6.496 L2.14285714,6.4 C2.14285714,3.456 4.54285714,1.06666667 7.5,1.06666667 C10.4571429,1.06666667 12.8571429,3.456 12.8571429,6.4 L12.8571429,6.496 C12.2357143,6.72 11.7857143,7.30666667 11.7857143,8 L11.7857143,10.1333333 C11.7857143,11.0186667 12.5035714,11.7333333 13.3928571,11.7333333 C14.2821429,11.7333333 15,11.0186667 15,10.1333333 L15,8 C15,7.30666667 14.55,6.72 13.9285714,6.496 Z M9.64285714,14.8906667 L9.64285714,14.4 C9.64285714,14.1013333 9.40714286,13.8666667 9.10714286,13.8666667 L6.96428571,13.8666667 C6.66428571,13.8666667 6.42857143,14.1013333 6.42857143,14.4 L6.42857143,15.4666667 C6.42857143,15.7653333 6.66428571,16 6.96428571,16 L9.10714286,16 C11.775,16 13.9285714,14.0906667 13.9285714,11.7333333 L13.3928571,11.7333333 L12.8571429,11.7333333 C12.8571429,13.344 11.4535714,14.6666667 9.64285714,14.8906667 Z" id="Shape"></path>
                    </g>
                </g>
            </g>
        </g>
    </g>
</svg>